G04 DipTrace 3.0.0.2*
G04 BottomSilk.gbr*
%MOIN*%
G04 #@! TF.FileFunction,Legend,Bot*
G04 #@! TF.Part,Single*
%ADD10C,0.01*%
%ADD12C,0.002992*%
%ADD24O,1.052493X0.479134*%
%ADD25O,1.210892X0.632808*%
%ADD120C,0.006176*%
%ADD122C,0.009264*%
%FSLAX26Y26*%
G04*
G70*
G90*
G75*
G01*
G04 BotSilk*
%LPD*%
X1107984Y1550899D2*
D10*
Y1499757D1*
X1390382Y2532560D2*
X1339240D1*
X963382Y2620060D2*
X912240D1*
X1007732Y3334918D2*
X1075724D1*
Y3165919D1*
X1007732D1*
Y3334918D1*
X1208732Y3336919D2*
X1275732D1*
Y3166910D1*
X1208732D1*
Y3336919D1*
D24*
X1141601Y945341D3*
D25*
X1144423Y2830577D3*
X1185039Y2348320D2*
D12*
X1235906D1*
X1178734Y2345328D2*
X1243631D1*
X1173497Y2342336D2*
X1188031D1*
X1208388D2*
X1250950D1*
X1169770Y2339344D2*
X1185039D1*
X1213119D2*
X1239023D1*
X1244431D2*
X1257913D1*
X1167252Y2336352D2*
X1190077D1*
X1217008D2*
X1242504D1*
X1249779D2*
X1264933D1*
X1165549Y2333360D2*
X1194851D1*
X1220093D2*
X1246595D1*
X1255370D2*
X1272130D1*
X1164297Y2330367D2*
X1167075D1*
X1188494D2*
X1198977D1*
X1222473D2*
X1230395D1*
X1235792D2*
X1251071D1*
X1261535D2*
X1278890D1*
X1163167Y2327375D2*
X1166970D1*
X1192228D2*
X1202555D1*
X1224389D2*
X1231242D1*
X1241381D2*
X1255387D1*
X1267903D2*
X1284799D1*
X1162223Y2324383D2*
X1166588D1*
X1195995D2*
X1205800D1*
X1226069D2*
X1232410D1*
X1246542D2*
X1259506D1*
X1273901D2*
X1290116D1*
X1161631Y2321391D2*
X1165872D1*
X1199511D2*
X1208807D1*
X1227634D2*
X1233756D1*
X1251366D2*
X1264151D1*
X1279393D2*
X1295411D1*
X1161327Y2318399D2*
X1165151D1*
X1202781D2*
X1211564D1*
X1229148D2*
X1235182D1*
X1256030D2*
X1269866D1*
X1284705D2*
X1301124D1*
X1161191Y2315407D2*
X1164860D1*
X1205900D2*
X1214224D1*
X1230558D2*
X1236560D1*
X1260799D2*
X1276066D1*
X1290108D2*
X1307136D1*
X1161124Y2312415D2*
X1164932D1*
X1208945D2*
X1217066D1*
X1231772D2*
X1237762D1*
X1266169D2*
X1281893D1*
X1295439D2*
X1312823D1*
X1160986Y2309423D2*
X1170125D1*
X1211946D2*
X1219924D1*
X1232826D2*
X1238824D1*
X1272372D2*
X1287236D1*
X1300472D2*
X1317726D1*
X1160491Y2306430D2*
X1176411D1*
X1214840D2*
X1222444D1*
X1233882D2*
X1239983D1*
X1278724D2*
X1291945D1*
X1305169D2*
X1321797D1*
X1159379Y2303438D2*
X1183111D1*
X1217453D2*
X1224813D1*
X1234807D2*
X1241281D1*
X1284211D2*
X1295668D1*
X1309543D2*
X1325307D1*
X1157789Y2300446D2*
X1163620D1*
X1171078D2*
X1190204D1*
X1219730D2*
X1227315D1*
X1235437D2*
X1242592D1*
X1288724D2*
X1298740D1*
X1313701D2*
X1328522D1*
X1156118Y2297454D2*
X1162762D1*
X1180723D2*
X1197786D1*
X1221943D2*
X1229921D1*
X1235906D2*
X1243765D1*
X1292779D2*
X1331603D1*
X1154602Y2294462D2*
X1161500D1*
X1189375D2*
X1205171D1*
X1224308D2*
X1244804D1*
X1296780D2*
X1334628D1*
X1153431Y2291470D2*
X1159879D1*
X1196597D2*
X1211451D1*
X1226630D2*
X1245888D1*
X1300656D2*
X1337632D1*
X1152730Y2288478D2*
X1158117D1*
X1202469D2*
X1216355D1*
X1228673D2*
X1247142D1*
X1304201D2*
X1314277D1*
X1319559D2*
X1340616D1*
X1152379Y2285486D2*
X1156724D1*
X1207365D2*
X1220282D1*
X1230462D2*
X1248639D1*
X1307381D2*
X1315414D1*
X1325032D2*
X1343505D1*
X1152225Y2282493D2*
X1155777D1*
X1211702D2*
X1223681D1*
X1232168D2*
X1252547D1*
X1310112D2*
X1317011D1*
X1329730D2*
X1346116D1*
X1152151Y2279501D2*
X1156193D1*
X1215864D2*
X1226840D1*
X1233969D2*
X1257883D1*
X1312337D2*
X1318696D1*
X1333667D2*
X1348391D1*
X1152010Y2276509D2*
X1158721D1*
X1219827D2*
X1229921D1*
X1235906D2*
X1264196D1*
X1314190D2*
X1320317D1*
X1337574D2*
X1350616D1*
X1151515Y2273517D2*
X1164330D1*
X1223522D2*
X1270724D1*
X1315846D2*
X1321882D1*
X1342160D2*
X1353075D1*
X1150403Y2270525D2*
X1171040D1*
X1227201D2*
X1251340D1*
X1255560D2*
X1276817D1*
X1317403D2*
X1323405D1*
X1347016D2*
X1355696D1*
X861890Y2267533D2*
X900787D1*
X1148813D2*
X1178184D1*
X1231059D2*
X1252187D1*
X1264661D2*
X1282343D1*
X1318925D2*
X1324916D1*
X1351316D2*
X1358274D1*
X851670Y2264541D2*
X912493D1*
X1147142D2*
X1155592D1*
X1164420D2*
X1185024D1*
X1234979D2*
X1253355D1*
X1271932D2*
X1287581D1*
X1320427D2*
X1326414D1*
X1354919D2*
X1360773D1*
X842451Y2261549D2*
X923355D1*
X1145614D2*
X1153447D1*
X1173520D2*
X1190926D1*
X1238896D2*
X1254701D1*
X1278109D2*
X1292714D1*
X1321917D2*
X1327902D1*
X1357862D2*
X1363301D1*
X834753Y2258556D2*
X850521D1*
X885713D2*
X894341D1*
X915508D2*
X932512D1*
X1144338D2*
X1151623D1*
X1181570D2*
X1195830D1*
X1242890D2*
X1256139D1*
X1283887D2*
X1297724D1*
X1323307D2*
X1329303D1*
X1360265D2*
X1365709D1*
X828781Y2255564D2*
X842904D1*
X888321D2*
X896579D1*
X923601D2*
X939799D1*
X1143255D2*
X1149988D1*
X1187990D2*
X1200520D1*
X1246767D2*
X1257633D1*
X1289391D2*
X1302814D1*
X1324421D2*
X1330514D1*
X1362438D2*
X1367795D1*
X824224Y2252572D2*
X836416D1*
X890596D2*
X898692D1*
X930645D2*
X945987D1*
X1142188D2*
X1148528D1*
X1193245D2*
X1205690D1*
X1250229D2*
X1259322D1*
X1294688D2*
X1308180D1*
X1325144D2*
X1331567D1*
X1364535D2*
X1369698D1*
X820609Y2249580D2*
X831160D1*
X892810D2*
X900778D1*
X936848D2*
X951841D1*
X1141267D2*
X1147294D1*
X1198161D2*
X1211067D1*
X1253126D2*
X1261494D1*
X1300140D2*
X1313701D1*
X1325669D2*
X1332633D1*
X1366435D2*
X1371708D1*
X817704Y2246588D2*
X826959D1*
X895175D2*
X902764D1*
X942577D2*
X957638D1*
X978583D2*
X999528D1*
X1140682D2*
X1146233D1*
X1202985D2*
X1215819D1*
X1255454D2*
X1264253D1*
X1305843D2*
X1333679D1*
X1368142D2*
X1373978D1*
X815415Y2243596D2*
X823501D1*
X897508D2*
X904757D1*
X947615D2*
X1011732D1*
X1140381D2*
X1145175D1*
X1207413D2*
X1219538D1*
X1257563D2*
X1267351D1*
X1311413D2*
X1334865D1*
X1369739D2*
X1376260D1*
X813539Y2240604D2*
X820659D1*
X899645D2*
X906781D1*
X951613D2*
X1023583D1*
X1140246D2*
X1144268D1*
X1211360D2*
X1222457D1*
X1260089D2*
X1270769D1*
X1316941D2*
X1336774D1*
X1371273D2*
X1378288D1*
X811887Y2237612D2*
X818405D1*
X901712D2*
X908654D1*
X954722D2*
X1036202D1*
X1140190D2*
X1143791D1*
X1215155D2*
X1225298D1*
X1263396D2*
X1274604D1*
X1322702D2*
X1339713D1*
X1372788D2*
X1380062D1*
X810420Y2234619D2*
X816643D1*
X903781D2*
X910363D1*
X957290D2*
X969720D1*
X1020461D2*
X1049029D1*
X1140181D2*
X1143883D1*
X1219049D2*
X1228590D1*
X1267105D2*
X1278673D1*
X1328049D2*
X1343432D1*
X1374287D2*
X1381689D1*
X809185Y2231627D2*
X815375D1*
X905760D2*
X912050D1*
X959484D2*
X970104D1*
X1023348D2*
X1060587D1*
X1140278D2*
X1144570D1*
X1222883D2*
X1232212D1*
X1270858D2*
X1282721D1*
X1332528D2*
X1347578D1*
X1375788D2*
X1383235D1*
X808123Y2228635D2*
X814638D1*
X907750D2*
X913872D1*
X961559D2*
X970833D1*
X1025947D2*
X1070368D1*
X1140657D2*
X1145674D1*
X1226425D2*
X1235993D1*
X1274912D2*
X1286602D1*
X1336943D2*
X1351920D1*
X1377282D2*
X1384754D1*
X807065Y2225643D2*
X814276D1*
X909786D2*
X915814D1*
X963615D2*
X971705D1*
X1028117D2*
X1034959D1*
X1056252D2*
X1079127D1*
X1141384D2*
X1147020D1*
X1229717D2*
X1239931D1*
X1279006D2*
X1290246D1*
X1342058D2*
X1356261D1*
X1378781D2*
X1386255D1*
X806147Y2222651D2*
X814117D1*
X911752D2*
X917652D1*
X965499D2*
X972620D1*
X1029949D2*
X1037092D1*
X1064705D2*
X1088374D1*
X1142256D2*
X1148684D1*
X1232945D2*
X1243798D1*
X1282465D2*
X1293431D1*
X1347647D2*
X1360445D1*
X1380274D2*
X1387756D1*
X805575Y2219659D2*
X814053D1*
X913737D2*
X919336D1*
X967200D2*
X973719D1*
X1031598D2*
X1038823D1*
X1072244D2*
X1098373D1*
X1143160D2*
X1151137D1*
X1236372D2*
X1247358D1*
X1285201D2*
X1296224D1*
X1352792D2*
X1364483D1*
X1381773D2*
X1389250D1*
X805380Y2216667D2*
X814029D1*
X915759D2*
X920924D1*
X968783D2*
X974995D1*
X1033152D2*
X1040182D1*
X1078347D2*
X1107950D1*
X1144142D2*
X1154939D1*
X1240089D2*
X1250645D1*
X1287639D2*
X1298889D1*
X1356704D2*
X1368529D1*
X1383276D2*
X1390749D1*
X805626Y2213675D2*
X814032D1*
X917631D2*
X922456D1*
X970224D2*
X976297D1*
X1034674D2*
X1041307D1*
X1082783D2*
X1116028D1*
X1144931D2*
X1159906D1*
X1243763D2*
X1253771D1*
X1290198D2*
X1301357D1*
X1359646D2*
X1372445D1*
X1384852D2*
X1392243D1*
X806299Y2210682D2*
X814134D1*
X919328D2*
X923969D1*
X971450D2*
X977467D1*
X1036176D2*
X1042490D1*
X1085836D2*
X1092758D1*
X1103664D2*
X1122339D1*
X1145365D2*
X1165302D1*
X1247003D2*
X1256818D1*
X1292947D2*
X1303561D1*
X1360760D2*
X1376067D1*
X1386598D2*
X1393741D1*
X807150Y2207690D2*
X814514D1*
X920922D2*
X925468D1*
X972520D2*
X978516D1*
X1037677D2*
X1043797D1*
X1088045D2*
X1093605D1*
X1111386D2*
X1127484D1*
X1144739D2*
X1170757D1*
X1249938D2*
X1259831D1*
X1295825D2*
X1305743D1*
X1361691D2*
X1379528D1*
X1388504D2*
X1395235D1*
X808057Y2204698D2*
X815242D1*
X922455D2*
X926969D1*
X973683D2*
X979671D1*
X1039172D2*
X1045110D1*
X1089748D2*
X1094761D1*
X1118256D2*
X1132309D1*
X1143942D2*
X1149146D1*
X1161451D2*
X1176285D1*
X1253007D2*
X1262831D1*
X1298769D2*
X1308107D1*
X1362754D2*
X1396733D1*
X809154Y2201706D2*
X816126D1*
X923969D2*
X928463D1*
X974993D2*
X980967D1*
X1040659D2*
X1046284D1*
X1091077D2*
X1096013D1*
X1124228D2*
X1137165D1*
X1143150D2*
X1149251D1*
X1167782D2*
X1181697D1*
X1256297D2*
X1265825D1*
X1301743D2*
X1310541D1*
X1363999D2*
X1370563D1*
X1376896D2*
X1398227D1*
X810440Y2198714D2*
X817135D1*
X925468D2*
X929950D1*
X976398D2*
X982278D1*
X1042059D2*
X1047335D1*
X1092174D2*
X1097163D1*
X1129196D2*
X1149644D1*
X1173718D2*
X1186865D1*
X1259554D2*
X1268818D1*
X1304728D2*
X1313069D1*
X1365274D2*
X1370668D1*
X1380351D2*
X1399726D1*
X811836Y2195722D2*
X818522D1*
X926969D2*
X931350D1*
X977847D2*
X983450D1*
X1043270D2*
X1048490D1*
X1093244D2*
X1098194D1*
X1133177D2*
X1150466D1*
X1179078D2*
X1191928D1*
X1262704D2*
X1271811D1*
X1307718D2*
X1315957D1*
X1366343D2*
X1371049D1*
X1383782D2*
X1401219D1*
X813282Y2192730D2*
X820238D1*
X928463D2*
X932561D1*
X979233D2*
X984500D1*
X1044323D2*
X1049786D1*
X1094178D2*
X1099240D1*
X1136295D2*
X1151637D1*
X1184090D2*
X1196889D1*
X1265773D2*
X1274803D1*
X1310697D2*
X1319198D1*
X1367102D2*
X1371766D1*
X1387236D2*
X1402718D1*
X814666Y2189738D2*
X821972D1*
X929950D2*
X933614D1*
X980438D2*
X985655D1*
X1045389D2*
X1051096D1*
X1094868D2*
X1100166D1*
X1138676D2*
X1153098D1*
X1189040D2*
X1201481D1*
X1268798D2*
X1277795D1*
X1313561D2*
X1322637D1*
X1367814D2*
X1372545D1*
X1390646D2*
X1404211D1*
X815883Y2186745D2*
X823613D1*
X931339D2*
X934681D1*
X981489D2*
X986963D1*
X1046412D2*
X1052269D1*
X1095550D2*
X1100853D1*
X1140491D2*
X1155022D1*
X1193941D2*
X1205748D1*
X1271804D2*
X1280799D1*
X1315938D2*
X1326540D1*
X1368690D2*
X1373172D1*
X1393629D2*
X1405698D1*
X817039Y2183753D2*
X825279D1*
X932456D2*
X935703D1*
X982555D2*
X988367D1*
X1047387D2*
X1053308D1*
X1096414D2*
X1101535D1*
X1141779D2*
X1157591D1*
X1198506D2*
X1209997D1*
X1274801D2*
X1283896D1*
X1317716D2*
X1331039D1*
X1369623D2*
X1373842D1*
X1396095D2*
X1407098D1*
X818486Y2180761D2*
X827088D1*
X933233D2*
X936679D1*
X983577D2*
X989828D1*
X1048510D2*
X1054369D1*
X1097342D2*
X1102386D1*
X1142523D2*
X1160565D1*
X1202750D2*
X1214328D1*
X1277783D2*
X1287272D1*
X1317545D2*
X1335597D1*
X1370549D2*
X1374791D1*
X1398310D2*
X1408321D1*
X820225Y2177769D2*
X832308D1*
X933952D2*
X937801D1*
X984553D2*
X991306D1*
X1049805D2*
X1055389D1*
X1098266D2*
X1103221D1*
X1142888D2*
X1145554D1*
X1155118D2*
X1163356D1*
X1206890D2*
X1218635D1*
X1280670D2*
X1291006D1*
X1316212D2*
X1339646D1*
X1371551D2*
X1375992D1*
X1400427D2*
X1409479D1*
X821968Y2174777D2*
X840540D1*
X934819D2*
X939085D1*
X985675D2*
X992799D1*
X1051204D2*
X1056364D1*
X1099268D2*
X1103869D1*
X1143048D2*
X1147304D1*
X1158110D2*
X1165758D1*
X1210838D2*
X1222700D1*
X1283305D2*
X1294889D1*
X1314897D2*
X1343198D1*
X1372460D2*
X1377262D1*
X1402335D2*
X1410927D1*
X823612Y2171785D2*
X850217D1*
X935647D2*
X940390D1*
X986971D2*
X994291D1*
X1052651D2*
X1057486D1*
X1100164D2*
X1104535D1*
X1143112D2*
X1148306D1*
X1161102D2*
X1168037D1*
X1214440D2*
X1226352D1*
X1285802D2*
X1298740D1*
X1313701D2*
X1319811D1*
X1337050D2*
X1346445D1*
X1373140D2*
X1378420D1*
X1404046D2*
X1412666D1*
X825173Y2168793D2*
X858813D1*
X936204D2*
X941561D1*
X988370D2*
X995789D1*
X1054036D2*
X1058782D1*
X1100740D2*
X1105382D1*
X1143136D2*
X1148792D1*
X1164083D2*
X1170431D1*
X1217843D2*
X1229677D1*
X1288895D2*
X1317319D1*
X1341792D2*
X1349543D1*
X1373819D2*
X1379452D1*
X1405632D2*
X1414397D1*
X826606Y2165801D2*
X841533D1*
X845639D2*
X865513D1*
X936595D2*
X942599D1*
X989828D2*
X997282D1*
X1055241D2*
X1060181D1*
X1101049D2*
X1106225D1*
X1143145D2*
X1149002D1*
X1166970D2*
X1172777D1*
X1221354D2*
X1232818D1*
X1293168D2*
X1315554D1*
X1345786D2*
X1352576D1*
X1374682D2*
X1380500D1*
X1407073D2*
X1415948D1*
X827829Y2162808D2*
X839783D1*
X854728D2*
X870415D1*
X937106D2*
X943648D1*
X991307D2*
X998781D1*
X1056292D2*
X1061639D1*
X1101289D2*
X1106990D1*
X1143148D2*
X1149086D1*
X1169581D2*
X1174930D1*
X1225119D2*
X1235882D1*
X1298029D2*
X1314374D1*
X1349264D2*
X1355583D1*
X1375609D2*
X1381426D1*
X1408300D2*
X1417245D1*
X828887Y2159816D2*
X838781D1*
X861882D2*
X874333D1*
X937888D2*
X944564D1*
X992799D2*
X1000274D1*
X1057358D2*
X1063118D1*
X1101725D2*
X1108154D1*
X1143161D2*
X1149129D1*
X1171844D2*
X1177104D1*
X1228899D2*
X1238990D1*
X1302323D2*
X1314341D1*
X1352455D2*
X1358580D1*
X1376534D2*
X1382113D1*
X1409371D2*
X1418435D1*
X829955Y2156824D2*
X838307D1*
X867573D2*
X878025D1*
X938780D2*
X945157D1*
X994291D2*
X1001773D1*
X1058380D2*
X1064599D1*
X1102463D2*
X1110215D1*
X1143266D2*
X1149245D1*
X1173964D2*
X1179554D1*
X1232421D2*
X1242267D1*
X1305611D2*
X1315592D1*
X1355425D2*
X1361574D1*
X1377535D2*
X1382795D1*
X1410533D2*
X1419896D1*
X830978Y2153832D2*
X838202D1*
X872241D2*
X881381D1*
X939691D2*
X945563D1*
X995789D2*
X1003267D1*
X1059356D2*
X1065997D1*
X1103238D2*
X1113018D1*
X1143648D2*
X1149630D1*
X1176053D2*
X1182250D1*
X1235693D2*
X1245597D1*
X1308254D2*
X1317552D1*
X1358068D2*
X1364567D1*
X1378432D2*
X1383646D1*
X1411832D2*
X1421640D1*
X831943Y2150840D2*
X838499D1*
X876121D2*
X884151D1*
X940699D2*
X946079D1*
X997294D2*
X1004765D1*
X1060478D2*
X1067207D1*
X1103762D2*
X1116064D1*
X1144364D2*
X1150348D1*
X1178039D2*
X1185019D1*
X1238813D2*
X1248652D1*
X1310673D2*
X1320040D1*
X1360354D2*
X1367559D1*
X1379010D2*
X1384469D1*
X1413132D2*
X1423384D1*
X832960Y2147848D2*
X839185D1*
X879432D2*
X886626D1*
X941700D2*
X946851D1*
X998886D2*
X1006259D1*
X1061774D2*
X1068272D1*
X1104041D2*
X1119130D1*
X1145132D2*
X1151116D1*
X1180032D2*
X1187670D1*
X1241858D2*
X1251516D1*
X1313142D2*
X1322814D1*
X1362583D2*
X1370551D1*
X1379324D2*
X1385012D1*
X1414199D2*
X1425029D1*
X833874Y2144856D2*
X839952D1*
X882224D2*
X889111D1*
X942656D2*
X947640D1*
X1000667D2*
X1007757D1*
X1063173D2*
X1069443D1*
X1104168D2*
X1122180D1*
X1145653D2*
X1151638D1*
X1182057D2*
X1190201D1*
X1244871D2*
X1254786D1*
X1315979D2*
X1325719D1*
X1365043D2*
X1373543D1*
X1379528D2*
X1385297D1*
X1414857D2*
X1426602D1*
X834556Y2141864D2*
X840575D1*
X884571D2*
X891494D1*
X943670D2*
X948169D1*
X1002595D2*
X1009251D1*
X1064632D2*
X1070847D1*
X1104221D2*
X1125311D1*
X1145943D2*
X1151915D1*
X1183930D2*
X1192754D1*
X1247870D2*
X1259064D1*
X1319083D2*
X1328691D1*
X1367653D2*
X1385427D1*
X1415201D2*
X1428128D1*
X835236Y2138871D2*
X841245D1*
X886823D2*
X893662D1*
X944583D2*
X948449D1*
X1004427D2*
X1010749D1*
X1066110D2*
X1072528D1*
X1104252D2*
X1110236D1*
X1119338D2*
X1128809D1*
X1146183D2*
X1152042D1*
X1185627D2*
X1195284D1*
X1250865D2*
X1264832D1*
X1322028D2*
X1331765D1*
X1370137D2*
X1385480D1*
X1415454D2*
X1429639D1*
X836088Y2135879D2*
X842193D1*
X889291D2*
X895841D1*
X945265D2*
X948589D1*
X1006109D2*
X1012243D1*
X1067591D2*
X1074324D1*
X1104365D2*
X1110236D1*
X1122807D2*
X1133009D1*
X1146698D2*
X1152095D1*
X1187209D2*
X1197846D1*
X1253846D2*
X1272122D1*
X1324829D2*
X1335029D1*
X1372348D2*
X1385512D1*
X1415896D2*
X1421417D1*
X1427978D2*
X1431150D1*
X836922Y2132887D2*
X843405D1*
X891903D2*
X898294D1*
X945945D2*
X948758D1*
X1007696D2*
X1013741D1*
X1068989D2*
X1075865D1*
X1104749D2*
X1110236D1*
X1126804D2*
X1137916D1*
X1147742D2*
X1152115D1*
X1188649D2*
X1200743D1*
X1256745D2*
X1280262D1*
X1327843D2*
X1338355D1*
X1374448D2*
X1385636D1*
X1416635D2*
X1421417D1*
X1429103D2*
X1432743D1*
X837570Y2129895D2*
X844769D1*
X894400D2*
X901002D1*
X946796D2*
X949277D1*
X1009239D2*
X1015235D1*
X1070211D2*
X1077206D1*
X1105466D2*
X1110248D1*
X1131004D2*
X1143150D1*
X1149134D2*
X1152122D1*
X1189875D2*
X1203867D1*
X1259461D2*
X1288560D1*
X1331112D2*
X1341409D1*
X1376529D2*
X1386126D1*
X1417411D2*
X1421417D1*
X1430607D2*
X1434525D1*
X838248Y2126903D2*
X846214D1*
X896729D2*
X903853D1*
X947619D2*
X950499D1*
X1010846D2*
X1016733D1*
X1071380D2*
X1078741D1*
X1106234D2*
X1110353D1*
X1134950D2*
X1152125D1*
X1190946D2*
X1206815D1*
X1262106D2*
X1297055D1*
X1334361D2*
X1344249D1*
X1378513D2*
X1387236D1*
X1417935D2*
X1421417D1*
X1432015D2*
X1436453D1*
X839199Y2123911D2*
X847687D1*
X899303D2*
X906698D1*
X948161D2*
X952495D1*
X1012621D2*
X1018227D1*
X1072923D2*
X1080529D1*
X1106756D2*
X1110734D1*
X1138692D2*
X1152126D1*
X1192108D2*
X1209522D1*
X1264943D2*
X1274803D1*
X1284921D2*
X1305654D1*
X1337508D2*
X1347273D1*
X1380505D2*
X1388825D1*
X1418202D2*
X1421417D1*
X1433302D2*
X1438285D1*
X840413Y2120919D2*
X849178D1*
X902377D2*
X909394D1*
X948447D2*
X955117D1*
X1014445D2*
X1019726D1*
X1074992D2*
X1082380D1*
X1107033D2*
X1111451D1*
X1142340D2*
X1152126D1*
X1167087D2*
X1176063D1*
X1193409D2*
X1212255D1*
X1267799D2*
X1277795D1*
X1293039D2*
X1313530D1*
X1340577D2*
X1350450D1*
X1382541D2*
X1390507D1*
X1418224D2*
X1421417D1*
X1434804D2*
X1439967D1*
X841777Y2117927D2*
X850681D1*
X905487D2*
X912043D1*
X948576D2*
X958397D1*
X1015885D2*
X1021231D1*
X1038425D2*
X1084317D1*
X1107160D2*
X1112218D1*
X1145792D2*
X1152126D1*
X1165705D2*
X1180997D1*
X1194736D2*
X1215079D1*
X1270319D2*
X1280776D1*
X1301520D2*
X1320105D1*
X1343602D2*
X1353418D1*
X1384519D2*
X1392140D1*
X1417896D2*
X1421417D1*
X1436479D2*
X1441555D1*
X843222Y2114934D2*
X852272D1*
X908262D2*
X914970D1*
X948641D2*
X962508D1*
X1016745D2*
X1022823D1*
X1039025D2*
X1086332D1*
X1107213D2*
X1112740D1*
X1149134D2*
X1152126D1*
X1164846D2*
X1185964D1*
X1195944D2*
X1200474D1*
X1209467D2*
X1217889D1*
X1272694D2*
X1283674D1*
X1309001D2*
X1325645D1*
X1346607D2*
X1356133D1*
X1386598D2*
X1393810D1*
X1417199D2*
X1421417D1*
X1437946D2*
X1443086D1*
X844695Y2111942D2*
X854053D1*
X911093D2*
X918114D1*
X948767D2*
X967334D1*
X1017173D2*
X1024593D1*
X1040029D2*
X1088303D1*
X1107233D2*
X1113018D1*
X1122205D2*
X1128189D1*
X1140157D2*
X1152126D1*
X1164411D2*
X1191024D1*
X1197008D2*
X1201321D1*
X1211595D2*
X1220479D1*
X1275239D2*
X1286390D1*
X1315195D2*
X1330605D1*
X1349604D2*
X1358868D1*
X1388908D2*
X1395714D1*
X1416439D2*
X1421406D1*
X1439166D2*
X1444599D1*
X846186Y2108950D2*
X855981D1*
X914386D2*
X921074D1*
X949156D2*
X972332D1*
X1017361D2*
X1026426D1*
X1042658D2*
X1090391D1*
X1107252D2*
X1113144D1*
X1122667D2*
X1152126D1*
X1164242D2*
X1202489D1*
X1214580D2*
X1222893D1*
X1277986D2*
X1289047D1*
X1320975D2*
X1335292D1*
X1352598D2*
X1361693D1*
X1391209D2*
X1397941D1*
X1415920D2*
X1421300D1*
X1440402D2*
X1446098D1*
X847689Y2105958D2*
X857813D1*
X917913D2*
X923881D1*
X949875D2*
X954646D1*
X963160D2*
X977004D1*
X1017436D2*
X1027982D1*
X1045946D2*
X1077787D1*
X1086299D2*
X1092805D1*
X1107360D2*
X1113197D1*
X1123409D2*
X1152126D1*
X1164392D2*
X1203835D1*
X1217432D2*
X1225951D1*
X1280876D2*
X1291989D1*
X1326843D2*
X1339960D1*
X1355590D2*
X1364503D1*
X1393244D2*
X1400216D1*
X1415643D2*
X1420919D1*
X1441733D2*
X1447599D1*
X849292Y2102966D2*
X859494D1*
X921318D2*
X926897D1*
X950643D2*
X954646D1*
X968402D2*
X981407D1*
X1017466D2*
X1029352D1*
X1049518D2*
X1072570D1*
X1086299D2*
X1095487D1*
X1107742D2*
X1113217D1*
X1124195D2*
X1152138D1*
X1164897D2*
X1205273D1*
X1219385D2*
X1231000D1*
X1283925D2*
X1295226D1*
X1332502D2*
X1344865D1*
X1358583D2*
X1367079D1*
X1395031D2*
X1402318D1*
X1415517D2*
X1420203D1*
X1443057D2*
X1449093D1*
X851166Y2099974D2*
X861082D1*
X924542D2*
X930167D1*
X951153D2*
X954646D1*
X973600D2*
X985966D1*
X1008504D2*
X1031088D1*
X1052995D2*
X1067484D1*
X1086299D2*
X1098230D1*
X1108459D2*
X1113236D1*
X1124836D2*
X1152243D1*
X1167224D2*
X1206755D1*
X1220726D2*
X1238725D1*
X1287280D2*
X1298463D1*
X1337641D2*
X1350184D1*
X1361575D2*
X1369316D1*
X1396736D2*
X1404357D1*
X1415463D2*
X1419435D1*
X1444235D2*
X1450580D1*
X853381Y2096982D2*
X862625D1*
X927643D2*
X933416D1*
X951317D2*
X954646D1*
X978943D2*
X990746D1*
X1008990D2*
X1033522D1*
X1056378D2*
X1062362D1*
X1086299D2*
X1100705D1*
X1109234D2*
X1113344D1*
X1125612D2*
X1152624D1*
X1170079D2*
X1176063D1*
X1179297D2*
X1208362D1*
X1221888D2*
X1248327D1*
X1290982D2*
X1301605D1*
X1342324D2*
X1355816D1*
X1364567D2*
X1371413D1*
X1398536D2*
X1406457D1*
X1415433D2*
X1418913D1*
X1445287D2*
X1451980D1*
X855642Y2093990D2*
X864244D1*
X930681D2*
X936564D1*
X950982D2*
X954657D1*
X984152D2*
X995500D1*
X1009954D2*
X1036320D1*
X1077323D2*
X1102652D1*
X1109801D2*
X1113726D1*
X1126943D2*
X1153341D1*
X1192000D2*
X1210360D1*
X1222947D2*
X1258363D1*
X1294739D2*
X1304684D1*
X1346918D2*
X1361575D1*
X1367559D2*
X1373543D1*
X1379528D2*
X1382520D1*
X1400472D2*
X1418648D1*
X1446442D2*
X1453191D1*
X857663Y2090997D2*
X866124D1*
X933691D2*
X939636D1*
X950013D2*
X954763D1*
X988805D2*
X1000144D1*
X1011655D2*
X1038682D1*
X1075610D2*
X1104252D1*
X1110236D2*
X1114443D1*
X1128911D2*
X1140157D1*
X1145592D2*
X1154116D1*
X1202992D2*
X1213139D1*
X1224002D2*
X1233027D1*
X1242682D2*
X1268089D1*
X1298252D2*
X1307813D1*
X1351749D2*
X1418626D1*
X1447751D2*
X1454256D1*
X859445Y2088005D2*
X868341D1*
X936689D2*
X942677D1*
X948661D2*
X955144D1*
X992821D2*
X1004700D1*
X1014519D2*
X1040418D1*
X1073210D2*
X1115222D1*
X1131181D2*
D3*
X1147534D2*
X1154683D1*
X1196682D2*
X1216798D1*
X1225343D2*
X1233423D1*
X1253423D2*
X1277360D1*
X1301522D2*
X1311199D1*
X1356452D2*
X1364567D1*
X1370551D2*
X1418967D1*
X1449154D2*
X1455416D1*
X861176Y2085013D2*
X870626D1*
X939684D2*
X955872D1*
X996535D2*
X1009125D1*
X1018966D2*
X1040960D1*
X1070433D2*
X1115849D1*
X1149134D2*
X1155118D1*
X1190057D2*
X1220945D1*
X1226929D2*
X1234245D1*
X1264722D2*
X1286061D1*
X1304641D2*
X1314913D1*
X1360558D2*
X1419780D1*
X1450603D2*
X1456726D1*
X863115Y2082021D2*
X872845D1*
X942677D2*
X956768D1*
X991243D2*
X996535D1*
X1002520D2*
X1013341D1*
X1024593D2*
X1041341D1*
X1068063D2*
X1116508D1*
X1184167D2*
X1235405D1*
X1274951D2*
X1294094D1*
X1307687D2*
X1318674D1*
X1364119D2*
X1379065D1*
X1404818D2*
X1421038D1*
X1451989D2*
X1458130D1*
X865456Y2079029D2*
X875285D1*
X945681D2*
X957893D1*
X987286D2*
X999528D1*
X1008504D2*
X1017391D1*
X1029951D2*
X1041844D1*
X1066498D2*
X1117363D1*
X1152126D2*
D3*
X1167087D2*
X1170079D1*
X1179055D2*
X1223937D1*
X1229921D2*
X1236761D1*
X1283283D2*
X1301732D1*
X1310709D2*
X1322189D1*
X1367258D2*
X1381304D1*
X1410568D2*
X1422760D1*
X1453194D2*
X1459580D1*
X868105Y2076037D2*
X878068D1*
X948767D2*
X959767D1*
X984316D2*
X1021440D1*
X1033933D2*
X1042633D1*
X1056378D2*
X1118300D1*
X1152249D2*
X1155118D1*
X1167224D2*
X1238292D1*
X1290699D2*
X1325458D1*
X1369861D2*
X1383416D1*
X1414778D2*
X1424914D1*
X1454245D2*
X1460965D1*
X870845Y2073045D2*
X880825D1*
X952047D2*
X962593D1*
X981959D2*
X1025350D1*
X1036711D2*
X1043541D1*
X1056378D2*
X1101020D1*
X1110122D2*
X1119328D1*
X1152713D2*
X1155694D1*
X1167542D2*
X1240050D1*
X1298145D2*
X1328577D1*
X1371690D2*
X1385503D1*
X1418113D2*
X1427163D1*
X1455311D2*
X1462170D1*
X873395Y2070052D2*
X883442D1*
X955479D2*
X965923D1*
X980294D2*
X1028927D1*
X1038708D2*
X1044409D1*
X1056378D2*
X1100488D1*
X1112731D2*
X1120723D1*
X1153737D2*
X1156831D1*
X1169354D2*
X1216135D1*
X1223475D2*
X1241981D1*
X1305372D2*
X1331634D1*
X1372784D2*
X1387488D1*
X1420866D2*
X1429280D1*
X1456333D2*
X1463233D1*
X875648Y2067060D2*
X886136D1*
X958927D2*
X969285D1*
X979287D2*
X1013912D1*
X1020472D2*
X1032236D1*
X1040199D2*
X1098406D1*
X1115006D2*
X1122453D1*
X1155118D2*
X1158429D1*
X1172108D2*
X1212085D1*
X1225725D2*
X1243903D1*
X1312014D2*
X1334751D1*
X1379528D2*
X1389481D1*
X1423182D2*
X1431429D1*
X1457309D2*
X1464393D1*
X877865Y2064068D2*
X888957D1*
X962600D2*
X972598D1*
X978583D2*
X1012786D1*
X1023465D2*
X1035433D1*
X1041417D2*
X1095974D1*
X1117219D2*
X1124293D1*
X1149128D2*
X1160125D1*
X1175399D2*
X1210341D1*
X1227931D2*
X1245872D1*
X1318258D2*
X1338156D1*
X1381138D2*
X1391518D1*
X1425405D2*
X1433770D1*
X1458431D2*
X1465691D1*
X880332Y2061076D2*
X891867D1*
X966866D2*
X1011294D1*
X1026457D2*
X1047179D1*
X1055791D2*
X1093649D1*
X1119572D2*
X1126320D1*
X1144912D2*
X1161863D1*
X1178743D2*
X1200000D1*
X1230294D2*
X1247900D1*
X1323815D2*
X1342077D1*
X1383271D2*
X1393495D1*
X1427773D2*
X1436095D1*
X1459726D2*
X1467002D1*
X883046Y2058084D2*
X894836D1*
X971558D2*
X1009993D1*
X1029449D2*
X1050301D1*
X1063535D2*
X1091361D1*
X1121789D2*
X1128666D1*
X1142185D2*
X1163915D1*
X1182047D2*
X1200000D1*
X1232615D2*
X1249875D1*
X1328132D2*
X1346612D1*
X1385817D2*
X1395574D1*
X1430106D2*
X1438229D1*
X1461126D2*
X1468175D1*
X885911Y2055092D2*
X897908D1*
X975918D2*
X984567D1*
X990551D2*
X1009132D1*
X1028271D2*
X1054334D1*
X1070590D2*
X1088889D1*
X1123439D2*
X1131181D1*
X1140157D2*
X1166536D1*
X1234658D2*
X1251965D1*
X1322677D2*
X1325669D1*
X1331654D2*
D3*
X1337638D2*
X1351676D1*
X1388511D2*
X1397884D1*
X1432255D2*
X1440295D1*
X1462584D2*
X1469225D1*
X888850Y2052100D2*
X901183D1*
X979437D2*
X990551D1*
X996535D2*
D3*
X1005512D2*
X1008504D1*
X1028648D2*
X1059054D1*
X1077323D2*
X1086299D1*
X1124400D2*
X1169518D1*
X1236437D2*
X1254368D1*
X1309208D2*
X1356978D1*
X1391044D2*
X1400197D1*
X1434416D2*
X1442364D1*
X1464063D2*
X1470379D1*
X891822Y2049108D2*
X904614D1*
X982637D2*
X993543D1*
X1029449D2*
X1063602D1*
X1124891D2*
X1172200D1*
X1238065D2*
X1256944D1*
X1296877D2*
X1362344D1*
X1393290D2*
X1402326D1*
X1436761D2*
X1444343D1*
X1465544D2*
X1471676D1*
X894807Y2046115D2*
X908049D1*
X986105D2*
X996547D1*
X1025191D2*
X1067743D1*
X1116220D2*
X1174411D1*
X1239613D2*
X1259304D1*
X1287918D2*
X1367821D1*
X1395504D2*
X1404402D1*
X1439087D2*
X1446333D1*
X1466942D2*
X1472986D1*
X897797Y2043123D2*
X911617D1*
X989803D2*
X999653D1*
X1022227D2*
X1071871D1*
X1114268D2*
X1175309D1*
X1241132D2*
X1248000D1*
X1253396D2*
X1261037D1*
X1281625D2*
X1373198D1*
X1397959D2*
X1406564D1*
X1441233D2*
X1448357D1*
X1468164D2*
X1474159D1*
X900788Y2040131D2*
X915514D1*
X993614D2*
X1003108D1*
X1020178D2*
X1076127D1*
X1111836D2*
X1175026D1*
X1242633D2*
X1248500D1*
X1255646D2*
X1262094D1*
X1278873D2*
X1378250D1*
X1400567D2*
X1408830D1*
X1443393D2*
X1450229D1*
X1469322D2*
X1475209D1*
X903780Y2037139D2*
X919605D1*
X997563D2*
X1007123D1*
X1018687D2*
X1080022D1*
X1109426D2*
X1172836D1*
X1244134D2*
X1249715D1*
X1257864D2*
X1268819D1*
X1281254D2*
X1382928D1*
X1403050D2*
X1411261D1*
X1445725D2*
X1451927D1*
X1470758D2*
X1476364D1*
X906772Y2034147D2*
X923673D1*
X1001422D2*
X1011496D1*
X1017480D2*
X1083323D1*
X1107244D2*
X1170079D1*
X1245628D2*
X1251698D1*
X1260320D2*
X1270316D1*
X1283553D2*
X1349606D1*
X1364567D2*
X1387148D1*
X1405273D2*
X1413717D1*
X1447946D2*
X1453520D1*
X1472403D2*
X1477660D1*
X909764Y2031155D2*
X927663D1*
X1004878D2*
X1065229D1*
X1077323D2*
X1086348D1*
X1113228D2*
X1171574D1*
X1247139D2*
X1254201D1*
X1262929D2*
X1272065D1*
X1285671D2*
X1334646D1*
X1343622D2*
D3*
X1367559D2*
X1370551D1*
X1376998D2*
X1390762D1*
X1407478D2*
X1416060D1*
X1449699D2*
X1455053D1*
X1473858D2*
X1478971D1*
X912756Y2028163D2*
X931689D1*
X1007783D2*
X1064728D1*
X1080303D2*
X1089207D1*
X1108620D2*
X1157560D1*
X1163632D2*
X1172828D1*
X1248749D2*
X1256983D1*
X1265410D2*
X1273905D1*
X1287818D2*
X1310709D1*
X1316693D2*
X1322677D1*
X1334646D2*
D3*
X1370551D2*
D3*
X1380732D2*
X1393732D1*
X1409929D2*
X1418292D1*
X1451049D2*
X1456567D1*
X1475074D2*
X1480143D1*
X915748Y2025171D2*
X935590D1*
X1010167D2*
X1063525D1*
X1083190D2*
X1091716D1*
X1105266D2*
X1159502D1*
X1165871D2*
X1174086D1*
X1226929D2*
D3*
X1250734D2*
X1259891D1*
X1267608D2*
X1275926D1*
X1290214D2*
X1301732D1*
X1310709D2*
D3*
X1319685D2*
X1322677D1*
X1384499D2*
X1396165D1*
X1412536D2*
X1420362D1*
X1452338D2*
X1458067D1*
X1476308D2*
X1481193D1*
X911145Y2022178D2*
X939162D1*
X1012325D2*
X1061659D1*
X1085789D2*
X1093673D1*
X1102996D2*
X1161102D1*
X1167983D2*
X1175427D1*
X1223624D2*
X1232913D1*
X1253338D2*
X1262851D1*
X1269689D2*
X1278212D1*
X1292756D2*
X1301732D1*
X1388026D2*
X1398477D1*
X1415019D2*
X1422480D1*
X1453690D2*
X1459555D1*
X1477639D2*
X1482348D1*
X906043Y2019186D2*
X942454D1*
X1014488D2*
X1059654D1*
X1087936D2*
X1095276D1*
X1101260D2*
X1149134D1*
X1170058D2*
X1176755D1*
X1220872D2*
X1235941D1*
X1256425D2*
X1265827D1*
X1271811D2*
X1280516D1*
X1391402D2*
X1401181D1*
X1417242D2*
X1424805D1*
X1455022D2*
X1460956D1*
X1478963D2*
X1483644D1*
X900716Y2016194D2*
X945581D1*
X1011671D2*
X1058087D1*
X1089558D2*
X1150977D1*
X1171950D2*
X1177947D1*
X1211969D2*
D3*
X1220351D2*
X1239237D1*
X1259601D2*
X1282654D1*
X1394902D2*
X1404667D1*
X1419435D2*
X1427123D1*
X1456202D2*
X1462167D1*
X1480141D2*
X1484955D1*
X895816Y2013202D2*
X948629D1*
X1010613D2*
X1057161D1*
X1090757D2*
X1152590D1*
X1173655D2*
X1179104D1*
X1210379D2*
X1214961D1*
X1220945D2*
X1243267D1*
X1262720D2*
X1284835D1*
X1398664D2*
X1408969D1*
X1421793D2*
X1429266D1*
X1457255D2*
X1463220D1*
X1481192D2*
X1486127D1*
X891946Y2010210D2*
X951642D1*
X1009876D2*
X1056704D1*
X1090529D2*
X1153905D1*
X1175251D2*
X1180641D1*
X1202992D2*
D3*
X1208976D2*
X1248016D1*
X1265779D2*
X1271811D1*
X1277795D2*
X1287377D1*
X1402455D2*
X1413444D1*
X1424123D2*
X1431425D1*
X1458410D2*
X1464275D1*
X1482348D2*
X1487166D1*
X889134Y2007218D2*
X909764D1*
X918740D2*
X954653D1*
X1009278D2*
X1056493D1*
X1090055D2*
X1139607D1*
X1149596D2*
X1155003D1*
X1176797D2*
X1182666D1*
X1202866D2*
X1252477D1*
X1268788D2*
X1274803D1*
X1280787D2*
X1290372D1*
X1406070D2*
X1417460D1*
X1426271D2*
X1433769D1*
X1459707D2*
X1465204D1*
X1483644D2*
X1488227D1*
X887008Y2004226D2*
X909764D1*
X918752D2*
X957753D1*
X1008988D2*
X1056299D1*
X1089637D2*
X1138558D1*
X1150350D2*
X1156088D1*
X1178405D2*
X1184847D1*
X1202367D2*
X1255769D1*
X1271687D2*
X1293675D1*
X1409630D2*
X1421001D1*
X1428435D2*
X1436095D1*
X1461006D2*
X1465892D1*
X1484943D2*
X1489247D1*
X885234Y2001234D2*
X909764D1*
X918866D2*
X961128D1*
X1009161D2*
X1055806D1*
X1083307D2*
X1137165D1*
X1151230D2*
X1157117D1*
X1180192D2*
X1186909D1*
X1201162D2*
X1258226D1*
X1274291D2*
X1297045D1*
X1413190D2*
X1424254D1*
X1430839D2*
X1438229D1*
X1462074D2*
X1466574D1*
X1486022D2*
X1490211D1*
X883525Y1998241D2*
X909764D1*
X919328D2*
X964837D1*
X1009852D2*
X1054772D1*
X1082720D2*
X1138615D1*
X1152135D2*
X1158083D1*
X1182121D2*
X1188933D1*
X1199248D2*
X1259176D1*
X1276463D2*
X1284254D1*
X1290226D2*
X1300488D1*
X1416667D2*
X1427402D1*
X1433386D2*
X1440295D1*
X1462731D2*
X1467426D1*
X1486784D2*
X1491228D1*
X881599Y1995249D2*
X909764D1*
X920351D2*
X968608D1*
X1010857D2*
X1053386D1*
X1081488D2*
X1113228D1*
X1119213D2*
X1136654D1*
X1153130D2*
X1159101D1*
X1183931D2*
X1191024D1*
X1197008D2*
X1260010D1*
X1278295D2*
X1285101D1*
X1293960D2*
X1304007D1*
X1420151D2*
X1442364D1*
X1463075D2*
X1468260D1*
X1487499D2*
X1492142D1*
X879276Y1992257D2*
X903780D1*
X921732D2*
X972239D1*
X1013372D2*
X1056170D1*
X1079567D2*
X1116220D1*
X1128189D2*
X1134173D1*
X1154036D2*
X1160016D1*
X1185379D2*
X1247412D1*
X1256262D2*
X1260928D1*
X1279944D2*
X1286268D1*
X1297727D2*
X1307473D1*
X1423679D2*
X1444354D1*
X1463328D2*
X1468908D1*
X1488363D2*
X1492824D1*
X876735Y1989265D2*
X904242D1*
X920351D2*
X976006D1*
X1019357D2*
X1058020D1*
X1077323D2*
X1119213D1*
X1154715D2*
X1160698D1*
X1186431D2*
X1246669D1*
X1258012D2*
X1261789D1*
X1281498D2*
X1287614D1*
X1301243D2*
X1311049D1*
X1427080D2*
X1446450D1*
X1463772D2*
X1469575D1*
X1489191D2*
X1493504D1*
X475906Y1986273D2*
X493858D1*
X874378D2*
X904984D1*
X919492D2*
X960630D1*
X966614D2*
X980317D1*
X1025692D2*
X1041417D1*
X1079265D2*
X1122205D1*
X1155406D2*
X1161378D1*
X1185639D2*
X1245887D1*
X1259014D2*
X1262447D1*
X1283008D2*
X1289052D1*
X1304525D2*
X1314852D1*
X1430394D2*
X1448864D1*
X1464537D2*
X1470433D1*
X1489747D2*
X1494367D1*
X468584Y1983281D2*
X501784D1*
X872555D2*
X905758D1*
X919057D2*
X957638D1*
X966614D2*
X985122D1*
X1030555D2*
X1041429D1*
X1081240D2*
X1125197D1*
X1156362D2*
X1162241D1*
X1183003D2*
X1245318D1*
X1259500D2*
X1263116D1*
X1284417D2*
X1290523D1*
X1307738D2*
X1318651D1*
X1397480D2*
X1400472D1*
X1406457D2*
X1409449D1*
X1425167D2*
X1451542D1*
X1465436D2*
X1471370D1*
X1490138D2*
X1495294D1*
X462500Y1980289D2*
X508776D1*
X871175D2*
X906282D1*
X918864D2*
X989758D1*
X1033675D2*
X1041534D1*
X1083307D2*
X1128189D1*
X1157566D2*
X1163177D1*
X1180283D2*
X1235906D1*
X1259722D2*
X1263964D1*
X1285630D2*
X1292002D1*
X1311070D2*
X1322180D1*
X1396099D2*
X1400472D1*
X1406457D2*
X1411038D1*
X1421375D2*
X1454331D1*
X1466299D2*
X1472411D1*
X1490649D2*
X1496219D1*
X458234Y1977297D2*
X514983D1*
X869873D2*
X906561D1*
X918786D2*
X954646D1*
X960630D2*
X993619D1*
X1035718D2*
X1041916D1*
X1078538D2*
X1131181D1*
X1158825D2*
X1164185D1*
X1178219D2*
X1226342D1*
X1232913D2*
X1235906D1*
X1259911D2*
X1264785D1*
X1286685D2*
X1293387D1*
X1314546D2*
X1325455D1*
X1385512D2*
X1388504D1*
X1395237D2*
X1412441D1*
X1418425D2*
X1473922D1*
X1491419D2*
X1497220D1*
X454961Y1974304D2*
X457953D1*
X464063D2*
X520907D1*
X538740D2*
X544724D1*
X868505D2*
X906664D1*
X918756D2*
X996878D1*
X1037057D2*
X1042632D1*
X1074331D2*
X1134173D1*
X1159889D2*
X1165509D1*
X1176951D2*
X1228102D1*
X1260324D2*
X1265327D1*
X1287740D2*
X1294503D1*
X1318188D2*
X1328577D1*
X1361575D2*
X1364567D1*
X1373543D2*
D3*
X1384462D2*
X1388504D1*
X1394779D2*
X1476127D1*
X1492207D2*
X1498117D1*
X461570Y1971312D2*
X526772D1*
X535748D2*
X552558D1*
X867067D2*
X906489D1*
X918746D2*
X957638D1*
X963622D2*
X1000199D1*
X1037806D2*
X1043399D1*
X1078725D2*
X1137165D1*
X1160646D2*
X1167087D1*
X1176063D2*
X1229173D1*
X1261052D2*
X1265612D1*
X1288669D2*
X1295280D1*
X1322422D2*
X1331624D1*
X1355778D2*
X1376535D1*
X1383445D2*
X1388504D1*
X1394488D2*
X1478949D1*
X1492736D2*
X1498692D1*
X459783Y1968320D2*
X471021D1*
X487388D2*
X561512D1*
X865505D2*
X905971D1*
X918742D2*
X957638D1*
X963622D2*
X1003936D1*
X1038157D2*
X1043921D1*
X1083307D2*
X1140169D1*
X1161358D2*
X1223937D1*
X1261823D2*
X1265753D1*
X1289357D2*
X1296000D1*
X1327427D2*
X1334646D1*
X1349606D2*
X1376535D1*
X1382520D2*
X1481970D1*
X1493016D2*
X1498990D1*
X458704Y1965328D2*
X464145D1*
X498381D2*
X570625D1*
X863747D2*
X903643D1*
X918741D2*
X1008041D1*
X1038209D2*
X1044199D1*
X1071339D2*
X1121731D1*
X1130593D2*
X1143266D1*
X1162234D2*
X1223937D1*
X1262346D2*
X1265912D1*
X1290038D2*
X1296866D1*
X1332607D2*
X1484456D1*
X1493144D2*
X1499125D1*
X457953Y1962336D2*
D3*
X508614D2*
X578887D1*
X598583D2*
X604567D1*
X861929D2*
X900787D1*
X918740D2*
X988021D1*
X999516D2*
X1012355D1*
X1037890D2*
X1044326D1*
X1072731D2*
X1120872D1*
X1135335D2*
X1146640D1*
X1163166D2*
X1217953D1*
X1262624D2*
X1266314D1*
X1290890D2*
X1297694D1*
X1337638D2*
X1486073D1*
X1493199D2*
X1499180D1*
X517967Y1959344D2*
X586614D1*
X592598D2*
X609964D1*
X860492D2*
X903861D1*
X918717D2*
X988763D1*
X1002403D2*
X1016766D1*
X1037197D2*
X1044366D1*
X1073708D2*
X1119600D1*
X1139318D2*
X1150349D1*
X1164094D2*
X1217502D1*
X1262751D2*
X1267038D1*
X1291725D2*
X1298239D1*
X1330067D2*
X1487244D1*
X1493228D2*
X1499201D1*
X527025Y1956352D2*
X614716D1*
X859621D2*
X905233D1*
X918495D2*
X989538D1*
X1005011D2*
X1021147D1*
X1036431D2*
X1044281D1*
X1074629D2*
X1117869D1*
X1142679D2*
X1154116D1*
X1165122D2*
X1216877D1*
X1262803D2*
X1267807D1*
X1292373D2*
X1298525D1*
X1323976D2*
X1499209D1*
X536549Y1953360D2*
X618779D1*
X859088D2*
X905039D1*
X917969D2*
X990074D1*
X1007262D2*
X1025376D1*
X1035867D2*
X1043907D1*
X1075908D2*
X1115662D1*
X1145383D2*
X1157675D1*
X1166148D2*
X1216304D1*
X1262823D2*
X1268330D1*
X1293039D2*
X1298655D1*
X1321376D2*
X1499213D1*
X1505197D2*
X1508189D1*
X545758Y1950367D2*
X622520D1*
X631496D2*
X652441D1*
X858507D2*
X904571D1*
X915756D2*
X990457D1*
X1009363D2*
X1029449D1*
X1035433D2*
X1043205D1*
X1077353D2*
X1113228D1*
X1147547D2*
X1161102D1*
X1167087D2*
X1217103D1*
X1262831D2*
X1268608D1*
X1293885D2*
X1298708D1*
X1320465D2*
X1511681D1*
X553065Y1947375D2*
X667046D1*
X857610D2*
X904183D1*
X912886D2*
X990965D1*
X1011496D2*
X1042556D1*
X1078568D2*
X1115633D1*
X1148350D2*
X1218468D1*
X1262833D2*
X1268735D1*
X1294706D2*
X1298729D1*
X1307717D2*
X1310709D1*
X1319981D2*
X1409449D1*
X1415433D2*
X1514640D1*
X1523150D2*
X1529134D1*
X558316Y1944383D2*
X680233D1*
X856433D2*
X903971D1*
X909764D2*
X991723D1*
X1008422D2*
X1042222D1*
X1078252D2*
X1117394D1*
X1148675D2*
X1202404D1*
X1214487D2*
X1220036D1*
X1262846D2*
X1268787D1*
X1295248D2*
X1298736D1*
X1307717D2*
X1313701D1*
X1319685D2*
X1423935D1*
X1430280D2*
X1517165D1*
X1523150D2*
X1528237D1*
X562677Y1941391D2*
X589606D1*
X595626D2*
X691856D1*
X855173D2*
X903978D1*
X913069D2*
X992405D1*
X1007084D2*
X1043175D1*
X1076934D2*
X1118464D1*
X1148644D2*
X1204154D1*
X1216620D2*
X1221608D1*
X1262951D2*
X1268808D1*
X1295533D2*
X1298740D1*
X1307717D2*
X1415433D1*
X1420841D2*
X1426071D1*
X1432886D2*
X1453114D1*
X1466738D2*
X1527520D1*
X595967Y1938399D2*
X634488D1*
X646457D2*
X702216D1*
X854019D2*
X904395D1*
X915821D2*
X992783D1*
X1007577D2*
X1045720D1*
X1075682D2*
X1113228D1*
X1147323D2*
X1181573D1*
X1188154D2*
X1205159D1*
X1218351D2*
X1223153D1*
X1263333D2*
X1268815D1*
X1295663D2*
X1379405D1*
X1385512D2*
X1394488D1*
X1422705D2*
X1427819D1*
X1435136D2*
X1447763D1*
X1464261D2*
X1466299D1*
X1475276D2*
X1528156D1*
X596783Y1935407D2*
X640472D1*
X652441D2*
X711720D1*
X852988D2*
X905400D1*
X916342D2*
X992051D1*
X1008504D2*
X1048965D1*
X1075625D2*
X1113228D1*
X1145439D2*
X1183707D1*
X1191611D2*
X1205668D1*
X1219709D2*
X1224669D1*
X1264049D2*
X1268818D1*
X1295716D2*
X1368135D1*
X1374093D2*
X1381932D1*
X1388504D2*
X1396930D1*
X1424173D2*
X1429218D1*
X1437237D2*
X1443776D1*
X1461126D2*
X1467702D1*
X1475276D2*
X1530568D1*
X600280Y1932415D2*
X655433D1*
X673386D2*
X720468D1*
X851941D2*
X906772D1*
X915748D2*
X990896D1*
X1005742D2*
X1052524D1*
X1077443D2*
X1113228D1*
X1143432D2*
X1185437D1*
X1195626D2*
X1200000D1*
X1220834D2*
X1226177D1*
X1264817D2*
X1268830D1*
X1295713D2*
X1369249D1*
X1378135D2*
X1383901D1*
X1391484D2*
X1398872D1*
X1409449D2*
D3*
X1425705D2*
X1430394D1*
X1439370D2*
X1444401D1*
X1456657D2*
X1469291D1*
X1475276D2*
X1533742D1*
X604567Y1929423D2*
X610551D1*
X619065D2*
X688346D1*
X700315D2*
X728335D1*
X851027D2*
X989349D1*
X1003696D2*
X1056057D1*
X1079882D2*
X1113228D1*
X1141866D2*
X1186796D1*
X1200000D2*
D3*
X1222017D2*
X1227674D1*
X1265350D2*
X1268936D1*
X1295510D2*
X1370636D1*
X1382520D2*
X1385512D1*
X1394348D2*
X1400472D1*
X1406457D2*
X1421417D1*
X1427402D2*
X1445354D1*
X1451339D2*
X1537258D1*
X621304Y1926430D2*
X694331D1*
X703307D2*
X735357D1*
X850433D2*
X987559D1*
X1003194D2*
X1037837D1*
X1044872D2*
X1059675D1*
X1082983D2*
X1113228D1*
X1140952D2*
X1187921D1*
X1223324D2*
X1229174D1*
X1265733D2*
X1269317D1*
X1295023D2*
X1371851D1*
X1396729D2*
X1540674D1*
X623428Y1923438D2*
X741738D1*
X850019D2*
X989528D1*
X1003070D2*
X1039599D1*
X1048617D2*
X1063511D1*
X1087838D2*
X1107244D1*
X1140609D2*
X1189116D1*
X1224638D2*
X1230668D1*
X1266241D2*
X1270034D1*
X1293386D2*
X1371957D1*
X1398518D2*
X1543921D1*
X625643Y1920446D2*
X712283D1*
X724252D2*
X747556D1*
X849421D2*
X909214D1*
X919327D2*
X991622D1*
X1004146D2*
X1040706D1*
X1052490D2*
X1067424D1*
X1095283D2*
X1105842D1*
X1140872D2*
X1190539D1*
X1225812D2*
X1232155D1*
X1267010D2*
X1270813D1*
X1291778D2*
X1372099D1*
X1398226D2*
X1547087D1*
X1553071D2*
X1559055D1*
X628267Y1917454D2*
X721260D1*
X727244D2*
X752909D1*
X787087D2*
X811024D1*
X848341D2*
X905172D1*
X920559D2*
X994001D1*
X1005512D2*
X1041573D1*
X1056399D2*
X1071338D1*
X1104252D2*
D3*
X1141812D2*
X1192328D1*
X1226862D2*
X1233555D1*
X1267798D2*
X1271440D1*
X1290499D2*
X1373990D1*
X1388504D2*
X1391496D1*
X1397480D2*
X1559169D1*
X632160Y1914462D2*
X758150D1*
X783045D2*
X825984D1*
X846929D2*
X900787D1*
X922481D2*
X996535D1*
X1004131D2*
X1042512D1*
X1060491D2*
X1075343D1*
X1143150D2*
X1194506D1*
X1228017D2*
X1234766D1*
X1268338D2*
X1272101D1*
X1289060D2*
X1378043D1*
X1388504D2*
X1559553D1*
X637945Y1911470D2*
X763579D1*
X779035D2*
X903780D1*
X924724D2*
X995326D1*
X1003283D2*
X1043468D1*
X1064758D2*
X1079337D1*
X1141654D2*
X1196753D1*
X1229325D2*
X1235819D1*
X1268724D2*
X1272970D1*
X1286859D2*
X1382520D1*
X1388504D2*
X1560270D1*
X645068Y1908478D2*
X769134D1*
X775118D2*
X995426D1*
X1002965D2*
X1044414D1*
X1069053D2*
X1083297D1*
X1140412D2*
X1179055D1*
X1188031D2*
X1198768D1*
X1230729D2*
X1236885D1*
X1269233D2*
X1273914D1*
X1283947D2*
X1367559D1*
X1373543D2*
X1561045D1*
X652428Y1905486D2*
X995844D1*
X1003005D2*
X1045536D1*
X1073227D2*
X1087409D1*
X1139260D2*
X1182047D1*
X1188031D2*
X1200549D1*
X1232178D2*
X1237908D1*
X1270014D2*
X1274803D1*
X1280787D2*
X1351861D1*
X1361575D2*
X1373543D1*
X1379528D2*
X1553071D1*
X1559055D2*
X1561612D1*
X659544Y1902493D2*
X996417D1*
X1004341D2*
X1046921D1*
X1077350D2*
X1091695D1*
X1138299D2*
X1202267D1*
X1233563D2*
X1238883D1*
X1270906D2*
X1353531D1*
X1364567D2*
X1568031D1*
X666403Y1899501D2*
X997205D1*
X1006340D2*
X1048606D1*
X1081679D2*
X1096098D1*
X1137711D2*
X1189196D1*
X1193553D2*
X1204089D1*
X1234769D2*
X1240006D1*
X1271817D2*
X1353592D1*
X1362162D2*
X1568031D1*
X1574016D2*
X1577008D1*
X672931Y1896509D2*
X999609D1*
X1008822D2*
X1050493D1*
X1086027D2*
X1100654D1*
X1137509D2*
X1185582D1*
X1195792D2*
X1205943D1*
X1235820D2*
X1241290D1*
X1272802D2*
X1348890D1*
X1360402D2*
X1575985D1*
X679289Y1893517D2*
X822992D1*
X859863D2*
X1002520D1*
X1011496D2*
X1052321D1*
X1090045D2*
X1105506D1*
X1137765D2*
X1183109D1*
X1197904D2*
X1207494D1*
X1236886D2*
X1242583D1*
X1273592D2*
X1343622D1*
X1359331D2*
X1575106D1*
X685775Y1890525D2*
X814016D1*
X877564D2*
X1054149D1*
X1093914D2*
X1110719D1*
X1138554D2*
X1181068D1*
X1199991D2*
X1208750D1*
X1237908D2*
X1243661D1*
X1274027D2*
X1346614D1*
X1358583D2*
X1574644D1*
X692548Y1887533D2*
X845329D1*
X898126D2*
X1056572D1*
X1097933D2*
X1116075D1*
X1139903D2*
X1179055D1*
X1201977D2*
X1210012D1*
X1238884D2*
X1244423D1*
X1273415D2*
X1574744D1*
X699563Y1884541D2*
X876175D1*
X921311D2*
X924724D1*
X949453D2*
X1059847D1*
X1101955D2*
X1121456D1*
X1142036D2*
X1180436D1*
X1203969D2*
X1211465D1*
X1240006D2*
X1245137D1*
X1272632D2*
X1575457D1*
X707185Y1881549D2*
X924724D1*
X966199D2*
X1067211D1*
X1105484D2*
X1126831D1*
X1145255D2*
X1181284D1*
X1206006D2*
X1213266D1*
X1241290D2*
X1246001D1*
X1271772D2*
X1576762D1*
X716321Y1878556D2*
X960630D1*
X981575D2*
X1076321D1*
X1108127D2*
X1131834D1*
X1149761D2*
X1181605D1*
X1207972D2*
X1215449D1*
X1242583D2*
X1246840D1*
X1270796D2*
X1337515D1*
X1343499D2*
X1578731D1*
X727288Y1875564D2*
X772126D1*
X778561D2*
X993543D1*
X1002520D2*
X1086299D1*
X1110236D2*
X1136178D1*
X1155989D2*
X1181336D1*
X1209957D2*
X1217708D1*
X1243661D2*
X1247490D1*
X1269909D2*
X1337050D1*
X1343035D2*
X1581084D1*
X739213Y1872572D2*
X757165D1*
X782190D2*
X1002520D1*
X1011496D2*
X1140187D1*
X1164059D2*
X1180393D1*
X1211991D2*
X1219841D1*
X1244423D2*
X1248157D1*
X1269337D2*
X1336027D1*
X1342011D2*
X1583259D1*
X785575Y1869580D2*
X1008504D1*
X1020472D2*
X1144192D1*
X1173071D2*
X1179055D1*
X1213968D2*
X1222097D1*
X1245137D2*
X1249003D1*
X1269041D2*
X1334646D1*
X1340630D2*
X1584110D1*
X788386Y1866588D2*
X1148172D1*
X1170079D2*
X1193268D1*
X1216059D2*
X1224820D1*
X1246001D2*
X1249836D1*
X1268918D2*
X1582139D1*
X791030Y1863596D2*
X1068346D1*
X1092283D2*
X1152135D1*
X1175221D2*
X1208976D1*
X1218474D2*
X1227873D1*
X1246828D2*
X1250483D1*
X1268977D2*
X1580000D1*
X1585984D2*
X1588976D1*
X794394Y1860604D2*
X1156348D1*
X1181330D2*
X1208976D1*
X1221167D2*
X1230899D1*
X1247373D2*
X1251150D1*
X1269419D2*
X1589090D1*
X799735Y1857612D2*
X1160990D1*
X1188031D2*
X1208976D1*
X1224025D2*
X1234049D1*
X1247660D2*
X1251996D1*
X1270434D2*
X1463307D1*
X1469291D2*
X1589474D1*
X808597Y1854619D2*
X1165887D1*
X1226962D2*
X1237769D1*
X1247795D2*
X1252828D1*
X1271811D2*
X1310709D1*
X1319685D2*
X1463307D1*
X1469291D2*
X1590191D1*
X821697Y1851627D2*
X1170353D1*
X1229933D2*
X1241890D1*
X1247874D2*
X1253475D1*
X1270552D2*
X1313701D1*
X1325669D2*
X1590958D1*
X837750Y1848635D2*
X968264D1*
X1012347D2*
X1174017D1*
X1232917D2*
X1254142D1*
X1269804D2*
X1591480D1*
X854452Y1845643D2*
X941493D1*
X1020644D2*
X1113228D1*
X1128189D2*
X1177615D1*
X1235907D2*
X1254988D1*
X1270633D2*
X1591758D1*
X870866Y1842651D2*
X915748D1*
X1031057D2*
X1098268D1*
X1143150D2*
X1181794D1*
X1238886D2*
X1255808D1*
X1271811D2*
X1591885D1*
X1042500Y1839659D2*
X1143150D1*
X1149134D2*
X1186155D1*
X1241773D2*
X1256351D1*
X1270430D2*
X1591939D1*
X1052412Y1836667D2*
X1190107D1*
X1244384D2*
X1256647D1*
X1269567D2*
X1600945D1*
X1060190Y1833675D2*
X1193629D1*
X1246659D2*
X1256894D1*
X1269110D2*
X1599542D1*
X1063445Y1830682D2*
X1196965D1*
X1248872D2*
X1257445D1*
X1274803D2*
X1486694D1*
X1493114D2*
X1517165D1*
X1523150D2*
X1597953D1*
X1066030Y1827690D2*
X1200462D1*
X1251238D2*
X1258681D1*
X1274815D2*
X1469303D1*
X1475276D2*
X1485644D1*
X1492731D2*
X1514173D1*
X1520157D2*
X1591969D1*
X1597953D2*
X1600703D1*
X1068385Y1824698D2*
X1204419D1*
X1253571D2*
X1260658D1*
X1274943D2*
X1451801D1*
X1457323D2*
X1469417D1*
X1475276D2*
X1484252D1*
X1492014D2*
X1602714D1*
X1070826Y1821706D2*
X1208955D1*
X1255708D2*
X1263060D1*
X1275259D2*
X1452543D1*
X1460315D2*
X1469879D1*
X1491246D2*
X1511181D1*
X1517165D2*
X1603101D1*
X1073760Y1818714D2*
X1213907D1*
X1257775D2*
X1265449D1*
X1277073D2*
X1453326D1*
X1463307D2*
X1470902D1*
X1490722D2*
X1496771D1*
X1503307D2*
X1602191D1*
X1077341Y1815722D2*
X1218713D1*
X1259844D2*
X1267535D1*
X1279848D2*
X1453895D1*
X1466299D2*
X1472283D1*
X1490429D2*
X1494828D1*
X1511037D2*
X1600945D1*
X1606929D2*
X1609921D1*
X1081415Y1812730D2*
X1222876D1*
X1261823D2*
X1269336D1*
X1283232D2*
X1441774D1*
X1451339D2*
X1454331D1*
X1490236D2*
X1493228D1*
X1516672D2*
X1609371D1*
X1086050Y1809738D2*
X1226476D1*
X1263813D2*
X1270964D1*
X1286772D2*
X1443524D1*
X1518477D2*
X1608321D1*
X1091870Y1806745D2*
X1229742D1*
X1265837D2*
X1272437D1*
X1284330D2*
X1444526D1*
X1518372D2*
X1606929D1*
X1099811Y1803753D2*
X1232847D1*
X1267686D2*
X1273706D1*
X1282387D2*
X1445012D1*
X1502205D2*
X1505197D1*
X1517933D2*
X1526142D1*
X1532126D2*
X1610156D1*
X1110328Y1800761D2*
X1235882D1*
X1269173D2*
X1274803D1*
X1280787D2*
X1445234D1*
X1502205D2*
X1508189D1*
X1517517D2*
X1612648D1*
X1123160Y1797769D2*
X1238889D1*
X1270303D2*
X1280787D1*
X1286772D2*
X1445446D1*
X1502205D2*
X1511181D1*
X1517165D2*
X1614461D1*
X1137165Y1794777D2*
X1241887D1*
X1270096D2*
X1445802D1*
X1493462D2*
X1615906D1*
X1184451Y1791785D2*
X1224525D1*
X1229933D2*
X1244881D1*
X1268536D2*
X1447607D1*
X1487002D2*
X1597953D1*
X1183221Y1788793D2*
X1222775D1*
X1233019D2*
X1247874D1*
X1266155D2*
X1450248D1*
X1481198D2*
X1609921D1*
X1181254Y1785801D2*
X1200550D1*
X1206534D2*
X1221773D1*
X1236287D2*
X1250866D1*
X1263106D2*
X1274803D1*
X1289176D2*
X1453078D1*
X1476105D2*
X1608712D1*
X1178393Y1782808D2*
X1198608D1*
X1204592D2*
X1221287D1*
X1239603D2*
X1253858D1*
X1259843D2*
X1268819D1*
X1290926D2*
X1455400D1*
X1471225D2*
X1608584D1*
X1173600Y1779816D2*
X1197008D1*
X1202992D2*
X1221077D1*
X1242531D2*
X1273202D1*
X1291951D2*
X1457323D1*
X1466299D2*
X1608482D1*
X1165869Y1776824D2*
X1220993D1*
X1244810D2*
X1276652D1*
X1292659D2*
X1607052D1*
X1155697Y1773832D2*
X1220961D1*
X1246505D2*
X1279784D1*
X1293448D2*
X1605057D1*
X1654803D2*
X1660787D1*
X1143925Y1770840D2*
X1220945D1*
X1247874D2*
X1282719D1*
X1295677D2*
X1602427D1*
X1641150D2*
X1668809D1*
X1131181Y1767848D2*
X1285157D1*
X1298397D2*
X1598945D1*
X1629432D2*
X1674895D1*
X1131953Y1764856D2*
X1287157D1*
X1300951D2*
X1594961D1*
X1618898D2*
X1679669D1*
X1134299Y1761864D2*
X1288973D1*
X1302813D2*
X1679537D1*
X1137165Y1758871D2*
X1290825D1*
X1303940D2*
X1678763D1*
X1135947Y1755879D2*
X1262835D1*
X1268819D2*
X1292569D1*
X1310709D2*
X1677415D1*
X1135132Y1752887D2*
X1293961D1*
X1311807D2*
X1675748D1*
X1138806Y1749895D2*
X1293571D1*
X1314845D2*
X1682884D1*
X1143150Y1746903D2*
X1292756D1*
X1318474D2*
X1688442D1*
X1137613Y1743911D2*
X1305753D1*
X1322115D2*
X1692634D1*
X1133487Y1740919D2*
X1319685D1*
X1325669D2*
X1695823D1*
X1131804Y1737927D2*
X1698321D1*
X1130425Y1734934D2*
X1700530D1*
X1129365Y1731942D2*
X1702651D1*
X1128683Y1728950D2*
X1134173D1*
X1140757D2*
X1328661D1*
X1340080D2*
X1704648D1*
X1128189Y1725958D2*
X1131181D1*
X1138770D2*
X1331654D1*
X1342022D2*
X1706633D1*
X1138188Y1722966D2*
X1170079D1*
X1176063D2*
X1334646D1*
X1343622D2*
X1678740D1*
X1687717D2*
X1708565D1*
X1138995Y1719974D2*
X1678740D1*
X1687717D2*
X1710151D1*
X1140157Y1716982D2*
X1166973D1*
X1172957D2*
X1678740D1*
X1687717D2*
X1711420D1*
X1136323Y1713990D2*
X1166577D1*
X1172573D2*
X1678740D1*
X1687717D2*
X1712675D1*
X1133456Y1710997D2*
X1165755D1*
X1171845D2*
X1678740D1*
X1687717D2*
X1714013D1*
X1131181Y1708005D2*
X1164606D1*
X1170972D2*
X1678752D1*
X1687717D2*
X1715328D1*
X1137165Y1705013D2*
X1163368D1*
X1170069D2*
X1678857D1*
X1687717D2*
X1716401D1*
X1135956Y1702021D2*
X1162323D1*
X1169075D2*
X1679241D1*
X1687717D2*
X1717060D1*
X1136170Y1699029D2*
X1161675D1*
X1168181D2*
X1679982D1*
X1687717D2*
X1717394D1*
X1136948Y1696037D2*
X1161344D1*
X1167604D2*
X1680873D1*
X1687717D2*
X1717542D1*
X1137998Y1693045D2*
X1161191D1*
X1167290D2*
X1681732D1*
X1687717D2*
X1717602D1*
X1138864Y1690052D2*
X1161102D1*
X1167087D2*
X1717625D1*
X1139354Y1687060D2*
X1717633D1*
X1138769Y1684068D2*
X1717636D1*
X1138098Y1681076D2*
X1717637D1*
X1137623Y1678084D2*
X1717638D1*
X1137365Y1675092D2*
X1203106D1*
X1208514D2*
X1502205D1*
X1520157D2*
X1717638D1*
X1137234Y1672100D2*
X1200497D1*
X1207772D2*
X1523150D1*
X1529134D2*
X1717638D1*
X1137070Y1669108D2*
X1198234D1*
X1206989D2*
X1717626D1*
X1136588Y1666115D2*
X1196126D1*
X1206420D2*
X1433386D1*
X1439370D2*
X1541102D1*
X1547087D2*
X1717521D1*
X1135558Y1663123D2*
X1194143D1*
X1205984D2*
X1208976D1*
X1214487D2*
X1717128D1*
X1134173Y1660131D2*
X1192537D1*
X1219614D2*
X1401060D1*
X1406457D2*
X1550067D1*
X1559631D2*
X1716294D1*
X1135623Y1657139D2*
X1191273D1*
X1224354D2*
X1399322D1*
X1406457D2*
X1552954D1*
X1560769D2*
X1715030D1*
X1133937Y1654147D2*
X1190109D1*
X1228746D2*
X1398153D1*
X1406457D2*
X1415433D1*
X1420943D2*
X1555565D1*
X1562377D2*
X1713301D1*
X1130136Y1651155D2*
X1189046D1*
X1232913D2*
D3*
X1239622D2*
X1398264D1*
X1406457D2*
X1409449D1*
X1423079D2*
X1557840D1*
X1564167D2*
X1647465D1*
X1659611D2*
X1711095D1*
X1125112Y1648163D2*
X1188054D1*
X1243234D2*
X1259843D1*
X1265827D2*
X1398927D1*
X1424827D2*
X1439370D1*
X1445931D2*
X1560054D1*
X1566170D2*
X1653684D1*
X1669142D2*
X1708661D1*
X1119072Y1645171D2*
X1186915D1*
X1253515D2*
X1277795D1*
X1284493D2*
X1400005D1*
X1426226D2*
X1436378D1*
X1444076D2*
X1562419D1*
X1568451D2*
X1661442D1*
X1677563D2*
X1713625D1*
X1112809Y1642178D2*
X1185512D1*
X1265827D2*
D3*
X1282754D2*
X1401215D1*
X1427402D2*
X1433386D1*
X1442692D2*
X1489762D1*
X1501029D2*
X1564740D1*
X1570742D2*
X1670064D1*
X1686161D2*
X1719213D1*
X1107204Y1639186D2*
X1183719D1*
X1283021D2*
X1402261D1*
X1441490D2*
X1491919D1*
X1507521D2*
X1566784D1*
X1572774D2*
X1679163D1*
X1695907D2*
X1725213D1*
X1102748Y1636194D2*
X1181441D1*
X1285397D2*
X1298190D1*
X1307717D2*
X1403011D1*
X1440501D2*
X1493860D1*
X1512517D2*
X1568563D1*
X1574549D2*
X1688319D1*
X1706115D2*
X1731571D1*
X1099453Y1633202D2*
X1178820D1*
X1288788D2*
X1297140D1*
X1307717D2*
X1403721D1*
X1439790D2*
X1496005D1*
X1516469D2*
X1570180D1*
X1576165D2*
X1696855D1*
X1715312D2*
X1738277D1*
X1097211Y1630210D2*
X1155694D1*
X1164094D2*
X1176063D1*
X1292756D2*
X1295748D1*
X1307717D2*
X1404584D1*
X1439100D2*
X1498773D1*
X1519765D2*
X1571622D1*
X1577607D2*
X1704483D1*
X1722927D2*
X1744950D1*
X1095562Y1627218D2*
X1153839D1*
X1307717D2*
X1310709D1*
X1314265D2*
X1405411D1*
X1438245D2*
X1502265D1*
X1522438D2*
X1572756D1*
X1578741D2*
X1711654D1*
X1729606D2*
X1751282D1*
X1093806Y1624226D2*
X1152456D1*
X1328345D2*
X1367559D1*
X1373543D2*
X1405956D1*
X1437421D2*
X1506166D1*
X1524383D2*
X1573487D1*
X1579471D2*
X1757482D1*
X1091594Y1621234D2*
X1151253D1*
X1337398D2*
X1367559D1*
X1373543D2*
X1406242D1*
X1436878D2*
X1510055D1*
X1525797D2*
X1574016D1*
X1580000D2*
X1699685D1*
X1706805D2*
X1763883D1*
X1089000Y1618241D2*
X1113816D1*
X1119090D2*
X1150264D1*
X1344065D2*
X1367559D1*
X1373543D2*
X1406371D1*
X1436593D2*
X1513636D1*
X1527010D2*
X1699685D1*
X1719998D2*
X1770223D1*
X1086185Y1615249D2*
X1109063D1*
X1115633D2*
X1149542D1*
X1347213D2*
X1367559D1*
X1373543D2*
X1406425D1*
X1436463D2*
X1516936D1*
X1527999D2*
X1577008D1*
X1582992D2*
X1699673D1*
X1731849D2*
X1776325D1*
X1083265Y1612257D2*
X1105000D1*
X1111618D2*
X1148735D1*
X1348575D2*
X1367559D1*
X1373543D2*
X1406445D1*
X1436410D2*
X1520073D1*
X1528653D2*
X1577008D1*
X1582992D2*
X1699568D1*
X1741320D2*
X1782494D1*
X1080300Y1609265D2*
X1101260D1*
X1107244D2*
X1147382D1*
X1349622D2*
X1367559D1*
X1373543D2*
X1406453D1*
X1436389D2*
X1523150D1*
X1529134D2*
X1577008D1*
X1582992D2*
X1597953D1*
X1603937D2*
X1699187D1*
X1748733D2*
X1765512D1*
X1771496D2*
X1788733D1*
X1077318Y1606273D2*
X1095276D1*
X1101260D2*
X1145355D1*
X1350634D2*
X1367559D1*
X1373543D2*
X1406455D1*
X1436394D2*
X1577008D1*
X1582992D2*
X1597953D1*
X1603937D2*
X1698470D1*
X1754804D2*
X1768504D1*
X1777480D2*
X1794628D1*
X1074341Y1603281D2*
X1142923D1*
X1351520D2*
X1367559D1*
X1373543D2*
X1406456D1*
X1436496D2*
X1577008D1*
X1582992D2*
X1597953D1*
X1603937D2*
X1697703D1*
X1760335D2*
X1777480D1*
X1784025D2*
X1800054D1*
X1071455Y1600289D2*
X1140411D1*
X1352086D2*
X1367559D1*
X1373543D2*
X1406457D1*
X1436877D2*
X1577008D1*
X1582992D2*
X1597953D1*
X1603937D2*
X1697170D1*
X1765816D2*
X1781621D1*
X1790158D2*
X1805235D1*
X1068844Y1597297D2*
X1137835D1*
X1352380D2*
X1367559D1*
X1373543D2*
X1406457D1*
X1437593D2*
X1577008D1*
X1582992D2*
X1597953D1*
X1603937D2*
X1696787D1*
X1771186D2*
X1785992D1*
X1795923D2*
X1810246D1*
X1066569Y1594304D2*
X1134924D1*
X1352512D2*
X1367559D1*
X1373543D2*
X1406457D1*
X1438372D2*
X1577008D1*
X1582992D2*
X1597953D1*
X1603937D2*
X1696255D1*
X1776342D2*
X1790650D1*
X1801571D2*
X1814856D1*
X1064344Y1591312D2*
X1083307D1*
X1089291D2*
X1131686D1*
X1352566D2*
X1367559D1*
X1373543D2*
X1406457D1*
X1438999D2*
X1577008D1*
X1582992D2*
X1597941D1*
X1603937D2*
X1695264D1*
X1781512D2*
X1795431D1*
X1807016D2*
X1819130D1*
X1061886Y1588320D2*
X1080315D1*
X1086299D2*
X1128348D1*
X1352575D2*
X1367559D1*
X1373543D2*
X1406457D1*
X1439669D2*
X1577008D1*
X1582992D2*
X1597836D1*
X1603937D2*
X1693597D1*
X1786944D2*
X1799949D1*
X1812106D2*
X1823370D1*
X1059276Y1585328D2*
X1124825D1*
X1352478D2*
X1406457D1*
X1440618D2*
X1577008D1*
X1582992D2*
X1597455D1*
X1603937D2*
X1691148D1*
X1792527D2*
X1804188D1*
X1816887D2*
X1827585D1*
X1056792Y1582336D2*
X1121042D1*
X1352099D2*
X1370551D1*
X1376535D2*
X1406457D1*
X1441819D2*
X1596738D1*
X1603937D2*
X1688213D1*
X1797884D2*
X1808436D1*
X1821391D2*
X1831394D1*
X1054569Y1579344D2*
X1071801D1*
X1076735D2*
X1117239D1*
X1351383D2*
X1370551D1*
X1376535D2*
X1406457D1*
X1443089D2*
X1595971D1*
X1603937D2*
X1685335D1*
X1802600D2*
X1812853D1*
X1825393D2*
X1834670D1*
X1052364Y1576352D2*
X1069551D1*
X1075493D2*
X1113619D1*
X1350616D2*
X1370551D1*
X1376535D2*
X1406457D1*
X1444246D2*
X1573902D1*
X1579988D2*
X1595449D1*
X1603937D2*
X1682559D1*
X1806581D2*
X1817513D1*
X1828631D2*
X1836020D1*
X1049902Y1573360D2*
X1067341D1*
X1073506D2*
X1110057D1*
X1350095D2*
X1370551D1*
X1376535D2*
X1406457D1*
X1445291D2*
X1573507D1*
X1579883D2*
X1595171D1*
X1603937D2*
X1679554D1*
X1810066D2*
X1822362D1*
X1831339D2*
X1836762D1*
X1047189Y1570367D2*
X1064919D1*
X1071023D2*
X1106495D1*
X1349817D2*
X1370551D1*
X1376535D2*
X1406457D1*
X1446467D2*
X1572684D1*
X1579502D2*
X1595045D1*
X1603937D2*
X1676277D1*
X1813407D2*
X1837101D1*
X1044325Y1567375D2*
X1062362D1*
X1068346D2*
X1103018D1*
X1349690D2*
X1406457D1*
X1447985D2*
X1571524D1*
X1578785D2*
X1594992D1*
X1603937D2*
X1672923D1*
X1817207D2*
X1837241D1*
X1041386Y1564383D2*
X1099534D1*
X1349638D2*
X1406457D1*
X1450163D2*
X1570180D1*
X1578006D2*
X1594972D1*
X1603937D2*
X1669383D1*
X1822360D2*
X1837294D1*
X1038414Y1561391D2*
X1096012D1*
X1349618D2*
X1367559D1*
X1373543D2*
X1406457D1*
X1453161D2*
X1568743D1*
X1577379D2*
X1594964D1*
X1603937D2*
X1665482D1*
X1829322D2*
X1837313D1*
X1035418Y1558399D2*
X1053386D1*
X1059370D2*
X1092634D1*
X1349610D2*
X1367559D1*
X1373543D2*
X1406457D1*
X1456568D2*
X1567260D1*
X1576721D2*
X1594962D1*
X1603937D2*
X1661180D1*
X1837323D2*
D3*
X1032323Y1555407D2*
X1050394D1*
X1056378D2*
X1089333D1*
X1349608D2*
X1367559D1*
X1373543D2*
X1406457D1*
X1459926D2*
X1565665D1*
X1575912D2*
X1594961D1*
X1603937D2*
X1656262D1*
X1028939Y1552415D2*
X1085865D1*
X1349607D2*
X1367559D1*
X1373543D2*
X1406457D1*
X1463133D2*
X1563781D1*
X1575247D2*
X1594972D1*
X1603937D2*
X1649939D1*
X1025113Y1549423D2*
X1082105D1*
X1349606D2*
X1367559D1*
X1373543D2*
X1406457D1*
X1466240D2*
X1561462D1*
X1574860D2*
X1595078D1*
X1603937D2*
X1640799D1*
X1020867Y1546430D2*
X1078213D1*
X1349606D2*
X1367559D1*
X1373543D2*
X1406457D1*
X1469381D2*
X1558797D1*
X1578421D2*
X1595459D1*
X1603937D2*
X1627950D1*
X1016267Y1543438D2*
X1074207D1*
X1349606D2*
X1367547D1*
X1373543D2*
X1406457D1*
X1472784D2*
X1555838D1*
X1582350D2*
X1596175D1*
X1603937D2*
X1612913D1*
X1011631Y1540446D2*
X1069826D1*
X1349606D2*
X1367442D1*
X1373532D2*
X1406457D1*
X1476616D2*
X1552408D1*
X1585599D2*
X1596943D1*
X1603937D2*
X1612799D1*
X912756Y1537454D2*
X918740D1*
X1007720D2*
X1065094D1*
X1349606D2*
X1367061D1*
X1373426D2*
X1406457D1*
X1480887D2*
X1548213D1*
X1587865D2*
X1597464D1*
X1603937D2*
X1612416D1*
X909986Y1534462D2*
X926145D1*
X1004641D2*
X1060168D1*
X1349606D2*
X1366344D1*
X1373045D2*
X1406457D1*
X1485730D2*
X1543133D1*
X1589518D2*
X1597742D1*
X1603937D2*
X1611699D1*
X909190Y1531470D2*
X935521D1*
X1003444D2*
X1054865D1*
X1349606D2*
X1365577D1*
X1372328D2*
X1406457D1*
X1491442D2*
X1537179D1*
X1590697D2*
X1597869D1*
X1603937D2*
X1610931D1*
X910086Y1528478D2*
X947395D1*
X1002520D2*
X1049144D1*
X1349595D2*
X1365055D1*
X1371561D2*
X1406457D1*
X1498070D2*
X1530391D1*
X1591384D2*
X1597921D1*
X1603937D2*
X1610410D1*
X913193Y1525486D2*
X960630D1*
X975591D2*
X1043416D1*
X1349489D2*
X1364778D1*
X1371039D2*
X1406457D1*
X1505197D2*
X1523150D1*
X1591724D2*
X1597942D1*
X1603937D2*
X1610132D1*
X917860Y1522493D2*
X1037814D1*
X1349108D2*
X1364651D1*
X1370762D2*
X1406457D1*
X1591885D2*
X1597953D1*
X1603937D2*
X1610005D1*
X923948Y1519501D2*
X1032130D1*
X1348391D2*
X1364587D1*
X1370635D2*
X1406468D1*
X1592050D2*
X1609953D1*
X930602Y1516509D2*
X1026318D1*
X1347624D2*
X1364453D1*
X1370583D2*
X1406574D1*
X1592454D2*
X1609932D1*
X936864Y1513517D2*
X1020420D1*
X1347102D2*
X1363983D1*
X1370574D2*
X1406955D1*
X1593179D2*
X1609925D1*
X942677Y1510525D2*
X1014488D1*
X1346825D2*
X1362957D1*
X1370672D2*
X1407672D1*
X1593961D2*
X1609934D1*
X1346698Y1507533D2*
X1361575D1*
X1371051D2*
X1408439D1*
X1594589D2*
X1610039D1*
X1346646Y1504541D2*
X1362956D1*
X1371766D2*
X1408961D1*
X1595248D2*
X1610431D1*
X1346614Y1501549D2*
X1363827D1*
X1372533D2*
X1409238D1*
X1596091D2*
X1611253D1*
X1346501Y1498556D2*
X1364367D1*
X1373055D2*
X1409365D1*
X1596923D2*
X1612413D1*
X1346117Y1495564D2*
X1364941D1*
X1373332D2*
X1409417D1*
X1597570D2*
X1613768D1*
X1345400Y1492572D2*
X1365736D1*
X1373459D2*
X1409438D1*
X1598236D2*
X1615300D1*
X1344632Y1489580D2*
X1366533D1*
X1373512D2*
X1409445D1*
X1599094D2*
X1617046D1*
X1344122Y1486588D2*
X1367068D1*
X1373532D2*
X1409436D1*
X1600020D2*
X1618872D1*
X1343950Y1483596D2*
X1367364D1*
X1373540D2*
X1409332D1*
X1600943D2*
X1606929D1*
X1612913D2*
X1620413D1*
X1344204Y1480604D2*
X1367559D1*
X1373543D2*
X1408950D1*
X1601945D2*
X1621654D1*
X1344868Y1477612D2*
X1408234D1*
X1602853D2*
X1610035D1*
X1616380D2*
X1622797D1*
X1345627Y1474619D2*
X1407467D1*
X1603545D2*
X1610419D1*
X1617227D2*
X1623764D1*
X1346247Y1471627D2*
X1367559D1*
X1373543D2*
X1406933D1*
X1604330D2*
X1611136D1*
X1618383D2*
X1624466D1*
X1346915Y1468635D2*
X1367559D1*
X1373543D2*
X1406551D1*
X1605562D2*
X1611915D1*
X1619635D2*
X1625154D1*
X1347874Y1465643D2*
X1367559D1*
X1373543D2*
X1406007D1*
X1607113D2*
X1612542D1*
X1620785D2*
X1626019D1*
X1349192Y1462651D2*
X1367559D1*
X1373543D2*
X1404911D1*
X1608528D2*
X1613201D1*
X1621827D2*
X1626959D1*
X1350937Y1459659D2*
X1367559D1*
X1373543D2*
X1403270D1*
X1609716D2*
X1614056D1*
X1622979D2*
X1627989D1*
X1353098Y1456667D2*
X1399799D1*
X1610852D2*
X1614993D1*
X1624275D2*
X1629384D1*
X1355339Y1453675D2*
X1396043D1*
X1611904D2*
X1616021D1*
X1625585D2*
X1631102D1*
X1357340Y1450682D2*
X1392847D1*
X1612892D2*
X1617404D1*
X1626769D2*
X1632838D1*
X1359003Y1447690D2*
X1390304D1*
X1614019D2*
X1619029D1*
X1627913D2*
X1634479D1*
X1360235Y1444698D2*
X1389489D1*
X1615316D2*
X1620476D1*
X1629355D2*
X1636051D1*
X1360959Y1441706D2*
X1389126D1*
X1616716D2*
X1621689D1*
X1631092D2*
X1637589D1*
X1361317Y1438714D2*
X1389814D1*
X1618175D2*
X1622923D1*
X1632834D2*
X1639194D1*
X1361474Y1435722D2*
X1390641D1*
X1619653D2*
X1624265D1*
X1634478D2*
X1640980D1*
X1361538Y1432730D2*
X1391533D1*
X1621146D2*
X1625694D1*
X1636051D2*
X1642909D1*
X1361573Y1429738D2*
X1392622D1*
X1622638D2*
X1627253D1*
X1637589D2*
X1644741D1*
X1361687Y1426745D2*
X1393894D1*
X1624135D2*
X1629021D1*
X1639194D2*
X1646424D1*
X1362083Y1423753D2*
X1395196D1*
X1625641D2*
X1630944D1*
X1640968D2*
X1648000D1*
X1362906Y1420761D2*
X1396377D1*
X1627232D2*
X1632774D1*
X1642804D2*
X1649437D1*
X1364067Y1417769D2*
X1397519D1*
X1629014D2*
X1634455D1*
X1644348D2*
X1650675D1*
X1365410Y1414777D2*
X1398962D1*
X1630941D2*
X1636043D1*
X1645602D2*
X1651838D1*
X1366848Y1411785D2*
X1400698D1*
X1632761D2*
X1637586D1*
X1646851D2*
X1653276D1*
X1368319Y1408793D2*
X1402441D1*
X1634350D2*
X1639193D1*
X1648187D2*
X1654911D1*
X1369809Y1405801D2*
X1404085D1*
X1635650D2*
X1640971D1*
X1649502D2*
X1656261D1*
X1371311Y1402808D2*
X1405657D1*
X1636752D2*
X1642828D1*
X1650583D2*
X1657083D1*
X1372914Y1399816D2*
X1407195D1*
X1637927D2*
X1644442D1*
X1651293D2*
X1657496D1*
X1374788Y1396824D2*
X1408800D1*
X1639243D2*
X1645827D1*
X1651811D2*
X1657679D1*
X1377003Y1393832D2*
X1410586D1*
X1640659D2*
X1657752D1*
X1379264Y1390840D2*
X1412515D1*
X1642198D2*
X1657780D1*
X1381285Y1387848D2*
X1414348D1*
X1643928D2*
X1657790D1*
X1383067Y1384856D2*
X1416030D1*
X1645827D2*
X1657795D1*
X1384786Y1381864D2*
X1417618D1*
X1386609Y1378871D2*
X1419149D1*
X1388462Y1375879D2*
X1420662D1*
X1390014Y1372887D2*
X1422161D1*
X1391258Y1369895D2*
X1423650D1*
X1392403Y1366903D2*
X1425039D1*
X1393370Y1363911D2*
X1426156D1*
X1394073Y1360919D2*
X1426934D1*
X1394760Y1357927D2*
X1427653D1*
X1395614Y1354934D2*
X1428520D1*
X1396449Y1351942D2*
X1429348D1*
X1397109Y1348950D2*
X1429904D1*
X1397881Y1345958D2*
X1430307D1*
X1399111Y1342966D2*
X1430935D1*
X1400681Y1339974D2*
X1432203D1*
X1402160Y1336982D2*
X1434218D1*
X1403465Y1333990D2*
X1412441D1*
X1421994D2*
X1436834D1*
X1423119Y1330997D2*
X1439999D1*
X1424623Y1328005D2*
X1443613D1*
X1426019Y1325013D2*
X1447225D1*
X1427200Y1322021D2*
X1450218D1*
X1428322Y1319029D2*
X1452574D1*
X1429292Y1316037D2*
X1453254D1*
X1430108Y1313045D2*
X1452479D1*
X1431293Y1310052D2*
X1451339D1*
X1433349Y1307060D2*
X1454679D1*
X1436038Y1304068D2*
X1458030D1*
X1438586Y1301076D2*
X1461068D1*
X1440450Y1298084D2*
X1463688D1*
X1441611Y1295092D2*
X1465825D1*
X1442514Y1292100D2*
X1467434D1*
X1443565Y1289108D2*
X1467086D1*
X1444890Y1286115D2*
X1466299D1*
X1446514Y1283123D2*
X1470673D1*
X1448346Y1280131D2*
X1451339D1*
X1457797D2*
X1474524D1*
X1458644Y1277139D2*
X1477939D1*
X1459812Y1274147D2*
X1481007D1*
X1461158Y1271155D2*
X1483579D1*
X1462596Y1268163D2*
X1485398D1*
X1464078Y1265171D2*
X1486536D1*
X1465674Y1262178D2*
X1487514D1*
X1467557Y1259186D2*
X1488824D1*
X1469877Y1256194D2*
X1490392D1*
X1472519Y1253202D2*
X1491713D1*
X1475255Y1250210D2*
X1492523D1*
X1477803Y1247218D2*
X1492932D1*
X1480030Y1244226D2*
X1493113D1*
X1482123Y1241234D2*
X1493188D1*
X1484252Y1238241D2*
X1493228D1*
X1185039Y2348320D2*
X1178734Y2345328D1*
X1173497Y2342336D1*
X1169770Y2339344D1*
X1167252Y2336352D1*
X1165549Y2333360D1*
X1164297Y2330367D1*
X1163167Y2327375D1*
X1162223Y2324383D1*
X1161631Y2321391D1*
X1161327Y2318399D1*
X1161191Y2315407D1*
X1161124Y2312415D1*
X1160986Y2309423D1*
X1160491Y2306430D1*
X1159379Y2303438D1*
X1157789Y2300446D1*
X1156118Y2297454D1*
X1154602Y2294462D1*
X1153431Y2291470D1*
X1152730Y2288478D1*
X1152379Y2285486D1*
X1152225Y2282493D1*
X1152151Y2279501D1*
X1152010Y2276509D1*
X1151515Y2273517D1*
X1150403Y2270525D1*
X1148813Y2267533D1*
X1147142Y2264541D1*
X1145614Y2261549D1*
X1144338Y2258556D1*
X1143255Y2255564D1*
X1142188Y2252572D1*
X1141267Y2249580D1*
X1140682Y2246588D1*
X1140381Y2243596D1*
X1140246Y2240604D1*
X1140190Y2237612D1*
X1140181Y2234619D1*
X1140278Y2231627D1*
X1140657Y2228635D1*
X1141384Y2225643D1*
X1142256Y2222651D1*
X1143160Y2219659D1*
X1144142Y2216667D1*
X1144931Y2213675D1*
X1145365Y2210682D1*
X1144739Y2207690D1*
X1143942Y2204698D1*
X1143150Y2201706D1*
X1235906Y2348320D2*
X1243631Y2345328D1*
X1250950Y2342336D1*
X1257913Y2339344D1*
X1264933Y2336352D1*
X1272130Y2333360D1*
X1278890Y2330367D1*
X1284799Y2327375D1*
X1290116Y2324383D1*
X1295411Y2321391D1*
X1301124Y2318399D1*
X1307136Y2315407D1*
X1312823Y2312415D1*
X1317726Y2309423D1*
X1321797Y2306430D1*
X1325307Y2303438D1*
X1328522Y2300446D1*
X1331603Y2297454D1*
X1334628Y2294462D1*
X1337632Y2291470D1*
X1340616Y2288478D1*
X1343505Y2285486D1*
X1346116Y2282493D1*
X1348391Y2279501D1*
X1350616Y2276509D1*
X1353075Y2273517D1*
X1355696Y2270525D1*
X1358274Y2267533D1*
X1360773Y2264541D1*
X1363301Y2261549D1*
X1365709Y2258556D1*
X1367795Y2255564D1*
X1369698Y2252572D1*
X1371708Y2249580D1*
X1373978Y2246588D1*
X1376260Y2243596D1*
X1378288Y2240604D1*
X1380062Y2237612D1*
X1381689Y2234619D1*
X1383235Y2231627D1*
X1384754Y2228635D1*
X1386255Y2225643D1*
X1387756Y2222651D1*
X1389250Y2219659D1*
X1390749Y2216667D1*
X1392243Y2213675D1*
X1393741Y2210682D1*
X1395235Y2207690D1*
X1396733Y2204698D1*
X1398227Y2201706D1*
X1399726Y2198714D1*
X1401219Y2195722D1*
X1402718Y2192730D1*
X1404211Y2189738D1*
X1405698Y2186745D1*
X1407098Y2183753D1*
X1408321Y2180761D1*
X1409479Y2177769D1*
X1410927Y2174777D1*
X1412666Y2171785D1*
X1414397Y2168793D1*
X1415948Y2165801D1*
X1417245Y2162808D1*
X1418435Y2159816D1*
X1419896Y2156824D1*
X1421640Y2153832D1*
X1423384Y2150840D1*
X1425029Y2147848D1*
X1426602Y2144856D1*
X1428128Y2141864D1*
X1429639Y2138871D1*
X1431150Y2135879D1*
X1432743Y2132887D1*
X1434525Y2129895D1*
X1436453Y2126903D1*
X1438285Y2123911D1*
X1439967Y2120919D1*
X1441555Y2117927D1*
X1443086Y2114934D1*
X1444599Y2111942D1*
X1446098Y2108950D1*
X1447599Y2105958D1*
X1449093Y2102966D1*
X1450580Y2099974D1*
X1451980Y2096982D1*
X1453191Y2093990D1*
X1454256Y2090997D1*
X1455416Y2088005D1*
X1456726Y2085013D1*
X1458130Y2082021D1*
X1459580Y2079029D1*
X1460965Y2076037D1*
X1462170Y2073045D1*
X1463233Y2070052D1*
X1464393Y2067060D1*
X1465691Y2064068D1*
X1467002Y2061076D1*
X1468175Y2058084D1*
X1469225Y2055092D1*
X1470379Y2052100D1*
X1471676Y2049108D1*
X1472986Y2046115D1*
X1474159Y2043123D1*
X1475209Y2040131D1*
X1476364Y2037139D1*
X1477660Y2034147D1*
X1478971Y2031155D1*
X1480143Y2028163D1*
X1481193Y2025171D1*
X1482348Y2022178D1*
X1483644Y2019186D1*
X1484955Y2016194D1*
X1486127Y2013202D1*
X1487166Y2010210D1*
X1488227Y2007218D1*
X1489247Y2004226D1*
X1490211Y2001234D1*
X1491228Y1998241D1*
X1492142Y1995249D1*
X1492824Y1992257D1*
X1493504Y1989265D1*
X1494367Y1986273D1*
X1495294Y1983281D1*
X1496219Y1980289D1*
X1497220Y1977297D1*
X1498117Y1974304D1*
X1498692Y1971312D1*
X1498990Y1968320D1*
X1499125Y1965328D1*
X1499180Y1962336D1*
X1499201Y1959344D1*
X1499209Y1956352D1*
X1499213Y1953360D1*
X1191024Y2345328D2*
X1188031Y2342336D1*
X1185039Y2339344D1*
X1190077Y2336352D1*
X1194851Y2333360D1*
X1198977Y2330367D1*
X1202555Y2327375D1*
X1205800Y2324383D1*
X1208807Y2321391D1*
X1211564Y2318399D1*
X1214224Y2315407D1*
X1217066Y2312415D1*
X1219924Y2309423D1*
X1222444Y2306430D1*
X1224813Y2303438D1*
X1227315Y2300446D1*
X1229921Y2297454D1*
X1202992Y2345328D2*
X1208388Y2342336D1*
X1213119Y2339344D1*
X1217008Y2336352D1*
X1220093Y2333360D1*
X1222473Y2330367D1*
X1224389Y2327375D1*
X1226069Y2324383D1*
X1227634Y2321391D1*
X1229148Y2318399D1*
X1230558Y2315407D1*
X1231772Y2312415D1*
X1232826Y2309423D1*
X1233882Y2306430D1*
X1234807Y2303438D1*
X1235437Y2300446D1*
X1235906Y2297454D1*
Y2342336D2*
X1239023Y2339344D1*
X1242504Y2336352D1*
X1246595Y2333360D1*
X1251071Y2330367D1*
X1255387Y2327375D1*
X1259506Y2324383D1*
X1264151Y2321391D1*
X1269866Y2318399D1*
X1276066Y2315407D1*
X1281893Y2312415D1*
X1287236Y2309423D1*
X1291945Y2306430D1*
X1295668Y2303438D1*
X1298740Y2300446D1*
X1238898Y2342336D2*
X1244431Y2339344D1*
X1249779Y2336352D1*
X1255370Y2333360D1*
X1261535Y2330367D1*
X1267903Y2327375D1*
X1273901Y2324383D1*
X1279393Y2321391D1*
X1284705Y2318399D1*
X1290108Y2315407D1*
X1295439Y2312415D1*
X1300472Y2309423D1*
X1305169Y2306430D1*
X1309543Y2303438D1*
X1313701Y2300446D1*
X1167087Y2333360D2*
X1167075Y2330367D1*
X1166970Y2327375D1*
X1166588Y2324383D1*
X1165872Y2321391D1*
X1165151Y2318399D1*
X1164860Y2315407D1*
X1164932Y2312415D1*
X1170125Y2309423D1*
X1176411Y2306430D1*
X1183111Y2303438D1*
X1190204Y2300446D1*
X1197786Y2297454D1*
X1205171Y2294462D1*
X1211451Y2291470D1*
X1216355Y2288478D1*
X1220282Y2285486D1*
X1223681Y2282493D1*
X1226840Y2279501D1*
X1229921Y2276509D1*
X1185039Y2333360D2*
X1188494Y2330367D1*
X1192228Y2327375D1*
X1195995Y2324383D1*
X1199511Y2321391D1*
X1202781Y2318399D1*
X1205900Y2315407D1*
X1208945Y2312415D1*
X1211946Y2309423D1*
X1214840Y2306430D1*
X1217453Y2303438D1*
X1219730Y2300446D1*
X1221943Y2297454D1*
X1224308Y2294462D1*
X1226630Y2291470D1*
X1228673Y2288478D1*
X1230462Y2285486D1*
X1232168Y2282493D1*
X1233969Y2279501D1*
X1235906Y2276509D1*
X1229921Y2333360D2*
X1230395Y2330367D1*
X1231242Y2327375D1*
X1232410Y2324383D1*
X1233756Y2321391D1*
X1235182Y2318399D1*
X1236560Y2315407D1*
X1237762Y2312415D1*
X1238824Y2309423D1*
X1239983Y2306430D1*
X1241281Y2303438D1*
X1242592Y2300446D1*
X1243765Y2297454D1*
X1244804Y2294462D1*
X1245888Y2291470D1*
X1247142Y2288478D1*
X1248639Y2285486D1*
X1252547Y2282493D1*
X1257883Y2279501D1*
X1264196Y2276509D1*
X1270724Y2273517D1*
X1276817Y2270525D1*
X1282343Y2267533D1*
X1287581Y2264541D1*
X1292714Y2261549D1*
X1297724Y2258556D1*
X1302814Y2255564D1*
X1308180Y2252572D1*
X1313701Y2249580D1*
X1229921Y2333360D2*
X1235792Y2330367D1*
X1241381Y2327375D1*
X1246542Y2324383D1*
X1251366Y2321391D1*
X1256030Y2318399D1*
X1260799Y2315407D1*
X1266169Y2312415D1*
X1272372Y2309423D1*
X1278724Y2306430D1*
X1284211Y2303438D1*
X1288724Y2300446D1*
X1292779Y2297454D1*
X1296780Y2294462D1*
X1300656Y2291470D1*
X1304201Y2288478D1*
X1307381Y2285486D1*
X1310112Y2282493D1*
X1312337Y2279501D1*
X1314190Y2276509D1*
X1315846Y2273517D1*
X1317403Y2270525D1*
X1318925Y2267533D1*
X1320427Y2264541D1*
X1321917Y2261549D1*
X1323307Y2258556D1*
X1324421Y2255564D1*
X1325144Y2252572D1*
X1325669Y2249580D1*
X1164094Y2303438D2*
X1163620Y2300446D1*
X1162762Y2297454D1*
X1161500Y2294462D1*
X1159879Y2291470D1*
X1158117Y2288478D1*
X1156724Y2285486D1*
X1155777Y2282493D1*
X1156193Y2279501D1*
X1158721Y2276509D1*
X1164330Y2273517D1*
X1171040Y2270525D1*
X1178184Y2267533D1*
X1185024Y2264541D1*
X1190926Y2261549D1*
X1195830Y2258556D1*
X1200520Y2255564D1*
X1205690Y2252572D1*
X1211067Y2249580D1*
X1215819Y2246588D1*
X1219538Y2243596D1*
X1222457Y2240604D1*
X1225298Y2237612D1*
X1228590Y2234619D1*
X1232212Y2231627D1*
X1235993Y2228635D1*
X1239931Y2225643D1*
X1243798Y2222651D1*
X1247358Y2219659D1*
X1250645Y2216667D1*
X1253771Y2213675D1*
X1256818Y2210682D1*
X1259831Y2207690D1*
X1262831Y2204698D1*
X1265825Y2201706D1*
X1268818Y2198714D1*
X1271811Y2195722D1*
X1274803Y2192730D1*
X1277795Y2189738D1*
X1280799Y2186745D1*
X1283896Y2183753D1*
X1287272Y2180761D1*
X1291006Y2177769D1*
X1294889Y2174777D1*
X1298740Y2171785D1*
X1161102Y2303438D2*
X1171078Y2300446D1*
X1180723Y2297454D1*
X1189375Y2294462D1*
X1196597Y2291470D1*
X1202469Y2288478D1*
X1207365Y2285486D1*
X1211702Y2282493D1*
X1215864Y2279501D1*
X1219827Y2276509D1*
X1223522Y2273517D1*
X1227201Y2270525D1*
X1231059Y2267533D1*
X1234979Y2264541D1*
X1238896Y2261549D1*
X1242890Y2258556D1*
X1246767Y2255564D1*
X1250229Y2252572D1*
X1253126Y2249580D1*
X1255454Y2246588D1*
X1257563Y2243596D1*
X1260089Y2240604D1*
X1263396Y2237612D1*
X1267105Y2234619D1*
X1270858Y2231627D1*
X1274912Y2228635D1*
X1279006Y2225643D1*
X1282465Y2222651D1*
X1285201Y2219659D1*
X1287639Y2216667D1*
X1290198Y2213675D1*
X1292947Y2210682D1*
X1295825Y2207690D1*
X1298769Y2204698D1*
X1301743Y2201706D1*
X1304728Y2198714D1*
X1307718Y2195722D1*
X1310697Y2192730D1*
X1313561Y2189738D1*
X1315938Y2186745D1*
X1317716Y2183753D1*
X1317545Y2180761D1*
X1316212Y2177769D1*
X1314897Y2174777D1*
X1313701Y2171785D1*
Y2291470D2*
X1314277Y2288478D1*
X1315414Y2285486D1*
X1317011Y2282493D1*
X1318696Y2279501D1*
X1320317Y2276509D1*
X1321882Y2273517D1*
X1323405Y2270525D1*
X1324916Y2267533D1*
X1326414Y2264541D1*
X1327902Y2261549D1*
X1329303Y2258556D1*
X1330514Y2255564D1*
X1331567Y2252572D1*
X1332633Y2249580D1*
X1333679Y2246588D1*
X1334865Y2243596D1*
X1336774Y2240604D1*
X1339713Y2237612D1*
X1343432Y2234619D1*
X1347578Y2231627D1*
X1351920Y2228635D1*
X1356261Y2225643D1*
X1360445Y2222651D1*
X1364483Y2219659D1*
X1368529Y2216667D1*
X1372445Y2213675D1*
X1376067Y2210682D1*
X1379528Y2207690D1*
X1313701Y2291470D2*
X1319559Y2288478D1*
X1325032Y2285486D1*
X1329730Y2282493D1*
X1333667Y2279501D1*
X1337574Y2276509D1*
X1342160Y2273517D1*
X1347016Y2270525D1*
X1351316Y2267533D1*
X1354919Y2264541D1*
X1357862Y2261549D1*
X1360265Y2258556D1*
X1362438Y2255564D1*
X1364535Y2252572D1*
X1366435Y2249580D1*
X1368142Y2246588D1*
X1369739Y2243596D1*
X1371273Y2240604D1*
X1372788Y2237612D1*
X1374287Y2234619D1*
X1375788Y2231627D1*
X1377282Y2228635D1*
X1378781Y2225643D1*
X1380274Y2222651D1*
X1381773Y2219659D1*
X1383276Y2216667D1*
X1384852Y2213675D1*
X1386598Y2210682D1*
X1388504Y2207690D1*
X1250866Y2273517D2*
X1251340Y2270525D1*
X1252187Y2267533D1*
X1253355Y2264541D1*
X1254701Y2261549D1*
X1256139Y2258556D1*
X1257633Y2255564D1*
X1259322Y2252572D1*
X1261494Y2249580D1*
X1264253Y2246588D1*
X1267351Y2243596D1*
X1270769Y2240604D1*
X1274604Y2237612D1*
X1278673Y2234619D1*
X1282721Y2231627D1*
X1286602Y2228635D1*
X1290246Y2225643D1*
X1293431Y2222651D1*
X1296224Y2219659D1*
X1298889Y2216667D1*
X1301357Y2213675D1*
X1303561Y2210682D1*
X1305743Y2207690D1*
X1308107Y2204698D1*
X1310541Y2201706D1*
X1313069Y2198714D1*
X1315957Y2195722D1*
X1319198Y2192730D1*
X1322637Y2189738D1*
X1326540Y2186745D1*
X1331039Y2183753D1*
X1335597Y2180761D1*
X1339646Y2177769D1*
X1343198Y2174777D1*
X1346445Y2171785D1*
X1349543Y2168793D1*
X1352576Y2165801D1*
X1355583Y2162808D1*
X1358580Y2159816D1*
X1361574Y2156824D1*
X1364567Y2153832D1*
X1367559Y2150840D1*
X1370551Y2147848D1*
X1373543Y2144856D1*
X1244882Y2273517D2*
X1255560Y2270525D1*
X1264661Y2267533D1*
X1271932Y2264541D1*
X1278109Y2261549D1*
X1283887Y2258556D1*
X1289391Y2255564D1*
X1294688Y2252572D1*
X1300140Y2249580D1*
X1305843Y2246588D1*
X1311413Y2243596D1*
X1316941Y2240604D1*
X1322702Y2237612D1*
X1328049Y2234619D1*
X1332528Y2231627D1*
X1336943Y2228635D1*
X1342058Y2225643D1*
X1347647Y2222651D1*
X1352792Y2219659D1*
X1356704Y2216667D1*
X1359646Y2213675D1*
X1360760Y2210682D1*
X1361691Y2207690D1*
X1362754Y2204698D1*
X1363999Y2201706D1*
X1365274Y2198714D1*
X1366343Y2195722D1*
X1367102Y2192730D1*
X1367814Y2189738D1*
X1368690Y2186745D1*
X1369623Y2183753D1*
X1370549Y2180761D1*
X1371551Y2177769D1*
X1372460Y2174777D1*
X1373140Y2171785D1*
X1373819Y2168793D1*
X1374682Y2165801D1*
X1375609Y2162808D1*
X1376534Y2159816D1*
X1377535Y2156824D1*
X1378432Y2153832D1*
X1379010Y2150840D1*
X1379324Y2147848D1*
X1379528Y2144856D1*
X861890Y2267533D2*
X851670Y2264541D1*
X842451Y2261549D1*
X834753Y2258556D1*
X828781Y2255564D1*
X824224Y2252572D1*
X820609Y2249580D1*
X817704Y2246588D1*
X815415Y2243596D1*
X813539Y2240604D1*
X811887Y2237612D1*
X810420Y2234619D1*
X809185Y2231627D1*
X808123Y2228635D1*
X807065Y2225643D1*
X806147Y2222651D1*
X805575Y2219659D1*
X805380Y2216667D1*
X805626Y2213675D1*
X806299Y2210682D1*
X807150Y2207690D1*
X808057Y2204698D1*
X809154Y2201706D1*
X810440Y2198714D1*
X811836Y2195722D1*
X813282Y2192730D1*
X814666Y2189738D1*
X815883Y2186745D1*
X817039Y2183753D1*
X818486Y2180761D1*
X820225Y2177769D1*
X821968Y2174777D1*
X823612Y2171785D1*
X825173Y2168793D1*
X826606Y2165801D1*
X827829Y2162808D1*
X828887Y2159816D1*
X829955Y2156824D1*
X830978Y2153832D1*
X831943Y2150840D1*
X832960Y2147848D1*
X833874Y2144856D1*
X834556Y2141864D1*
X835236Y2138871D1*
X836088Y2135879D1*
X836922Y2132887D1*
X837570Y2129895D1*
X838248Y2126903D1*
X839199Y2123911D1*
X840413Y2120919D1*
X841777Y2117927D1*
X843222Y2114934D1*
X844695Y2111942D1*
X846186Y2108950D1*
X847689Y2105958D1*
X849292Y2102966D1*
X851166Y2099974D1*
X853381Y2096982D1*
X855642Y2093990D1*
X857663Y2090997D1*
X859445Y2088005D1*
X861176Y2085013D1*
X863115Y2082021D1*
X865456Y2079029D1*
X868105Y2076037D1*
X870845Y2073045D1*
X873395Y2070052D1*
X875648Y2067060D1*
X877865Y2064068D1*
X880332Y2061076D1*
X883046Y2058084D1*
X885911Y2055092D1*
X888850Y2052100D1*
X891822Y2049108D1*
X894807Y2046115D1*
X897797Y2043123D1*
X900788Y2040131D1*
X903780Y2037139D1*
X906772Y2034147D1*
X909764Y2031155D1*
X912756Y2028163D1*
X915748Y2025171D1*
X911145Y2022178D1*
X906043Y2019186D1*
X900716Y2016194D1*
X895816Y2013202D1*
X891946Y2010210D1*
X889134Y2007218D1*
X887008Y2004226D1*
X885234Y2001234D1*
X883525Y1998241D1*
X881599Y1995249D1*
X879276Y1992257D1*
X876735Y1989265D1*
X874378Y1986273D1*
X872555Y1983281D1*
X871175Y1980289D1*
X869873Y1977297D1*
X868505Y1974304D1*
X867067Y1971312D1*
X865505Y1968320D1*
X863747Y1965328D1*
X861929Y1962336D1*
X860492Y1959344D1*
X859621Y1956352D1*
X859088Y1953360D1*
X858507Y1950367D1*
X857610Y1947375D1*
X856433Y1944383D1*
X855173Y1941391D1*
X854019Y1938399D1*
X852988Y1935407D1*
X851941Y1932415D1*
X851027Y1929423D1*
X850433Y1926430D1*
X850019Y1923438D1*
X849421Y1920446D1*
X848341Y1917454D1*
X846929Y1914462D1*
X900787Y2267533D2*
X912493Y2264541D1*
X923355Y2261549D1*
X932512Y2258556D1*
X939799Y2255564D1*
X945987Y2252572D1*
X951841Y2249580D1*
X957638Y2246588D1*
X1158110Y2267533D2*
X1155592Y2264541D1*
X1153447Y2261549D1*
X1151623Y2258556D1*
X1149988Y2255564D1*
X1148528Y2252572D1*
X1147294Y2249580D1*
X1146233Y2246588D1*
X1145175Y2243596D1*
X1144268Y2240604D1*
X1143791Y2237612D1*
X1143883Y2234619D1*
X1144570Y2231627D1*
X1145674Y2228635D1*
X1147020Y2225643D1*
X1148684Y2222651D1*
X1151137Y2219659D1*
X1154939Y2216667D1*
X1159906Y2213675D1*
X1165302Y2210682D1*
X1170757Y2207690D1*
X1176285Y2204698D1*
X1181697Y2201706D1*
X1186865Y2198714D1*
X1191928Y2195722D1*
X1196889Y2192730D1*
X1201481Y2189738D1*
X1205748Y2186745D1*
X1209997Y2183753D1*
X1214328Y2180761D1*
X1218635Y2177769D1*
X1222700Y2174777D1*
X1226352Y2171785D1*
X1229677Y2168793D1*
X1232818Y2165801D1*
X1235882Y2162808D1*
X1238990Y2159816D1*
X1242267Y2156824D1*
X1245597Y2153832D1*
X1248652Y2150840D1*
X1251516Y2147848D1*
X1254786Y2144856D1*
X1259064Y2141864D1*
X1264832Y2138871D1*
X1272122Y2135879D1*
X1280262Y2132887D1*
X1288560Y2129895D1*
X1297055Y2126903D1*
X1305654Y2123911D1*
X1313530Y2120919D1*
X1320105Y2117927D1*
X1325645Y2114934D1*
X1330605Y2111942D1*
X1335292Y2108950D1*
X1339960Y2105958D1*
X1344865Y2102966D1*
X1350184Y2099974D1*
X1355816Y2096982D1*
X1361575Y2093990D1*
X1155118Y2267533D2*
X1164420Y2264541D1*
X1173520Y2261549D1*
X1181570Y2258556D1*
X1187990Y2255564D1*
X1193245Y2252572D1*
X1198161Y2249580D1*
X1202985Y2246588D1*
X1207413Y2243596D1*
X1211360Y2240604D1*
X1215155Y2237612D1*
X1219049Y2234619D1*
X1222883Y2231627D1*
X1226425Y2228635D1*
X1229717Y2225643D1*
X1232945Y2222651D1*
X1236372Y2219659D1*
X1240089Y2216667D1*
X1243763Y2213675D1*
X1247003Y2210682D1*
X1249938Y2207690D1*
X1253007Y2204698D1*
X1256297Y2201706D1*
X1259554Y2198714D1*
X1262704Y2195722D1*
X1265773Y2192730D1*
X1268798Y2189738D1*
X1271804Y2186745D1*
X1274801Y2183753D1*
X1277783Y2180761D1*
X1280670Y2177769D1*
X1283305Y2174777D1*
X1285802Y2171785D1*
X1288895Y2168793D1*
X1293168Y2165801D1*
X1298029Y2162808D1*
X1302323Y2159816D1*
X1305611Y2156824D1*
X1308254Y2153832D1*
X1310673Y2150840D1*
X1313142Y2147848D1*
X1315979Y2144856D1*
X1319083Y2141864D1*
X1322028Y2138871D1*
X1324829Y2135879D1*
X1327843Y2132887D1*
X1331112Y2129895D1*
X1334361Y2126903D1*
X1337508Y2123911D1*
X1340577Y2120919D1*
X1343602Y2117927D1*
X1346607Y2114934D1*
X1349604Y2111942D1*
X1352598Y2108950D1*
X1355590Y2105958D1*
X1358583Y2102966D1*
X1361575Y2099974D1*
X1364567Y2096982D1*
X1367559Y2093990D1*
X858898Y2261549D2*
X850521Y2258556D1*
X842904Y2255564D1*
X836416Y2252572D1*
X831160Y2249580D1*
X826959Y2246588D1*
X823501Y2243596D1*
X820659Y2240604D1*
X818405Y2237612D1*
X816643Y2234619D1*
X815375Y2231627D1*
X814638Y2228635D1*
X814276Y2225643D1*
X814117Y2222651D1*
X814053Y2219659D1*
X814029Y2216667D1*
X814032Y2213675D1*
X814134Y2210682D1*
X814514Y2207690D1*
X815242Y2204698D1*
X816126Y2201706D1*
X817135Y2198714D1*
X818522Y2195722D1*
X820238Y2192730D1*
X821972Y2189738D1*
X823613Y2186745D1*
X825279Y2183753D1*
X827088Y2180761D1*
X832308Y2177769D1*
X840540Y2174777D1*
X850217Y2171785D1*
X858813Y2168793D1*
X865513Y2165801D1*
X870415Y2162808D1*
X874333Y2159816D1*
X878025Y2156824D1*
X881381Y2153832D1*
X884151Y2150840D1*
X886626Y2147848D1*
X889111Y2144856D1*
X891494Y2141864D1*
X893662Y2138871D1*
X895841Y2135879D1*
X898294Y2132887D1*
X901002Y2129895D1*
X903853Y2126903D1*
X906698Y2123911D1*
X909394Y2120919D1*
X912043Y2117927D1*
X914970Y2114934D1*
X918114Y2111942D1*
X921074Y2108950D1*
X923881Y2105958D1*
X926897Y2102966D1*
X930167Y2099974D1*
X933416Y2096982D1*
X936564Y2093990D1*
X939636Y2090997D1*
X942677Y2088005D1*
X882835Y2261549D2*
X885713Y2258556D1*
X888321Y2255564D1*
X890596Y2252572D1*
X892810Y2249580D1*
X895175Y2246588D1*
X897508Y2243596D1*
X899645Y2240604D1*
X901712Y2237612D1*
X903781Y2234619D1*
X905760Y2231627D1*
X907750Y2228635D1*
X909786Y2225643D1*
X911752Y2222651D1*
X913737Y2219659D1*
X915759Y2216667D1*
X917631Y2213675D1*
X919328Y2210682D1*
X920922Y2207690D1*
X922455Y2204698D1*
X923969Y2201706D1*
X925468Y2198714D1*
X926969Y2195722D1*
X928463Y2192730D1*
X929950Y2189738D1*
X931339Y2186745D1*
X932456Y2183753D1*
X933233Y2180761D1*
X933952Y2177769D1*
X934819Y2174777D1*
X935647Y2171785D1*
X936204Y2168793D1*
X936595Y2165801D1*
X937106Y2162808D1*
X937888Y2159816D1*
X938780Y2156824D1*
X939691Y2153832D1*
X940699Y2150840D1*
X941700Y2147848D1*
X942656Y2144856D1*
X943670Y2141864D1*
X944583Y2138871D1*
X945265Y2135879D1*
X945945Y2132887D1*
X946796Y2129895D1*
X947619Y2126903D1*
X948161Y2123911D1*
X948447Y2120919D1*
X948576Y2117927D1*
X948641Y2114934D1*
X948767Y2111942D1*
X949156Y2108950D1*
X949875Y2105958D1*
X950643Y2102966D1*
X951153Y2099974D1*
X951317Y2096982D1*
X950982Y2093990D1*
X950013Y2090997D1*
X948661Y2088005D1*
X891811Y2261549D2*
X894341Y2258556D1*
X896579Y2255564D1*
X898692Y2252572D1*
X900778Y2249580D1*
X902764Y2246588D1*
X904757Y2243596D1*
X906781Y2240604D1*
X908654Y2237612D1*
X910363Y2234619D1*
X912050Y2231627D1*
X913872Y2228635D1*
X915814Y2225643D1*
X917652Y2222651D1*
X919336Y2219659D1*
X920924Y2216667D1*
X922456Y2213675D1*
X923969Y2210682D1*
X925468Y2207690D1*
X926969Y2204698D1*
X928463Y2201706D1*
X929950Y2198714D1*
X931350Y2195722D1*
X932561Y2192730D1*
X933614Y2189738D1*
X934681Y2186745D1*
X935703Y2183753D1*
X936679Y2180761D1*
X937801Y2177769D1*
X939085Y2174777D1*
X940390Y2171785D1*
X941561Y2168793D1*
X942599Y2165801D1*
X943648Y2162808D1*
X944564Y2159816D1*
X945157Y2156824D1*
X945563Y2153832D1*
X946079Y2150840D1*
X946851Y2147848D1*
X947640Y2144856D1*
X948169Y2141864D1*
X948449Y2138871D1*
X948589Y2135879D1*
X948758Y2132887D1*
X949277Y2129895D1*
X950499Y2126903D1*
X952495Y2123911D1*
X955117Y2120919D1*
X958397Y2117927D1*
X962508Y2114934D1*
X967334Y2111942D1*
X972332Y2108950D1*
X977004Y2105958D1*
X981407Y2102966D1*
X985966Y2099974D1*
X990746Y2096982D1*
X995500Y2093990D1*
X1000144Y2090997D1*
X1004700Y2088005D1*
X1009125Y2085013D1*
X1013341Y2082021D1*
X1017391Y2079029D1*
X1021440Y2076037D1*
X1025350Y2073045D1*
X1028927Y2070052D1*
X1032236Y2067060D1*
X1035433Y2064068D1*
X906772Y2261549D2*
X915508Y2258556D1*
X923601Y2255564D1*
X930645Y2252572D1*
X936848Y2249580D1*
X942577Y2246588D1*
X947615Y2243596D1*
X951613Y2240604D1*
X954722Y2237612D1*
X957290Y2234619D1*
X959484Y2231627D1*
X961559Y2228635D1*
X963615Y2225643D1*
X965499Y2222651D1*
X967200Y2219659D1*
X968783Y2216667D1*
X970224Y2213675D1*
X971450Y2210682D1*
X972520Y2207690D1*
X973683Y2204698D1*
X974993Y2201706D1*
X976398Y2198714D1*
X977847Y2195722D1*
X979233Y2192730D1*
X980438Y2189738D1*
X981489Y2186745D1*
X982555Y2183753D1*
X983577Y2180761D1*
X984553Y2177769D1*
X985675Y2174777D1*
X986971Y2171785D1*
X988370Y2168793D1*
X989828Y2165801D1*
X991307Y2162808D1*
X992799Y2159816D1*
X994291Y2156824D1*
X995789Y2153832D1*
X997294Y2150840D1*
X998886Y2147848D1*
X1000667Y2144856D1*
X1002595Y2141864D1*
X1004427Y2138871D1*
X1006109Y2135879D1*
X1007696Y2132887D1*
X1009239Y2129895D1*
X1010846Y2126903D1*
X1012621Y2123911D1*
X1014445Y2120919D1*
X1015885Y2117927D1*
X1016745Y2114934D1*
X1017173Y2111942D1*
X1017361Y2108950D1*
X1017436Y2105958D1*
X1017466Y2102966D1*
X1017480Y2099974D1*
X1008504D1*
X1008990Y2096982D1*
X1009954Y2093990D1*
X1011655Y2090997D1*
X1014519Y2088005D1*
X1018966Y2085013D1*
X1024593Y2082021D1*
X1029951Y2079029D1*
X1033933Y2076037D1*
X1036711Y2073045D1*
X1038708Y2070052D1*
X1040199Y2067060D1*
X1041417Y2064068D1*
X978583Y2246588D2*
X999528D2*
X1011732Y2243596D1*
X1023583Y2240604D1*
X1036202Y2237612D1*
X1049029Y2234619D1*
X1060587Y2231627D1*
X1070368Y2228635D1*
X1079127Y2225643D1*
X1088374Y2222651D1*
X1098373Y2219659D1*
X1107950Y2216667D1*
X1116028Y2213675D1*
X1122339Y2210682D1*
X1127484Y2207690D1*
X1132309Y2204698D1*
X1137165Y2201706D1*
X969606Y2237612D2*
X969720Y2234619D1*
X970104Y2231627D1*
X970833Y2228635D1*
X971705Y2225643D1*
X972620Y2222651D1*
X973719Y2219659D1*
X974995Y2216667D1*
X976297Y2213675D1*
X977467Y2210682D1*
X978516Y2207690D1*
X979671Y2204698D1*
X980967Y2201706D1*
X982278Y2198714D1*
X983450Y2195722D1*
X984500Y2192730D1*
X985655Y2189738D1*
X986963Y2186745D1*
X988367Y2183753D1*
X989828Y2180761D1*
X991306Y2177769D1*
X992799Y2174777D1*
X994291Y2171785D1*
X995789Y2168793D1*
X997282Y2165801D1*
X998781Y2162808D1*
X1000274Y2159816D1*
X1001773Y2156824D1*
X1003267Y2153832D1*
X1004765Y2150840D1*
X1006259Y2147848D1*
X1007757Y2144856D1*
X1009251Y2141864D1*
X1010749Y2138871D1*
X1012243Y2135879D1*
X1013741Y2132887D1*
X1015235Y2129895D1*
X1016733Y2126903D1*
X1018227Y2123911D1*
X1019726Y2120919D1*
X1021231Y2117927D1*
X1022823Y2114934D1*
X1024593Y2111942D1*
X1026426Y2108950D1*
X1027982Y2105958D1*
X1029352Y2102966D1*
X1031088Y2099974D1*
X1033522Y2096982D1*
X1036320Y2093990D1*
X1038682Y2090997D1*
X1040418Y2088005D1*
X1040960Y2085013D1*
X1041341Y2082021D1*
X1041844Y2079029D1*
X1042633Y2076037D1*
X1043541Y2073045D1*
X1044409Y2070052D1*
X1017480Y2237612D2*
X1020461Y2234619D1*
X1023348Y2231627D1*
X1025947Y2228635D1*
X1028117Y2225643D1*
X1029949Y2222651D1*
X1031598Y2219659D1*
X1033152Y2216667D1*
X1034674Y2213675D1*
X1036176Y2210682D1*
X1037677Y2207690D1*
X1039172Y2204698D1*
X1040659Y2201706D1*
X1042059Y2198714D1*
X1043270Y2195722D1*
X1044323Y2192730D1*
X1045389Y2189738D1*
X1046412Y2186745D1*
X1047387Y2183753D1*
X1048510Y2180761D1*
X1049805Y2177769D1*
X1051204Y2174777D1*
X1052651Y2171785D1*
X1054036Y2168793D1*
X1055241Y2165801D1*
X1056292Y2162808D1*
X1057358Y2159816D1*
X1058380Y2156824D1*
X1059356Y2153832D1*
X1060478Y2150840D1*
X1061774Y2147848D1*
X1063173Y2144856D1*
X1064632Y2141864D1*
X1066110Y2138871D1*
X1067591Y2135879D1*
X1068989Y2132887D1*
X1070211Y2129895D1*
X1071380Y2126903D1*
X1072923Y2123911D1*
X1074992Y2120919D1*
X1077323Y2117927D1*
X1032441Y2228635D2*
X1034959Y2225643D1*
X1037092Y2222651D1*
X1038823Y2219659D1*
X1040182Y2216667D1*
X1041307Y2213675D1*
X1042490Y2210682D1*
X1043797Y2207690D1*
X1045110Y2204698D1*
X1046284Y2201706D1*
X1047335Y2198714D1*
X1048490Y2195722D1*
X1049786Y2192730D1*
X1051096Y2189738D1*
X1052269Y2186745D1*
X1053308Y2183753D1*
X1054369Y2180761D1*
X1055389Y2177769D1*
X1056364Y2174777D1*
X1057486Y2171785D1*
X1058782Y2168793D1*
X1060181Y2165801D1*
X1061639Y2162808D1*
X1063118Y2159816D1*
X1064599Y2156824D1*
X1065997Y2153832D1*
X1067207Y2150840D1*
X1068272Y2147848D1*
X1069443Y2144856D1*
X1070847Y2141864D1*
X1072528Y2138871D1*
X1074324Y2135879D1*
X1075865Y2132887D1*
X1077206Y2129895D1*
X1078741Y2126903D1*
X1080529Y2123911D1*
X1082380Y2120919D1*
X1084317Y2117927D1*
X1086332Y2114934D1*
X1088303Y2111942D1*
X1090391Y2108950D1*
X1092805Y2105958D1*
X1095487Y2102966D1*
X1098230Y2099974D1*
X1100705Y2096982D1*
X1102652Y2093990D1*
X1104252Y2090997D1*
X1047402Y2228635D2*
X1056252Y2225643D1*
X1064705Y2222651D1*
X1072244Y2219659D1*
X1078347Y2216667D1*
X1082783Y2213675D1*
X1085836Y2210682D1*
X1088045Y2207690D1*
X1089748Y2204698D1*
X1091077Y2201706D1*
X1092174Y2198714D1*
X1093244Y2195722D1*
X1094178Y2192730D1*
X1094868Y2189738D1*
X1095550Y2186745D1*
X1096414Y2183753D1*
X1097342Y2180761D1*
X1098266Y2177769D1*
X1099268Y2174777D1*
X1100164Y2171785D1*
X1100740Y2168793D1*
X1101049Y2165801D1*
X1101289Y2162808D1*
X1101725Y2159816D1*
X1102463Y2156824D1*
X1103238Y2153832D1*
X1103762Y2150840D1*
X1104041Y2147848D1*
X1104168Y2144856D1*
X1104221Y2141864D1*
X1104252Y2138871D1*
X1104365Y2135879D1*
X1104749Y2132887D1*
X1105466Y2129895D1*
X1106234Y2126903D1*
X1106756Y2123911D1*
X1107033Y2120919D1*
X1107160Y2117927D1*
X1107213Y2114934D1*
X1107233Y2111942D1*
X1107252Y2108950D1*
X1107360Y2105958D1*
X1107742Y2102966D1*
X1108459Y2099974D1*
X1109234Y2096982D1*
X1109801Y2093990D1*
X1110236Y2090997D1*
X1092283Y2213675D2*
X1092758Y2210682D1*
X1093605Y2207690D1*
X1094761Y2204698D1*
X1096013Y2201706D1*
X1097163Y2198714D1*
X1098194Y2195722D1*
X1099240Y2192730D1*
X1100166Y2189738D1*
X1100853Y2186745D1*
X1101535Y2183753D1*
X1102386Y2180761D1*
X1103221Y2177769D1*
X1103869Y2174777D1*
X1104535Y2171785D1*
X1105382Y2168793D1*
X1106225Y2165801D1*
X1106990Y2162808D1*
X1108154Y2159816D1*
X1110215Y2156824D1*
X1113018Y2153832D1*
X1116064Y2150840D1*
X1119130Y2147848D1*
X1122180Y2144856D1*
X1125311Y2141864D1*
X1128809Y2138871D1*
X1133009Y2135879D1*
X1137916Y2132887D1*
X1143150Y2129895D1*
X1095276Y2213675D2*
X1103664Y2210682D1*
X1111386Y2207690D1*
X1118256Y2204698D1*
X1124228Y2201706D1*
X1129196Y2198714D1*
X1133177Y2195722D1*
X1136295Y2192730D1*
X1138676Y2189738D1*
X1140491Y2186745D1*
X1141779Y2183753D1*
X1142523Y2180761D1*
X1142888Y2177769D1*
X1143048Y2174777D1*
X1143112Y2171785D1*
X1143136Y2168793D1*
X1143145Y2165801D1*
X1143148Y2162808D1*
X1143161Y2159816D1*
X1143266Y2156824D1*
X1143648Y2153832D1*
X1144364Y2150840D1*
X1145132Y2147848D1*
X1145653Y2144856D1*
X1145943Y2141864D1*
X1146183Y2138871D1*
X1146698Y2135879D1*
X1147742Y2132887D1*
X1149134Y2129895D1*
Y2207690D2*
X1149146Y2204698D1*
X1149251Y2201706D1*
X1149644Y2198714D1*
X1150466Y2195722D1*
X1151637Y2192730D1*
X1153098Y2189738D1*
X1155022Y2186745D1*
X1157591Y2183753D1*
X1160565Y2180761D1*
X1163356Y2177769D1*
X1165758Y2174777D1*
X1168037Y2171785D1*
X1170431Y2168793D1*
X1172777Y2165801D1*
X1174930Y2162808D1*
X1177104Y2159816D1*
X1179554Y2156824D1*
X1182250Y2153832D1*
X1185019Y2150840D1*
X1187670Y2147848D1*
X1190201Y2144856D1*
X1192754Y2141864D1*
X1195284Y2138871D1*
X1197846Y2135879D1*
X1200743Y2132887D1*
X1203867Y2129895D1*
X1206815Y2126903D1*
X1209522Y2123911D1*
X1212255Y2120919D1*
X1215079Y2117927D1*
X1217889Y2114934D1*
X1220479Y2111942D1*
X1222893Y2108950D1*
X1225951Y2105958D1*
X1231000Y2102966D1*
X1238725Y2099974D1*
X1248327Y2096982D1*
X1258363Y2093990D1*
X1268089Y2090997D1*
X1277360Y2088005D1*
X1286061Y2085013D1*
X1294094Y2082021D1*
X1301732Y2079029D1*
X1155118Y2207690D2*
X1161451Y2204698D1*
X1167782Y2201706D1*
X1173718Y2198714D1*
X1179078Y2195722D1*
X1184090Y2192730D1*
X1189040Y2189738D1*
X1193941Y2186745D1*
X1198506Y2183753D1*
X1202750Y2180761D1*
X1206890Y2177769D1*
X1210838Y2174777D1*
X1214440Y2171785D1*
X1217843Y2168793D1*
X1221354Y2165801D1*
X1225119Y2162808D1*
X1228899Y2159816D1*
X1232421Y2156824D1*
X1235693Y2153832D1*
X1238813Y2150840D1*
X1241858Y2147848D1*
X1244871Y2144856D1*
X1247870Y2141864D1*
X1250865Y2138871D1*
X1253846Y2135879D1*
X1256745Y2132887D1*
X1259461Y2129895D1*
X1262106Y2126903D1*
X1264943Y2123911D1*
X1267799Y2120919D1*
X1270319Y2117927D1*
X1272694Y2114934D1*
X1275239Y2111942D1*
X1277986Y2108950D1*
X1280876Y2105958D1*
X1283925Y2102966D1*
X1287280Y2099974D1*
X1290982Y2096982D1*
X1294739Y2093990D1*
X1298252Y2090997D1*
X1301522Y2088005D1*
X1304641Y2085013D1*
X1307687Y2082021D1*
X1310709Y2079029D1*
X1370551Y2204698D2*
X1370563Y2201706D1*
X1370668Y2198714D1*
X1371049Y2195722D1*
X1371766Y2192730D1*
X1372545Y2189738D1*
X1373172Y2186745D1*
X1373842Y2183753D1*
X1374791Y2180761D1*
X1375992Y2177769D1*
X1377262Y2174777D1*
X1378420Y2171785D1*
X1379452Y2168793D1*
X1380500Y2165801D1*
X1381426Y2162808D1*
X1382113Y2159816D1*
X1382795Y2156824D1*
X1383646Y2153832D1*
X1384469Y2150840D1*
X1385012Y2147848D1*
X1385297Y2144856D1*
X1385427Y2141864D1*
X1385480Y2138871D1*
X1385512Y2135879D1*
X1385636Y2132887D1*
X1386126Y2129895D1*
X1387236Y2126903D1*
X1388825Y2123911D1*
X1390507Y2120919D1*
X1392140Y2117927D1*
X1393810Y2114934D1*
X1395714Y2111942D1*
X1397941Y2108950D1*
X1400216Y2105958D1*
X1402318Y2102966D1*
X1404357Y2099974D1*
X1406457Y2096982D1*
X1373543Y2204698D2*
X1376896Y2201706D1*
X1380351Y2198714D1*
X1383782Y2195722D1*
X1387236Y2192730D1*
X1390646Y2189738D1*
X1393629Y2186745D1*
X1396095Y2183753D1*
X1398310Y2180761D1*
X1400427Y2177769D1*
X1402335Y2174777D1*
X1404046Y2171785D1*
X1405632Y2168793D1*
X1407073Y2165801D1*
X1408300Y2162808D1*
X1409371Y2159816D1*
X1410533Y2156824D1*
X1411832Y2153832D1*
X1413132Y2150840D1*
X1414199Y2147848D1*
X1414857Y2144856D1*
X1415201Y2141864D1*
X1415454Y2138871D1*
X1415896Y2135879D1*
X1416635Y2132887D1*
X1417411Y2129895D1*
X1417935Y2126903D1*
X1418202Y2123911D1*
X1418224Y2120919D1*
X1417896Y2117927D1*
X1417199Y2114934D1*
X1416439Y2111942D1*
X1415920Y2108950D1*
X1415643Y2105958D1*
X1415517Y2102966D1*
X1415463Y2099974D1*
X1415433Y2096982D1*
X1143150Y2180761D2*
X1145554Y2177769D1*
X1147304Y2174777D1*
X1148306Y2171785D1*
X1148792Y2168793D1*
X1149002Y2165801D1*
X1149086Y2162808D1*
X1149129Y2159816D1*
X1149245Y2156824D1*
X1149630Y2153832D1*
X1150348Y2150840D1*
X1151116Y2147848D1*
X1151638Y2144856D1*
X1151915Y2141864D1*
X1152042Y2138871D1*
X1152095Y2135879D1*
X1152115Y2132887D1*
X1152122Y2129895D1*
X1152125Y2126903D1*
X1152126Y2123911D1*
Y2120919D1*
Y2117927D1*
Y2114934D1*
Y2111942D1*
Y2108950D1*
Y2105958D1*
X1152138Y2102966D1*
X1152243Y2099974D1*
X1152624Y2096982D1*
X1153341Y2093990D1*
X1154116Y2090997D1*
X1154683Y2088005D1*
X1155118Y2085013D1*
X1152126Y2180761D2*
X1155118Y2177769D1*
X1158110Y2174777D1*
X1161102Y2171785D1*
X1164083Y2168793D1*
X1166970Y2165801D1*
X1169581Y2162808D1*
X1171844Y2159816D1*
X1173964Y2156824D1*
X1176053Y2153832D1*
X1178039Y2150840D1*
X1180032Y2147848D1*
X1182057Y2144856D1*
X1183930Y2141864D1*
X1185627Y2138871D1*
X1187209Y2135879D1*
X1188649Y2132887D1*
X1189875Y2129895D1*
X1190946Y2126903D1*
X1192108Y2123911D1*
X1193409Y2120919D1*
X1194736Y2117927D1*
X1195944Y2114934D1*
X1197008Y2111942D1*
X1322677Y2174777D2*
X1319811Y2171785D1*
X1317319Y2168793D1*
X1315554Y2165801D1*
X1314374Y2162808D1*
X1314341Y2159816D1*
X1315592Y2156824D1*
X1317552Y2153832D1*
X1320040Y2150840D1*
X1322814Y2147848D1*
X1325719Y2144856D1*
X1328691Y2141864D1*
X1331765Y2138871D1*
X1335029Y2135879D1*
X1338355Y2132887D1*
X1341409Y2129895D1*
X1344249Y2126903D1*
X1347273Y2123911D1*
X1350450Y2120919D1*
X1353418Y2117927D1*
X1356133Y2114934D1*
X1358868Y2111942D1*
X1361693Y2108950D1*
X1364503Y2105958D1*
X1367079Y2102966D1*
X1369316Y2099974D1*
X1371413Y2096982D1*
X1373543Y2093990D1*
X1331654Y2174777D2*
X1337050Y2171785D1*
X1341792Y2168793D1*
X1345786Y2165801D1*
X1349264Y2162808D1*
X1352455Y2159816D1*
X1355425Y2156824D1*
X1358068Y2153832D1*
X1360354Y2150840D1*
X1362583Y2147848D1*
X1365043Y2144856D1*
X1367653Y2141864D1*
X1370137Y2138871D1*
X1372348Y2135879D1*
X1374448Y2132887D1*
X1376529Y2129895D1*
X1378513Y2126903D1*
X1380505Y2123911D1*
X1382541Y2120919D1*
X1384519Y2117927D1*
X1386598Y2114934D1*
X1388908Y2111942D1*
X1391209Y2108950D1*
X1393244Y2105958D1*
X1395031Y2102966D1*
X1396736Y2099974D1*
X1398536Y2096982D1*
X1400472Y2093990D1*
X843937Y2168793D2*
X841533Y2165801D1*
X839783Y2162808D1*
X838781Y2159816D1*
X838307Y2156824D1*
X838202Y2153832D1*
X838499Y2150840D1*
X839185Y2147848D1*
X839952Y2144856D1*
X840575Y2141864D1*
X841245Y2138871D1*
X842193Y2135879D1*
X843405Y2132887D1*
X844769Y2129895D1*
X846214Y2126903D1*
X847687Y2123911D1*
X849178Y2120919D1*
X850681Y2117927D1*
X852272Y2114934D1*
X854053Y2111942D1*
X855981Y2108950D1*
X857813Y2105958D1*
X859494Y2102966D1*
X861082Y2099974D1*
X862625Y2096982D1*
X864244Y2093990D1*
X866124Y2090997D1*
X868341Y2088005D1*
X870626Y2085013D1*
X872845Y2082021D1*
X875285Y2079029D1*
X878068Y2076037D1*
X880825Y2073045D1*
X883442Y2070052D1*
X886136Y2067060D1*
X888957Y2064068D1*
X891867Y2061076D1*
X894836Y2058084D1*
X897908Y2055092D1*
X901183Y2052100D1*
X904614Y2049108D1*
X908049Y2046115D1*
X911617Y2043123D1*
X915514Y2040131D1*
X919605Y2037139D1*
X923673Y2034147D1*
X927663Y2031155D1*
X931689Y2028163D1*
X935590Y2025171D1*
X939162Y2022178D1*
X942454Y2019186D1*
X945581Y2016194D1*
X948629Y2013202D1*
X951642Y2010210D1*
X954653Y2007218D1*
X957753Y2004226D1*
X961128Y2001234D1*
X964837Y1998241D1*
X968608Y1995249D1*
X972239Y1992257D1*
X976006Y1989265D1*
X980317Y1986273D1*
X985122Y1983281D1*
X989758Y1980289D1*
X993619Y1977297D1*
X996878Y1974304D1*
X1000199Y1971312D1*
X1003936Y1968320D1*
X1008041Y1965328D1*
X1012355Y1962336D1*
X1016766Y1959344D1*
X1021147Y1956352D1*
X1025376Y1953360D1*
X1029449Y1950367D1*
X834961Y2168793D2*
X845639Y2165801D1*
X854728Y2162808D1*
X861882Y2159816D1*
X867573Y2156824D1*
X872241Y2153832D1*
X876121Y2150840D1*
X879432Y2147848D1*
X882224Y2144856D1*
X884571Y2141864D1*
X886823Y2138871D1*
X889291Y2135879D1*
X891903Y2132887D1*
X894400Y2129895D1*
X896729Y2126903D1*
X899303Y2123911D1*
X902377Y2120919D1*
X905487Y2117927D1*
X908262Y2114934D1*
X911093Y2111942D1*
X914386Y2108950D1*
X917913Y2105958D1*
X921318Y2102966D1*
X924542Y2099974D1*
X927643Y2096982D1*
X930681Y2093990D1*
X933691Y2090997D1*
X936689Y2088005D1*
X939684Y2085013D1*
X942677Y2082021D1*
X945681Y2079029D1*
X948767Y2076037D1*
X952047Y2073045D1*
X955479Y2070052D1*
X958927Y2067060D1*
X962600Y2064068D1*
X966866Y2061076D1*
X971558Y2058084D1*
X975918Y2055092D1*
X979437Y2052100D1*
X982637Y2049108D1*
X986105Y2046115D1*
X989803Y2043123D1*
X993614Y2040131D1*
X997563Y2037139D1*
X1001422Y2034147D1*
X1004878Y2031155D1*
X1007783Y2028163D1*
X1010167Y2025171D1*
X1012325Y2022178D1*
X1014488Y2019186D1*
X1011671Y2016194D1*
X1010613Y2013202D1*
X1009876Y2010210D1*
X1009278Y2007218D1*
X1008988Y2004226D1*
X1009161Y2001234D1*
X1009852Y1998241D1*
X1010857Y1995249D1*
X1013372Y1992257D1*
X1019357Y1989265D1*
X1025692Y1986273D1*
X1030555Y1983281D1*
X1033675Y1980289D1*
X1035718Y1977297D1*
X1037057Y1974304D1*
X1037806Y1971312D1*
X1038157Y1968320D1*
X1038209Y1965328D1*
X1037890Y1962336D1*
X1037197Y1959344D1*
X1036431Y1956352D1*
X1035867Y1953360D1*
X1035433Y1950367D1*
X1110236Y2141864D2*
Y2138871D1*
Y2135879D1*
Y2132887D1*
X1110248Y2129895D1*
X1110353Y2126903D1*
X1110734Y2123911D1*
X1111451Y2120919D1*
X1112218Y2117927D1*
X1112740Y2114934D1*
X1113018Y2111942D1*
X1113144Y2108950D1*
X1113197Y2105958D1*
X1113217Y2102966D1*
X1113236Y2099974D1*
X1113344Y2096982D1*
X1113726Y2093990D1*
X1114443Y2090997D1*
X1115222Y2088005D1*
X1115849Y2085013D1*
X1116508Y2082021D1*
X1117363Y2079029D1*
X1118300Y2076037D1*
X1119328Y2073045D1*
X1120723Y2070052D1*
X1122453Y2067060D1*
X1124293Y2064068D1*
X1126320Y2061076D1*
X1128666Y2058084D1*
X1131181Y2055092D1*
X1116220Y2141864D2*
X1119338Y2138871D1*
X1122807Y2135879D1*
X1126804Y2132887D1*
X1131004Y2129895D1*
X1134950Y2126903D1*
X1138692Y2123911D1*
X1142340Y2120919D1*
X1145792Y2117927D1*
X1149134Y2114934D1*
X1140157Y2111942D1*
X1421417Y2138871D2*
Y2135879D1*
Y2132887D1*
Y2129895D1*
Y2126903D1*
Y2123911D1*
Y2120919D1*
Y2117927D1*
Y2114934D1*
X1421406Y2111942D1*
X1421300Y2108950D1*
X1420919Y2105958D1*
X1420203Y2102966D1*
X1419435Y2099974D1*
X1418913Y2096982D1*
X1418648Y2093990D1*
X1418626Y2090997D1*
X1418967Y2088005D1*
X1419780Y2085013D1*
X1421038Y2082021D1*
X1422760Y2079029D1*
X1424914Y2076037D1*
X1427163Y2073045D1*
X1429280Y2070052D1*
X1431429Y2067060D1*
X1433770Y2064068D1*
X1436095Y2061076D1*
X1438229Y2058084D1*
X1440295Y2055092D1*
X1442364Y2052100D1*
X1444343Y2049108D1*
X1446333Y2046115D1*
X1448357Y2043123D1*
X1450229Y2040131D1*
X1451927Y2037139D1*
X1453520Y2034147D1*
X1455053Y2031155D1*
X1456567Y2028163D1*
X1458067Y2025171D1*
X1459555Y2022178D1*
X1460956Y2019186D1*
X1462167Y2016194D1*
X1463220Y2013202D1*
X1464275Y2010210D1*
X1465204Y2007218D1*
X1465892Y2004226D1*
X1466574Y2001234D1*
X1467426Y1998241D1*
X1468260Y1995249D1*
X1468908Y1992257D1*
X1469575Y1989265D1*
X1470433Y1986273D1*
X1471370Y1983281D1*
X1472411Y1980289D1*
X1473922Y1977297D1*
X1476127Y1974304D1*
X1478949Y1971312D1*
X1481970Y1968320D1*
X1484456Y1965328D1*
X1486073Y1962336D1*
X1487244Y1959344D1*
X1427402Y2138871D2*
X1427978Y2135879D1*
X1429103Y2132887D1*
X1430607Y2129895D1*
X1432015Y2126903D1*
X1433302Y2123911D1*
X1434804Y2120919D1*
X1436479Y2117927D1*
X1437946Y2114934D1*
X1439166Y2111942D1*
X1440402Y2108950D1*
X1441733Y2105958D1*
X1443057Y2102966D1*
X1444235Y2099974D1*
X1445287Y2096982D1*
X1446442Y2093990D1*
X1447751Y2090997D1*
X1449154Y2088005D1*
X1450603Y2085013D1*
X1451989Y2082021D1*
X1453194Y2079029D1*
X1454245Y2076037D1*
X1455311Y2073045D1*
X1456333Y2070052D1*
X1457309Y2067060D1*
X1458431Y2064068D1*
X1459726Y2061076D1*
X1461126Y2058084D1*
X1462584Y2055092D1*
X1464063Y2052100D1*
X1465544Y2049108D1*
X1466942Y2046115D1*
X1468164Y2043123D1*
X1469322Y2040131D1*
X1470758Y2037139D1*
X1472403Y2034147D1*
X1473858Y2031155D1*
X1475074Y2028163D1*
X1476308Y2025171D1*
X1477639Y2022178D1*
X1478963Y2019186D1*
X1480141Y2016194D1*
X1481192Y2013202D1*
X1482348Y2010210D1*
X1483644Y2007218D1*
X1484943Y2004226D1*
X1486022Y2001234D1*
X1486784Y1998241D1*
X1487499Y1995249D1*
X1488363Y1992257D1*
X1489191Y1989265D1*
X1489747Y1986273D1*
X1490138Y1983281D1*
X1490649Y1980289D1*
X1491419Y1977297D1*
X1492207Y1974304D1*
X1492736Y1971312D1*
X1493016Y1968320D1*
X1493144Y1965328D1*
X1493199Y1962336D1*
X1493228Y1959344D1*
X1271811Y2126903D2*
X1274803Y2123911D1*
X1277795Y2120919D1*
X1280776Y2117927D1*
X1283674Y2114934D1*
X1286390Y2111942D1*
X1289047Y2108950D1*
X1291989Y2105958D1*
X1295226Y2102966D1*
X1298463Y2099974D1*
X1301605Y2096982D1*
X1304684Y2093990D1*
X1307813Y2090997D1*
X1311199Y2088005D1*
X1314913Y2085013D1*
X1318674Y2082021D1*
X1322189Y2079029D1*
X1325458Y2076037D1*
X1328577Y2073045D1*
X1331634Y2070052D1*
X1334751Y2067060D1*
X1338156Y2064068D1*
X1342077Y2061076D1*
X1346612Y2058084D1*
X1351676Y2055092D1*
X1356978Y2052100D1*
X1362344Y2049108D1*
X1367821Y2046115D1*
X1373198Y2043123D1*
X1378250Y2040131D1*
X1382928Y2037139D1*
X1387148Y2034147D1*
X1390762Y2031155D1*
X1393732Y2028163D1*
X1396165Y2025171D1*
X1398477Y2022178D1*
X1401181Y2019186D1*
X1404667Y2016194D1*
X1408969Y2013202D1*
X1413444Y2010210D1*
X1417460Y2007218D1*
X1421001Y2004226D1*
X1424254Y2001234D1*
X1427402Y1998241D1*
X1277795Y2126903D2*
X1284921Y2123911D1*
X1293039Y2120919D1*
X1301520Y2117927D1*
X1309001Y2114934D1*
X1315195Y2111942D1*
X1320975Y2108950D1*
X1326843Y2105958D1*
X1332502Y2102966D1*
X1337641Y2099974D1*
X1342324Y2096982D1*
X1346918Y2093990D1*
X1351749Y2090997D1*
X1356452Y2088005D1*
X1360558Y2085013D1*
X1364119Y2082021D1*
X1367258Y2079029D1*
X1369861Y2076037D1*
X1371690Y2073045D1*
X1372784Y2070052D1*
X1373543Y2067060D1*
X1379528D1*
X1381138Y2064068D1*
X1383271Y2061076D1*
X1385817Y2058084D1*
X1388511Y2055092D1*
X1391044Y2052100D1*
X1393290Y2049108D1*
X1395504Y2046115D1*
X1397959Y2043123D1*
X1400567Y2040131D1*
X1403050Y2037139D1*
X1405273Y2034147D1*
X1407478Y2031155D1*
X1409929Y2028163D1*
X1412536Y2025171D1*
X1415019Y2022178D1*
X1417242Y2019186D1*
X1419435Y2016194D1*
X1421793Y2013202D1*
X1424123Y2010210D1*
X1426271Y2007218D1*
X1428435Y2004226D1*
X1430839Y2001234D1*
X1433386Y1998241D1*
X1167087Y2120919D2*
X1165705Y2117927D1*
X1164846Y2114934D1*
X1164411Y2111942D1*
X1164242Y2108950D1*
X1164392Y2105958D1*
X1164897Y2102966D1*
X1167224Y2099974D1*
X1170079Y2096982D1*
X1176063Y2120919D2*
X1180997Y2117927D1*
X1185964Y2114934D1*
X1191024Y2111942D1*
X1038425Y2117927D2*
X1039025Y2114934D1*
X1040029Y2111942D1*
X1042658Y2108950D1*
X1045946Y2105958D1*
X1049518Y2102966D1*
X1052995Y2099974D1*
X1056378Y2096982D1*
X1200000Y2117927D2*
X1200474Y2114934D1*
X1201321Y2111942D1*
X1202489Y2108950D1*
X1203835Y2105958D1*
X1205273Y2102966D1*
X1206755Y2099974D1*
X1208362Y2096982D1*
X1210360Y2093990D1*
X1213139Y2090997D1*
X1216798Y2088005D1*
X1220945Y2085013D1*
X1208976Y2117927D2*
X1209467Y2114934D1*
X1211595Y2111942D1*
X1214580Y2108950D1*
X1217432Y2105958D1*
X1219385Y2102966D1*
X1220726Y2099974D1*
X1221888Y2096982D1*
X1222947Y2093990D1*
X1224002Y2090997D1*
X1225343Y2088005D1*
X1226929Y2085013D1*
X1122205Y2111942D2*
X1122667Y2108950D1*
X1123409Y2105958D1*
X1124195Y2102966D1*
X1124836Y2099974D1*
X1125612Y2096982D1*
X1126943Y2093990D1*
X1128911Y2090997D1*
X1131181Y2088005D1*
X1128189Y2111942D2*
X954646Y2108950D2*
Y2105958D1*
Y2102966D1*
Y2099974D1*
Y2096982D1*
X954657Y2093990D1*
X954763Y2090997D1*
X955144Y2088005D1*
X955872Y2085013D1*
X956768Y2082021D1*
X957893Y2079029D1*
X959767Y2076037D1*
X962593Y2073045D1*
X965923Y2070052D1*
X969285Y2067060D1*
X972598Y2064068D1*
X957638Y2108950D2*
X963160Y2105958D1*
X968402Y2102966D1*
X973600Y2099974D1*
X978943Y2096982D1*
X984152Y2093990D1*
X988805Y2090997D1*
X992821Y2088005D1*
X996535Y2085013D1*
X991243Y2082021D1*
X987286Y2079029D1*
X984316Y2076037D1*
X981959Y2073045D1*
X980294Y2070052D1*
X979287Y2067060D1*
X978583Y2064068D1*
X1083307Y2108950D2*
X1077787Y2105958D1*
X1072570Y2102966D1*
X1067484Y2099974D1*
X1062362Y2096982D1*
X1086299Y2108950D2*
Y2105958D1*
Y2102966D1*
Y2099974D1*
Y2096982D1*
Y2093990D1*
X1077323D1*
X1075610Y2090997D1*
X1073210Y2088005D1*
X1070433Y2085013D1*
X1068063Y2082021D1*
X1066498Y2079029D1*
X1065354Y2076037D1*
X1056378D1*
Y2073045D1*
Y2070052D1*
X1179055Y2099974D2*
X1176063Y2096982D1*
X1164094Y2099974D2*
X1179297Y2096982D1*
X1192000Y2093990D1*
X1202992Y2090997D1*
X1196682Y2088005D1*
X1190057Y2085013D1*
X1184167Y2082021D1*
X1179055Y2079029D1*
X1379528Y2093990D2*
X1382520D2*
X1149134D2*
X1140157Y2090997D1*
X1131181Y2088005D1*
X1143150Y2093990D2*
X1145592Y2090997D1*
X1147534Y2088005D1*
X1149134Y2085013D1*
X1232913Y2093990D2*
X1233027Y2090997D1*
X1233423Y2088005D1*
X1234245Y2085013D1*
X1235405Y2082021D1*
X1236761Y2079029D1*
X1238292Y2076037D1*
X1240050Y2073045D1*
X1241981Y2070052D1*
X1243903Y2067060D1*
X1245872Y2064068D1*
X1247900Y2061076D1*
X1249875Y2058084D1*
X1251965Y2055092D1*
X1254368Y2052100D1*
X1256944Y2049108D1*
X1259304Y2046115D1*
X1261037Y2043123D1*
X1262094Y2040131D1*
X1262835Y2037139D1*
X1268819D1*
X1270316Y2034147D1*
X1272065Y2031155D1*
X1273905Y2028163D1*
X1275926Y2025171D1*
X1278212Y2022178D1*
X1280516Y2019186D1*
X1282654Y2016194D1*
X1284835Y2013202D1*
X1287377Y2010210D1*
X1290372Y2007218D1*
X1293675Y2004226D1*
X1297045Y2001234D1*
X1300488Y1998241D1*
X1304007Y1995249D1*
X1307473Y1992257D1*
X1311049Y1989265D1*
X1314852Y1986273D1*
X1318651Y1983281D1*
X1322180Y1980289D1*
X1325455Y1977297D1*
X1328577Y1974304D1*
X1331624Y1971312D1*
X1334646Y1968320D1*
X1232913Y2093990D2*
X1242682Y2090997D1*
X1253423Y2088005D1*
X1264722Y2085013D1*
X1274951Y2082021D1*
X1283283Y2079029D1*
X1290699Y2076037D1*
X1298145Y2073045D1*
X1305372Y2070052D1*
X1312014Y2067060D1*
X1318258Y2064068D1*
X1323815Y2061076D1*
X1328132Y2058084D1*
X1331654Y2055092D1*
X1367559Y2090997D2*
X1364567Y2088005D1*
X1367559Y2090997D2*
X1370551Y2088005D1*
X996535Y2082021D2*
X999528Y2079029D1*
X996535Y2085013D2*
X1002520Y2082021D1*
X1008504Y2079029D1*
X1376535Y2085013D2*
X1379065Y2082021D1*
X1381304Y2079029D1*
X1383416Y2076037D1*
X1385503Y2073045D1*
X1387488Y2070052D1*
X1389481Y2067060D1*
X1391518Y2064068D1*
X1393495Y2061076D1*
X1395574Y2058084D1*
X1397884Y2055092D1*
X1400197Y2052100D1*
X1402326Y2049108D1*
X1404402Y2046115D1*
X1406564Y2043123D1*
X1408830Y2040131D1*
X1411261Y2037139D1*
X1413717Y2034147D1*
X1416060Y2031155D1*
X1418292Y2028163D1*
X1420362Y2025171D1*
X1422480Y2022178D1*
X1424805Y2019186D1*
X1427123Y2016194D1*
X1429266Y2013202D1*
X1431425Y2010210D1*
X1433769Y2007218D1*
X1436095Y2004226D1*
X1438229Y2001234D1*
X1440295Y1998241D1*
X1442364Y1995249D1*
X1444354Y1992257D1*
X1446450Y1989265D1*
X1448864Y1986273D1*
X1451542Y1983281D1*
X1454331Y1980289D1*
X1397480Y2085013D2*
X1404818Y2082021D1*
X1410568Y2079029D1*
X1414778Y2076037D1*
X1418113Y2073045D1*
X1420866Y2070052D1*
X1423182Y2067060D1*
X1425405Y2064068D1*
X1427773Y2061076D1*
X1430106Y2058084D1*
X1432255Y2055092D1*
X1434416Y2052100D1*
X1436761Y2049108D1*
X1439087Y2046115D1*
X1441233Y2043123D1*
X1443393Y2040131D1*
X1445725Y2037139D1*
X1447946Y2034147D1*
X1449699Y2031155D1*
X1451049Y2028163D1*
X1452338Y2025171D1*
X1453690Y2022178D1*
X1455022Y2019186D1*
X1456202Y2016194D1*
X1457255Y2013202D1*
X1458410Y2010210D1*
X1459707Y2007218D1*
X1461006Y2004226D1*
X1462074Y2001234D1*
X1462731Y1998241D1*
X1463075Y1995249D1*
X1463328Y1992257D1*
X1463772Y1989265D1*
X1464537Y1986273D1*
X1465436Y1983281D1*
X1466299Y1980289D1*
X1152126Y2079029D2*
X1152249Y2076037D1*
X1152713Y2073045D1*
X1153737Y2070052D1*
X1155118Y2067060D1*
X1149128Y2064068D1*
X1144912Y2061076D1*
X1142185Y2058084D1*
X1140157Y2055092D1*
X1167087Y2079029D2*
X1167224Y2076037D1*
X1167542Y2073045D1*
X1169354Y2070052D1*
X1172108Y2067060D1*
X1175399Y2064068D1*
X1178743Y2061076D1*
X1182047Y2058084D1*
X1170079Y2079029D2*
X1226929Y2082021D2*
X1223937Y2079029D1*
X1226929Y2082021D2*
X1229921Y2079029D1*
X1155118Y2076037D2*
X1155694Y2073045D1*
X1156831Y2070052D1*
X1158429Y2067060D1*
X1160125Y2064068D1*
X1161863Y2061076D1*
X1163915Y2058084D1*
X1166536Y2055092D1*
X1169518Y2052100D1*
X1172200Y2049108D1*
X1174411Y2046115D1*
X1175309Y2043123D1*
X1175026Y2040131D1*
X1172836Y2037139D1*
X1170079Y2034147D1*
X1171574Y2031155D1*
X1172828Y2028163D1*
X1174086Y2025171D1*
X1175427Y2022178D1*
X1176755Y2019186D1*
X1177947Y2016194D1*
X1179104Y2013202D1*
X1180641Y2010210D1*
X1182666Y2007218D1*
X1184847Y2004226D1*
X1186909Y2001234D1*
X1188933Y1998241D1*
X1191024Y1995249D1*
X1101260Y2076037D2*
X1101020Y2073045D1*
X1100488Y2070052D1*
X1098406Y2067060D1*
X1095974Y2064068D1*
X1093649Y2061076D1*
X1091361Y2058084D1*
X1088889Y2055092D1*
X1086299Y2052100D1*
X1107244Y2076037D2*
X1110122Y2073045D1*
X1112731Y2070052D1*
X1115006Y2067060D1*
X1117219Y2064068D1*
X1119572Y2061076D1*
X1121789Y2058084D1*
X1123439Y2055092D1*
X1124400Y2052100D1*
X1124891Y2049108D1*
X1125197Y2046115D1*
X1116220D1*
X1114268Y2043123D1*
X1111836Y2040131D1*
X1109426Y2037139D1*
X1107244Y2034147D1*
X1113228Y2031155D1*
X1108620Y2028163D1*
X1105266Y2025171D1*
X1102996Y2022178D1*
X1101260Y2019186D1*
X1220945Y2073045D2*
X1216135Y2070052D1*
X1212085Y2067060D1*
X1210341Y2064068D1*
X1208976Y2061076D1*
X1200000D1*
Y2058084D1*
X1220945Y2073045D2*
X1223475Y2070052D1*
X1225725Y2067060D1*
X1227931Y2064068D1*
X1230294Y2061076D1*
X1232615Y2058084D1*
X1234658Y2055092D1*
X1236437Y2052100D1*
X1238065Y2049108D1*
X1239613Y2046115D1*
X1241132Y2043123D1*
X1242633Y2040131D1*
X1244134Y2037139D1*
X1245628Y2034147D1*
X1247139Y2031155D1*
X1248749Y2028163D1*
X1250734Y2025171D1*
X1253338Y2022178D1*
X1256425Y2019186D1*
X1259601Y2016194D1*
X1262720Y2013202D1*
X1265779Y2010210D1*
X1268788Y2007218D1*
X1271687Y2004226D1*
X1274291Y2001234D1*
X1276463Y1998241D1*
X1278295Y1995249D1*
X1279944Y1992257D1*
X1281498Y1989265D1*
X1283008Y1986273D1*
X1284417Y1983281D1*
X1285630Y1980289D1*
X1286685Y1977297D1*
X1287740Y1974304D1*
X1288669Y1971312D1*
X1289357Y1968320D1*
X1290038Y1965328D1*
X1290890Y1962336D1*
X1291725Y1959344D1*
X1292373Y1956352D1*
X1293039Y1953360D1*
X1293885Y1950367D1*
X1294706Y1947375D1*
X1295248Y1944383D1*
X1295533Y1941391D1*
X1295663Y1938399D1*
X1295716Y1935407D1*
X1295713Y1932415D1*
X1295510Y1929423D1*
X1295023Y1926430D1*
X1293386Y1923438D1*
X1291778Y1920446D1*
X1290499Y1917454D1*
X1289060Y1914462D1*
X1286859Y1911470D1*
X1283947Y1908478D1*
X1280787Y1905486D1*
X1014488Y2070052D2*
X1013912Y2067060D1*
X1012786Y2064068D1*
X1011294Y2061076D1*
X1009993Y2058084D1*
X1009132Y2055092D1*
X1008504Y2052100D1*
X1017480Y2070052D2*
X1020472Y2067060D1*
X1023465Y2064068D1*
X1026457Y2061076D1*
X1029449Y2058084D1*
X1028271Y2055092D1*
X1028648Y2052100D1*
X1029449Y2049108D1*
X1025191Y2046115D1*
X1022227Y2043123D1*
X1020178Y2040131D1*
X1018687Y2037139D1*
X1017480Y2034147D1*
X1044409Y2064068D2*
X1047179Y2061076D1*
X1050301Y2058084D1*
X1054334Y2055092D1*
X1059054Y2052100D1*
X1063602Y2049108D1*
X1067743Y2046115D1*
X1071871Y2043123D1*
X1076127Y2040131D1*
X1080022Y2037139D1*
X1083323Y2034147D1*
X1086348Y2031155D1*
X1089207Y2028163D1*
X1091716Y2025171D1*
X1093673Y2022178D1*
X1095276Y2019186D1*
X1047402Y2064068D2*
X1055791Y2061076D1*
X1063535Y2058084D1*
X1070590Y2055092D1*
X1077323Y2052100D1*
X987559Y2058084D2*
X984567Y2055092D1*
X987559Y2058084D2*
X990551Y2055092D1*
X1322677D2*
X1309208Y2052100D1*
X1296877Y2049108D1*
X1287918Y2046115D1*
X1281625Y2043123D1*
X1278873Y2040131D1*
X1281254Y2037139D1*
X1283553Y2034147D1*
X1285671Y2031155D1*
X1287818Y2028163D1*
X1290214Y2025171D1*
X1292756Y2022178D1*
X1325669Y2055092D2*
X1334646Y2058084D2*
X1337638Y2055092D1*
X990551Y2052100D2*
X993543Y2049108D1*
X996547Y2046115D1*
X999653Y2043123D1*
X1003108Y2040131D1*
X1007123Y2037139D1*
X1011496Y2034147D1*
X993543Y2055092D2*
X996535Y2052100D1*
X1002520Y2055092D2*
X1005512Y2052100D1*
X1247874Y2046115D2*
X1248000Y2043123D1*
X1248500Y2040131D1*
X1249715Y2037139D1*
X1251698Y2034147D1*
X1254201Y2031155D1*
X1256983Y2028163D1*
X1259891Y2025171D1*
X1262851Y2022178D1*
X1265827Y2019186D1*
X1250866Y2046115D2*
X1253396Y2043123D1*
X1255646Y2040131D1*
X1257864Y2037139D1*
X1260320Y2034147D1*
X1262929Y2031155D1*
X1265410Y2028163D1*
X1267608Y2025171D1*
X1269689Y2022178D1*
X1271811Y2019186D1*
X1355591Y2037139D2*
X1349606Y2034147D1*
X1343622Y2031155D1*
X1361575Y2037139D2*
X1364567Y2034147D1*
X1367559Y2031155D1*
X1370551Y2028163D1*
X1065354Y2034147D2*
X1065229Y2031155D1*
X1064728Y2028163D1*
X1063525Y2025171D1*
X1061659Y2022178D1*
X1059654Y2019186D1*
X1058087Y2016194D1*
X1057161Y2013202D1*
X1056704Y2010210D1*
X1056493Y2007218D1*
X1056299Y2004226D1*
X1055806Y2001234D1*
X1054772Y1998241D1*
X1053386Y1995249D1*
X1056170Y1992257D1*
X1058020Y1989265D1*
X1059370Y1986273D1*
X1041417D1*
X1041429Y1983281D1*
X1041534Y1980289D1*
X1041916Y1977297D1*
X1042632Y1974304D1*
X1043399Y1971312D1*
X1043921Y1968320D1*
X1044199Y1965328D1*
X1044326Y1962336D1*
X1044366Y1959344D1*
X1044281Y1956352D1*
X1043907Y1953360D1*
X1043205Y1950367D1*
X1042556Y1947375D1*
X1042222Y1944383D1*
X1043175Y1941391D1*
X1045720Y1938399D1*
X1048965Y1935407D1*
X1052524Y1932415D1*
X1056057Y1929423D1*
X1059675Y1926430D1*
X1063511Y1923438D1*
X1067424Y1920446D1*
X1071338Y1917454D1*
X1075343Y1914462D1*
X1079337Y1911470D1*
X1083297Y1908478D1*
X1087409Y1905486D1*
X1091695Y1902493D1*
X1096098Y1899501D1*
X1100654Y1896509D1*
X1105506Y1893517D1*
X1110719Y1890525D1*
X1116075Y1887533D1*
X1121456Y1884541D1*
X1126831Y1881549D1*
X1131834Y1878556D1*
X1136178Y1875564D1*
X1140187Y1872572D1*
X1144192Y1869580D1*
X1148172Y1866588D1*
X1152135Y1863596D1*
X1156348Y1860604D1*
X1160990Y1857612D1*
X1165887Y1854619D1*
X1170353Y1851627D1*
X1174017Y1848635D1*
X1177615Y1845643D1*
X1181794Y1842651D1*
X1186155Y1839659D1*
X1190107Y1836667D1*
X1193629Y1833675D1*
X1196965Y1830682D1*
X1200462Y1827690D1*
X1204419Y1824698D1*
X1208955Y1821706D1*
X1213907Y1818714D1*
X1218713Y1815722D1*
X1222876Y1812730D1*
X1226476Y1809738D1*
X1229742Y1806745D1*
X1232847Y1803753D1*
X1235882Y1800761D1*
X1238889Y1797769D1*
X1241887Y1794777D1*
X1244881Y1791785D1*
X1247874Y1788793D1*
X1250866Y1785801D1*
X1253858Y1782808D1*
X1074331Y2034147D2*
X1077323Y2031155D1*
X1080303Y2028163D1*
X1083190Y2025171D1*
X1085789Y2022178D1*
X1087936Y2019186D1*
X1089558Y2016194D1*
X1090757Y2013202D1*
X1090529Y2010210D1*
X1090055Y2007218D1*
X1089637Y2004226D1*
X1089291Y2001234D1*
X1083307D1*
X1082720Y1998241D1*
X1081488Y1995249D1*
X1079567Y1992257D1*
X1077323Y1989265D1*
X1079265Y1986273D1*
X1081240Y1983281D1*
X1083307Y1980289D1*
X1078538Y1977297D1*
X1074331Y1974304D1*
X1078725Y1971312D1*
X1083307Y1968320D1*
X1071339Y1965328D1*
X1072731Y1962336D1*
X1073708Y1959344D1*
X1074629Y1956352D1*
X1075908Y1953360D1*
X1077353Y1950367D1*
X1078568Y1947375D1*
X1078252Y1944383D1*
X1076934Y1941391D1*
X1075682Y1938399D1*
X1075625Y1935407D1*
X1077443Y1932415D1*
X1079882Y1929423D1*
X1082983Y1926430D1*
X1087838Y1923438D1*
X1095283Y1920446D1*
X1104252Y1917454D1*
X1334646Y2034147D2*
Y2031155D1*
Y2028163D1*
X1370551Y2034147D2*
Y2031155D1*
Y2028163D1*
X1373543Y2034147D2*
X1376998Y2031155D1*
X1380732Y2028163D1*
X1384499Y2025171D1*
X1388026Y2022178D1*
X1391402Y2019186D1*
X1394902Y2016194D1*
X1398664Y2013202D1*
X1402455Y2010210D1*
X1406070Y2007218D1*
X1409630Y2004226D1*
X1413190Y2001234D1*
X1416667Y1998241D1*
X1420151Y1995249D1*
X1423679Y1992257D1*
X1427080Y1989265D1*
X1430394Y1986273D1*
X1425167Y1983281D1*
X1421375Y1980289D1*
X1418425Y1977297D1*
X1155118Y2031155D2*
X1157560Y2028163D1*
X1159502Y2025171D1*
X1161102Y2022178D1*
X1149134Y2019186D1*
X1150977Y2016194D1*
X1152590Y2013202D1*
X1153905Y2010210D1*
X1155003Y2007218D1*
X1156088Y2004226D1*
X1157117Y2001234D1*
X1158083Y1998241D1*
X1159101Y1995249D1*
X1160016Y1992257D1*
X1160698Y1989265D1*
X1161378Y1986273D1*
X1162241Y1983281D1*
X1163177Y1980289D1*
X1164185Y1977297D1*
X1165509Y1974304D1*
X1167087Y1971312D1*
X1161102Y2031155D2*
X1163632Y2028163D1*
X1165871Y2025171D1*
X1167983Y2022178D1*
X1170058Y2019186D1*
X1171950Y2016194D1*
X1173655Y2013202D1*
X1175251Y2010210D1*
X1176797Y2007218D1*
X1178405Y2004226D1*
X1180192Y2001234D1*
X1182121Y1998241D1*
X1183931Y1995249D1*
X1185379Y1992257D1*
X1186431Y1989265D1*
X1185639Y1986273D1*
X1183003Y1983281D1*
X1180283Y1980289D1*
X1178219Y1977297D1*
X1176951Y1974304D1*
X1176063Y1971312D1*
X1310709Y2031155D2*
Y2028163D1*
Y2025171D1*
X1313701Y2031155D2*
X1316693Y2028163D1*
X1319685Y2025171D1*
X1322677Y2031155D2*
Y2028163D1*
Y2025171D1*
X1226929D2*
X1223624Y2022178D1*
X1220872Y2019186D1*
X1220351Y2016194D1*
X1220945Y2013202D1*
X1301732Y2028163D2*
Y2025171D1*
Y2022178D1*
X1232913D2*
X1235941Y2019186D1*
X1239237Y2016194D1*
X1243267Y2013202D1*
X1248016Y2010210D1*
X1252477Y2007218D1*
X1255769Y2004226D1*
X1258226Y2001234D1*
X1259176Y1998241D1*
X1260010Y1995249D1*
X1260928Y1992257D1*
X1261789Y1989265D1*
X1262447Y1986273D1*
X1263116Y1983281D1*
X1263964Y1980289D1*
X1264785Y1977297D1*
X1265327Y1974304D1*
X1265612Y1971312D1*
X1265753Y1968320D1*
X1265912Y1965328D1*
X1266314Y1962336D1*
X1267038Y1959344D1*
X1267807Y1956352D1*
X1268330Y1953360D1*
X1268608Y1950367D1*
X1268735Y1947375D1*
X1268787Y1944383D1*
X1268808Y1941391D1*
X1268815Y1938399D1*
X1268818Y1935407D1*
X1268830Y1932415D1*
X1268936Y1929423D1*
X1269317Y1926430D1*
X1270034Y1923438D1*
X1270813Y1920446D1*
X1271440Y1917454D1*
X1272101Y1914462D1*
X1272970Y1911470D1*
X1273914Y1908478D1*
X1274803Y1905486D1*
X1211969Y2016194D2*
X1210379Y2013202D1*
X1208976Y2010210D1*
X1214961Y2013202D2*
X1202992Y2010210D2*
X1202866Y2007218D1*
X1202367Y2004226D1*
X1201162Y2001234D1*
X1199248Y1998241D1*
X1197008Y1995249D1*
X1268819Y2013202D2*
X1271811Y2010210D1*
X1274803Y2007218D1*
Y2013202D2*
X1277795Y2010210D1*
X1280787Y2007218D1*
X909764Y2010210D2*
Y2007218D1*
Y2004226D1*
Y2001234D1*
Y1998241D1*
Y1995249D1*
Y1992257D1*
X903780D1*
X904242Y1989265D1*
X904984Y1986273D1*
X905758Y1983281D1*
X906282Y1980289D1*
X906561Y1977297D1*
X906664Y1974304D1*
X906489Y1971312D1*
X905971Y1968320D1*
X903643Y1965328D1*
X900787Y1962336D1*
X903861Y1959344D1*
X905233Y1956352D1*
X905039Y1953360D1*
X904571Y1950367D1*
X904183Y1947375D1*
X903971Y1944383D1*
X903978Y1941391D1*
X904395Y1938399D1*
X905400Y1935407D1*
X906772Y1932415D1*
X918740Y2010210D2*
Y2007218D1*
X918752Y2004226D1*
X918866Y2001234D1*
X919328Y1998241D1*
X920351Y1995249D1*
X921732Y1992257D1*
X920351Y1989265D1*
X919492Y1986273D1*
X919057Y1983281D1*
X918864Y1980289D1*
X918786Y1977297D1*
X918756Y1974304D1*
X918746Y1971312D1*
X918742Y1968320D1*
X918741Y1965328D1*
X918740Y1962336D1*
X918717Y1959344D1*
X918495Y1956352D1*
X917969Y1953360D1*
X915756Y1950367D1*
X912886Y1947375D1*
X909764Y1944383D1*
X913069Y1941391D1*
X915821Y1938399D1*
X916342Y1935407D1*
X915748Y1932415D1*
X1140157Y2010210D2*
X1139607Y2007218D1*
X1138558Y2004226D1*
X1137165Y2001234D1*
X1138615Y1998241D1*
X1136654Y1995249D1*
X1134173Y1992257D1*
X1149134Y2010210D2*
X1149596Y2007218D1*
X1150350Y2004226D1*
X1151230Y2001234D1*
X1152135Y1998241D1*
X1153130Y1995249D1*
X1154036Y1992257D1*
X1154715Y1989265D1*
X1155406Y1986273D1*
X1156362Y1983281D1*
X1157566Y1980289D1*
X1158825Y1977297D1*
X1159889Y1974304D1*
X1160646Y1971312D1*
X1161358Y1968320D1*
X1162234Y1965328D1*
X1163166Y1962336D1*
X1164094Y1959344D1*
X1165122Y1956352D1*
X1166148Y1953360D1*
X1167087Y1950367D1*
X1283780Y2001234D2*
X1284254Y1998241D1*
X1285101Y1995249D1*
X1286268Y1992257D1*
X1287614Y1989265D1*
X1289052Y1986273D1*
X1290523Y1983281D1*
X1292002Y1980289D1*
X1293387Y1977297D1*
X1294503Y1974304D1*
X1295280Y1971312D1*
X1296000Y1968320D1*
X1296866Y1965328D1*
X1297694Y1962336D1*
X1298239Y1959344D1*
X1298525Y1956352D1*
X1298655Y1953360D1*
X1298708Y1950367D1*
X1298729Y1947375D1*
X1298736Y1944383D1*
X1298740Y1941391D1*
X1286772Y2001234D2*
X1290226Y1998241D1*
X1293960Y1995249D1*
X1297727Y1992257D1*
X1301243Y1989265D1*
X1304525Y1986273D1*
X1307738Y1983281D1*
X1311070Y1980289D1*
X1314546Y1977297D1*
X1318188Y1974304D1*
X1322422Y1971312D1*
X1327427Y1968320D1*
X1332607Y1965328D1*
X1337638Y1962336D1*
X1330067Y1959344D1*
X1323976Y1956352D1*
X1321376Y1953360D1*
X1320465Y1950367D1*
X1319981Y1947375D1*
X1319685Y1944383D1*
X1110236Y1998241D2*
X1113228Y1995249D1*
X1116220Y1992257D1*
X1119213Y1989265D1*
X1122205Y1986273D1*
X1125197Y1983281D1*
X1128189Y1980289D1*
X1131181Y1977297D1*
X1134173Y1974304D1*
X1137165Y1971312D1*
X1140169Y1968320D1*
X1143266Y1965328D1*
X1146640Y1962336D1*
X1150349Y1959344D1*
X1154116Y1956352D1*
X1157675Y1953360D1*
X1161102Y1950367D1*
X1110236Y1998241D2*
X1119213Y1995249D1*
X1128189Y1992257D1*
X1247874Y1995249D2*
X1247412Y1992257D1*
X1246669Y1989265D1*
X1245887Y1986273D1*
X1245318Y1983281D1*
X1244882Y1980289D1*
X1235906D1*
Y1977297D1*
Y1974304D1*
X1229921D1*
Y1971312D1*
Y1968320D1*
X1223937D1*
Y1965328D1*
Y1962336D1*
X1217953D1*
X1217502Y1959344D1*
X1216877Y1956352D1*
X1216304Y1953360D1*
X1217103Y1950367D1*
X1218468Y1947375D1*
X1220036Y1944383D1*
X1221608Y1941391D1*
X1223153Y1938399D1*
X1224669Y1935407D1*
X1226177Y1932415D1*
X1227674Y1929423D1*
X1229174Y1926430D1*
X1230668Y1923438D1*
X1232155Y1920446D1*
X1233555Y1917454D1*
X1234766Y1914462D1*
X1235819Y1911470D1*
X1236885Y1908478D1*
X1237908Y1905486D1*
X1238883Y1902493D1*
X1240006Y1899501D1*
X1241290Y1896509D1*
X1242583Y1893517D1*
X1243661Y1890525D1*
X1244423Y1887533D1*
X1245137Y1884541D1*
X1246001Y1881549D1*
X1246840Y1878556D1*
X1247490Y1875564D1*
X1248157Y1872572D1*
X1249003Y1869580D1*
X1249836Y1866588D1*
X1250483Y1863596D1*
X1251150Y1860604D1*
X1251996Y1857612D1*
X1252828Y1854619D1*
X1253475Y1851627D1*
X1254142Y1848635D1*
X1254988Y1845643D1*
X1255808Y1842651D1*
X1256351Y1839659D1*
X1256647Y1836667D1*
X1256894Y1833675D1*
X1257445Y1830682D1*
X1258681Y1827690D1*
X1260658Y1824698D1*
X1263060Y1821706D1*
X1265449Y1818714D1*
X1267535Y1815722D1*
X1269336Y1812730D1*
X1270964Y1809738D1*
X1272437Y1806745D1*
X1273706Y1803753D1*
X1274803Y1800761D1*
X1253858Y1995249D2*
X1256262Y1992257D1*
X1258012Y1989265D1*
X1259014Y1986273D1*
X1259500Y1983281D1*
X1259722Y1980289D1*
X1259911Y1977297D1*
X1260324Y1974304D1*
X1261052Y1971312D1*
X1261823Y1968320D1*
X1262346Y1965328D1*
X1262624Y1962336D1*
X1262751Y1959344D1*
X1262803Y1956352D1*
X1262823Y1953360D1*
X1262831Y1950367D1*
X1262833Y1947375D1*
X1262846Y1944383D1*
X1262951Y1941391D1*
X1263333Y1938399D1*
X1264049Y1935407D1*
X1264817Y1932415D1*
X1265350Y1929423D1*
X1265733Y1926430D1*
X1266241Y1923438D1*
X1267010Y1920446D1*
X1267798Y1917454D1*
X1268338Y1914462D1*
X1268724Y1911470D1*
X1269233Y1908478D1*
X1270014Y1905486D1*
X1270906Y1902493D1*
X1271817Y1899501D1*
X1272802Y1896509D1*
X1273592Y1893517D1*
X1274027Y1890525D1*
X1273415Y1887533D1*
X1272632Y1884541D1*
X1271772Y1881549D1*
X1270796Y1878556D1*
X1269909Y1875564D1*
X1269337Y1872572D1*
X1269041Y1869580D1*
X1268918Y1866588D1*
X1268977Y1863596D1*
X1269419Y1860604D1*
X1270434Y1857612D1*
X1271811Y1854619D1*
X1270552Y1851627D1*
X1269804Y1848635D1*
X1270633Y1845643D1*
X1271811Y1842651D1*
X1270430Y1839659D1*
X1269567Y1836667D1*
X1269110Y1833675D1*
X1268819Y1830682D1*
X1274803D1*
X1274815Y1827690D1*
X1274943Y1824698D1*
X1275259Y1821706D1*
X1277073Y1818714D1*
X1279848Y1815722D1*
X1283232Y1812730D1*
X1286772Y1809738D1*
X1284330Y1806745D1*
X1282387Y1803753D1*
X1280787Y1800761D1*
X475906Y1986273D2*
X468584Y1983281D1*
X462500Y1980289D1*
X458234Y1977297D1*
X454961Y1974304D1*
X460945Y1971312D1*
X459553Y1968320D1*
X458628Y1965328D1*
X457953Y1962336D1*
X493858Y1986273D2*
X501784Y1983281D1*
X508776Y1980289D1*
X514983Y1977297D1*
X520907Y1974304D1*
X526772Y1971312D1*
X963622Y1989265D2*
X960630Y1986273D1*
X957638Y1983281D1*
X966614Y1989265D2*
Y1986273D1*
Y1983281D1*
X1397480D2*
X1396099Y1980289D1*
X1395237Y1977297D1*
X1394779Y1974304D1*
X1394488Y1971312D1*
X1400472Y1983281D2*
Y1980289D1*
X1406457Y1983281D2*
Y1980289D1*
X1409449Y1983281D2*
X1411038Y1980289D1*
X1412441Y1977297D1*
X957638Y1980289D2*
X954646Y1977297D1*
X957638Y1980289D2*
X960630Y1977297D1*
X1223937Y1980289D2*
X1226342Y1977297D1*
X1228102Y1974304D1*
X1229173Y1971312D1*
X1229921Y1968320D1*
X1223937D1*
Y1965328D1*
Y1962336D1*
X1217953D1*
X1217502Y1959344D1*
X1216877Y1956352D1*
X1216304Y1953360D1*
X1217103Y1950367D1*
X1218468Y1947375D1*
X1220036Y1944383D1*
X1221608Y1941391D1*
X1223153Y1938399D1*
X1224669Y1935407D1*
X1226177Y1932415D1*
X1227674Y1929423D1*
X1229174Y1926430D1*
X1230668Y1923438D1*
X1232155Y1920446D1*
X1233555Y1917454D1*
X1234766Y1914462D1*
X1235819Y1911470D1*
X1236885Y1908478D1*
X1237908Y1905486D1*
X1238883Y1902493D1*
X1240006Y1899501D1*
X1241290Y1896509D1*
X1242583Y1893517D1*
X1243661Y1890525D1*
X1244423Y1887533D1*
X1245137Y1884541D1*
X1246001Y1881549D1*
X1246840Y1878556D1*
X1247490Y1875564D1*
X1248157Y1872572D1*
X1249003Y1869580D1*
X1249836Y1866588D1*
X1250483Y1863596D1*
X1251150Y1860604D1*
X1251996Y1857612D1*
X1252828Y1854619D1*
X1253475Y1851627D1*
X1254142Y1848635D1*
X1254988Y1845643D1*
X1255808Y1842651D1*
X1256351Y1839659D1*
X1256647Y1836667D1*
X1256894Y1833675D1*
X1257445Y1830682D1*
X1258681Y1827690D1*
X1260658Y1824698D1*
X1263060Y1821706D1*
X1265449Y1818714D1*
X1267535Y1815722D1*
X1269336Y1812730D1*
X1270964Y1809738D1*
X1272437Y1806745D1*
X1273706Y1803753D1*
X1274803Y1800761D1*
X1229921Y1980289D2*
X1232913Y1977297D1*
X1385512D2*
X1384462Y1974304D1*
X1383445Y1971312D1*
X1382520Y1968320D1*
X1388504Y1977297D2*
Y1974304D1*
Y1971312D1*
X460945Y1977297D2*
X457953Y1974304D1*
X466929Y1977297D2*
X464063Y1974304D1*
X461570Y1971312D1*
X459783Y1968320D1*
X458704Y1965328D1*
X457953Y1962336D1*
X538740Y1974304D2*
X535748Y1971312D1*
X544724Y1974304D2*
X552558Y1971312D1*
X561512Y1968320D1*
X570625Y1965328D1*
X578887Y1962336D1*
X586614Y1959344D1*
X1361575Y1974304D2*
X1355778Y1971312D1*
X1349606Y1968320D1*
X1364567Y1974304D2*
X1373543D2*
X957638D2*
Y1971312D1*
Y1968320D1*
X963622Y1974304D2*
Y1971312D1*
Y1968320D1*
X1376535Y1971312D2*
Y1968320D1*
X478898Y1971312D2*
X471021Y1968320D1*
X464145Y1965328D1*
X457953Y1962336D1*
X475906Y1971312D2*
X487388Y1968320D1*
X498381Y1965328D1*
X508614Y1962336D1*
X517967Y1959344D1*
X527025Y1956352D1*
X536549Y1953360D1*
X545758Y1950367D1*
X553065Y1947375D1*
X558316Y1944383D1*
X562677Y1941391D1*
X1122205Y1968320D2*
X1121731Y1965328D1*
X1120872Y1962336D1*
X1119600Y1959344D1*
X1117869Y1956352D1*
X1115662Y1953360D1*
X1113228Y1950367D1*
X1115633Y1947375D1*
X1117394Y1944383D1*
X1118464Y1941391D1*
X1119213Y1938399D1*
X1113228D1*
Y1935407D1*
Y1932415D1*
Y1929423D1*
Y1926430D1*
Y1923438D1*
X1107244D1*
X1105842Y1920446D1*
X1104252Y1917454D1*
X1125197Y1968320D2*
X1130593Y1965328D1*
X1135335Y1962336D1*
X1139318Y1959344D1*
X1142679Y1956352D1*
X1145383Y1953360D1*
X1147547Y1950367D1*
X1148350Y1947375D1*
X1148675Y1944383D1*
X1148644Y1941391D1*
X1147323Y1938399D1*
X1145439Y1935407D1*
X1143432Y1932415D1*
X1141866Y1929423D1*
X1140952Y1926430D1*
X1140609Y1923438D1*
X1140872Y1920446D1*
X1141812Y1917454D1*
X1143150Y1914462D1*
X1141654Y1911470D1*
X1140412Y1908478D1*
X1139260Y1905486D1*
X1138299Y1902493D1*
X1137711Y1899501D1*
X1137509Y1896509D1*
X1137765Y1893517D1*
X1138554Y1890525D1*
X1139903Y1887533D1*
X1142036Y1884541D1*
X1145255Y1881549D1*
X1149761Y1878556D1*
X1155989Y1875564D1*
X1164059Y1872572D1*
X1173071Y1869580D1*
X1170079Y1866588D1*
X1175221Y1863596D1*
X1181330Y1860604D1*
X1188031Y1857612D1*
X598583Y1962336D2*
X592598Y1959344D1*
X604567Y1962336D2*
X609964Y1959344D1*
X614716Y1956352D1*
X618779Y1953360D1*
X622520Y1950367D1*
X987559Y1965328D2*
X988021Y1962336D1*
X988763Y1959344D1*
X989538Y1956352D1*
X990074Y1953360D1*
X990457Y1950367D1*
X990965Y1947375D1*
X991723Y1944383D1*
X992405Y1941391D1*
X992783Y1938399D1*
X992051Y1935407D1*
X990896Y1932415D1*
X989349Y1929423D1*
X987559Y1926430D1*
X989528Y1923438D1*
X991622Y1920446D1*
X994001Y1917454D1*
X996535Y1914462D1*
X995326Y1911470D1*
X995426Y1908478D1*
X995844Y1905486D1*
X996417Y1902493D1*
X997205Y1899501D1*
X999609Y1896509D1*
X1002520Y1893517D1*
X996535Y1965328D2*
X999516Y1962336D1*
X1002403Y1959344D1*
X1005011Y1956352D1*
X1007262Y1953360D1*
X1009363Y1950367D1*
X1011496Y1947375D1*
X1008422Y1944383D1*
X1007084Y1941391D1*
X1007577Y1938399D1*
X1008504Y1935407D1*
X1005742Y1932415D1*
X1003696Y1929423D1*
X1003194Y1926430D1*
X1003070Y1923438D1*
X1004146Y1920446D1*
X1005512Y1917454D1*
X1004131Y1914462D1*
X1003283Y1911470D1*
X1002965Y1908478D1*
X1003005Y1905486D1*
X1004341Y1902493D1*
X1006340Y1899501D1*
X1008822Y1896509D1*
X1011496Y1893517D1*
X1505197Y1953360D2*
X1508189D2*
X1511681Y1950367D1*
X1514640Y1947375D1*
X1517165Y1944383D1*
X631496Y1950367D2*
X652441D2*
X667046Y1947375D1*
X680233Y1944383D1*
X691856Y1941391D1*
X702216Y1938399D1*
X711720Y1935407D1*
X720468Y1932415D1*
X728335Y1929423D1*
X735357Y1926430D1*
X741738Y1923438D1*
X747556Y1920446D1*
X752909Y1917454D1*
X758150Y1914462D1*
X763579Y1911470D1*
X769134Y1908478D1*
X1307717Y1947375D2*
Y1944383D1*
Y1941391D1*
X1310709Y1947375D2*
X1313701Y1944383D1*
X1412441Y1950367D2*
X1409449Y1947375D1*
X1412441Y1950367D2*
X1415433Y1947375D1*
X1523150D2*
Y1944383D1*
X1529134Y1947375D2*
X1528237Y1944383D1*
X1527520Y1941391D1*
X1528156Y1938399D1*
X1530568Y1935407D1*
X1533742Y1932415D1*
X1537258Y1929423D1*
X1540674Y1926430D1*
X1543921Y1923438D1*
X1547087Y1920446D1*
X1200000Y1947375D2*
X1202404Y1944383D1*
X1204154Y1941391D1*
X1205159Y1938399D1*
X1205668Y1935407D1*
X1205984Y1932415D1*
X1200000D1*
Y1929423D1*
X1211969Y1947375D2*
X1214487Y1944383D1*
X1216620Y1941391D1*
X1218351Y1938399D1*
X1219709Y1935407D1*
X1220834Y1932415D1*
X1222017Y1929423D1*
X1223324Y1926430D1*
X1224638Y1923438D1*
X1225812Y1920446D1*
X1226862Y1917454D1*
X1228017Y1914462D1*
X1229325Y1911470D1*
X1230729Y1908478D1*
X1232178Y1905486D1*
X1233563Y1902493D1*
X1234769Y1899501D1*
X1235820Y1896509D1*
X1236886Y1893517D1*
X1237908Y1890525D1*
X1238884Y1887533D1*
X1240006Y1884541D1*
X1241290Y1881549D1*
X1242583Y1878556D1*
X1243661Y1875564D1*
X1244423Y1872572D1*
X1245137Y1869580D1*
X1246001Y1866588D1*
X1246828Y1863596D1*
X1247373Y1860604D1*
X1247660Y1857612D1*
X1247795Y1854619D1*
X1247874Y1851627D1*
X1421417Y1947375D2*
X1423935Y1944383D1*
X1426071Y1941391D1*
X1427819Y1938399D1*
X1429218Y1935407D1*
X1430394Y1932415D1*
X1427402Y1947375D2*
X1430280Y1944383D1*
X1432886Y1941391D1*
X1435136Y1938399D1*
X1437237Y1935407D1*
X1439370Y1932415D1*
X592598Y1944383D2*
X589606Y1941391D1*
X595591Y1944383D2*
X595626Y1941391D1*
X595967Y1938399D1*
X596783Y1935407D1*
X600280Y1932415D1*
X604567Y1929423D1*
X1436378Y1944383D2*
X1415433Y1941391D1*
X1394488Y1938399D1*
X1396930Y1935407D1*
X1398872Y1932415D1*
X1400472Y1929423D1*
X1418425Y1944383D2*
X1420841Y1941391D1*
X1422705Y1938399D1*
X1424173Y1935407D1*
X1425705Y1932415D1*
X1427402Y1929423D1*
X1460315Y1944383D2*
X1453114Y1941391D1*
X1447763Y1938399D1*
X1443776Y1935407D1*
X1444401Y1932415D1*
X1445354Y1929423D1*
X1469291Y1944383D2*
X1466738Y1941391D1*
X1464261Y1938399D1*
X1461126Y1935407D1*
X1456657Y1932415D1*
X1451339Y1929423D1*
X628504Y1941391D2*
X634488Y1938399D1*
X640472Y1935407D1*
Y1941391D2*
X646457Y1938399D1*
X652441Y1935407D1*
X1179055Y1941391D2*
X1181573Y1938399D1*
X1183707Y1935407D1*
X1185437Y1932415D1*
X1186796Y1929423D1*
X1187921Y1926430D1*
X1189116Y1923438D1*
X1190539Y1920446D1*
X1192328Y1917454D1*
X1194506Y1914462D1*
X1196753Y1911470D1*
X1198768Y1908478D1*
X1200549Y1905486D1*
X1202267Y1902493D1*
X1204089Y1899501D1*
X1205943Y1896509D1*
X1207494Y1893517D1*
X1208750Y1890525D1*
X1210012Y1887533D1*
X1211465Y1884541D1*
X1213266Y1881549D1*
X1215449Y1878556D1*
X1217708Y1875564D1*
X1219841Y1872572D1*
X1222097Y1869580D1*
X1224820Y1866588D1*
X1227873Y1863596D1*
X1230899Y1860604D1*
X1234049Y1857612D1*
X1237769Y1854619D1*
X1241890Y1851627D1*
X1185039Y1941391D2*
X1188154Y1938399D1*
X1191611Y1935407D1*
X1195626Y1932415D1*
X1200000Y1929423D1*
X1376535Y1941391D2*
X1379405Y1938399D1*
X1381932Y1935407D1*
X1383901Y1932415D1*
X1385512Y1929423D1*
X1382520Y1941391D2*
X1385512Y1938399D1*
X1388504Y1935407D1*
X1391484Y1932415D1*
X1394348Y1929423D1*
X1396729Y1926430D1*
X1398518Y1923438D1*
X1398226Y1920446D1*
X1397480Y1917454D1*
X1466299Y1938399D2*
X1467702Y1935407D1*
X1469291Y1932415D1*
X1475276Y1941391D2*
Y1938399D1*
Y1935407D1*
Y1932415D1*
X1367559Y1938399D2*
X1368135Y1935407D1*
X1369249Y1932415D1*
X1370636Y1929423D1*
X1371851Y1926430D1*
X1371957Y1923438D1*
X1372099Y1920446D1*
X1373990Y1917454D1*
X1378043Y1914462D1*
X1382520Y1911470D1*
X1370551Y1938399D2*
X1374093Y1935407D1*
X1378135Y1932415D1*
X1382520Y1929423D1*
X658425Y1935407D2*
X655433Y1932415D1*
X670394Y1935407D2*
X673386Y1932415D1*
X1409449D2*
X1406457Y1929423D1*
X613543Y1932415D2*
X610551Y1929423D1*
X616535Y1932415D2*
X619065Y1929423D1*
X621304Y1926430D1*
X623428Y1923438D1*
X625643Y1920446D1*
X628267Y1917454D1*
X632160Y1914462D1*
X637945Y1911470D1*
X645068Y1908478D1*
X652428Y1905486D1*
X659544Y1902493D1*
X666403Y1899501D1*
X672931Y1896509D1*
X679289Y1893517D1*
X685775Y1890525D1*
X692548Y1887533D1*
X699563Y1884541D1*
X707185Y1881549D1*
X716321Y1878556D1*
X727288Y1875564D1*
X739213Y1872572D1*
X682362Y1932415D2*
X688346Y1929423D1*
X694331Y1926430D1*
X697323Y1932415D2*
X700315Y1929423D1*
X703307Y1926430D1*
X1421417Y1929423D2*
X1035433D2*
X1037837Y1926430D1*
X1039599Y1923438D1*
X1040706Y1920446D1*
X1041573Y1917454D1*
X1042512Y1914462D1*
X1043468Y1911470D1*
X1044414Y1908478D1*
X1045536Y1905486D1*
X1046921Y1902493D1*
X1048606Y1899501D1*
X1050493Y1896509D1*
X1052321Y1893517D1*
X1054149Y1890525D1*
X1056572Y1887533D1*
X1059847Y1884541D1*
X1067211Y1881549D1*
X1076321Y1878556D1*
X1086299Y1875564D1*
X1041417Y1929423D2*
X1044872Y1926430D1*
X1048617Y1923438D1*
X1052490Y1920446D1*
X1056399Y1917454D1*
X1060491Y1914462D1*
X1064758Y1911470D1*
X1069053Y1908478D1*
X1073227Y1905486D1*
X1077350Y1902493D1*
X1081679Y1899501D1*
X1086027Y1896509D1*
X1090045Y1893517D1*
X1093914Y1890525D1*
X1097933Y1887533D1*
X1101955Y1884541D1*
X1105484Y1881549D1*
X1108127Y1878556D1*
X1110236Y1875564D1*
X703307Y1923438D2*
X712283Y1920446D1*
X721260Y1917454D1*
Y1923438D2*
X724252Y1920446D1*
X727244Y1917454D1*
X912756Y1923438D2*
X909214Y1920446D1*
X905172Y1917454D1*
X900787Y1914462D1*
X903780Y1911470D1*
X918740Y1923438D2*
X919327Y1920446D1*
X920559Y1917454D1*
X922481Y1914462D1*
X924724Y1911470D1*
X1553071Y1920446D2*
X1559055D2*
X1559169Y1917454D1*
X1559553Y1914462D1*
X1560270Y1911470D1*
X1561045Y1908478D1*
X1561612Y1905486D1*
X1562047Y1902493D1*
X1568031D1*
Y1899501D1*
X787087Y1917454D2*
X783045Y1914462D1*
X779035Y1911470D1*
X775118Y1908478D1*
X811024Y1917454D2*
X825984Y1914462D1*
X1388504Y1917454D2*
Y1914462D1*
Y1911470D1*
X1391496Y1917454D2*
X1176063Y1911470D2*
X1179055Y1908478D1*
X1182047Y1905486D1*
X1188031Y1911470D2*
Y1908478D1*
Y1905486D1*
X1370551Y1911470D2*
X1367559Y1908478D1*
X1370551Y1911470D2*
X1373543Y1908478D1*
X1349606D2*
X1351861Y1905486D1*
X1353531Y1902493D1*
X1353592Y1899501D1*
X1348890Y1896509D1*
X1343622Y1893517D1*
X1346614Y1890525D1*
X1358583Y1908478D2*
X1361575Y1905486D1*
X1364567Y1902493D1*
X1362162Y1899501D1*
X1360402Y1896509D1*
X1359331Y1893517D1*
X1358583Y1890525D1*
X1373543Y1905486D2*
X1376535Y1908478D2*
X1379528Y1905486D1*
X1556063Y1908478D2*
X1553071Y1905486D1*
X1556063Y1908478D2*
X1559055Y1905486D1*
X1194016Y1902493D2*
X1189196Y1899501D1*
X1185582Y1896509D1*
X1183109Y1893517D1*
X1181068Y1890525D1*
X1179055Y1887533D1*
X1180436Y1884541D1*
X1181284Y1881549D1*
X1181605Y1878556D1*
X1181336Y1875564D1*
X1180393Y1872572D1*
X1179055Y1869580D1*
X1193268Y1866588D1*
X1208976Y1863596D1*
Y1860604D1*
Y1857612D1*
X1191024Y1902493D2*
X1193553Y1899501D1*
X1195792Y1896509D1*
X1197904Y1893517D1*
X1199991Y1890525D1*
X1201977Y1887533D1*
X1203969Y1884541D1*
X1206006Y1881549D1*
X1207972Y1878556D1*
X1209957Y1875564D1*
X1211991Y1872572D1*
X1213968Y1869580D1*
X1216059Y1866588D1*
X1218474Y1863596D1*
X1221167Y1860604D1*
X1224025Y1857612D1*
X1226962Y1854619D1*
X1229933Y1851627D1*
X1232917Y1848635D1*
X1235907Y1845643D1*
X1238886Y1842651D1*
X1241773Y1839659D1*
X1244384Y1836667D1*
X1246659Y1833675D1*
X1248872Y1830682D1*
X1251238Y1827690D1*
X1253571Y1824698D1*
X1255708Y1821706D1*
X1257775Y1818714D1*
X1259844Y1815722D1*
X1261823Y1812730D1*
X1263813Y1809738D1*
X1265837Y1806745D1*
X1267686Y1803753D1*
X1269173Y1800761D1*
X1270303Y1797769D1*
X1270096Y1794777D1*
X1268536Y1791785D1*
X1266155Y1788793D1*
X1263106Y1785801D1*
X1259843Y1782808D1*
X1574016Y1899501D2*
X1577008D2*
X1575985Y1896509D1*
X1575106Y1893517D1*
X1574644Y1890525D1*
X1574744Y1887533D1*
X1575457Y1884541D1*
X1576762Y1881549D1*
X1578731Y1878556D1*
X1581084Y1875564D1*
X1583259Y1872572D1*
X1584110Y1869580D1*
X1582139Y1866588D1*
X1580000Y1863596D1*
X831969Y1896509D2*
X822992Y1893517D1*
X814016Y1890525D1*
X845329Y1887533D1*
X876175Y1884541D1*
X906772Y1881549D1*
X843937Y1896509D2*
X859863Y1893517D1*
X877564Y1890525D1*
X898126Y1887533D1*
X921311Y1884541D1*
X945669Y1881549D1*
X924724Y1887533D2*
Y1884541D1*
Y1881549D1*
Y1878556D1*
X930709Y1887533D2*
X949453Y1884541D1*
X966199Y1881549D1*
X981575Y1878556D1*
X960630D2*
X1337638Y1881549D2*
X1337515Y1878556D1*
X1337050Y1875564D1*
X1336027Y1872572D1*
X1334646Y1869580D1*
X1343622Y1881549D2*
X1343499Y1878556D1*
X1343035Y1875564D1*
X1342011Y1872572D1*
X1340630Y1869580D1*
X787087Y1878556D2*
X772126Y1875564D1*
X757165Y1872572D1*
X775118Y1878556D2*
X778561Y1875564D1*
X782190Y1872572D1*
X785575Y1869580D1*
X788386Y1866588D1*
X791030Y1863596D1*
X794394Y1860604D1*
X799735Y1857612D1*
X808597Y1854619D1*
X821697Y1851627D1*
X837750Y1848635D1*
X854452Y1845643D1*
X870866Y1842651D1*
X996535Y1878556D2*
X993543Y1875564D1*
X999528Y1878556D2*
X1002520Y1875564D1*
Y1872572D2*
X1008504Y1869580D1*
X1002520Y1875564D2*
X1011496Y1872572D1*
X1020472Y1869580D1*
X1071339Y1866588D2*
X1068346Y1863596D1*
X1089291Y1866588D2*
X1092283Y1863596D1*
X1585984D2*
X1588976D2*
X1589090Y1860604D1*
X1589474Y1857612D1*
X1590191Y1854619D1*
X1590958Y1851627D1*
X1591480Y1848635D1*
X1591758Y1845643D1*
X1591885Y1842651D1*
X1591939Y1839659D1*
X1591969Y1836667D1*
X1600945D1*
X1599542Y1833675D1*
X1597953Y1830682D1*
X1600703Y1827690D1*
X1602714Y1824698D1*
X1603101Y1821706D1*
X1602191Y1818714D1*
X1600945Y1815722D1*
X1463307Y1860604D2*
Y1857612D1*
Y1854619D1*
X1469291Y1860604D2*
Y1857612D1*
Y1854619D1*
X1307717Y1857612D2*
X1310709Y1854619D1*
X1313701Y1851627D1*
Y1857612D2*
X1319685Y1854619D1*
X1325669Y1851627D1*
X996535D2*
X968264Y1848635D1*
X941493Y1845643D1*
X915748Y1842651D1*
X1005512Y1851627D2*
X1012347Y1848635D1*
X1020644Y1845643D1*
X1031057Y1842651D1*
X1042500Y1839659D1*
X1052412Y1836667D1*
X1060190Y1833675D1*
X1063445Y1830682D1*
X1066030Y1827690D1*
X1068385Y1824698D1*
X1070826Y1821706D1*
X1073760Y1818714D1*
X1077341Y1815722D1*
X1081415Y1812730D1*
X1086050Y1809738D1*
X1091870Y1806745D1*
X1099811Y1803753D1*
X1110328Y1800761D1*
X1123160Y1797769D1*
X1137165Y1794777D1*
X1128189Y1848635D2*
X1113228Y1845643D1*
X1098268Y1842651D1*
X1083307Y1839659D1*
X1113228Y1848635D2*
X1128189Y1845643D1*
X1143150Y1842651D1*
X1158110Y1839659D1*
X1143150D2*
X1146142Y1842651D2*
X1149134Y1839659D1*
X1487244Y1833675D2*
X1486694Y1830682D1*
X1485644Y1827690D1*
X1484252Y1824698D1*
X1493228Y1833675D2*
X1493114Y1830682D1*
X1492731Y1827690D1*
X1492014Y1824698D1*
X1491246Y1821706D1*
X1490722Y1818714D1*
X1490429Y1815722D1*
X1490236Y1812730D1*
X1520157Y1833675D2*
X1517165Y1830682D1*
X1514173Y1827690D1*
X1526142Y1833675D2*
X1523150Y1830682D1*
X1520157Y1827690D1*
X1469291Y1830682D2*
X1469303Y1827690D1*
X1469417Y1824698D1*
X1469879Y1821706D1*
X1470902Y1818714D1*
X1472283Y1815722D1*
X1475276Y1830682D2*
Y1827690D1*
Y1824698D1*
X1594961Y1830682D2*
X1591969Y1827690D1*
X1597953D2*
X1451339D2*
X1451801Y1824698D1*
X1452543Y1821706D1*
X1453326Y1818714D1*
X1453895Y1815722D1*
X1454331Y1812730D1*
Y1827690D2*
X1457323Y1824698D1*
X1460315Y1821706D1*
X1463307Y1818714D1*
X1466299Y1815722D1*
X1514173Y1824698D2*
X1511181Y1821706D1*
X1514173Y1824698D2*
X1517165Y1821706D1*
X1499213D2*
X1496771Y1818714D1*
X1494828Y1815722D1*
X1493228Y1812730D1*
Y1821706D2*
X1503307Y1818714D1*
X1511037Y1815722D1*
X1516672Y1812730D1*
X1518477Y1809738D1*
X1518372Y1806745D1*
X1517933Y1803753D1*
X1517517Y1800761D1*
X1517165Y1797769D1*
X1606929Y1815722D2*
X1609921D2*
X1609371Y1812730D1*
X1608321Y1809738D1*
X1606929Y1806745D1*
X1610156Y1803753D1*
X1612648Y1800761D1*
X1614461Y1797769D1*
X1615906Y1794777D1*
X1597953Y1791785D1*
X1609921Y1788793D1*
X1608712Y1785801D1*
X1608584Y1782808D1*
X1608482Y1779816D1*
X1607052Y1776824D1*
X1605057Y1773832D1*
X1602427Y1770840D1*
X1598945Y1767848D1*
X1594961Y1764856D1*
X1439370Y1815722D2*
X1441774Y1812730D1*
X1443524Y1809738D1*
X1444526Y1806745D1*
X1445012Y1803753D1*
X1445234Y1800761D1*
X1445446Y1797769D1*
X1445802Y1794777D1*
X1447607Y1791785D1*
X1450248Y1788793D1*
X1453078Y1785801D1*
X1455400Y1782808D1*
X1457323Y1779816D1*
X1448346Y1815722D2*
X1451339Y1812730D1*
X1502205Y1803753D2*
Y1800761D1*
Y1797769D1*
Y1794777D1*
X1493462D1*
X1487002Y1791785D1*
X1481198Y1788793D1*
X1476105Y1785801D1*
X1471225Y1782808D1*
X1466299Y1779816D1*
X1505197Y1803753D2*
X1508189Y1800761D1*
X1511181Y1797769D1*
X1529134Y1806745D2*
X1526142Y1803753D1*
X1529134Y1806745D2*
X1532126Y1803753D1*
X1280787Y1797769D2*
X1283780Y1800761D2*
X1286772Y1797769D1*
X1185039Y1794777D2*
X1184451Y1791785D1*
X1183221Y1788793D1*
X1181254Y1785801D1*
X1178393Y1782808D1*
X1173600Y1779816D1*
X1165869Y1776824D1*
X1155697Y1773832D1*
X1143925Y1770840D1*
X1131181Y1767848D1*
X1131953Y1764856D1*
X1134299Y1761864D1*
X1137165Y1758871D1*
X1135947Y1755879D1*
X1135132Y1752887D1*
X1138806Y1749895D1*
X1143150Y1746903D1*
X1137613Y1743911D1*
X1133487Y1740919D1*
X1131804Y1737927D1*
X1130425Y1734934D1*
X1129365Y1731942D1*
X1128683Y1728950D1*
X1128189Y1725958D1*
X1226929Y1794777D2*
X1224525Y1791785D1*
X1222775Y1788793D1*
X1221773Y1785801D1*
X1221287Y1782808D1*
X1221077Y1779816D1*
X1220993Y1776824D1*
X1220961Y1773832D1*
X1220945Y1770840D1*
X1226929Y1794777D2*
X1229933Y1791785D1*
X1233019Y1788793D1*
X1236287Y1785801D1*
X1239603Y1782808D1*
X1242531Y1779816D1*
X1244810Y1776824D1*
X1246505Y1773832D1*
X1247874Y1770840D1*
X1202992Y1788793D2*
X1200550Y1785801D1*
X1198608Y1782808D1*
X1197008Y1779816D1*
X1208976Y1788793D2*
X1206534Y1785801D1*
X1204592Y1782808D1*
X1202992Y1779816D1*
X1280787Y1788793D2*
X1274803Y1785801D1*
X1268819Y1782808D1*
X1273202Y1779816D1*
X1276652Y1776824D1*
X1279784Y1773832D1*
X1282719Y1770840D1*
X1285157Y1767848D1*
X1287157Y1764856D1*
X1288973Y1761864D1*
X1290825Y1758871D1*
X1292569Y1755879D1*
X1293961Y1752887D1*
X1293571Y1749895D1*
X1292756Y1746903D1*
X1305753Y1743911D1*
X1319685Y1740919D1*
X1286772Y1788793D2*
X1289176Y1785801D1*
X1290926Y1782808D1*
X1291951Y1779816D1*
X1292659Y1776824D1*
X1293448Y1773832D1*
X1295677Y1770840D1*
X1298397Y1767848D1*
X1300951Y1764856D1*
X1302813Y1761864D1*
X1303940Y1758871D1*
X1304724Y1755879D1*
X1310709D1*
X1311807Y1752887D1*
X1314845Y1749895D1*
X1318474Y1746903D1*
X1322115Y1743911D1*
X1325669Y1740919D1*
X1654803Y1773832D2*
X1641150Y1770840D1*
X1629432Y1767848D1*
X1618898Y1764856D1*
X1660787Y1773832D2*
X1668809Y1770840D1*
X1674895Y1767848D1*
X1679669Y1764856D1*
X1679537Y1761864D1*
X1678763Y1758871D1*
X1677415Y1755879D1*
X1675748Y1752887D1*
X1682884Y1749895D1*
X1688442Y1746903D1*
X1692634Y1743911D1*
X1695823Y1740919D1*
X1698321Y1737927D1*
X1700530Y1734934D1*
X1702651Y1731942D1*
X1704648Y1728950D1*
X1706633Y1725958D1*
X1708565Y1722966D1*
X1710151Y1719974D1*
X1711420Y1716982D1*
X1712675Y1713990D1*
X1714013Y1710997D1*
X1715328Y1708005D1*
X1716401Y1705013D1*
X1717060Y1702021D1*
X1717394Y1699029D1*
X1717542Y1696037D1*
X1717602Y1693045D1*
X1717625Y1690052D1*
X1717633Y1687060D1*
X1717636Y1684068D1*
X1717637Y1681076D1*
X1717638Y1678084D1*
Y1675092D1*
Y1672100D1*
X1717626Y1669108D1*
X1717521Y1666115D1*
X1717128Y1663123D1*
X1716294Y1660131D1*
X1715030Y1657139D1*
X1713301Y1654147D1*
X1711095Y1651155D1*
X1708661Y1648163D1*
X1713625Y1645171D1*
X1719213Y1642178D1*
X1725213Y1639186D1*
X1731571Y1636194D1*
X1738277Y1633202D1*
X1744950Y1630210D1*
X1751282Y1627218D1*
X1757482Y1624226D1*
X1763883Y1621234D1*
X1770223Y1618241D1*
X1776325Y1615249D1*
X1782494Y1612257D1*
X1788733Y1609265D1*
X1794628Y1606273D1*
X1800054Y1603281D1*
X1805235Y1600289D1*
X1810246Y1597297D1*
X1814856Y1594304D1*
X1819130Y1591312D1*
X1823370Y1588320D1*
X1827585Y1585328D1*
X1831394Y1582336D1*
X1834670Y1579344D1*
X1836020Y1576352D1*
X1836762Y1573360D1*
X1837101Y1570367D1*
X1837241Y1567375D1*
X1837294Y1564383D1*
X1837313Y1561391D1*
X1837323Y1558399D1*
X1265827Y1758871D2*
X1262835Y1755879D1*
X1265827Y1758871D2*
X1268819Y1755879D1*
X1137165Y1731942D2*
X1134173Y1728950D1*
X1131181Y1725958D1*
X1143150Y1731942D2*
X1140757Y1728950D1*
X1138770Y1725958D1*
X1138188Y1722966D1*
X1138995Y1719974D1*
X1140157Y1716982D1*
X1136323Y1713990D1*
X1133456Y1710997D1*
X1131181Y1708005D1*
X1137165Y1705013D1*
X1135956Y1702021D1*
X1136170Y1699029D1*
X1136948Y1696037D1*
X1137998Y1693045D1*
X1138864Y1690052D1*
X1139354Y1687060D1*
X1138769Y1684068D1*
X1138098Y1681076D1*
X1137623Y1678084D1*
X1137365Y1675092D1*
X1137234Y1672100D1*
X1137070Y1669108D1*
X1136588Y1666115D1*
X1135558Y1663123D1*
X1134173Y1660131D1*
X1135623Y1657139D1*
X1133937Y1654147D1*
X1130136Y1651155D1*
X1125112Y1648163D1*
X1119072Y1645171D1*
X1112809Y1642178D1*
X1107204Y1639186D1*
X1102748Y1636194D1*
X1099453Y1633202D1*
X1097211Y1630210D1*
X1095562Y1627218D1*
X1093806Y1624226D1*
X1091594Y1621234D1*
X1089000Y1618241D1*
X1086185Y1615249D1*
X1083265Y1612257D1*
X1080300Y1609265D1*
X1077318Y1606273D1*
X1074341Y1603281D1*
X1071455Y1600289D1*
X1068844Y1597297D1*
X1066569Y1594304D1*
X1064344Y1591312D1*
X1061886Y1588320D1*
X1059276Y1585328D1*
X1056792Y1582336D1*
X1054569Y1579344D1*
X1052364Y1576352D1*
X1049902Y1573360D1*
X1047189Y1570367D1*
X1044325Y1567375D1*
X1041386Y1564383D1*
X1038414Y1561391D1*
X1035418Y1558399D1*
X1032323Y1555407D1*
X1028939Y1552415D1*
X1025113Y1549423D1*
X1020867Y1546430D1*
X1016267Y1543438D1*
X1011631Y1540446D1*
X1007720Y1537454D1*
X1004641Y1534462D1*
X1003444Y1531470D1*
X1002520Y1528478D1*
X975591Y1525486D1*
X1325669Y1731942D2*
X1328661Y1728950D1*
X1331654Y1725958D1*
X1334646Y1722966D1*
X1337638Y1731942D2*
X1340080Y1728950D1*
X1342022Y1725958D1*
X1343622Y1722966D1*
X1173071Y1725958D2*
X1170079Y1722966D1*
X1173071Y1725958D2*
X1176063Y1722966D1*
X1678740Y1725958D2*
Y1722966D1*
Y1719974D1*
Y1716982D1*
Y1713990D1*
Y1710997D1*
X1678752Y1708005D1*
X1678857Y1705013D1*
X1679241Y1702021D1*
X1679982Y1699029D1*
X1680873Y1696037D1*
X1681732Y1693045D1*
X1687717Y1725958D2*
Y1722966D1*
Y1719974D1*
Y1716982D1*
Y1713990D1*
Y1710997D1*
Y1708005D1*
Y1705013D1*
Y1702021D1*
Y1699029D1*
Y1696037D1*
Y1693045D1*
X1167087Y1719974D2*
X1166973Y1716982D1*
X1166577Y1713990D1*
X1165755Y1710997D1*
X1164606Y1708005D1*
X1163368Y1705013D1*
X1162323Y1702021D1*
X1161675Y1699029D1*
X1161344Y1696037D1*
X1161191Y1693045D1*
X1161102Y1690052D1*
X1173071Y1719974D2*
X1172957Y1716982D1*
X1172573Y1713990D1*
X1171845Y1710997D1*
X1170972Y1708005D1*
X1170069Y1705013D1*
X1169075Y1702021D1*
X1168181Y1699029D1*
X1167604Y1696037D1*
X1167290Y1693045D1*
X1167087Y1690052D1*
X1205984Y1678084D2*
X1203106Y1675092D1*
X1200497Y1672100D1*
X1198234Y1669108D1*
X1196126Y1666115D1*
X1194143Y1663123D1*
X1192537Y1660131D1*
X1191273Y1657139D1*
X1190109Y1654147D1*
X1189046Y1651155D1*
X1188054Y1648163D1*
X1186915Y1645171D1*
X1185512Y1642178D1*
X1183719Y1639186D1*
X1181441Y1636194D1*
X1178820Y1633202D1*
X1176063Y1630210D1*
X1208976Y1678084D2*
X1208514Y1675092D1*
X1207772Y1672100D1*
X1206989Y1669108D1*
X1206420Y1666115D1*
X1205984Y1663123D1*
X1505197Y1678084D2*
X1502205Y1675092D1*
X1517165Y1678084D2*
X1520157Y1675092D1*
X1526142D2*
X1523150Y1672100D1*
X1526142Y1675092D2*
X1529134Y1672100D1*
X1436378Y1669108D2*
X1433386Y1666115D1*
X1436378Y1669108D2*
X1439370Y1666115D1*
X1544094Y1669108D2*
X1541102Y1666115D1*
X1544094Y1669108D2*
X1547087Y1666115D1*
X1211969D2*
X1208976Y1663123D1*
Y1666115D2*
X1214487Y1663123D1*
X1219614Y1660131D1*
X1224354Y1657139D1*
X1228746Y1654147D1*
X1232913Y1651155D1*
X1403465Y1663123D2*
X1401060Y1660131D1*
X1399322Y1657139D1*
X1398153Y1654147D1*
X1398264Y1651155D1*
X1398927Y1648163D1*
X1400005Y1645171D1*
X1401215Y1642178D1*
X1402261Y1639186D1*
X1403011Y1636194D1*
X1403721Y1633202D1*
X1404584Y1630210D1*
X1405411Y1627218D1*
X1405956Y1624226D1*
X1406242Y1621234D1*
X1406371Y1618241D1*
X1406425Y1615249D1*
X1406445Y1612257D1*
X1406453Y1609265D1*
X1406455Y1606273D1*
X1406456Y1603281D1*
X1406457Y1600289D1*
Y1597297D1*
Y1594304D1*
Y1591312D1*
Y1588320D1*
Y1585328D1*
Y1582336D1*
Y1579344D1*
Y1576352D1*
Y1573360D1*
Y1570367D1*
Y1567375D1*
Y1564383D1*
Y1561391D1*
Y1558399D1*
Y1555407D1*
Y1552415D1*
Y1549423D1*
Y1546430D1*
Y1543438D1*
Y1540446D1*
Y1537454D1*
Y1534462D1*
Y1531470D1*
Y1528478D1*
Y1525486D1*
Y1522493D1*
X1406468Y1519501D1*
X1406574Y1516509D1*
X1406955Y1513517D1*
X1407672Y1510525D1*
X1408439Y1507533D1*
X1408961Y1504541D1*
X1409238Y1501549D1*
X1409365Y1498556D1*
X1409417Y1495564D1*
X1409438Y1492572D1*
X1409445Y1489580D1*
X1409436Y1486588D1*
X1409332Y1483596D1*
X1408950Y1480604D1*
X1408234Y1477612D1*
X1407467Y1474619D1*
X1406933Y1471627D1*
X1406551Y1468635D1*
X1406007Y1465643D1*
X1404911Y1462651D1*
X1403270Y1459659D1*
X1399799Y1456667D1*
X1396043Y1453675D1*
X1392847Y1450682D1*
X1390304Y1447690D1*
X1389489Y1444698D1*
X1389126Y1441706D1*
X1389814Y1438714D1*
X1390641Y1435722D1*
X1391533Y1432730D1*
X1392622Y1429738D1*
X1393894Y1426745D1*
X1395196Y1423753D1*
X1396377Y1420761D1*
X1397519Y1417769D1*
X1398962Y1414777D1*
X1400698Y1411785D1*
X1402441Y1408793D1*
X1404085Y1405801D1*
X1405657Y1402808D1*
X1407195Y1399816D1*
X1408800Y1396824D1*
X1410586Y1393832D1*
X1412515Y1390840D1*
X1414348Y1387848D1*
X1416030Y1384856D1*
X1417618Y1381864D1*
X1419149Y1378871D1*
X1420662Y1375879D1*
X1422161Y1372887D1*
X1423650Y1369895D1*
X1425039Y1366903D1*
X1426156Y1363911D1*
X1426934Y1360919D1*
X1427653Y1357927D1*
X1428520Y1354934D1*
X1429348Y1351942D1*
X1429904Y1348950D1*
X1430307Y1345958D1*
X1430935Y1342966D1*
X1432203Y1339974D1*
X1434218Y1336982D1*
X1436834Y1333990D1*
X1439999Y1330997D1*
X1443613Y1328005D1*
X1447225Y1325013D1*
X1450218Y1322021D1*
X1452574Y1319029D1*
X1453254Y1316037D1*
X1452479Y1313045D1*
X1451339Y1310052D1*
X1454679Y1307060D1*
X1458030Y1304068D1*
X1461068Y1301076D1*
X1463688Y1298084D1*
X1465825Y1295092D1*
X1467434Y1292100D1*
X1467086Y1289108D1*
X1466299Y1286115D1*
X1470673Y1283123D1*
X1474524Y1280131D1*
X1477939Y1277139D1*
X1481007Y1274147D1*
X1483579Y1271155D1*
X1485398Y1268163D1*
X1486536Y1265171D1*
X1487514Y1262178D1*
X1488824Y1259186D1*
X1490392Y1256194D1*
X1491713Y1253202D1*
X1492523Y1250210D1*
X1492932Y1247218D1*
X1493113Y1244226D1*
X1493188Y1241234D1*
X1493228Y1238241D1*
X1406457Y1663123D2*
Y1660131D1*
Y1657139D1*
Y1654147D1*
Y1651155D1*
X1547087Y1663123D2*
X1550067Y1660131D1*
X1552954Y1657139D1*
X1555565Y1654147D1*
X1557840Y1651155D1*
X1560054Y1648163D1*
X1562419Y1645171D1*
X1564740Y1642178D1*
X1566784Y1639186D1*
X1568563Y1636194D1*
X1570180Y1633202D1*
X1571622Y1630210D1*
X1572756Y1627218D1*
X1573487Y1624226D1*
X1574016Y1621234D1*
X1559055Y1663123D2*
X1559631Y1660131D1*
X1560769Y1657139D1*
X1562377Y1654147D1*
X1564167Y1651155D1*
X1566170Y1648163D1*
X1568451Y1645171D1*
X1570742Y1642178D1*
X1572774Y1639186D1*
X1574549Y1636194D1*
X1576165Y1633202D1*
X1577607Y1630210D1*
X1578741Y1627218D1*
X1579471Y1624226D1*
X1580000Y1621234D1*
X1421417Y1657139D2*
X1415433Y1654147D1*
X1409449Y1651155D1*
X1418425Y1657139D2*
X1420943Y1654147D1*
X1423079Y1651155D1*
X1424827Y1648163D1*
X1426226Y1645171D1*
X1427402Y1642178D1*
X1238898Y1654147D2*
X1239622Y1651155D1*
X1243234Y1648163D1*
X1253515Y1645171D1*
X1265827Y1642178D1*
X1642835Y1654147D2*
X1647465Y1651155D1*
X1653684Y1648163D1*
X1661442Y1645171D1*
X1670064Y1642178D1*
X1679163Y1639186D1*
X1688319Y1636194D1*
X1696855Y1633202D1*
X1704483Y1630210D1*
X1711654Y1627218D1*
X1648819Y1654147D2*
X1659611Y1651155D1*
X1669142Y1648163D1*
X1677563Y1645171D1*
X1686161Y1642178D1*
X1695907Y1639186D1*
X1706115Y1636194D1*
X1715312Y1633202D1*
X1722927Y1630210D1*
X1729606Y1627218D1*
X1262835Y1651155D2*
X1259843Y1648163D1*
X1262835Y1651155D2*
X1265827Y1648163D1*
X1442362Y1651155D2*
X1439370Y1648163D1*
X1436378Y1645171D1*
X1433386Y1642178D1*
X1448346Y1651155D2*
X1445931Y1648163D1*
X1444076Y1645171D1*
X1442692Y1642178D1*
X1441490Y1639186D1*
X1440501Y1636194D1*
X1439790Y1633202D1*
X1439100Y1630210D1*
X1438245Y1627218D1*
X1437421Y1624226D1*
X1436878Y1621234D1*
X1436593Y1618241D1*
X1436463Y1615249D1*
X1436410Y1612257D1*
X1436389Y1609265D1*
X1436394Y1606273D1*
X1436496Y1603281D1*
X1436877Y1600289D1*
X1437593Y1597297D1*
X1438372Y1594304D1*
X1438999Y1591312D1*
X1439669Y1588320D1*
X1440618Y1585328D1*
X1441819Y1582336D1*
X1443089Y1579344D1*
X1444246Y1576352D1*
X1445291Y1573360D1*
X1446467Y1570367D1*
X1447985Y1567375D1*
X1450163Y1564383D1*
X1453161Y1561391D1*
X1456568Y1558399D1*
X1459926Y1555407D1*
X1463133Y1552415D1*
X1466240Y1549423D1*
X1469381Y1546430D1*
X1472784Y1543438D1*
X1476616Y1540446D1*
X1480887Y1537454D1*
X1485730Y1534462D1*
X1491442Y1531470D1*
X1498070Y1528478D1*
X1505197Y1525486D1*
X1289764Y1648163D2*
X1277795Y1645171D1*
X1265827Y1642178D1*
X1286772Y1648163D2*
X1284493Y1645171D1*
X1282754Y1642178D1*
X1283021Y1639186D1*
X1285397Y1636194D1*
X1288788Y1633202D1*
X1292756Y1630210D1*
X1487244Y1645171D2*
X1489762Y1642178D1*
X1491919Y1639186D1*
X1493860Y1636194D1*
X1496005Y1633202D1*
X1498773Y1630210D1*
X1502265Y1627218D1*
X1506166Y1624226D1*
X1510055Y1621234D1*
X1513636Y1618241D1*
X1516936Y1615249D1*
X1520073Y1612257D1*
X1523150Y1609265D1*
X1493228Y1645171D2*
X1501029Y1642178D1*
X1507521Y1639186D1*
X1512517Y1636194D1*
X1516469Y1633202D1*
X1519765Y1630210D1*
X1522438Y1627218D1*
X1524383Y1624226D1*
X1525797Y1621234D1*
X1527010Y1618241D1*
X1527999Y1615249D1*
X1528653Y1612257D1*
X1529134Y1609265D1*
X1298740Y1639186D2*
X1298190Y1636194D1*
X1297140Y1633202D1*
X1295748Y1630210D1*
X1307717Y1639186D2*
Y1636194D1*
Y1633202D1*
Y1630210D1*
Y1627218D1*
X1158110Y1633202D2*
X1155694Y1630210D1*
X1153839Y1627218D1*
X1152456Y1624226D1*
X1151253Y1621234D1*
X1150264Y1618241D1*
X1149542Y1615249D1*
X1148735Y1612257D1*
X1147382Y1609265D1*
X1145355Y1606273D1*
X1142923Y1603281D1*
X1140411Y1600289D1*
X1137835Y1597297D1*
X1134924Y1594304D1*
X1131686Y1591312D1*
X1128348Y1588320D1*
X1124825Y1585328D1*
X1121042Y1582336D1*
X1117239Y1579344D1*
X1113619Y1576352D1*
X1110057Y1573360D1*
X1106495Y1570367D1*
X1103018Y1567375D1*
X1099534Y1564383D1*
X1096012Y1561391D1*
X1092634Y1558399D1*
X1089333Y1555407D1*
X1085865Y1552415D1*
X1082105Y1549423D1*
X1078213Y1546430D1*
X1074207Y1543438D1*
X1069826Y1540446D1*
X1065094Y1537454D1*
X1060168Y1534462D1*
X1054865Y1531470D1*
X1049144Y1528478D1*
X1043416Y1525486D1*
X1037814Y1522493D1*
X1032130Y1519501D1*
X1026318Y1516509D1*
X1020420Y1513517D1*
X1014488Y1510525D1*
X1161102Y1633202D2*
X1164094Y1630210D1*
X1313701D2*
X1310709Y1627218D1*
X1295748Y1630210D2*
X1314265Y1627218D1*
X1328345Y1624226D1*
X1337398Y1621234D1*
X1344065Y1618241D1*
X1347213Y1615249D1*
X1348575Y1612257D1*
X1349622Y1609265D1*
X1350634Y1606273D1*
X1351520Y1603281D1*
X1352086Y1600289D1*
X1352380Y1597297D1*
X1352512Y1594304D1*
X1352566Y1591312D1*
X1352575Y1588320D1*
X1352478Y1585328D1*
X1352099Y1582336D1*
X1351383Y1579344D1*
X1350616Y1576352D1*
X1350095Y1573360D1*
X1349817Y1570367D1*
X1349690Y1567375D1*
X1349638Y1564383D1*
X1349618Y1561391D1*
X1349610Y1558399D1*
X1349608Y1555407D1*
X1349607Y1552415D1*
X1349606Y1549423D1*
Y1546430D1*
Y1543438D1*
Y1540446D1*
Y1537454D1*
Y1534462D1*
Y1531470D1*
X1349595Y1528478D1*
X1349489Y1525486D1*
X1349108Y1522493D1*
X1348391Y1519501D1*
X1347624Y1516509D1*
X1347102Y1513517D1*
X1346825Y1510525D1*
X1346698Y1507533D1*
X1346646Y1504541D1*
X1346614Y1501549D1*
X1346501Y1498556D1*
X1346117Y1495564D1*
X1345400Y1492572D1*
X1344632Y1489580D1*
X1344122Y1486588D1*
X1343950Y1483596D1*
X1344204Y1480604D1*
X1344868Y1477612D1*
X1345627Y1474619D1*
X1346247Y1471627D1*
X1346915Y1468635D1*
X1347874Y1465643D1*
X1349192Y1462651D1*
X1350937Y1459659D1*
X1353098Y1456667D1*
X1355339Y1453675D1*
X1357340Y1450682D1*
X1359003Y1447690D1*
X1360235Y1444698D1*
X1360959Y1441706D1*
X1361317Y1438714D1*
X1361474Y1435722D1*
X1361538Y1432730D1*
X1361573Y1429738D1*
X1361687Y1426745D1*
X1362083Y1423753D1*
X1362906Y1420761D1*
X1364067Y1417769D1*
X1365410Y1414777D1*
X1366848Y1411785D1*
X1368319Y1408793D1*
X1369809Y1405801D1*
X1371311Y1402808D1*
X1372914Y1399816D1*
X1374788Y1396824D1*
X1377003Y1393832D1*
X1379264Y1390840D1*
X1381285Y1387848D1*
X1383067Y1384856D1*
X1384786Y1381864D1*
X1386609Y1378871D1*
X1388462Y1375879D1*
X1390014Y1372887D1*
X1391258Y1369895D1*
X1392403Y1366903D1*
X1393370Y1363911D1*
X1394073Y1360919D1*
X1394760Y1357927D1*
X1395614Y1354934D1*
X1396449Y1351942D1*
X1397109Y1348950D1*
X1397881Y1345958D1*
X1399111Y1342966D1*
X1400681Y1339974D1*
X1402160Y1336982D1*
X1403465Y1333990D1*
X1367559Y1627218D2*
Y1624226D1*
Y1621234D1*
Y1618241D1*
Y1615249D1*
Y1612257D1*
Y1609265D1*
Y1606273D1*
Y1603281D1*
Y1600289D1*
Y1597297D1*
Y1594304D1*
Y1591312D1*
Y1588320D1*
X1373543Y1627218D2*
Y1624226D1*
Y1621234D1*
Y1618241D1*
Y1615249D1*
Y1612257D1*
Y1609265D1*
Y1606273D1*
Y1603281D1*
Y1600289D1*
Y1597297D1*
Y1594304D1*
Y1591312D1*
Y1588320D1*
X1699685Y1624226D2*
Y1621234D1*
Y1618241D1*
X1699673Y1615249D1*
X1699568Y1612257D1*
X1699187Y1609265D1*
X1698470Y1606273D1*
X1697703Y1603281D1*
X1697170Y1600289D1*
X1696787Y1597297D1*
X1696255Y1594304D1*
X1695264Y1591312D1*
X1693597Y1588320D1*
X1691148Y1585328D1*
X1688213Y1582336D1*
X1685335Y1579344D1*
X1682559Y1576352D1*
X1679554Y1573360D1*
X1676277Y1570367D1*
X1672923Y1567375D1*
X1669383Y1564383D1*
X1665482Y1561391D1*
X1661180Y1558399D1*
X1656262Y1555407D1*
X1649939Y1552415D1*
X1640799Y1549423D1*
X1627950Y1546430D1*
X1612913Y1543438D1*
X1612799Y1540446D1*
X1612416Y1537454D1*
X1611699Y1534462D1*
X1610931Y1531470D1*
X1610410Y1528478D1*
X1610132Y1525486D1*
X1610005Y1522493D1*
X1609953Y1519501D1*
X1609932Y1516509D1*
X1609925Y1513517D1*
X1609934Y1510525D1*
X1610039Y1507533D1*
X1610431Y1504541D1*
X1611253Y1501549D1*
X1612413Y1498556D1*
X1613768Y1495564D1*
X1615300Y1492572D1*
X1617046Y1489580D1*
X1618872Y1486588D1*
X1620413Y1483596D1*
X1621654Y1480604D1*
X1622797Y1477612D1*
X1623764Y1474619D1*
X1624466Y1471627D1*
X1625154Y1468635D1*
X1626019Y1465643D1*
X1626959Y1462651D1*
X1627989Y1459659D1*
X1629384Y1456667D1*
X1631102Y1453675D1*
X1632838Y1450682D1*
X1634479Y1447690D1*
X1636051Y1444698D1*
X1637589Y1441706D1*
X1639194Y1438714D1*
X1640980Y1435722D1*
X1642909Y1432730D1*
X1644741Y1429738D1*
X1646424Y1426745D1*
X1648000Y1423753D1*
X1649437Y1420761D1*
X1650675Y1417769D1*
X1651838Y1414777D1*
X1653276Y1411785D1*
X1654911Y1408793D1*
X1656261Y1405801D1*
X1657083Y1402808D1*
X1657496Y1399816D1*
X1657679Y1396824D1*
X1657752Y1393832D1*
X1657780Y1390840D1*
X1657790Y1387848D1*
X1657795Y1384856D1*
X1693701Y1624226D2*
X1706805Y1621234D1*
X1719998Y1618241D1*
X1731849Y1615249D1*
X1741320Y1612257D1*
X1748733Y1609265D1*
X1754804Y1606273D1*
X1760335Y1603281D1*
X1765816Y1600289D1*
X1771186Y1597297D1*
X1776342Y1594304D1*
X1781512Y1591312D1*
X1786944Y1588320D1*
X1792527Y1585328D1*
X1797884Y1582336D1*
X1802600Y1579344D1*
X1806581Y1576352D1*
X1810066Y1573360D1*
X1813407Y1570367D1*
X1817207Y1567375D1*
X1822360Y1564383D1*
X1829322Y1561391D1*
X1837323Y1558399D1*
X1119213Y1621234D2*
X1113816Y1618241D1*
X1109063Y1615249D1*
X1105000Y1612257D1*
X1101260Y1609265D1*
X1122205Y1621234D2*
X1119090Y1618241D1*
X1115633Y1615249D1*
X1111618Y1612257D1*
X1107244Y1609265D1*
X1577008Y1618241D2*
Y1615249D1*
Y1612257D1*
Y1609265D1*
Y1606273D1*
Y1603281D1*
Y1600289D1*
Y1597297D1*
Y1594304D1*
Y1591312D1*
Y1588320D1*
Y1585328D1*
X1582992Y1618241D2*
Y1615249D1*
Y1612257D1*
Y1609265D1*
Y1606273D1*
Y1603281D1*
Y1600289D1*
Y1597297D1*
Y1594304D1*
Y1591312D1*
Y1588320D1*
Y1585328D1*
X1597953Y1612257D2*
Y1609265D1*
Y1606273D1*
Y1603281D1*
Y1600289D1*
Y1597297D1*
Y1594304D1*
X1597941Y1591312D1*
X1597836Y1588320D1*
X1597455Y1585328D1*
X1596738Y1582336D1*
X1595971Y1579344D1*
X1595449Y1576352D1*
X1595171Y1573360D1*
X1595045Y1570367D1*
X1594992Y1567375D1*
X1594972Y1564383D1*
X1594964Y1561391D1*
X1594962Y1558399D1*
X1594961Y1555407D1*
X1594972Y1552415D1*
X1595078Y1549423D1*
X1595459Y1546430D1*
X1596175Y1543438D1*
X1596943Y1540446D1*
X1597464Y1537454D1*
X1597742Y1534462D1*
X1597869Y1531470D1*
X1597921Y1528478D1*
X1597942Y1525486D1*
X1597953Y1522493D1*
X1603937Y1612257D2*
Y1609265D1*
Y1606273D1*
Y1603281D1*
Y1600289D1*
Y1597297D1*
Y1594304D1*
Y1591312D1*
Y1588320D1*
Y1585328D1*
Y1582336D1*
Y1579344D1*
Y1576352D1*
Y1573360D1*
Y1570367D1*
Y1567375D1*
Y1564383D1*
Y1561391D1*
Y1558399D1*
Y1555407D1*
Y1552415D1*
Y1549423D1*
Y1546430D1*
Y1543438D1*
Y1540446D1*
Y1537454D1*
Y1534462D1*
Y1531470D1*
Y1528478D1*
Y1525486D1*
Y1522493D1*
X1762520Y1612257D2*
X1765512Y1609265D1*
X1768504Y1606273D1*
X1765512Y1612257D2*
X1771496Y1609265D1*
X1777480Y1606273D1*
X1098268Y1609265D2*
X1095276Y1606273D1*
X1101260D2*
X1777480Y1603281D2*
X1781621Y1600289D1*
X1785992Y1597297D1*
X1790650Y1594304D1*
X1795431Y1591312D1*
X1799949Y1588320D1*
X1804188Y1585328D1*
X1808436Y1582336D1*
X1812853Y1579344D1*
X1817513Y1576352D1*
X1822362Y1573360D1*
X1777480Y1606273D2*
X1784025Y1603281D1*
X1790158Y1600289D1*
X1795923Y1597297D1*
X1801571Y1594304D1*
X1807016Y1591312D1*
X1812106Y1588320D1*
X1816887Y1585328D1*
X1821391Y1582336D1*
X1825393Y1579344D1*
X1828631Y1576352D1*
X1831339Y1573360D1*
X1086299Y1594304D2*
X1083307Y1591312D1*
X1080315Y1588320D1*
X1092283Y1594304D2*
X1089291Y1591312D1*
X1086299Y1588320D1*
X1370551Y1585328D2*
Y1582336D1*
Y1579344D1*
Y1576352D1*
Y1573360D1*
Y1570367D1*
X1376535Y1585328D2*
Y1582336D1*
Y1579344D1*
Y1576352D1*
Y1573360D1*
Y1570367D1*
X1074331Y1582336D2*
X1071801Y1579344D1*
X1069551Y1576352D1*
X1067341Y1573360D1*
X1064919Y1570367D1*
X1062362Y1567375D1*
X1077323Y1582336D2*
X1076735Y1579344D1*
X1075493Y1576352D1*
X1073506Y1573360D1*
X1071023Y1570367D1*
X1068346Y1567375D1*
X1574016Y1579344D2*
X1573902Y1576352D1*
X1573507Y1573360D1*
X1572684Y1570367D1*
X1571524Y1567375D1*
X1570180Y1564383D1*
X1568743Y1561391D1*
X1567260Y1558399D1*
X1565665Y1555407D1*
X1563781Y1552415D1*
X1561462Y1549423D1*
X1558797Y1546430D1*
X1555838Y1543438D1*
X1552408Y1540446D1*
X1548213Y1537454D1*
X1543133Y1534462D1*
X1537179Y1531470D1*
X1530391Y1528478D1*
X1523150Y1525486D1*
X1580000Y1579344D2*
X1579988Y1576352D1*
X1579883Y1573360D1*
X1579502Y1570367D1*
X1578785Y1567375D1*
X1578006Y1564383D1*
X1577379Y1561391D1*
X1576721Y1558399D1*
X1575912Y1555407D1*
X1575247Y1552415D1*
X1574860Y1549423D1*
X1578421Y1546430D1*
X1582350Y1543438D1*
X1585599Y1540446D1*
X1587865Y1537454D1*
X1589518Y1534462D1*
X1590697Y1531470D1*
X1591384Y1528478D1*
X1591724Y1525486D1*
X1591885Y1522493D1*
X1592050Y1519501D1*
X1592454Y1516509D1*
X1593179Y1513517D1*
X1593961Y1510525D1*
X1594589Y1507533D1*
X1595248Y1504541D1*
X1596091Y1501549D1*
X1596923Y1498556D1*
X1597570Y1495564D1*
X1598236Y1492572D1*
X1599094Y1489580D1*
X1600020Y1486588D1*
X1600943Y1483596D1*
X1601945Y1480604D1*
X1602853Y1477612D1*
X1603545Y1474619D1*
X1604330Y1471627D1*
X1605562Y1468635D1*
X1607113Y1465643D1*
X1608528Y1462651D1*
X1609716Y1459659D1*
X1610852Y1456667D1*
X1611904Y1453675D1*
X1612892Y1450682D1*
X1614019Y1447690D1*
X1615316Y1444698D1*
X1616716Y1441706D1*
X1618175Y1438714D1*
X1619653Y1435722D1*
X1621146Y1432730D1*
X1622638Y1429738D1*
X1624135Y1426745D1*
X1625641Y1423753D1*
X1627232Y1420761D1*
X1629014Y1417769D1*
X1630941Y1414777D1*
X1632761Y1411785D1*
X1634350Y1408793D1*
X1635650Y1405801D1*
X1636752Y1402808D1*
X1637927Y1399816D1*
X1639243Y1396824D1*
X1640659Y1393832D1*
X1642198Y1390840D1*
X1643928Y1387848D1*
X1645827Y1384856D1*
X1367559Y1564383D2*
Y1561391D1*
Y1558399D1*
Y1555407D1*
Y1552415D1*
Y1549423D1*
Y1546430D1*
X1367547Y1543438D1*
X1367442Y1540446D1*
X1367061Y1537454D1*
X1366344Y1534462D1*
X1365577Y1531470D1*
X1365055Y1528478D1*
X1364778Y1525486D1*
X1364651Y1522493D1*
X1364587Y1519501D1*
X1364453Y1516509D1*
X1363983Y1513517D1*
X1362957Y1510525D1*
X1361575Y1507533D1*
X1362956Y1504541D1*
X1363827Y1501549D1*
X1364367Y1498556D1*
X1364941Y1495564D1*
X1365736Y1492572D1*
X1366533Y1489580D1*
X1367068Y1486588D1*
X1367364Y1483596D1*
X1367559Y1480604D1*
X1373543Y1564383D2*
Y1561391D1*
Y1558399D1*
Y1555407D1*
Y1552415D1*
Y1549423D1*
Y1546430D1*
Y1543438D1*
X1373532Y1540446D1*
X1373426Y1537454D1*
X1373045Y1534462D1*
X1372328Y1531470D1*
X1371561Y1528478D1*
X1371039Y1525486D1*
X1370762Y1522493D1*
X1370635Y1519501D1*
X1370583Y1516509D1*
X1370574Y1513517D1*
X1370672Y1510525D1*
X1371051Y1507533D1*
X1371766Y1504541D1*
X1372533Y1501549D1*
X1373055Y1498556D1*
X1373332Y1495564D1*
X1373459Y1492572D1*
X1373512Y1489580D1*
X1373532Y1486588D1*
X1373540Y1483596D1*
X1373543Y1480604D1*
X1056378Y1561391D2*
X1053386Y1558399D1*
X1050394Y1555407D1*
X1062362Y1561391D2*
X1059370Y1558399D1*
X1056378Y1555407D1*
X912756Y1537454D2*
X909986Y1534462D1*
X909190Y1531470D1*
X910086Y1528478D1*
X913193Y1525486D1*
X917860Y1522493D1*
X923948Y1519501D1*
X930602Y1516509D1*
X936864Y1513517D1*
X942677Y1510525D1*
X918740Y1537454D2*
X926145Y1534462D1*
X935521Y1531470D1*
X947395Y1528478D1*
X960630Y1525486D1*
X1609921Y1486588D2*
X1606929Y1483596D1*
X1609921Y1486588D2*
X1612913Y1483596D1*
X1609921Y1480604D2*
X1610035Y1477612D1*
X1610419Y1474619D1*
X1611136Y1471627D1*
X1611915Y1468635D1*
X1612542Y1465643D1*
X1613201Y1462651D1*
X1614056Y1459659D1*
X1614993Y1456667D1*
X1616021Y1453675D1*
X1617404Y1450682D1*
X1619029Y1447690D1*
X1620476Y1444698D1*
X1621689Y1441706D1*
X1622923Y1438714D1*
X1624265Y1435722D1*
X1625694Y1432730D1*
X1627253Y1429738D1*
X1629021Y1426745D1*
X1630944Y1423753D1*
X1632774Y1420761D1*
X1634455Y1417769D1*
X1636043Y1414777D1*
X1637586Y1411785D1*
X1639193Y1408793D1*
X1640971Y1405801D1*
X1642828Y1402808D1*
X1644442Y1399816D1*
X1645827Y1396824D1*
X1615906Y1480604D2*
X1616380Y1477612D1*
X1617227Y1474619D1*
X1618383Y1471627D1*
X1619635Y1468635D1*
X1620785Y1465643D1*
X1621827Y1462651D1*
X1622979Y1459659D1*
X1624275Y1456667D1*
X1625585Y1453675D1*
X1626769Y1450682D1*
X1627913Y1447690D1*
X1629355Y1444698D1*
X1631092Y1441706D1*
X1632834Y1438714D1*
X1634478Y1435722D1*
X1636051Y1432730D1*
X1637589Y1429738D1*
X1639194Y1426745D1*
X1640968Y1423753D1*
X1642804Y1420761D1*
X1644348Y1417769D1*
X1645602Y1414777D1*
X1646851Y1411785D1*
X1648187Y1408793D1*
X1649502Y1405801D1*
X1650583Y1402808D1*
X1651293Y1399816D1*
X1651811Y1396824D1*
X1367559Y1474619D2*
Y1471627D1*
Y1468635D1*
Y1465643D1*
Y1462651D1*
Y1459659D1*
X1373543Y1474619D2*
Y1471627D1*
Y1468635D1*
Y1465643D1*
Y1462651D1*
Y1459659D1*
X1415433Y1336982D2*
X1412441Y1333990D1*
X1421417Y1336982D2*
X1421994Y1333990D1*
X1423119Y1330997D1*
X1424623Y1328005D1*
X1426019Y1325013D1*
X1427200Y1322021D1*
X1428322Y1319029D1*
X1429292Y1316037D1*
X1430108Y1313045D1*
X1431293Y1310052D1*
X1433349Y1307060D1*
X1436038Y1304068D1*
X1438586Y1301076D1*
X1440450Y1298084D1*
X1441611Y1295092D1*
X1442514Y1292100D1*
X1443565Y1289108D1*
X1444890Y1286115D1*
X1446514Y1283123D1*
X1448346Y1280131D1*
X1454331Y1283123D2*
X1451339Y1280131D1*
X1457323Y1283123D2*
X1457797Y1280131D1*
X1458644Y1277139D1*
X1459812Y1274147D1*
X1461158Y1271155D1*
X1462596Y1268163D1*
X1464078Y1265171D1*
X1465674Y1262178D1*
X1467557Y1259186D1*
X1469877Y1256194D1*
X1472519Y1253202D1*
X1475255Y1250210D1*
X1477803Y1247218D1*
X1480030Y1244226D1*
X1482123Y1241234D1*
X1484252Y1238241D1*
X1175486Y1603884D2*
D120*
X1177387Y1607686D1*
X1181234Y1611533D1*
X1185037Y1613434D1*
X1192686D1*
X1196533Y1611533D1*
X1200335Y1607686D1*
X1202281Y1603884D1*
X1204182Y1598135D1*
Y1588541D1*
X1202281Y1582837D1*
X1200335Y1578990D1*
X1196533Y1575188D1*
X1192686Y1573242D1*
X1185037D1*
X1181234Y1575188D1*
X1177387Y1578990D1*
X1175486Y1582837D1*
X1163135Y1605741D2*
X1159288Y1607686D1*
X1153540Y1613390D1*
Y1573242D1*
X1286256Y2467859D2*
X1282453Y2469761D1*
X1278606Y2473608D1*
X1276705Y2477410D1*
Y2485059D1*
X1278606Y2488906D1*
X1282453Y2492709D1*
X1286256Y2494654D1*
X1292004Y2496555D1*
X1301598D1*
X1307302Y2494654D1*
X1311149Y2492709D1*
X1314952Y2488906D1*
X1316897Y2485059D1*
Y2477410D1*
X1314952Y2473607D1*
X1311149Y2469761D1*
X1307302Y2467859D1*
X1316897Y2436363D2*
X1276749D1*
X1303500Y2455508D1*
Y2426812D1*
X859256Y2554409D2*
X855453Y2556310D1*
X851606Y2560157D1*
X849705Y2563959D1*
Y2571609D1*
X851606Y2575455D1*
X855453Y2579258D1*
X859256Y2581204D1*
X865004Y2583105D1*
X874598D1*
X880302Y2581203D1*
X884149Y2579258D1*
X887952Y2575455D1*
X889897Y2571609D1*
Y2563959D1*
X887952Y2560157D1*
X884149Y2556310D1*
X880302Y2554409D1*
X849749Y2519110D2*
Y2538211D1*
X866949Y2540112D1*
X865048Y2538211D1*
X863102Y2532463D1*
Y2526759D1*
X865048Y2521011D1*
X868850Y2517164D1*
X874598Y2515263D1*
X878401D1*
X884149Y2517164D1*
X887996Y2521011D1*
X889897Y2526759D1*
Y2532463D1*
X887996Y2538211D1*
X886050Y2540112D1*
X882248Y2542057D1*
X1655711Y753837D2*
Y736637D1*
X1653766Y730889D1*
X1651865Y728943D1*
X1648062Y727042D1*
X1644215D1*
X1640413Y728943D1*
X1638467Y730889D1*
X1636566Y736637D1*
Y753837D1*
X1676758D1*
X1655711Y740439D2*
X1676758Y727042D1*
X1636610Y710844D2*
Y689841D1*
X1651909Y701293D1*
Y695545D1*
X1653810Y691743D1*
X1655711Y689841D1*
X1661459Y687896D1*
X1665262D1*
X1671010Y689841D1*
X1674857Y693644D1*
X1676758Y699392D1*
Y705140D1*
X1674857Y710844D1*
X1672911Y712745D1*
X1669109Y714690D1*
X977873Y503600D2*
D122*
X974955Y500749D1*
X972103Y503600D1*
X974955Y506452D1*
X977873Y503600D1*
X974955Y483504D2*
Y434690D1*
X977873Y426068D1*
X983577Y423216D1*
X989347D1*
X953576Y483438D2*
Y443246D1*
Y471964D2*
X944954Y480586D1*
X939184Y483438D1*
X930628D1*
X924858Y480586D1*
X922006Y471964D1*
Y443246D1*
X869057Y483438D2*
Y443246D1*
Y474816D2*
X874761Y480586D1*
X880531Y483438D1*
X889087D1*
X894857Y480586D1*
X900561Y474816D1*
X903479Y466194D1*
Y460490D1*
X900561Y451868D1*
X894857Y446164D1*
X889087Y443246D1*
X880531D1*
X874761Y446164D1*
X869057Y451868D1*
X850530Y483438D2*
X833286Y443246D1*
X816108Y483438D1*
X763159D2*
Y443246D1*
Y474816D2*
X768863Y480586D1*
X774633Y483438D1*
X783189D1*
X788959Y480586D1*
X794663Y474816D1*
X797581Y466194D1*
Y460490D1*
X794663Y451868D1*
X788959Y446164D1*
X783189Y443246D1*
X774633D1*
X768863Y446164D1*
X763159Y451868D1*
X744632Y483438D2*
Y443246D1*
Y466194D2*
X741714Y474816D1*
X736010Y480586D1*
X730240Y483438D1*
X721618D1*
X703091D2*
Y443246D1*
Y466194D2*
X700172Y474816D1*
X694469Y480586D1*
X688698Y483438D1*
X680076D1*
X647223D2*
X652927Y480586D1*
X658697Y474816D1*
X661549Y466194D1*
Y460490D1*
X658697Y451868D1*
X652927Y446164D1*
X647223Y443246D1*
X638601D1*
X632831Y446164D1*
X627127Y451868D1*
X624209Y460490D1*
Y466194D1*
X627127Y474816D1*
X632831Y480586D1*
X638601Y483438D1*
X647223D1*
M02*
