G04 DipTrace 3.0.0.2*
G04 Bottom.gbr*
%MOIN*%
G04 #@! TF.FileFunction,Copper,L2,Bot*
G04 #@! TF.Part,Single*
G04 #@! TA.AperFunction,Conductor*
%ADD14C,0.018*%
%ADD15C,0.007*%
%ADD16C,0.012*%
G04 #@! TA.AperFunction,CopperBalancing*
%ADD21C,0.025*%
%ADD22C,0.012992*%
%ADD26R,0.051181X0.059055*%
%ADD27R,0.059055X0.051181*%
G04 #@! TA.AperFunction,ComponentPad*
%ADD37R,0.059055X0.059055*%
%ADD38C,0.059055*%
%ADD39R,0.066929X0.066929*%
%ADD40C,0.066929*%
%ADD48R,0.059843X0.159843*%
G04 #@! TA.AperFunction,ViaPad*
%ADD64C,0.031496*%
%FSLAX26Y26*%
G04*
G70*
G90*
G75*
G01*
G04 Bottom*
%LPD*%
X937811Y2578701D2*
D15*
Y2628701D1*
X936311Y2630201D1*
X1724672Y758268D2*
D14*
Y850881D1*
X1720041Y855512D1*
X1831811Y2048294D2*
D16*
Y2018701D1*
X1867811Y1982701D1*
Y1892352D1*
X1830709Y1855249D1*
X1791076D1*
X1762861Y1883465D1*
Y1938189D1*
X1747375Y1953675D1*
X1659711D1*
X1659186Y1954199D1*
X1831811Y2048294D2*
Y2054121D1*
X1858793Y2081102D1*
Y2211811D1*
X1816273Y2254331D1*
X1364811Y2491201D2*
D15*
Y2553201D1*
X1356811Y2561201D1*
X1086259Y2673753D2*
D14*
X1283311D1*
X1071785Y442782D2*
X1073753D1*
Y607218D1*
X1126575Y660039D1*
X1428811Y2523753D2*
D16*
Y2423701D1*
X1421811Y2416701D1*
X1365114D1*
X1364811Y2416398D1*
X937811Y2503898D2*
Y2454701D1*
X979311Y2413201D1*
X1025811D1*
X1048811Y2436201D1*
Y2663701D1*
X987311Y2725201D1*
X692759Y2323753D2*
X873864D1*
X939311Y2389201D1*
Y2502398D1*
X937811Y2503898D1*
X1659186Y2254199D2*
X1400812D1*
X1366811Y2288201D1*
Y2414398D1*
X1364811Y2416398D1*
X1836811Y1971701D2*
X1834311D1*
X1700311Y2105701D1*
X1618311D1*
X1587311Y2136701D1*
Y2182324D1*
X1659186Y2254199D1*
X1587311Y2027201D2*
Y2136701D1*
X841311Y1741201D2*
D14*
Y1696701D1*
X814311Y1669701D1*
X530311D1*
X490811Y1709201D1*
Y1785430D1*
X494751Y1789370D1*
X1224147Y1525328D2*
Y1705537D1*
X1362311Y1843701D1*
X1473811Y1530701D2*
X1229520D1*
X1224147Y1525328D1*
X1088811Y1469201D2*
Y1398201D1*
X1204311D1*
X1224311Y1418201D1*
Y1525164D1*
X1224147Y1525328D1*
X1845811Y1261701D2*
X1837811D1*
X1724811Y1148701D1*
Y1060282D1*
X1720041Y1055512D1*
X1595811Y1057701D2*
X1717852D1*
X1720041Y1055512D1*
X1085564Y1165954D2*
X1487558D1*
X1595811Y1057701D1*
X1088811Y1398201D2*
Y1169201D1*
X1085564Y1165954D1*
X1627311Y789201D2*
Y962782D1*
X1720041Y1055512D1*
X1562811Y631201D2*
X1587811D1*
Y749701D1*
X1627311Y789201D1*
X1511942Y631201D2*
X1617811D1*
X1671311D2*
X1617811D1*
X841311Y1696701D2*
Y1477297D1*
X1194392Y442782D2*
X1484392D1*
X1511942Y470332D1*
Y631201D1*
X1587311Y2027201D2*
X1397811D1*
X1362311Y1991701D1*
Y1843701D1*
X1821654Y1718201D2*
X1661311D1*
X1473811Y1530701D1*
X841311Y1741201D2*
X941811D1*
X1088811Y1594201D1*
Y1469201D1*
X834121Y492913D2*
X1003806D1*
X463517Y2609318D2*
D15*
X508136D1*
X672441Y2773622D1*
X885302D1*
X886745Y2775066D1*
X1149344Y1525328D2*
Y1462467D1*
X1659186Y2054199D2*
X1684908D1*
X1808793Y1930315D1*
Y1900525D1*
X1807087Y1898819D1*
X1659186Y2154199D2*
X1807874D1*
X1822310Y2139764D1*
X832311Y1237701D2*
X1019811D1*
X1038811Y1256701D1*
Y1537701D1*
X1040311Y1539201D1*
X1041811Y1723701D2*
Y1741201D1*
X947311Y1835701D1*
X991811Y1306201D2*
X459311D1*
X432311Y1279201D1*
X1724672Y683465D2*
X1784121D1*
X1792257Y691601D1*
X1455811Y1827701D2*
Y1936201D1*
X1472311Y1952701D1*
X1416811Y1817701D2*
Y1949201D1*
X1417811Y1950201D1*
X620341Y839633D2*
D14*
X836089D1*
D64*
X936311Y2630201D3*
X1831811Y2048294D3*
X1816273Y2254331D3*
X1831811Y2048294D3*
X1356811Y2561201D3*
X1086259Y2673753D3*
X1283311D3*
X1071785Y442782D3*
X1126575Y660039D3*
X1428811Y2523753D3*
X987311Y2725201D3*
X692759Y2323753D3*
X1836811Y1971701D3*
X1587311Y2027201D3*
X841311Y1741201D3*
X1362311Y1843701D3*
X1473811Y1530701D3*
X1088811Y1469201D3*
X1845811Y1261701D3*
X1595811Y1057701D3*
X1085564Y1165954D3*
X1595811Y1057701D3*
X1085564Y1165954D3*
X1627311Y789201D3*
X1562811Y631201D3*
X1627311Y789201D3*
X1511942Y631201D3*
X1617811D3*
X1671311D3*
X1617811D3*
X841311Y1477297D3*
X1194392Y442782D3*
X1511942Y631201D3*
X1587311Y2027201D3*
X1821654Y1718201D3*
X1473811Y1530701D3*
X841311Y1741201D3*
X1088811Y1469201D3*
X987311Y2725201D3*
X834121Y492913D3*
X1003806D3*
X886745Y2775066D3*
X1149344Y1462467D3*
X1807087Y1898819D3*
X1822310Y2139764D3*
X832311Y1237701D3*
X1040311Y1539201D3*
X1041811Y1723701D3*
X947311Y1835701D3*
X991811Y1306201D3*
X432311Y1279201D3*
X1792257Y691601D3*
X1455811Y1827701D3*
X1472311Y1952701D3*
X1416811Y1817701D3*
X1417811Y1950201D3*
X620341Y839633D3*
X836089D3*
X1082677Y3110236D3*
X1240157D3*
X1318898D3*
X1003937D3*
X1397638Y3267717D3*
X1318898Y3188976D3*
Y3267717D3*
Y3031496D3*
Y2952756D3*
X1240157D3*
X1082677D3*
X1161417D3*
X1003937D3*
X925197D3*
Y3110236D3*
Y3031496D3*
Y3188976D3*
Y3267717D3*
X1397638Y3188976D3*
X846457Y3267717D3*
X1397638Y3110236D3*
X846457Y3188976D3*
X1476378Y3267717D3*
Y3188976D3*
Y3110236D3*
X1555118Y3267717D3*
Y3188976D3*
Y3110236D3*
X1397638Y3031496D3*
Y2952756D3*
X1476378Y3031496D3*
X1555118D3*
X688976Y3267717D3*
Y3188976D3*
Y3110236D3*
X767717Y3267717D3*
Y3188976D3*
Y3110236D3*
X688976Y3031496D3*
X767717D3*
X846457Y3110236D3*
Y3031496D3*
X1633858Y3267717D3*
Y3188976D3*
Y3110236D3*
Y3031496D3*
X1712598Y3110236D3*
Y3031496D3*
X1633858Y2952756D3*
X1712598D3*
X610236Y3110236D3*
Y3031496D3*
X688976Y2952756D3*
X846457D3*
X1318898Y2874016D3*
X1240157D3*
X1082677D3*
X1161417D3*
X1003937D3*
X925197D3*
X1397638D3*
X846457D3*
X613420Y3283104D2*
D21*
X987619D1*
X1093450D2*
X1188010D1*
X1293890D2*
X1670042D1*
X625726Y3258235D2*
X987619D1*
X1093450D2*
X1188010D1*
X1293890D2*
X1657736D1*
X631243Y3233366D2*
X987619D1*
X1093450D2*
X1188010D1*
X1293890D2*
X1652219D1*
X631047Y3208497D2*
X987619D1*
X1093450D2*
X1188010D1*
X1293890D2*
X1652463D1*
X625042Y3183629D2*
X987619D1*
X1093450D2*
X1188010D1*
X1293890D2*
X1658420D1*
X612151Y3158760D2*
X987619D1*
X1093450D2*
X1188010D1*
X1293890D2*
X1671311D1*
X434710Y3133891D2*
X448003D1*
X588567D2*
X1694944D1*
X1835442D2*
X1848766D1*
X434710Y3109022D2*
X1848802D1*
X434710Y3084154D2*
X1848802D1*
X434710Y3059285D2*
X1848802D1*
X509270Y3034416D2*
X1848802D1*
X516058Y3009547D2*
X1848802D1*
X509563Y2984678D2*
X1848802D1*
X434710Y2959810D2*
X453856D1*
X473186D2*
X1848802D1*
X508976Y2934941D2*
X1848802D1*
X516058Y2910072D2*
X1848802D1*
X509856Y2885203D2*
X1848802D1*
X434710Y2860335D2*
X450832D1*
X476164D2*
X1848802D1*
X508684Y2835466D2*
X1848802D1*
X516008Y2810597D2*
X877072D1*
X896388D2*
X1848802D1*
X510148Y2785728D2*
X648118D1*
X923870D2*
X1848802D1*
X434710Y2760860D2*
X448588D1*
X478459D2*
X623264D1*
X922600D2*
X1848802D1*
X508343Y2735991D2*
X598411D1*
X671232D2*
X1848802D1*
X516008Y2711122D2*
X573508D1*
X646379D2*
X1848802D1*
X510392Y2686253D2*
X548655D1*
X621476D2*
X1049728D1*
X1319816D2*
X1848802D1*
X434710Y2661385D2*
X446734D1*
X480364D2*
X523802D1*
X596623D2*
X915354D1*
X957268D2*
X1049680D1*
X1319866D2*
X1848802D1*
X571770Y2636516D2*
X898118D1*
X974504D2*
X1848802D1*
X546867Y2611647D2*
X885276D1*
X990324D2*
X1848802D1*
X518840Y2586778D2*
X885276D1*
X990324D2*
X1328635D1*
X1385003D2*
X1848802D1*
X516058Y2561909D2*
X885276D1*
X990324D2*
X1318088D1*
X1395550D2*
X1848802D1*
X434710Y2537041D2*
X885276D1*
X990324D2*
X1312278D1*
X1417327D2*
X1848802D1*
X434710Y2512172D2*
X885276D1*
X990324D2*
X1312278D1*
X1417327D2*
X1848802D1*
X434710Y2487303D2*
X885276D1*
X990324D2*
X1312278D1*
X1417327D2*
X1848802D1*
X434710Y2462434D2*
X885276D1*
X990324D2*
X1312278D1*
X1417327D2*
X1848802D1*
X434710Y2437566D2*
X1312278D1*
X1417327D2*
X1848802D1*
X434710Y2412697D2*
X1312278D1*
X1417327D2*
X1848802D1*
X434710Y2387828D2*
X1312278D1*
X1417327D2*
X1848802D1*
X434710Y2362959D2*
X1848802D1*
X434710Y2338091D2*
X1848802D1*
X434710Y2313222D2*
X1848802D1*
X434710Y2288353D2*
X1620139D1*
X1698235D2*
X1801291D1*
X1831291D2*
X1848802D1*
X434710Y2263484D2*
X1607542D1*
X1710832D2*
X1778684D1*
X434710Y2238615D2*
X1609152D1*
X1709222D2*
X1781126D1*
X434710Y2213747D2*
X1627268D1*
X1691106D2*
X1816916D1*
X434710Y2188878D2*
X1620627D1*
X1697747D2*
X1829807D1*
X434710Y2164009D2*
X1607639D1*
X434710Y2139140D2*
X1608958D1*
X434710Y2114272D2*
X1626535D1*
X1691839D2*
X1794016D1*
X434710Y2089403D2*
X1621164D1*
X1697210D2*
X1827122D1*
X434710Y2064534D2*
X1607736D1*
X1710979D2*
X1796896D1*
X434710Y2039665D2*
X1608811D1*
X1735882D2*
X1794114D1*
X434710Y2014797D2*
X1625852D1*
X1760735D2*
X1803098D1*
X434710Y1989928D2*
X1606663D1*
X1785588D2*
X1820627D1*
X434710Y1965059D2*
X1382248D1*
X1508879D2*
X1606663D1*
X1810491D2*
X1838840D1*
X434710Y1940190D2*
X1380491D1*
X1508831D2*
X1606663D1*
X434710Y1915322D2*
X1390306D1*
X1482316D2*
X1606663D1*
X1711711D2*
X1733860D1*
X434710Y1890453D2*
X1390306D1*
X1482316D2*
X1733860D1*
X434710Y1865584D2*
X714475D1*
X786858D2*
X924290D1*
X970306D2*
X1390306D1*
X1482316D2*
X1740843D1*
X434710Y1840715D2*
X699631D1*
X801702D2*
X908908D1*
X985686D2*
X1386302D1*
X1492131D2*
X1765647D1*
X434710Y1815846D2*
X449759D1*
X647259D2*
X699778D1*
X801507D2*
X914475D1*
X1003606D2*
X1378098D1*
X1492571D2*
X1848802D1*
X434710Y1790978D2*
X442245D1*
X647259D2*
X715207D1*
X786126D2*
X955588D1*
X1028459D2*
X1389816D1*
X1443791D2*
X1848802D1*
X434710Y1766109D2*
X448003D1*
X647259D2*
X698118D1*
X803167D2*
X980491D1*
X1053312D2*
X1848802D1*
X434710Y1741240D2*
X478587D1*
X510882D2*
X542210D1*
X647259D2*
X698118D1*
X803167D2*
X1005344D1*
X1076018D2*
X1848802D1*
X434710Y1716371D2*
X698118D1*
X803167D2*
X1003831D1*
X1079827D2*
X1848802D1*
X434710Y1691503D2*
X698118D1*
X803167D2*
X1022678D1*
X1060979D2*
X1848802D1*
X434710Y1666634D2*
X1848802D1*
X434710Y1641765D2*
X1848802D1*
X434710Y1616896D2*
X1848802D1*
X434710Y1592028D2*
X697092D1*
X802142D2*
X1848802D1*
X434710Y1567159D2*
X697092D1*
X802142D2*
X1014719D1*
X1065862D2*
X1100755D1*
X1272747D2*
X1848802D1*
X434710Y1542290D2*
X697092D1*
X802142D2*
X1001682D1*
X1078948D2*
X1100755D1*
X1272747D2*
X1848802D1*
X434710Y1517421D2*
X697092D1*
X802142D2*
X1008860D1*
X1071770D2*
X1100755D1*
X1272747D2*
X1848802D1*
X434710Y1492552D2*
X712375D1*
X786858D2*
X1012327D1*
X1065276D2*
X1100755D1*
X1272747D2*
X1848802D1*
X434710Y1467684D2*
X698312D1*
X800871D2*
X1012327D1*
X1065276D2*
X1110959D1*
X1187736D2*
X1848802D1*
X434710Y1442815D2*
X698996D1*
X800188D2*
X1012327D1*
X1065276D2*
X1116379D1*
X1182316D2*
X1848802D1*
X434710Y1417946D2*
X715306D1*
X783928D2*
X1012327D1*
X1065276D2*
X1848802D1*
X434710Y1393077D2*
X1012327D1*
X1065276D2*
X1848802D1*
X434710Y1368209D2*
X1012327D1*
X1065276D2*
X1848802D1*
X434710Y1343340D2*
X1012327D1*
X1065276D2*
X1848802D1*
X1065276Y1318471D2*
X1848802D1*
X1065276Y1293602D2*
X1848802D1*
X469524Y1268734D2*
X811058D1*
X853558D2*
X1012327D1*
X1065276D2*
X1848802D1*
X442912Y1243865D2*
X794114D1*
X1061564D2*
X1848802D1*
X434710Y1218996D2*
X798752D1*
X1037346D2*
X1848802D1*
X434710Y1194127D2*
X1848802D1*
X434710Y1169259D2*
X1848802D1*
X434710Y1144390D2*
X1848802D1*
X434710Y1119521D2*
X1848802D1*
X434710Y1094652D2*
X1680392D1*
X1759710D2*
X1780392D1*
X434710Y1069783D2*
X1665500D1*
X434710Y1044915D2*
X1664622D1*
X434710Y1020046D2*
X1676878D1*
X1763226D2*
X1776877D1*
X434710Y995177D2*
X1680930D1*
X1759123D2*
X1780930D1*
X434710Y970308D2*
X1665647D1*
X434710Y945440D2*
X1664524D1*
X434710Y920571D2*
X1676438D1*
X1763664D2*
X1776442D1*
X434710Y895702D2*
X1681516D1*
X434710Y870833D2*
X599387D1*
X641302D2*
X815159D1*
X857024D2*
X1665794D1*
X434710Y845965D2*
X582151D1*
X874260D2*
X1664427D1*
X434710Y821096D2*
X586692D1*
X869719D2*
X1675999D1*
X434710Y796227D2*
X1672142D1*
X1777190D2*
X1848802D1*
X434710Y771358D2*
X1672142D1*
X1777190D2*
X1848802D1*
X434710Y746490D2*
X1672142D1*
X1777190D2*
X1848802D1*
X434710Y721621D2*
X1672142D1*
X1815080D2*
X1848802D1*
X434710Y696752D2*
X1672142D1*
X1830656D2*
X1848802D1*
X434710Y671883D2*
X1672142D1*
X1825188D2*
X1848802D1*
X434710Y647014D2*
X1672142D1*
X1777190D2*
X1848802D1*
X434710Y622146D2*
X476535D1*
X559954D2*
X1723264D1*
X1806975D2*
X1848802D1*
X598772Y597277D2*
X1684543D1*
X617668Y572408D2*
X1665647D1*
X627874Y547539D2*
X1655491D1*
X631731Y522671D2*
X1651682D1*
X629924Y497802D2*
X1653488D1*
X622112Y472933D2*
X1661252D1*
X606828Y448064D2*
X1676584D1*
X1115753Y1575356D2*
X1270238D1*
Y1475301D1*
X1183236D1*
X1185146Y1468138D1*
X1185592Y1462467D1*
X1185146Y1456797D1*
X1183818Y1451266D1*
X1181640Y1446010D1*
X1178669Y1441161D1*
X1174975Y1436836D1*
X1170650Y1433142D1*
X1165801Y1430171D1*
X1160545Y1427993D1*
X1155014Y1426665D1*
X1149344Y1426219D1*
X1143673Y1426665D1*
X1138143Y1427993D1*
X1132887Y1430171D1*
X1128038Y1433142D1*
X1123713Y1436836D1*
X1120018Y1441161D1*
X1117047Y1446010D1*
X1114870Y1451266D1*
X1113542Y1456797D1*
X1113096Y1462467D1*
X1113542Y1468138D1*
X1115474Y1475306D1*
X1103253Y1475301D1*
Y1575356D1*
X1115753D1*
X1327283Y2537291D2*
X1329579D1*
X1325904Y2542261D1*
X1323323Y2547329D1*
X1321564Y2552739D1*
X1320675Y2558357D1*
Y2564045D1*
X1321564Y2569663D1*
X1323323Y2575072D1*
X1325904Y2580140D1*
X1329248Y2584741D1*
X1333270Y2588764D1*
X1337871Y2592108D1*
X1342940Y2594689D1*
X1348349Y2596448D1*
X1353967Y2597337D1*
X1359655D1*
X1365273Y2596448D1*
X1370682Y2594689D1*
X1375751Y2592108D1*
X1380352Y2588764D1*
X1384374Y2584741D1*
X1387718Y2580140D1*
X1390299Y2575072D1*
X1392058Y2569663D1*
X1392948Y2564045D1*
Y2558357D1*
X1392058Y2552739D1*
X1390299Y2547329D1*
X1388799Y2544192D1*
X1388811Y2537332D1*
X1414839Y2537291D1*
Y2370307D1*
X1314783D1*
Y2537291D1*
X1327283D1*
X900283Y2624791D2*
X900175Y2633045D1*
X901064Y2638663D1*
X902823Y2644072D1*
X905404Y2649140D1*
X908748Y2653741D1*
X912770Y2657764D1*
X917371Y2661108D1*
X922440Y2663689D1*
X927849Y2665448D1*
X933467Y2666337D1*
X939155D1*
X944773Y2665448D1*
X950182Y2663689D1*
X955251Y2661108D1*
X959852Y2657764D1*
X963874Y2653741D1*
X967218Y2649140D1*
X969799Y2644072D1*
X971558Y2638663D1*
X972448Y2633045D1*
Y2627357D1*
X972143Y2624785D1*
X987839Y2624791D1*
Y2457807D1*
X887783D1*
Y2624791D1*
X900283D1*
X1851306Y3151860D2*
X1843720Y3143343D1*
X1837318Y3137424D1*
X1830469Y3132025D1*
X1823218Y3127180D1*
X1815610Y3122920D1*
X1807692Y3119269D1*
X1799510Y3116251D1*
X1791117Y3113883D1*
X1782564Y3112182D1*
X1773906Y3111157D1*
X1765192Y3110815D1*
X1756478Y3111157D1*
X1747819Y3112182D1*
X1739266Y3113883D1*
X1730873Y3116251D1*
X1722692Y3119269D1*
X1714773Y3122920D1*
X1707165Y3127180D1*
X1699915Y3132025D1*
X1693066Y3137424D1*
X1686663Y3143343D1*
X1680744Y3149745D1*
X1675345Y3156594D1*
X1670500Y3163845D1*
X1666240Y3171453D1*
X1662589Y3179371D1*
X1659571Y3187552D1*
X1657203Y3195946D1*
X1655503Y3204499D1*
X1654478Y3213157D1*
X1654135Y3221871D1*
X1654478Y3230585D1*
X1655503Y3239244D1*
X1657203Y3247797D1*
X1659571Y3256190D1*
X1662589Y3264371D1*
X1666240Y3272290D1*
X1670500Y3279898D1*
X1675345Y3287148D1*
X1680744Y3293997D1*
X1686663Y3300400D1*
X1694951Y3307971D1*
X1291387D1*
X1291366Y3150891D1*
X1190524D1*
Y3307991D1*
X1090997Y3307971D1*
X1090972Y3148923D1*
X990130D1*
Y3307995D1*
X588458Y3307972D1*
X596814Y3300388D1*
X602732Y3293986D1*
X608131Y3287136D1*
X612976Y3279886D1*
X617236Y3272278D1*
X620887Y3264360D1*
X623906Y3256178D1*
X626273Y3247785D1*
X627974Y3239232D1*
X628999Y3230573D1*
X629341Y3221860D1*
X628999Y3213146D1*
X627974Y3204487D1*
X626273Y3195934D1*
X623906Y3187541D1*
X620887Y3179360D1*
X617236Y3171441D1*
X612976Y3163833D1*
X608131Y3156583D1*
X602732Y3149734D1*
X596814Y3143331D1*
X590411Y3137412D1*
X583562Y3132013D1*
X576311Y3127168D1*
X568703Y3122908D1*
X560785Y3119257D1*
X552604Y3116239D1*
X544210Y3113871D1*
X535657Y3112171D1*
X526999Y3111146D1*
X518285Y3110803D1*
X509571Y3111146D1*
X500912Y3112171D1*
X492360Y3113871D1*
X483966Y3116239D1*
X475785Y3119257D1*
X467866Y3122908D1*
X460259Y3127168D1*
X453008Y3132013D1*
X446159Y3137412D1*
X439756Y3143331D1*
X432186Y3151643D1*
Y3048273D1*
X437378Y3051972D1*
X444373Y3055537D1*
X451839Y3057963D1*
X459592Y3059190D1*
X467442D1*
X475196Y3057963D1*
X482661Y3055537D1*
X489656Y3051972D1*
X496008Y3047358D1*
X501558Y3041808D1*
X506172Y3035457D1*
X509736Y3028462D1*
X512163Y3020996D1*
X513390Y3013243D1*
Y3005392D1*
X512163Y2997639D1*
X509736Y2990173D1*
X506172Y2983178D1*
X501558Y2976827D1*
X496008Y2971277D1*
X489656Y2966663D1*
X482661Y2963098D1*
X475196Y2960672D1*
X467442Y2959445D1*
X464606Y2959333D1*
X471343Y2958730D1*
X478976Y2956896D1*
X486230Y2953892D1*
X492923Y2949791D1*
X498892Y2944693D1*
X503991Y2938723D1*
X508092Y2932030D1*
X511096Y2924777D1*
X512929Y2917143D1*
X513545Y2909318D1*
X512929Y2901492D1*
X511096Y2893858D1*
X508092Y2886605D1*
X503991Y2879912D1*
X498892Y2873942D1*
X492923Y2868844D1*
X486230Y2864743D1*
X478976Y2861739D1*
X471343Y2859906D1*
X465268Y2859315D1*
X472715Y2858492D1*
X479957Y2856567D1*
X486829Y2853581D1*
X493178Y2849604D1*
X498864Y2844722D1*
X503755Y2839045D1*
X507743Y2832702D1*
X510739Y2825835D1*
X512677Y2818596D1*
X513510Y2811150D1*
X513295Y2804325D1*
X511991Y2796948D1*
X509600Y2789846D1*
X506175Y2783181D1*
X501793Y2777104D1*
X496552Y2771748D1*
X490571Y2767236D1*
X483982Y2763667D1*
X476934Y2761123D1*
X469585Y2759659D1*
X465039Y2759323D1*
X471343Y2758730D1*
X478976Y2756896D1*
X486230Y2753892D1*
X492923Y2749791D1*
X498892Y2744693D1*
X503991Y2738723D1*
X508092Y2732030D1*
X511096Y2724777D1*
X512929Y2717143D1*
X513545Y2709318D1*
X512929Y2701492D1*
X511096Y2693858D1*
X508092Y2686605D1*
X503991Y2679912D1*
X498892Y2673942D1*
X492923Y2668844D1*
X486230Y2664743D1*
X478976Y2661739D1*
X471343Y2659906D1*
X464912Y2659345D1*
X513545D1*
Y2648652D1*
X656854Y2791871D1*
X661545Y2795007D1*
X666839Y2796959D1*
X672772Y2797609D1*
X858329Y2797622D1*
X863205Y2802629D1*
X867806Y2805972D1*
X872874Y2808554D1*
X878283Y2810312D1*
X883902Y2811202D1*
X889589D1*
X895207Y2810312D1*
X900617Y2808554D1*
X905685Y2805972D1*
X910286Y2802629D1*
X914308Y2798606D1*
X917652Y2794005D1*
X920234Y2788937D1*
X921992Y2783528D1*
X922882Y2777909D1*
Y2772222D1*
X921992Y2766604D1*
X920234Y2761194D1*
X917652Y2756126D1*
X914308Y2751525D1*
X910286Y2747503D1*
X905685Y2744159D1*
X900617Y2741577D1*
X895207Y2739819D1*
X889589Y2738929D1*
X883902D1*
X878283Y2739819D1*
X872874Y2741577D1*
X867806Y2744159D1*
X863205Y2747503D1*
X860925Y2749639D1*
X682323Y2749622D1*
X523723Y2591068D1*
X519033Y2587933D1*
X513739Y2585980D1*
X513545Y2584345D1*
Y2559290D1*
X432148D1*
X432311Y1315449D1*
X434545Y1315361D1*
X445205Y1325617D1*
X450126Y1328374D1*
X455556Y1329906D1*
X459311Y1330201D1*
X964634D1*
X970505Y1335526D1*
X975354Y1338497D1*
X980610Y1340675D1*
X986140Y1342003D1*
X991811Y1342449D1*
X997482Y1342003D1*
X1003012Y1340675D1*
X1008268Y1338497D1*
X1014820Y1334184D1*
X1014680Y1513570D1*
X1010986Y1517895D1*
X1008014Y1522744D1*
X1005837Y1528000D1*
X1004509Y1533530D1*
X1004063Y1539201D1*
X1004509Y1544871D1*
X1005837Y1550402D1*
X1008014Y1555657D1*
X1010986Y1560507D1*
X1014680Y1564832D1*
X1019005Y1568526D1*
X1023854Y1571497D1*
X1029110Y1573675D1*
X1034640Y1575003D1*
X1040311Y1575449D1*
X1045982Y1575003D1*
X1051512Y1573675D1*
X1056768Y1571497D1*
X1061617Y1568526D1*
X1065942Y1564832D1*
X1069636Y1560507D1*
X1072608Y1555657D1*
X1074785Y1550402D1*
X1076113Y1544871D1*
X1076559Y1539201D1*
X1076113Y1533530D1*
X1074785Y1528000D1*
X1072608Y1522744D1*
X1069636Y1517895D1*
X1065942Y1513570D1*
X1062795Y1510804D1*
X1062738Y1254818D1*
X1061636Y1249285D1*
X1059274Y1244161D1*
X1055538Y1239505D1*
X1033917Y1218285D1*
X1028996Y1215528D1*
X1023566Y1213996D1*
X1019811Y1213701D1*
X859508D1*
X853617Y1208375D1*
X848768Y1205404D1*
X843512Y1203227D1*
X837982Y1201899D1*
X832311Y1201453D1*
X826640Y1201899D1*
X821110Y1203227D1*
X815854Y1205404D1*
X811005Y1208375D1*
X806680Y1212070D1*
X802986Y1216395D1*
X800014Y1221244D1*
X797837Y1226500D1*
X796509Y1232030D1*
X796063Y1237701D1*
X796509Y1243371D1*
X797837Y1248902D1*
X800014Y1254157D1*
X802986Y1259007D1*
X806680Y1263332D1*
X811005Y1267026D1*
X815854Y1269997D1*
X821110Y1272175D1*
X826640Y1273503D1*
X832311Y1273949D1*
X837982Y1273503D1*
X843512Y1272175D1*
X848768Y1269997D1*
X853617Y1267026D1*
X859459Y1261692D1*
X1009899Y1261701D1*
X1014822Y1266652D1*
X1014811Y1278136D1*
X1008268Y1273904D1*
X1003012Y1271727D1*
X997482Y1270399D1*
X991811Y1269953D1*
X986140Y1270399D1*
X980610Y1271727D1*
X975354Y1273904D1*
X970505Y1276875D1*
X964663Y1282210D1*
X469203Y1282201D1*
X468113Y1273530D1*
X466785Y1268000D1*
X464608Y1262744D1*
X461636Y1257895D1*
X457942Y1253570D1*
X453617Y1249875D1*
X448768Y1246904D1*
X443512Y1244727D1*
X437982Y1243399D1*
X432167Y1242958D1*
X432185Y588411D1*
X439713Y596770D1*
X446115Y602689D1*
X452965Y608088D1*
X460215Y612933D1*
X467823Y617193D1*
X475741Y620844D1*
X483923Y623862D1*
X492316Y626230D1*
X500869Y627930D1*
X509528Y628955D1*
X518241Y629298D1*
X526955Y628955D1*
X535614Y627930D1*
X544167Y626230D1*
X552560Y623862D1*
X560741Y620844D1*
X568660Y617193D1*
X576268Y612933D1*
X583518Y608088D1*
X590367Y602689D1*
X596770Y596770D1*
X602689Y590367D1*
X608088Y583518D1*
X612933Y576268D1*
X617193Y568660D1*
X620844Y560741D1*
X623862Y552560D1*
X626230Y544167D1*
X627930Y535614D1*
X628955Y526955D1*
X629298Y518241D1*
X628955Y509528D1*
X627930Y500869D1*
X626230Y492316D1*
X623862Y483923D1*
X620844Y475741D1*
X617193Y467823D1*
X612933Y460215D1*
X608088Y452965D1*
X602689Y446115D1*
X596770Y439713D1*
X588513Y432185D1*
X1695008D1*
X1686605Y439770D1*
X1680686Y446173D1*
X1675287Y453022D1*
X1670442Y460273D1*
X1666182Y467881D1*
X1662531Y475799D1*
X1659513Y483980D1*
X1657146Y492374D1*
X1655445Y500927D1*
X1654420Y509585D1*
X1654077Y518299D1*
X1654420Y527013D1*
X1655445Y535672D1*
X1657146Y544224D1*
X1659513Y552618D1*
X1662531Y560799D1*
X1666182Y568718D1*
X1670442Y576325D1*
X1675287Y583576D1*
X1680686Y590425D1*
X1686605Y596828D1*
X1693008Y602747D1*
X1699857Y608146D1*
X1707108Y612991D1*
X1714715Y617251D1*
X1722634Y620902D1*
X1730815Y623920D1*
X1739209Y626287D1*
X1747761Y627988D1*
X1756420Y629013D1*
X1765134Y629356D1*
X1773848Y629013D1*
X1782507Y627988D1*
X1791059Y626287D1*
X1799453Y623920D1*
X1807634Y620902D1*
X1815552Y617251D1*
X1823160Y612991D1*
X1830411Y608146D1*
X1837260Y602747D1*
X1843663Y596828D1*
X1851290Y588257D1*
X1851281Y801550D1*
X1774738Y801547D1*
X1774699Y723352D1*
X1781056Y726075D1*
X1786587Y727403D1*
X1792257Y727849D1*
X1797928Y727403D1*
X1803458Y726075D1*
X1808714Y723898D1*
X1813563Y720927D1*
X1817888Y717232D1*
X1821583Y712907D1*
X1824554Y708058D1*
X1826731Y702802D1*
X1828059Y697272D1*
X1828505Y691601D1*
X1828059Y685930D1*
X1826731Y680400D1*
X1824554Y675144D1*
X1821583Y670295D1*
X1817888Y665970D1*
X1813563Y662276D1*
X1808714Y659304D1*
X1803458Y657127D1*
X1797928Y655799D1*
X1792257Y655353D1*
X1786587Y655799D1*
X1781056Y657127D1*
X1775500Y659472D1*
X1774699Y654555D1*
Y637374D1*
X1674644D1*
Y804358D1*
X1695201D1*
X1691844Y809500D1*
X1684993Y814476D1*
X1679005Y820465D1*
X1674029Y827315D1*
X1670184Y834861D1*
X1667567Y842913D1*
X1666243Y851278D1*
Y859745D1*
X1667567Y868110D1*
X1670184Y876163D1*
X1674029Y883709D1*
X1679005Y890559D1*
X1684993Y896547D1*
X1691844Y901524D1*
X1699747Y905500D1*
X1691844Y909500D1*
X1684993Y914476D1*
X1679005Y920465D1*
X1674029Y927315D1*
X1670184Y934861D1*
X1667567Y942913D1*
X1666243Y951278D1*
Y959745D1*
X1667567Y968110D1*
X1670184Y976163D1*
X1674029Y983709D1*
X1679005Y990559D1*
X1684993Y996547D1*
X1691844Y1001524D1*
X1699747Y1005500D1*
X1691365Y1009797D1*
X1685308Y1014210D1*
X1679921Y1019420D1*
X1675308Y1025325D1*
X1671558Y1031814D1*
X1668743Y1038759D1*
X1666916Y1046026D1*
X1666114Y1053478D1*
X1666353Y1060967D1*
X1667626Y1068353D1*
X1669911Y1075490D1*
X1673161Y1082243D1*
X1677316Y1088479D1*
X1682295Y1094080D1*
X1688003Y1098937D1*
X1694327Y1102957D1*
X1701147Y1106062D1*
X1708332Y1108192D1*
X1715743Y1109304D1*
X1723236Y1109382D1*
X1730669Y1108420D1*
X1737896Y1106437D1*
X1744778Y1103472D1*
X1751184Y1099583D1*
X1756990Y1094844D1*
X1762081Y1089346D1*
X1766364Y1083196D1*
X1770035Y1075794D1*
X1774029Y1083709D1*
X1779005Y1090559D1*
X1784993Y1096547D1*
X1791844Y1101524D1*
X1799390Y1105369D1*
X1807442Y1107986D1*
X1815807Y1109310D1*
X1824274D1*
X1832639Y1107986D1*
X1840692Y1105369D1*
X1848238Y1101524D1*
X1851306Y1099474D1*
X1851194Y1838259D1*
X1846285Y1833811D1*
X1840850Y1830766D1*
X1834854Y1829076D1*
X1830709Y1828749D1*
X1786930Y1829076D1*
X1780934Y1830766D1*
X1775500Y1833811D1*
X1772337Y1836510D1*
X1741421Y1867888D1*
X1738378Y1873323D1*
X1736688Y1879319D1*
X1736361Y1883465D1*
Y1927165D1*
X1709240Y1927175D1*
X1709214Y1904172D1*
X1609159D1*
Y2004227D1*
X1655261Y2004327D1*
X1647508Y2005554D1*
X1640042Y2007980D1*
X1633047Y2011545D1*
X1626696Y2016159D1*
X1621146Y2021709D1*
X1616531Y2028060D1*
X1612967Y2035055D1*
X1610541Y2042521D1*
X1609314Y2050274D1*
Y2058125D1*
X1610541Y2065878D1*
X1612967Y2073344D1*
X1616531Y2080339D1*
X1621146Y2086690D1*
X1626696Y2092240D1*
X1633047Y2096854D1*
X1640042Y2100419D1*
X1647508Y2102845D1*
X1655261Y2104072D1*
X1658097Y2104184D1*
X1651361Y2104787D1*
X1643727Y2106621D1*
X1636474Y2109625D1*
X1629781Y2113726D1*
X1623811Y2118824D1*
X1618713Y2124794D1*
X1614612Y2131487D1*
X1611608Y2138740D1*
X1609774Y2146374D1*
X1609159Y2154199D1*
X1609774Y2162025D1*
X1611608Y2169659D1*
X1614612Y2176912D1*
X1618713Y2183605D1*
X1623811Y2189575D1*
X1629781Y2194673D1*
X1636474Y2198774D1*
X1643727Y2201778D1*
X1651361Y2203612D1*
X1658097Y2204184D1*
X1650316Y2204965D1*
X1643063Y2206841D1*
X1636171Y2209781D1*
X1629794Y2213717D1*
X1624077Y2218560D1*
X1619148Y2224205D1*
X1615118Y2230521D1*
X1612075Y2237369D1*
X1610089Y2244593D1*
X1609206Y2252034D1*
X1609442Y2259524D1*
X1610797Y2266892D1*
X1613235Y2273978D1*
X1616703Y2280619D1*
X1621126Y2286668D1*
X1626403Y2291988D1*
X1632415Y2296461D1*
X1639026Y2299986D1*
X1646092Y2302483D1*
X1653450Y2303898D1*
X1660937Y2304197D1*
X1668385Y2303374D1*
X1675626Y2301449D1*
X1682499Y2298463D1*
X1688848Y2294486D1*
X1694533Y2289604D1*
X1699424Y2283927D1*
X1703412Y2277584D1*
X1706408Y2270717D1*
X1708346Y2263478D1*
X1709180Y2256031D1*
X1708965Y2249207D1*
X1707660Y2241829D1*
X1705269Y2234728D1*
X1701844Y2228063D1*
X1697462Y2221986D1*
X1692222Y2216630D1*
X1686240Y2212118D1*
X1679651Y2208549D1*
X1672604Y2206005D1*
X1665255Y2204541D1*
X1660709Y2204205D1*
X1667012Y2203612D1*
X1674646Y2201778D1*
X1681899Y2198774D1*
X1688592Y2194673D1*
X1694562Y2189575D1*
X1699660Y2183605D1*
X1703049Y2178184D1*
X1809757Y2178126D1*
X1815290Y2177025D1*
X1817453Y2176190D1*
X1825154Y2175900D1*
X1832302Y2174579D1*
X1832293Y2200878D1*
X1815022Y2218105D1*
X1807811Y2219084D1*
X1802402Y2220843D1*
X1797333Y2223424D1*
X1792732Y2226768D1*
X1788710Y2230790D1*
X1785366Y2235391D1*
X1782785Y2240459D1*
X1781026Y2245869D1*
X1780136Y2251487D1*
Y2257175D1*
X1781026Y2262793D1*
X1782785Y2268202D1*
X1785366Y2273270D1*
X1788710Y2277871D1*
X1792732Y2281894D1*
X1797333Y2285238D1*
X1802402Y2287819D1*
X1807811Y2289577D1*
X1813429Y2290467D1*
X1819117D1*
X1824735Y2289577D1*
X1830144Y2287819D1*
X1835213Y2285238D1*
X1839814Y2281894D1*
X1843836Y2277871D1*
X1847180Y2273270D1*
X1849761Y2268202D1*
X1851293Y2263596D1*
X1851280Y3151745D1*
X712079Y1606589D2*
X799634D1*
Y1506534D1*
X753531Y1506434D1*
X761285Y1505207D1*
X768751Y1502781D1*
X775745Y1499217D1*
X782097Y1494602D1*
X787647Y1489052D1*
X792261Y1482701D1*
X795825Y1475706D1*
X798252Y1468240D1*
X799479Y1460487D1*
Y1452636D1*
X798252Y1444883D1*
X795825Y1437417D1*
X792261Y1430423D1*
X787647Y1424071D1*
X782097Y1418521D1*
X775745Y1413907D1*
X768751Y1410343D1*
X761285Y1407916D1*
X753531Y1406689D1*
X745681D1*
X737928Y1407916D1*
X730462Y1410343D1*
X723467Y1413907D1*
X717115Y1418521D1*
X711566Y1424071D1*
X706951Y1430423D1*
X703387Y1437417D1*
X700961Y1444883D1*
X699734Y1452636D1*
Y1460487D1*
X700961Y1468240D1*
X703387Y1475706D1*
X706951Y1482701D1*
X711566Y1489052D1*
X717115Y1494602D1*
X723467Y1499217D1*
X730462Y1502781D1*
X737928Y1505207D1*
X745681Y1506434D1*
X699579Y1506534D1*
Y1606589D1*
X712079D1*
X557223Y1839398D2*
X644778D1*
Y1739343D1*
X544723D1*
X544529Y1784378D1*
X543224Y1777000D1*
X540833Y1769899D1*
X537408Y1763234D1*
X533026Y1757156D1*
X527786Y1751801D1*
X521804Y1747289D1*
X515215Y1743719D1*
X508168Y1741176D1*
X500819Y1739711D1*
X493333Y1739362D1*
X485881Y1740135D1*
X478627Y1742012D1*
X471735Y1744951D1*
X465358Y1748887D1*
X459642Y1753731D1*
X454713Y1759375D1*
X450682Y1765692D1*
X447639Y1772539D1*
X445654Y1779764D1*
X444770Y1787205D1*
X445007Y1794694D1*
X446361Y1802063D1*
X448799Y1809148D1*
X452268Y1815790D1*
X456690Y1821839D1*
X461967Y1827159D1*
X467979Y1831631D1*
X474591Y1835156D1*
X481656Y1837654D1*
X489014Y1839068D1*
X496501Y1839367D1*
X503949Y1838545D1*
X511190Y1836619D1*
X518063Y1833634D1*
X524412Y1829656D1*
X530097Y1824774D1*
X534988Y1819097D1*
X538976Y1812755D1*
X541972Y1805887D1*
X543911Y1798648D1*
X544723Y1791543D1*
Y1839398D1*
X557223D1*
X1778576Y909476D2*
X1791844Y909500D1*
X1784993Y914476D1*
X1779005Y920465D1*
X1774029Y927315D1*
X1770052Y935218D1*
X1766052Y927315D1*
X1761076Y920465D1*
X1755088Y914476D1*
X1748238Y909500D1*
X1740335Y905524D1*
X1748238Y901524D1*
X1755088Y896547D1*
X1761076Y890559D1*
X1766077Y883665D1*
X1766076Y909476D1*
X1778576D1*
X1770052Y975806D2*
X1774029Y983709D1*
X1779005Y990559D1*
X1784993Y996547D1*
X1791844Y1001524D1*
X1799747Y1005500D1*
X1791844Y1009500D1*
X1784993Y1014476D1*
X1779005Y1020465D1*
X1774029Y1027315D1*
X1770052Y1035218D1*
X1765879Y1027033D1*
X1761492Y1020958D1*
X1756306Y1015549D1*
X1750420Y1010911D1*
X1743948Y1007131D1*
X1740318Y1005517D1*
X1748238Y1001524D1*
X1755088Y996547D1*
X1761076Y990559D1*
X1766052Y983709D1*
X1770029Y975806D1*
X713129Y1778636D2*
X746731Y1778736D1*
X738978Y1779963D1*
X731512Y1782390D1*
X724517Y1785954D1*
X718165Y1790568D1*
X712615Y1796118D1*
X708001Y1802470D1*
X704437Y1809465D1*
X702010Y1816930D1*
X700783Y1824684D1*
Y1832534D1*
X702010Y1840287D1*
X704437Y1847753D1*
X708001Y1854748D1*
X712615Y1861100D1*
X718165Y1866650D1*
X724517Y1871264D1*
X731512Y1874828D1*
X738978Y1877255D1*
X746731Y1878482D1*
X754581D1*
X762335Y1877255D1*
X769801Y1874828D1*
X776795Y1871264D1*
X783147Y1866650D1*
X788697Y1861100D1*
X793311Y1854748D1*
X796875Y1847753D1*
X799302Y1840287D1*
X800529Y1832534D1*
Y1824684D1*
X799302Y1816930D1*
X796875Y1809465D1*
X793311Y1802470D1*
X788697Y1796118D1*
X783147Y1790568D1*
X776795Y1785954D1*
X769801Y1782390D1*
X762335Y1779963D1*
X754581Y1778736D1*
X800684Y1778636D1*
Y1678581D1*
X700629D1*
Y1778636D1*
X713129D1*
X1660276Y2104184D2*
X1667012Y2103612D1*
X1674646Y2101778D1*
X1681899Y2098774D1*
X1688592Y2094673D1*
X1694562Y2089575D1*
X1699660Y2083605D1*
X1703761Y2076912D1*
X1706765Y2069659D1*
X1708003Y2065021D1*
X1827042Y1945902D1*
X1830177Y1941211D1*
X1832130Y1935917D1*
X1832780Y1929984D1*
X1832793Y1924407D1*
X1837993Y1917759D1*
X1841325Y1910656D1*
X1841311Y1971697D1*
X1811660Y2001491D1*
X1808199Y2006671D1*
X1806043Y2012514D1*
X1805324Y2019034D1*
X1805311Y2023534D1*
X1800904Y2029354D1*
X1798323Y2034423D1*
X1796564Y2039832D1*
X1795675Y2045450D1*
Y2051138D1*
X1796564Y2056756D1*
X1798323Y2062165D1*
X1800904Y2067234D1*
X1804248Y2071835D1*
X1808270Y2075857D1*
X1812871Y2079201D1*
X1817940Y2081782D1*
X1823883Y2083647D1*
X1832304Y2092091D1*
X1832293Y2104882D1*
X1825154Y2103627D1*
X1819466D1*
X1813848Y2104517D1*
X1808438Y2106276D1*
X1803370Y2108857D1*
X1798769Y2112201D1*
X1794747Y2116223D1*
X1791403Y2120824D1*
X1788822Y2125892D1*
X1787367Y2130220D1*
X1703041Y2130199D1*
X1699660Y2124794D1*
X1694562Y2118824D1*
X1688592Y2113726D1*
X1681899Y2109625D1*
X1674646Y2106621D1*
X1667012Y2104787D1*
X1660276Y2104215D1*
X1805327Y2023585D2*
X1800904Y2029354D1*
X1798323Y2034423D1*
X1796564Y2039832D1*
X1795675Y2045450D1*
Y2051138D1*
X1796564Y2056756D1*
X1798323Y2062165D1*
X1800904Y2067234D1*
X1804248Y2071835D1*
X1808270Y2075857D1*
X1812871Y2079201D1*
X1817940Y2081782D1*
X1823883Y2083647D1*
X1107303Y2703253D2*
X1262283D1*
X1266854Y2706050D1*
X1272110Y2708227D1*
X1277640Y2709555D1*
X1283311Y2710001D1*
X1288982Y2709555D1*
X1294512Y2708227D1*
X1299768Y2706050D1*
X1304617Y2703079D1*
X1308942Y2699385D1*
X1312636Y2695059D1*
X1315608Y2690210D1*
X1317785Y2684954D1*
X1319113Y2679424D1*
X1319559Y2673753D1*
X1319113Y2668083D1*
X1317785Y2662552D1*
X1315608Y2657297D1*
X1312636Y2652448D1*
X1308942Y2648122D1*
X1304617Y2644428D1*
X1299768Y2641457D1*
X1294512Y2639280D1*
X1288982Y2637951D1*
X1283311Y2637505D1*
X1277640Y2637951D1*
X1272110Y2639280D1*
X1266854Y2641457D1*
X1262255Y2644261D1*
X1107286Y2644253D1*
X1102715Y2641457D1*
X1097459Y2639280D1*
X1091929Y2637951D1*
X1086259Y2637505D1*
X1080588Y2637951D1*
X1075058Y2639280D1*
X1069802Y2641457D1*
X1064953Y2644428D1*
X1060627Y2648122D1*
X1056933Y2652448D1*
X1053962Y2657297D1*
X1051785Y2662552D1*
X1050457Y2668083D1*
X1050010Y2673753D1*
X1050457Y2679424D1*
X1051785Y2684954D1*
X1053962Y2690210D1*
X1056933Y2695059D1*
X1060627Y2699385D1*
X1064953Y2703079D1*
X1069802Y2706050D1*
X1075058Y2708227D1*
X1080588Y2709555D1*
X1086259Y2710001D1*
X1091929Y2709555D1*
X1097459Y2708227D1*
X1102715Y2706050D1*
X1107315Y2703245D1*
X1009337Y1739732D2*
X949538Y1799533D1*
X941640Y1799899D1*
X936110Y1801227D1*
X930854Y1803404D1*
X926005Y1806375D1*
X921680Y1810070D1*
X917986Y1814395D1*
X915014Y1819244D1*
X912837Y1824500D1*
X911509Y1830030D1*
X911063Y1835701D1*
X911509Y1841371D1*
X912837Y1846902D1*
X915014Y1852157D1*
X917986Y1857007D1*
X921680Y1861332D1*
X926005Y1865026D1*
X930854Y1867997D1*
X936110Y1870175D1*
X941640Y1871503D1*
X947311Y1871949D1*
X952982Y1871503D1*
X958512Y1870175D1*
X963768Y1867997D1*
X968617Y1865026D1*
X972942Y1861332D1*
X976636Y1857007D1*
X979608Y1852157D1*
X981785Y1846902D1*
X983113Y1841371D1*
X983471Y1833467D1*
X1061227Y1755307D1*
X1063117Y1753026D1*
X1067442Y1749332D1*
X1071136Y1745007D1*
X1074108Y1740157D1*
X1076285Y1734902D1*
X1077613Y1729371D1*
X1078059Y1723701D1*
X1077613Y1718030D1*
X1076285Y1712500D1*
X1074108Y1707244D1*
X1071136Y1702395D1*
X1067442Y1698070D1*
X1063117Y1694375D1*
X1058268Y1691404D1*
X1053012Y1689227D1*
X1047482Y1687899D1*
X1041811Y1687453D1*
X1036140Y1687899D1*
X1030610Y1689227D1*
X1025354Y1691404D1*
X1020505Y1694375D1*
X1016180Y1698070D1*
X1012486Y1702395D1*
X1009514Y1707244D1*
X1007337Y1712500D1*
X1006009Y1718030D1*
X1005563Y1723701D1*
X1006009Y1729371D1*
X1007337Y1734902D1*
X1009332Y1739764D1*
X1479811Y1917206D2*
Y1854902D1*
X1485136Y1849007D1*
X1488108Y1844157D1*
X1490285Y1838902D1*
X1491613Y1833371D1*
X1492059Y1827701D1*
X1491613Y1822030D1*
X1490285Y1816500D1*
X1488108Y1811244D1*
X1485136Y1806395D1*
X1481442Y1802070D1*
X1477117Y1798375D1*
X1472268Y1795404D1*
X1467012Y1793227D1*
X1461482Y1791899D1*
X1455811Y1791453D1*
X1450140Y1791899D1*
X1443807Y1793524D1*
X1438117Y1788375D1*
X1433268Y1785404D1*
X1428012Y1783227D1*
X1422482Y1781899D1*
X1416811Y1781453D1*
X1411140Y1781899D1*
X1405610Y1783227D1*
X1400354Y1785404D1*
X1395505Y1788375D1*
X1391180Y1792070D1*
X1387486Y1796395D1*
X1384514Y1801244D1*
X1382337Y1806500D1*
X1381009Y1812030D1*
X1380563Y1817701D1*
X1381009Y1823371D1*
X1382337Y1828902D1*
X1384514Y1834157D1*
X1387486Y1839007D1*
X1392820Y1844849D1*
X1392811Y1924000D1*
X1388486Y1928895D1*
X1385514Y1933744D1*
X1383337Y1939000D1*
X1382009Y1944530D1*
X1381563Y1950201D1*
X1382009Y1955871D1*
X1383337Y1961402D1*
X1385514Y1966657D1*
X1388486Y1971507D1*
X1392180Y1975832D1*
X1396505Y1979526D1*
X1401354Y1982497D1*
X1406610Y1984675D1*
X1412140Y1986003D1*
X1417811Y1986449D1*
X1423482Y1986003D1*
X1429012Y1984675D1*
X1434268Y1982497D1*
X1439117Y1979526D1*
X1443948Y1975285D1*
X1448770Y1980264D1*
X1453371Y1983608D1*
X1458440Y1986189D1*
X1463849Y1987948D1*
X1469467Y1988837D1*
X1475155D1*
X1480773Y1987948D1*
X1486182Y1986189D1*
X1491251Y1983608D1*
X1495852Y1980264D1*
X1499874Y1976241D1*
X1503218Y1971640D1*
X1505799Y1966572D1*
X1507558Y1961163D1*
X1508448Y1955545D1*
Y1949857D1*
X1507558Y1944239D1*
X1505799Y1938829D1*
X1503218Y1933761D1*
X1499874Y1929160D1*
X1495852Y1925138D1*
X1491251Y1921794D1*
X1486182Y1919213D1*
X1479802Y1917261D1*
X641386Y869133D2*
X815018D1*
X822218Y873121D1*
X827627Y874879D1*
X833245Y875769D1*
X838933D1*
X844551Y874879D1*
X849961Y873121D1*
X855029Y870539D1*
X859630Y867196D1*
X863652Y863173D1*
X866996Y858572D1*
X869577Y853504D1*
X871336Y848094D1*
X872226Y842476D1*
Y836789D1*
X871336Y831171D1*
X869577Y825761D1*
X866996Y820693D1*
X863652Y816092D1*
X859630Y812070D1*
X855029Y808726D1*
X849961Y806144D1*
X844551Y804386D1*
X838933Y803496D1*
X833245D1*
X827627Y804386D1*
X822218Y806144D1*
X817150Y808726D1*
X815033Y810140D1*
X641412Y810133D1*
X634213Y806144D1*
X628803Y804386D1*
X623185Y803496D1*
X617497D1*
X611879Y804386D1*
X606470Y806144D1*
X601402Y808726D1*
X596801Y812070D1*
X592778Y816092D1*
X589434Y820693D1*
X586853Y825761D1*
X585094Y831171D1*
X584205Y836789D1*
Y842476D1*
X585094Y848094D1*
X586853Y853504D1*
X589434Y858572D1*
X592778Y863173D1*
X596801Y867196D1*
X601402Y870539D1*
X606470Y873121D1*
X611879Y874879D1*
X617497Y875769D1*
X623185D1*
X628803Y874879D1*
X634213Y873121D1*
X639281Y870539D1*
X641398Y869125D1*
X1224147Y1575307D2*
D22*
Y1475349D1*
Y1525328D2*
X1270189D1*
X1364811Y2416398D2*
Y2370356D1*
X1314832Y2416398D2*
X1414790D1*
X937811Y2503898D2*
Y2457856D1*
X887832Y2503898D2*
X987790D1*
X494751Y1839349D2*
Y1739391D1*
X444772Y1789370D2*
X544730D1*
X1720041Y1109428D2*
Y1055512D1*
X1666125D2*
X1720041D1*
X463517Y2859297D2*
Y2759339D1*
Y2809318D2*
X513496D1*
X1659186Y2304178D2*
Y2204220D1*
X1609207Y2254199D2*
X1709165D1*
X1040551Y3249344D2*
Y3148971D1*
X990178Y3249344D2*
X1090924D1*
X1240945Y3251312D2*
Y3150940D1*
X1190572Y3251312D2*
X1291318D1*
D26*
X1149344Y1525328D3*
X1224147D3*
D27*
X1364811Y2491201D3*
Y2416398D3*
X937811Y2578701D3*
Y2503898D3*
D37*
X749606Y1556562D3*
D38*
Y1456562D3*
D37*
X594751Y1789370D3*
D38*
X494751D3*
D39*
X1820041Y855512D3*
D40*
X1720041D3*
X1820041Y955512D3*
X1720041D3*
X1820041Y1055512D3*
X1720041D3*
D37*
X750656Y1728609D3*
D38*
Y1828609D3*
D37*
X463517Y2609318D3*
D38*
Y2709318D3*
Y2809318D3*
Y2909318D3*
Y3009318D3*
D37*
X1659186Y1954199D3*
D38*
Y2054199D3*
Y2154199D3*
Y2254199D3*
D27*
X1724672Y683465D3*
Y758268D3*
D48*
X1040551Y3249344D3*
X1240945Y3251312D3*
M02*
