M48
INCH
T01C0.0157
T02C0.0354
T03C0.0433
T04C0.126
%
T01
X+010827Y+031102
X+010039Y+031102
X+009252Y+031102
X+009252Y+030315
X+009252Y+029528
X+010039Y+029528
X+010827Y+029528
X+011614Y+029528
X+012402Y+029528
X+013189Y+029528
X+013189Y+030315
X+013189Y+031102
X+013189Y+031890
X+013189Y+032677
X+013976Y+032677
X+013976Y+031890
X+013976Y+031102
X+014764Y+031102
X+014764Y+031890
X+014764Y+032677
X+015551Y+032677
X+015551Y+031890
X+015551Y+031102
X+015551Y+030315
X+014764Y+030315
X+013976Y+030315
X+013976Y+029528
X+013976Y+028740
X+013189Y+028740
X+012402Y+028740
X+011614Y+028740
X+010827Y+028740
X+010039Y+028740
X+009252Y+028740
X+008465Y+028740
X+008465Y+029528
X+008465Y+030315
X+007677Y+030315
X+006890Y+030315
X+006102Y+030315
X+006102Y+031102
X+006890Y+031102
X+007677Y+031102
X+008465Y+031102
X+008465Y+031890
X+009252Y+031890
X+009252Y+032677
X+008465Y+032677
X+007677Y+032677
X+006890Y+032677
X+006890Y+031890
X+007677Y+031890
X+006890Y+029528
X+008867Y+027751
X+009873Y+027252
X+009363Y+026302
X+010863Y+026738
X+012833Y+026738
X+013568Y+025612
X+014288Y+025238
X+018163Y+022543
X+018223Y+021398
X+018318Y+020483
X+018368Y+019717
X+018071Y+018988
X+018217Y+017182
X+014558Y+018277
X+014168Y+018177
X+013623Y+018437
X+014178Y+019502
X+014723Y+019527
X+015873Y+020272
X+014738Y+015307
X+011493Y+014625
X+010888Y+014692
X+010403Y+015392
X+010418Y+017237
X+009473Y+018357
X+008413Y+017412
X+008413Y+014773
X+009918Y+013062
X+010856Y+011660
X+008323Y+012377
X+008361Y+008396
X+006203Y+008396
X+008341Y+004929
X+010038Y+004929
X+010718Y+004428
X+011944Y+004428
X+011266Y+006600
X+015119Y+006312
X+015628Y+006312
X+016178Y+006312
X+016713Y+006312
X+017923Y+006916
X+016273Y+007892
X+015958Y+010577
X+018458Y+012617
X+004323Y+012792
X+006928Y+023238
X+012402Y+031102
X+016339Y+031102
X+016339Y+031890
X+016339Y+032677
X+017126Y+031102
X+017126Y+030315
X+017126Y+029528
X+016339Y+029528
X+016339Y+030315
T02
X+007496Y+015566
X+007496Y+014566
X+007507Y+017286
X+007507Y+018286
X+005948Y+017894
X+004948Y+017894
X+004635Y+026093
X+004635Y+027093
X+004635Y+028093
X+004635Y+029093
X+004635Y+030093
X+016592Y+022542
X+016592Y+021542
X+016592Y+020542
X+016592Y+019542
T03
X+018200Y+008555
X+018200Y+009555
X+018200Y+010555
X+017200Y+010555
X+017200Y+009555
X+017200Y+008555
T04
X+017652Y+032219
X+005183Y+032219
X+005182Y+005182
X+017651Y+005183
T00
M30
