G04 DipTrace 3.0.0.2*
G04 TopMask.gbr*
%MOIN*%
G04 #@! TF.FileFunction,Soldermask,Top*
G04 #@! TF.Part,Single*
%ADD30C,0.11811*%
%ADD36R,0.074803X0.074803*%
%ADD39R,0.066929X0.066929*%
%ADD40C,0.066929*%
%ADD65C,0.125984*%
%ADD70R,0.062992X0.122047*%
%ADD72R,0.062992X0.114173*%
%ADD74R,0.051181X0.031496*%
%ADD76R,0.031496X0.051181*%
%ADD78R,0.021457X0.051181*%
%ADD80R,0.031496X0.059055*%
%ADD82R,0.07874X0.027559*%
%ADD84R,0.027559X0.07874*%
%ADD86R,0.041339X0.167717*%
%ADD88R,0.067717X0.167717*%
%ADD90R,0.047638X0.097402*%
%ADD92R,0.097402X0.047638*%
%ADD94R,0.074803X0.03937*%
%ADD96R,0.070866X0.035433*%
%ADD98R,0.066929X0.141732*%
%ADD100R,0.047244X0.145669*%
%ADD102C,0.074803*%
%ADD105R,0.082677X0.082677*%
%ADD106R,0.07874X0.082677*%
%ADD108R,0.090551X0.070866*%
%ADD110R,0.023622X0.061024*%
%ADD112C,0.047244*%
%ADD114R,0.057087X0.066929*%
%ADD116R,0.066929X0.059055*%
%ADD118R,0.059055X0.066929*%
%FSLAX26Y26*%
G04*
G70*
G90*
G75*
G01*
G04 TopMask*
%LPD*%
D118*
X1761024Y1198031D3*
X1835827D3*
X1746850Y1777297D3*
X1821654D3*
D116*
X1195144Y570604D3*
Y495801D3*
X1071785Y570604D3*
Y495801D3*
X1085564Y1027690D3*
Y1102493D3*
X1211680Y1026247D3*
Y1101050D3*
D114*
X935302Y866010D3*
Y1041207D3*
D116*
X440311Y2060201D3*
Y2135004D3*
X559311Y2058701D3*
Y2133504D3*
X1705381Y2878215D3*
Y2803412D3*
X1834383Y2878740D3*
Y2803937D3*
D118*
X489633Y839633D3*
X564436D3*
D30*
X466273Y685302D3*
D112*
D3*
D30*
X1817192Y3054856D3*
D112*
D3*
D65*
X1765192Y3221871D3*
X518285Y3221860D3*
X518241Y518241D3*
X1765134Y518299D3*
D110*
X1409580Y564567D3*
X1435171D3*
X1460761D3*
X1486352D3*
X1511942D3*
D108*
X1338714Y559646D3*
X1582808D3*
D106*
X1303281Y459252D3*
X1618241D3*
D105*
X1413517D3*
X1508005D3*
D39*
X749606Y1556562D3*
D40*
Y1456562D3*
D39*
X594751Y1789370D3*
D40*
X494751D3*
D36*
X1820041Y855512D3*
D102*
X1720041D3*
X1820041Y955512D3*
X1720041D3*
X1820041Y1055512D3*
X1720041D3*
D100*
X755381Y706037D3*
X834121D3*
D98*
X662932Y487643D3*
X926711D3*
D39*
X750656Y1728609D3*
D40*
Y1828609D3*
D39*
X463517Y2609318D3*
D40*
Y2709318D3*
Y2809318D3*
Y2909318D3*
Y3009318D3*
D39*
X1659186Y1954199D3*
D40*
Y2054199D3*
Y2154199D3*
Y2254199D3*
D96*
X1779790Y2098294D3*
Y2048294D3*
Y1998294D3*
Y1948294D3*
D118*
X1391076Y1153281D3*
X1316273D3*
X1388189Y1262730D3*
X1313386D3*
X1525197Y1850919D3*
X1600000D3*
X1525591Y1736745D3*
X1600394D3*
D116*
X439811Y2266701D3*
Y2341504D3*
X559311Y2265201D3*
Y2340004D3*
X1708005Y2697507D3*
Y2622703D3*
D118*
X741207Y1185171D3*
X666404D3*
D116*
X1834252Y2697900D3*
Y2623097D3*
X1248294Y733202D3*
Y808005D3*
D118*
X452887Y2451312D3*
X527690D3*
X556430Y983202D3*
X481627D3*
X482546Y1277297D3*
X557349D3*
X482021Y1119685D3*
X556824D3*
X858268Y1185039D3*
X933071D3*
D94*
X1816365Y768510D3*
Y634652D3*
X451181Y1471129D3*
Y1604987D3*
D92*
X1506496Y2023753D3*
Y2073753D3*
Y2123753D3*
Y2173753D3*
Y2223753D3*
Y2273753D3*
Y2323753D3*
Y2373753D3*
Y2423753D3*
Y2473753D3*
Y2523753D3*
Y2573753D3*
Y2623753D3*
Y2673753D3*
Y2723753D3*
Y2773753D3*
Y2823753D3*
Y2873753D3*
Y2923753D3*
Y2973753D3*
D90*
X1291732Y3038517D3*
X1241732D3*
X1191732D3*
X1141732D3*
X1091732D3*
X1041732D3*
X991732D3*
D92*
X776969Y2973753D3*
Y2923753D3*
Y2873753D3*
Y2823753D3*
Y2773753D3*
Y2723753D3*
Y2673753D3*
Y2623753D3*
Y2573753D3*
Y2523753D3*
Y2473753D3*
Y2423753D3*
Y2373753D3*
Y2323753D3*
Y2273753D3*
Y2223753D3*
Y2173753D3*
Y2123753D3*
Y2073753D3*
Y2023753D3*
D88*
X1041732Y3251312D3*
D86*
X1141732Y3250919D3*
D88*
X1241339D3*
D84*
X990814Y1370997D3*
X1022310D3*
X1053806D3*
X1085302D3*
X1116798D3*
X1148294D3*
X1179790D3*
X1211286D3*
X1242782D3*
X1274278D3*
X1305774D3*
D82*
X1380577Y1445801D3*
Y1477297D3*
Y1508793D3*
Y1540289D3*
Y1571785D3*
Y1603281D3*
Y1634777D3*
Y1666273D3*
Y1697769D3*
Y1729265D3*
Y1760761D3*
D84*
X1305774Y1835564D3*
X1274278D3*
X1242782D3*
X1211286D3*
X1179790D3*
X1148294D3*
X1116798D3*
X1085302D3*
X1053806D3*
X1022310D3*
X990814D3*
D82*
X916010Y1760761D3*
Y1729265D3*
Y1697769D3*
Y1666273D3*
Y1634777D3*
Y1603281D3*
Y1571785D3*
Y1540289D3*
Y1508793D3*
Y1477297D3*
Y1445801D3*
D80*
X1371129Y805249D3*
X1421129D3*
X1471129D3*
X1521129D3*
Y1021785D3*
X1471129D3*
X1421129D3*
X1371129D3*
D78*
X1841995Y2438058D3*
X1816404D3*
X1790814D3*
X1765223D3*
Y2333727D3*
X1790814D3*
X1816404D3*
X1841995D3*
D76*
X1062205Y723753D3*
X1099606D3*
X1137008D3*
Y830052D3*
X1062205D3*
D74*
X716667Y981365D3*
Y943963D3*
Y906562D3*
X822966D3*
Y981365D3*
D72*
X1788976Y1353281D3*
D70*
Y1620997D3*
D72*
X1688976D3*
Y1353281D3*
M02*
