G04 DipTrace 3.0.0.1*
G04 BottomSilk.gbr*
%MOIN*%
G04 #@! TF.FileFunction,Legend,Bot*
G04 #@! TF.Part,Single*
%ADD10C,0.01*%
%ADD12C,0.002992*%
%ADD23O,0.496982X0.196719*%
%ADD89C,0.006176*%
%FSLAX26Y26*%
G04*
G70*
G90*
G75*
G01*
G04 BotSilk*
%LPD*%
X1667343Y683050D2*
D10*
X1718484D1*
X1391752Y679113D2*
X1442894D1*
X1596061Y1776130D2*
Y1827272D1*
X555130Y1959341D2*
X606272D1*
X771341Y1062272D2*
Y1011130D1*
X953677Y2739380D2*
X1021669D1*
Y2570381D1*
X953677D1*
Y2739380D1*
X1154677Y2741381D2*
X1221677D1*
Y2571373D1*
X1154677D1*
Y2741381D1*
D23*
X1090486Y2407940D3*
X1128187Y2162363D2*
D12*
X1179051D1*
X1121884Y2159371D2*
X1185509D1*
X1117142Y2156379D2*
X1129100D1*
X1155103D2*
X1192328D1*
X1113974Y2153387D2*
X1133471D1*
X1157990D2*
X1179525D1*
X1185035D2*
X1199375D1*
X1111937Y2150395D2*
X1137631D1*
X1160589D2*
X1183364D1*
X1191019D2*
X1206312D1*
X1110535Y2147403D2*
X1113227D1*
X1127599D2*
X1140954D1*
X1162759D2*
X1170549D1*
X1175483D2*
X1187512D1*
X1197003D2*
X1212889D1*
X1109344Y2144411D2*
X1113215D1*
X1132353D2*
X1143735D1*
X1164591D2*
X1171396D1*
X1180330D2*
X1191768D1*
X1202975D2*
X1218985D1*
X1108377Y2141419D2*
X1113110D1*
X1136452D2*
X1146459D1*
X1166240D2*
X1172564D1*
X1184705D2*
X1196027D1*
X1208854D2*
X1224458D1*
X1107776Y2138427D2*
X1112729D1*
X1140311D2*
X1149279D1*
X1167794D2*
X1173910D1*
X1188911D2*
X1200548D1*
X1214457D2*
X1229443D1*
X1107470Y2135435D2*
X1112012D1*
X1144218D2*
X1152185D1*
X1169304D2*
X1175336D1*
X1193009D2*
X1205801D1*
X1219713D2*
X1234625D1*
X1107332Y2132443D2*
X1111237D1*
X1147956D2*
X1155139D1*
X1170712D2*
X1176713D1*
X1197210D2*
X1211678D1*
X1224824D2*
X1240230D1*
X1107265Y2129451D2*
X1110670D1*
X1151120D2*
X1158116D1*
X1171926D2*
X1177916D1*
X1202107D2*
X1217638D1*
X1229893D2*
X1245784D1*
X1107126Y2126459D2*
X1110235D1*
X1153684D2*
X1161102D1*
X1172982D2*
X1178966D1*
X1207924D2*
X1223214D1*
X1234769D2*
X1250861D1*
X1106632Y2123467D2*
X1119455D1*
X1156039D2*
X1164092D1*
X1174063D2*
X1180031D1*
X1214126D2*
X1228045D1*
X1239389D2*
X1255319D1*
X1105531Y2120475D2*
X1128005D1*
X1158552D2*
X1167083D1*
X1175110D2*
X1181053D1*
X1219945D2*
X1232141D1*
X1243729D2*
X1259145D1*
X1104035Y2117483D2*
X1109659D1*
X1117116D2*
X1136003D1*
X1161182D2*
X1170075D1*
X1176059D2*
X1182029D1*
X1224915D2*
X1235899D1*
X1247867D2*
X1262541D1*
X1102641Y2114491D2*
X1108533D1*
X1126471D2*
X1143485D1*
X1163673D2*
X1183151D1*
X1229015D2*
X1265709D1*
X1101460Y2111499D2*
X1107042D1*
X1134682D2*
X1150067D1*
X1165887D2*
X1184435D1*
X1232538D2*
X1268759D1*
X1100339Y2108507D2*
X1105750D1*
X1141471D2*
X1155174D1*
X1167987D2*
X1185775D1*
X1235757D2*
X1271672D1*
X1099393Y2105515D2*
X1104950D1*
X1146872D2*
X1158925D1*
X1170067D2*
X1187285D1*
X1238828D2*
X1247405D1*
X1259835D2*
X1274292D1*
X1098798Y2102523D2*
X1104581D1*
X1151244D2*
X1162248D1*
X1172036D2*
X1189118D1*
X1241748D2*
X1249643D1*
X1262839D2*
X1276571D1*
X1098481Y2099531D2*
X1104463D1*
X1155210D2*
X1165979D1*
X1174005D2*
X1193750D1*
X1244359D2*
X1251755D1*
X1265948D2*
X1278797D1*
X1098239Y2096539D2*
X1105455D1*
X1159169D2*
X1170075D1*
X1176059D2*
X1199506D1*
X1246533D2*
X1253830D1*
X1269426D2*
X1281267D1*
X1097790Y2093547D2*
X1109142D1*
X1163037D2*
X1205633D1*
X1248378D2*
X1255723D1*
X1273516D2*
X1283970D1*
X1096947Y2090555D2*
X1114451D1*
X1166692D2*
X1211674D1*
X1250121D2*
X1257427D1*
X1277992D2*
X1286730D1*
X843947Y2087563D2*
X855915D1*
X1095779D2*
X1120986D1*
X1170356D2*
X1191493D1*
X1202975D2*
X1217373D1*
X1251963D2*
X1259011D1*
X1282261D2*
X1289288D1*
X829023Y2084571D2*
X872694D1*
X1094433D2*
X1100683D1*
X1106518D2*
X1127829D1*
X1174207D2*
X1192340D1*
X1208854D2*
X1222686D1*
X1253913D2*
X1260452D1*
X1285947D2*
X1291544D1*
X817079Y2081579D2*
X886345D1*
X1093006D2*
X1099557D1*
X1116638D2*
X1133964D1*
X1178126D2*
X1193508D1*
X1214457D2*
X1227922D1*
X1255742D2*
X1261678D1*
X1288962D2*
X1293749D1*
X808284Y2078587D2*
X820725D1*
X852923D2*
X861437D1*
X883294D2*
X896730D1*
X1091641D2*
X1098054D1*
X1125008D2*
X1139254D1*
X1182030D2*
X1194865D1*
X1219724D2*
X1233391D1*
X1257322D2*
X1262737D1*
X1291405D2*
X1296112D1*
X801965Y2075595D2*
X813491D1*
X855903D2*
X863675D1*
X889914D2*
X904484D1*
X1090543D2*
X1096658D1*
X1131666D2*
X1144339D1*
X1185918D2*
X1196409D1*
X1224941D2*
X1239100D1*
X1258526D2*
X1263806D1*
X1293598D2*
X1298444D1*
X797320Y2072603D2*
X807721D1*
X858790D2*
X865787D1*
X896280D2*
X910276D1*
X1089875D2*
X1095476D1*
X1137188D2*
X1149575D1*
X1189414D2*
X1198272D1*
X1230392D2*
X1244953D1*
X1259288D2*
X1264829D1*
X1295702D2*
X1300581D1*
X793688Y2069611D2*
X803233D1*
X861401D2*
X867862D1*
X901955D2*
X914772D1*
X1089537D2*
X1094355D1*
X1142111D2*
X1154623D1*
X1192159D2*
X1200584D1*
X1236005D2*
X1250859D1*
X1259835D2*
X1265805D1*
X1297605D2*
X1302648D1*
X790784Y2066619D2*
X799554D1*
X863665D2*
X869755D1*
X906951D2*
X918747D1*
X930715D2*
X966619D1*
X1089388D2*
X1093409D1*
X1146668D2*
X1158860D1*
X1194324D2*
X1203247D1*
X1241586D2*
X1266951D1*
X1299314D2*
X1304705D1*
X788508Y2063627D2*
X796384D1*
X865784D2*
X871471D1*
X911326D2*
X975610D1*
X1089327D2*
X1092814D1*
X1150831D2*
X1162094D1*
X1196411D2*
X1206193D1*
X1247170D2*
X1268468D1*
X1300911D2*
X1306590D1*
X786727Y2060635D2*
X793764D1*
X867861D2*
X873160D1*
X915091D2*
X985094D1*
X1089304D2*
X1092521D1*
X1154530D2*
X1164888D1*
X1199082D2*
X1209517D1*
X1252967D2*
X1270747D1*
X1302445D2*
X1308293D1*
X785351Y2057643D2*
X791838D1*
X869754D2*
X874982D1*
X918360D2*
X930829D1*
X974893D2*
X996332D1*
X1089295D2*
X1092489D1*
X1157973D2*
X1167942D1*
X1202616D2*
X1213307D1*
X1258702D2*
X1274125D1*
X1303959D2*
X1309888D1*
X784232Y2054651D2*
X790432D1*
X871471D2*
X876925D1*
X921124D2*
X931224D1*
X979240D2*
X1008526D1*
X1089304D2*
X1092814D1*
X1161499D2*
X1171454D1*
X1206578D2*
X1217440D1*
X1263830D2*
X1278259D1*
X1305459D2*
X1311422D1*
X783152Y2051659D2*
X789222D1*
X873160D2*
X878763D1*
X923361D2*
X932047D1*
X982411D2*
X1019716D1*
X1089408D2*
X1093521D1*
X1165270D2*
X1175116D1*
X1210695D2*
X1221655D1*
X1268480D2*
X1282489D1*
X1306959D2*
X1312936D1*
X782226Y2048667D2*
X788242D1*
X874982D2*
X880459D1*
X925218D2*
X933195D1*
X984729D2*
X994009D1*
X1004904D2*
X1029651D1*
X1089789D2*
X1094409D1*
X1169052D2*
X1178589D1*
X1214763D2*
X1225586D1*
X1273237D2*
X1286599D1*
X1308454D2*
X1314435D1*
X781641Y2045675D2*
X787636D1*
X876937D2*
X882140D1*
X926875D2*
X934445D1*
X986588D2*
X994763D1*
X1015384D2*
X1039312D1*
X1090506D2*
X1095555D1*
X1172574D2*
X1181842D1*
X1218281D2*
X1228845D1*
X1278326D2*
X1290700D1*
X1309952D2*
X1315935D1*
X781339Y2042683D2*
X787327D1*
X878868D2*
X883960D1*
X928433D2*
X935595D1*
X988226D2*
X995643D1*
X1024261D2*
X1048995D1*
X1091273D2*
X1097141D1*
X1175847D2*
X1184954D1*
X1221275D2*
X1231450D1*
X1283303D2*
X1294735D1*
X1311446D2*
X1317430D1*
X781215Y2039691D2*
X787200D1*
X880840D2*
X885902D1*
X929955D2*
X936637D1*
X989779D2*
X996560D1*
X1030900D2*
X1057993D1*
X1091795D2*
X1101227D1*
X1178967D2*
X1187997D1*
X1224135D2*
X1233822D1*
X1287411D2*
X1298702D1*
X1312935D2*
X1318928D1*
X781265Y2036699D2*
X787249D1*
X882857D2*
X887739D1*
X931457D2*
X937788D1*
X991292D2*
X997660D1*
X1035301D2*
X1065714D1*
X1092072D2*
X1106566D1*
X1182012D2*
X1191008D1*
X1227023D2*
X1236340D1*
X1290630D2*
X1302740D1*
X1314351D2*
X1320422D1*
X781625Y2033707D2*
X787621D1*
X884727D2*
X889423D1*
X932959D2*
X939084D1*
X992797D2*
X998935D1*
X1038193D2*
X1043835D1*
X1053250D2*
X1072044D1*
X1092199D2*
X1112556D1*
X1185036D2*
X1194007D1*
X1229958D2*
X1238973D1*
X1292185D2*
X1306765D1*
X1315597D2*
X1321920D1*
X782346Y2030715D2*
X788435D1*
X886424D2*
X891011D1*
X934453D2*
X940394D1*
X994293D2*
X1000238D1*
X1040294D2*
X1045690D1*
X1061609D2*
X1077351D1*
X1092252D2*
X1118400D1*
X1188140D2*
X1197002D1*
X1232924D2*
X1241465D1*
X1293516D2*
X1310699D1*
X1316683D2*
X1323414D1*
X783215Y2027723D2*
X789592D1*
X888017D2*
X892543D1*
X935940D2*
X941567D1*
X995780D2*
X1001408D1*
X1042028D2*
X1047073D1*
X1068871D2*
X1081992D1*
X1092272D2*
X1095737D1*
X1110223D2*
X1123821D1*
X1191516D2*
X1199995D1*
X1235905D2*
X1243690D1*
X1294568D2*
X1324912D1*
X784129Y2024731D2*
X790935D1*
X889550D2*
X894044D1*
X937341D2*
X942616D1*
X997181D2*
X1002445D1*
X1043604D2*
X1048287D1*
X1074650D2*
X1086299D1*
X1092283D2*
X1096491D1*
X1116102D2*
X1129007D1*
X1195225D2*
X1202987D1*
X1238882D2*
X1245896D1*
X1295304D2*
X1301723D1*
X1307707D2*
X1326406D1*
X785228Y2021739D2*
X792372D1*
X891052D2*
X895450D1*
X938551D2*
X943771D1*
X998391D2*
X1003506D1*
X1045025D2*
X1049370D1*
X1079129D2*
X1097371D1*
X1121693D2*
X1134020D1*
X1198973D2*
X1205979D1*
X1241767D2*
X1248359D1*
X1296004D2*
X1301735D1*
X1310699D2*
X1327904D1*
X786515Y2018747D2*
X793843D1*
X892458D2*
X896662D1*
X939604D2*
X945068D1*
X999456D2*
X1004526D1*
X1046153D2*
X1050357D1*
X1082703D2*
X1098288D1*
X1126844D2*
X1138633D1*
X1202382D2*
X1208971D1*
X1244377D2*
X1251095D1*
X1296862D2*
X1301840D1*
X1313691D2*
X1329398D1*
X787911Y2015755D2*
X795333D1*
X893670D2*
X897716D1*
X940671D2*
X946378D1*
X1000616D2*
X1005501D1*
X1046933D2*
X1051382D1*
X1085503D2*
X1099399D1*
X1131574D2*
X1142895D1*
X1205270D2*
X1211975D1*
X1246652D2*
X1254169D1*
X1297699D2*
X1302221D1*
X1316683D2*
X1330896D1*
X789369Y2012763D2*
X796823D1*
X894724D2*
X898783D1*
X941693D2*
X947550D1*
X1001915D2*
X1006623D1*
X1047654D2*
X1052299D1*
X1087501D2*
X1100792D1*
X1135927D2*
X1147053D1*
X1207672D2*
X1215072D1*
X1248869D2*
X1257871D1*
X1298348D2*
X1302950D1*
X1319663D2*
X1332390D1*
X790847Y2009771D2*
X798403D1*
X895791D2*
X899805D1*
X942669D2*
X948600D1*
X1003226D2*
X1007907D1*
X1048521D2*
X1052982D1*
X1088935D2*
X1102581D1*
X1140033D2*
X1151108D1*
X1209950D2*
X1218445D1*
X1251294D2*
X1262276D1*
X1299014D2*
X1303822D1*
X1322550D2*
X1333877D1*
X792339Y2006779D2*
X800136D1*
X896813D2*
X900769D1*
X943791D2*
X949755D1*
X1004398D2*
X1009212D1*
X1049349D2*
X1053663D1*
X1090155D2*
X1104860D1*
X1144103D2*
X1155080D1*
X1212440D2*
X1222154D1*
X1253851D2*
X1266795D1*
X1299872D2*
X1304725D1*
X1325149D2*
X1335277D1*
X793831Y2003787D2*
X804915D1*
X897777D2*
X901798D1*
X945075D2*
X951063D1*
X1005448D2*
X1010383D1*
X1049906D2*
X1054514D1*
X1091138D2*
X1095275D1*
X1101259D2*
X1107498D1*
X1148032D2*
X1159095D1*
X1215162D2*
X1225921D1*
X1251409D2*
X1270828D1*
X1300798D2*
X1305731D1*
X1327319D2*
X1336487D1*
X795329Y2000795D2*
X812402D1*
X898794D2*
X902806D1*
X946380D2*
X952467D1*
X1006603D2*
X1011433D1*
X1050297D2*
X1055336D1*
X1091746D2*
X1095275D1*
X1104251D2*
X1110335D1*
X1151715D2*
X1162992D1*
X1218041D2*
X1229480D1*
X1249467D2*
X1274374D1*
X1301722D2*
X1306730D1*
X1329151D2*
X1337552D1*
X796822Y1997803D2*
X821214D1*
X899697D2*
X903764D1*
X947551D2*
X953927D1*
X1007900D2*
X1012587D1*
X1050808D2*
X1055891D1*
X1092055D2*
X1095275D1*
X1107231D2*
X1113252D1*
X1155389D2*
X1166562D1*
X1221099D2*
X1232907D1*
X1247867D2*
X1253977D1*
X1268223D2*
X1277619D1*
X1302735D2*
X1307686D1*
X1330800D2*
X1338712D1*
X798320Y1994811D2*
X829010D1*
X900286D2*
X904791D1*
X948601D2*
X955406D1*
X1009210D2*
X1013884D1*
X1051578D2*
X1056281D1*
X1092193D2*
X1095287D1*
X1110118D2*
X1116115D1*
X1159233D2*
X1169852D1*
X1224557D2*
X1251485D1*
X1272965D2*
X1280716D1*
X1303737D2*
X1308712D1*
X1332354D2*
X1340022D1*
X799814Y1991819D2*
X815317D1*
X819411D2*
X835085D1*
X900689D2*
X905798D1*
X949755D2*
X956899D1*
X1010382D2*
X1015194D1*
X1052366D2*
X1056804D1*
X1092250D2*
X1095392D1*
X1112729D2*
X1118717D1*
X1163048D2*
X1172991D1*
X1228640D2*
X1249720D1*
X1276959D2*
X1283749D1*
X1304693D2*
X1309718D1*
X1333876D2*
X1341427D1*
X801301Y1988827D2*
X811520D1*
X827028D2*
X839704D1*
X901205D2*
X906756D1*
X951063D2*
X958391D1*
X1011432D2*
X1016366D1*
X1052895D2*
X1057702D1*
X1092271D2*
X1095773D1*
X1115004D2*
X1120990D1*
X1166583D2*
X1176132D1*
X1233101D2*
X1248541D1*
X1280437D2*
X1286755D1*
X1305708D2*
X1310676D1*
X1335378D2*
X1342887D1*
X802689Y1985835D2*
X810446D1*
X833516D2*
X843445D1*
X901989D2*
X907771D1*
X952479D2*
X959889D1*
X1012587D2*
X1017416D1*
X1053187D2*
X1059093D1*
X1092279D2*
X1096490D1*
X1117218D2*
X1123214D1*
X1169860D2*
X1179421D1*
X1237276D2*
X1248507D1*
X1283639D2*
X1289753D1*
X1306609D2*
X1311691D1*
X1336867D2*
X1344378D1*
X803794Y1982843D2*
X810592D1*
X838771D2*
X846750D1*
X902882D2*
X908673D1*
X954033D2*
X961382D1*
X1013884D2*
X1018571D1*
X1053420D2*
X1061219D1*
X1092282D2*
X1097257D1*
X1119582D2*
X1125672D1*
X1172982D2*
X1182756D1*
X1240686D2*
X1249758D1*
X1286703D2*
X1292746D1*
X1307198D2*
X1312593D1*
X1338257D2*
X1345964D1*
X804478Y1979851D2*
X810793D1*
X842972D2*
X849851D1*
X903793D2*
X909262D1*
X955799D2*
X962880D1*
X1015194D2*
X1019879D1*
X1053854D2*
X1064197D1*
X1092283D2*
X1097779D1*
X1121904D2*
X1128281D1*
X1176027D2*
X1185801D1*
X1243366D2*
X1251718D1*
X1289621D2*
X1295739D1*
X1307610D2*
X1313182D1*
X1339362D2*
X1347744D1*
X804921Y1976859D2*
X811031D1*
X846431D2*
X852783D1*
X904790D2*
X909665D1*
X957721D2*
X964374D1*
X1016366D2*
X1021283D1*
X1054591D2*
X1067596D1*
X1092283D2*
X1098056D1*
X1123947D2*
X1130765D1*
X1179040D2*
X1188560D1*
X1245770D2*
X1254206D1*
X1292243D2*
X1298731D1*
X1308207D2*
X1313585D1*
X1340046D2*
X1349670D1*
X805453Y1973867D2*
X811481D1*
X849284D2*
X855409D1*
X905696D2*
X910181D1*
X959551D2*
X965872D1*
X1017416D2*
X1022743D1*
X1055365D2*
X1070952D1*
X1092295D2*
X1098183D1*
X1125727D2*
X1132988D1*
X1182039D2*
X1191448D1*
X1248313D2*
X1256980D1*
X1294522D2*
X1301723D1*
X1309287D2*
X1314101D1*
X1340489D2*
X1351502D1*
X806230Y1970875D2*
X812241D1*
X851654D2*
X857690D1*
X906376D2*
X910953D1*
X961232D2*
X967366D1*
X1018571D2*
X1024222D1*
X1055890D2*
X1074169D1*
X1092400D2*
X1098236D1*
X1127355D2*
X1135192D1*
X1185034D2*
X1194998D1*
X1251055D2*
X1259885D1*
X1296737D2*
X1304715D1*
X1310699D2*
X1314873D1*
X1341021D2*
X1353184D1*
X807032Y1967883D2*
X813126D1*
X853914D2*
X859916D1*
X907055D2*
X911741D1*
X962820D2*
X968864D1*
X1019879D2*
X1025715D1*
X1056168D2*
X1059833D1*
X1065829D2*
X1077378D1*
X1092783D2*
X1098256D1*
X1128902D2*
X1137655D1*
X1188027D2*
X1199905D1*
X1253930D2*
X1262856D1*
X1299102D2*
X1315661D1*
X1341798D2*
X1354771D1*
X807667Y1964891D2*
X814046D1*
X856385D2*
X862387D1*
X907906D2*
X912271D1*
X964363D2*
X970358D1*
X1021283D2*
X1027207D1*
X1056295D2*
X1060575D1*
X1069668D2*
X1080876D1*
X1093525D2*
X1098263D1*
X1130421D2*
X1140367D1*
X1191019D2*
X1206397D1*
X1256873D2*
X1265942D1*
X1301436D2*
X1316191D1*
X1342588D2*
X1356303D1*
X808341Y1961899D2*
X815147D1*
X858999D2*
X865102D1*
X908728D2*
X912563D1*
X965969D2*
X971856D1*
X1022743D2*
X1028705D1*
X1056348D2*
X1061350D1*
X1073816D2*
X1084909D1*
X1094416D2*
X1098277D1*
X1131922D2*
X1143220D1*
X1194011D2*
X1213924D1*
X1259846D2*
X1269311D1*
X1303573D2*
X1316483D1*
X1343118D2*
X1346603D1*
X1352113D2*
X1357816D1*
X809290Y1958907D2*
X816435D1*
X861484D2*
X867955D1*
X909283D2*
X912819D1*
X967756D2*
X973350D1*
X1024234D2*
X1030210D1*
X1056368D2*
X1061874D1*
X1078049D2*
X1089291D1*
X1095275D2*
X1098384D1*
X1133411D2*
X1146054D1*
X1197003D2*
X1222044D1*
X1262842D2*
X1273018D1*
X1305640D2*
X1316716D1*
X1343399D2*
X1346603D1*
X1354258D2*
X1359315D1*
X810492Y1955915D2*
X817831D1*
X863708D2*
X870790D1*
X909673D2*
X913201D1*
X969685D2*
X974848D1*
X1025831D2*
X1031802D1*
X1056387D2*
X1062152D1*
X1082074D2*
X1098765D1*
X1134812D2*
X1148656D1*
X1199983D2*
X1230732D1*
X1265937D2*
X1276777D1*
X1307708D2*
X1317161D1*
X1343527D2*
X1346603D1*
X1356082D2*
X1360815D1*
X811762Y1952923D2*
X819289D1*
X865912D2*
X873380D1*
X910184D2*
X915035D1*
X971518D2*
X976342D1*
X1027708D2*
X1033583D1*
X1056495D2*
X1062279D1*
X1085601D2*
X1099482D1*
X1136032D2*
X1151029D1*
X1202870D2*
X1211615D1*
X1218038D2*
X1239555D1*
X1269310D2*
X1280291D1*
X1309687D2*
X1318015D1*
X1343580D2*
X1346603D1*
X1357729D2*
X1362310D1*
X812919Y1949931D2*
X820767D1*
X868375D2*
X875648D1*
X910954D2*
X917909D1*
X973209D2*
X977840D1*
X1029976D2*
X1035522D1*
X1056877D2*
X1062332D1*
X1088462D2*
X1100249D1*
X1113227D2*
X1122203D1*
X1137169D2*
X1153621D1*
X1205481D2*
X1214248D1*
X1227175D2*
X1247573D1*
X1273018D2*
X1283549D1*
X1311678D2*
X1319276D1*
X1343600D2*
X1346603D1*
X1359282D2*
X1363808D1*
X813963Y1946939D2*
X822259D1*
X871099D2*
X877870D1*
X911742D2*
X921682D1*
X974875D2*
X979334D1*
X993547D2*
X1037447D1*
X1057594D2*
X1062352D1*
X1090583D2*
X1100771D1*
X1111846D2*
X1126598D1*
X1138547D2*
X1156702D1*
X1207756D2*
X1217183D1*
X1235989D2*
X1254220D1*
X1276777D2*
X1286562D1*
X1313713D2*
X1320910D1*
X1343596D2*
X1346603D1*
X1360804D2*
X1365302D1*
X815116Y1943947D2*
X823751D1*
X874068D2*
X880340D1*
X912271D2*
X926098D1*
X976659D2*
X980832D1*
X995528D2*
X1039417D1*
X1058361D2*
X1062359D1*
X1071339D2*
X1074331D1*
X1092283D2*
X1101048D1*
X1110987D2*
X1131179D1*
X1140155D2*
X1142673D1*
X1149233D2*
X1159790D1*
X1209993D2*
X1220418D1*
X1243801D2*
X1259803D1*
X1280291D2*
X1289225D1*
X1315679D2*
X1322789D1*
X1343493D2*
X1346603D1*
X1362306D2*
X1366800D1*
X816424Y1940955D2*
X825249D1*
X877389D2*
X883066D1*
X912551D2*
X930874D1*
X978587D2*
X982326D1*
X997735D2*
X1041445D1*
X1058883D2*
X1062362D1*
X1071453D2*
X1101175D1*
X1110552D2*
X1144806D1*
X1152504D2*
X1162402D1*
X1212568D2*
X1223654D1*
X1250549D2*
X1264868D1*
X1283549D2*
X1291521D1*
X1317664D2*
X1324703D1*
X1343112D2*
X1346603D1*
X1363795D2*
X1368294D1*
X817839Y1937963D2*
X826754D1*
X881077D2*
X886024D1*
X912679D2*
X915755D1*
X921277D2*
X935632D1*
X976838D2*
X983824D1*
X1000543D2*
X1043420D1*
X1059160D2*
X1062374D1*
X1071837D2*
X1101228D1*
X1110359D2*
X1146526D1*
X1155820D2*
X1164914D1*
X1215664D2*
X1226796D1*
X1256766D2*
X1269825D1*
X1286562D2*
X1293742D1*
X1319698D2*
X1326758D1*
X1342396D2*
X1346603D1*
X1365196D2*
X1369792D1*
X819393Y1934971D2*
X828346D1*
X884817D2*
X889240D1*
X912732D2*
X915755D1*
X926507D2*
X940193D1*
X974582D2*
X985330D1*
X1003983D2*
X1030001D1*
X1038427D2*
X1045509D1*
X1059287D2*
X1062480D1*
X1072565D2*
X1101248D1*
X1110281D2*
X1147790D1*
X1158746D2*
X1167823D1*
X1219246D2*
X1229863D1*
X1262681D2*
X1274724D1*
X1289225D2*
X1296179D1*
X1321663D2*
X1329051D1*
X1341629D2*
X1346603D1*
X1366407D2*
X1371286D1*
X821159Y1931979D2*
X830127D1*
X888223D2*
X892559D1*
X912752D2*
X915767D1*
X931611D2*
X944489D1*
X971054D2*
X986933D1*
X1007728D2*
X1025067D1*
X1041419D2*
X1047922D1*
X1059340D2*
X1062861D1*
X1073438D2*
X1101255D1*
X1110250D2*
X1148639D1*
X1161006D2*
X1174223D1*
X1222952D2*
X1232887D1*
X1268095D2*
X1279296D1*
X1291521D2*
X1299195D1*
X1323639D2*
X1331278D1*
X1341105D2*
X1346591D1*
X1367472D2*
X1372784D1*
X823081Y1928987D2*
X832066D1*
X891111D2*
X895707D1*
X912759D2*
X915872D1*
X936678D2*
X948675D1*
X966619D2*
X988808D1*
X1011499D2*
X1020475D1*
X1039830D2*
X1050599D1*
X1059360D2*
X1063578D1*
X1074343D2*
X1101258D1*
X1116219D2*
X1149510D1*
X1162644D2*
X1182320D1*
X1226446D2*
X1235892D1*
X1272692D2*
X1283623D1*
X1293745D2*
X1304093D1*
X1325590D2*
X1333107D1*
X1340812D2*
X1346486D1*
X1368632D2*
X1374278D1*
X824911Y1925995D2*
X833991D1*
X893513D2*
X898908D1*
X912762D2*
X916253D1*
X941553D2*
X953120D1*
X968123D2*
X991011D1*
X1032443D2*
D3*
X1038427D2*
X1053387D1*
X1059371D2*
X1064345D1*
X1075363D2*
X1101259D1*
X1116219D2*
X1119211D1*
X1131179D2*
X1134171D1*
X1140155D2*
X1150997D1*
X1163887D2*
X1191455D1*
X1229708D2*
X1238889D1*
X1276739D2*
X1288090D1*
X1296173D2*
X1312277D1*
X1327244D2*
X1334635D1*
X1340619D2*
X1346117D1*
X1369931D2*
X1375765D1*
X826604Y1923003D2*
X835961D1*
X895790D2*
X902648D1*
X912763D2*
X916970D1*
X946173D2*
X957784D1*
X969450D2*
X993167D1*
X1030718D2*
X1064879D1*
X1076386D2*
X1101259D1*
X1143147D2*
X1153502D1*
X1165043D2*
X1201132D1*
X1232824D2*
X1241894D1*
X1280884D2*
X1292747D1*
X1298731D2*
X1322667D1*
X1328651D2*
X1345505D1*
X1371242D2*
X1377165D1*
X828296Y1920011D2*
X837989D1*
X898280D2*
X906779D1*
X912763D2*
X917737D1*
X950513D2*
X962298D1*
X970931D2*
X994806D1*
X1028190D2*
X1065261D1*
X1077323D2*
X1083307D1*
X1095275D2*
X1101259D1*
X1146139D2*
X1157030D1*
X1166119D2*
X1173541D1*
X1185348D2*
X1210791D1*
X1235868D2*
X1244992D1*
X1285099D2*
X1345131D1*
X1372414D2*
X1378375D1*
X830221Y1917019D2*
X839964D1*
X901002D2*
X918271D1*
X954651D2*
X966619D1*
X972603D2*
X995860D1*
X1024823D2*
X1065769D1*
X1095275D2*
X1101259D1*
X1137763D2*
X1161099D1*
X1167083D2*
X1174388D1*
X1197348D2*
X1219849D1*
X1238880D2*
X1248365D1*
X1288941D2*
X1345443D1*
X1373464D2*
X1379440D1*
X832544Y1914027D2*
X842053D1*
X903881D2*
X918677D1*
X950740D2*
X954651D1*
X960635D2*
X972603D1*
X976709D2*
X996718D1*
X1020992D2*
X1066550D1*
X1130920D2*
X1175556D1*
X1208112D2*
X1228105D1*
X1241879D2*
X1252074D1*
X1292392D2*
X1311173D1*
X1325659D2*
X1346431D1*
X1374619D2*
X1380600D1*
X835098Y1911035D2*
X844468D1*
X906927D2*
X919407D1*
X947643D2*
X976057D1*
X984555D2*
X997752D1*
X1017336D2*
X1067443D1*
X1101259D2*
D3*
X1113227D2*
X1116219D1*
X1125195D2*
X1176902D1*
X1217177D2*
X1235899D1*
X1244875D2*
X1255833D1*
X1295597D2*
X1312032D1*
X1340619D2*
X1348040D1*
X1375916D2*
X1381899D1*
X837561Y1908043D2*
X847162D1*
X910280D2*
X920652D1*
X945104D2*
X963627D1*
X969611D2*
X979791D1*
X990471D2*
X999070D1*
X1014130D2*
X1068365D1*
X1100082D2*
X1101259D1*
X1113376D2*
X1178340D1*
X1225269D2*
X1259347D1*
X1298678D2*
X1313293D1*
X1342230D2*
X1350235D1*
X1377226D2*
X1383210D1*
X839776Y1905051D2*
X850019D1*
X913982D2*
X923697D1*
X942908D2*
X983558D1*
X993215D2*
X1000691D1*
X1012660D2*
X1053147D1*
X1059371D2*
X1069478D1*
X1100458D2*
X1102396D1*
X1113730D2*
X1179822D1*
X1233052D2*
X1262616D1*
X1301704D2*
X1314927D1*
X1344363D2*
X1352741D1*
X1378398D2*
X1384382D1*
X841978Y1902059D2*
X852956D1*
X917750D2*
X927151D1*
X941152D2*
X987076D1*
X995434D2*
X1002523D1*
X1011499D2*
X1052616D1*
X1062351D2*
X1070871D1*
X1101259D2*
X1103682D1*
X1115862D2*
X1157007D1*
X1163977D2*
X1181417D1*
X1240489D2*
X1265747D1*
X1304708D2*
X1316805D1*
X1346908D2*
X1355186D1*
X1379448D2*
X1385432D1*
X844440Y1899067D2*
X855927D1*
X921380D2*
X930715D1*
X939691D2*
X972027D1*
X978461D2*
X990362D1*
X997466D2*
X1050431D1*
X1065238D2*
X1072661D1*
X1097008D2*
X1105083D1*
X1118959D2*
X1148923D1*
X1166586D2*
X1183290D1*
X1247533D2*
X1268908D1*
X1307705D2*
X1318708D1*
X1349602D2*
X1357383D1*
X1380603D2*
X1386587D1*
X847151Y1896075D2*
X858899D1*
X925135D2*
X970843D1*
X980953D2*
X993547D1*
X999531D2*
X1047721D1*
X1067837D2*
X1074938D1*
X1093619D2*
X1106641D1*
X1122286D2*
X1140155D1*
X1168849D2*
X1185504D1*
X1254025D2*
X1272407D1*
X1310687D2*
X1320669D1*
X1352135D2*
X1359478D1*
X1381911D2*
X1387884D1*
X850015Y1893083D2*
X861795D1*
X929352D2*
X968781D1*
X982730D2*
X1006006D1*
X1013904D2*
X1045062D1*
X1069996D2*
X1077558D1*
X1091193D2*
X1108522D1*
X1125307D2*
X1141745D1*
X1170968D2*
X1187776D1*
X1259294D2*
X1276516D1*
X1313574D2*
X1322694D1*
X1354369D2*
X1361558D1*
X1383315D2*
X1389194D1*
X852955Y1890091D2*
X864510D1*
X933880D2*
X965959D1*
X983740D2*
X1007797D1*
X1021648D2*
X1042741D1*
X1071722D2*
X1080315D1*
X1089291D2*
X1110929D1*
X1128187D2*
X1143147D1*
X1173046D2*
X1189901D1*
X1262982D2*
X1281111D1*
X1316185D2*
X1324657D1*
X1356478D2*
X1363541D1*
X1384764D2*
X1390366D1*
X855926Y1887099D2*
X867167D1*
X938181D2*
X948667D1*
X954651D2*
X959391D1*
X984228D2*
X1011629D1*
X1028703D2*
X1040592D1*
X1072978D2*
X1113833D1*
X1174938D2*
X1192053D1*
X1253851D2*
X1259835D1*
X1265819D2*
X1285879D1*
X1318460D2*
X1326641D1*
X1358563D2*
X1365533D1*
X1386149D2*
X1391416D1*
X858911Y1884107D2*
X870108D1*
X941980D2*
X951659D1*
X984439D2*
X1015794D1*
X1035435D2*
X1038427D1*
X1073713D2*
X1116799D1*
X1176643D2*
X1194395D1*
X1239930D2*
X1290780D1*
X1320673D2*
X1328674D1*
X1360548D2*
X1367557D1*
X1387354D2*
X1392571D1*
X861900Y1881115D2*
X873357D1*
X945391D2*
X954663D1*
X984525D2*
X1019844D1*
X1074092D2*
X1119414D1*
X1178239D2*
X1196720D1*
X1229209D2*
X1295766D1*
X1323038D2*
X1330651D1*
X1362540D2*
X1369430D1*
X1388417D2*
X1393868D1*
X864892Y1878123D2*
X876699D1*
X948668D2*
X957769D1*
X978587D2*
X1023971D1*
X1065355D2*
X1120348D1*
X1179773D2*
X1185623D1*
X1190905D2*
X1198866D1*
X1221917D2*
X1300619D1*
X1325372D2*
X1332729D1*
X1364577D2*
X1371127D1*
X1389576D2*
X1395178D1*
X867883Y1875131D2*
X880222D1*
X952114D2*
X961223D1*
X977537D2*
X1028239D1*
X1063431D2*
X1121201D1*
X1181287D2*
X1186865D1*
X1193514D2*
X1201037D1*
X1216659D2*
X1305305D1*
X1327520D2*
X1335039D1*
X1366543D2*
X1372720D1*
X1390886D2*
X1396350D1*
X870875Y1872139D2*
X884017D1*
X955851D2*
X965238D1*
X976520D2*
X1032143D1*
X1061703D2*
X1122203D1*
X1182787D2*
X1188844D1*
X1195789D2*
X1203475D1*
X1217113D2*
X1309877D1*
X1329681D2*
X1337351D1*
X1368528D2*
X1374254D1*
X1392291D2*
X1397400D1*
X873867Y1869147D2*
X887914D1*
X959620D2*
X969611D1*
X975595D2*
X1035448D1*
X1061797D2*
X1119433D1*
X1184287D2*
X1191244D1*
X1198002D2*
X1206077D1*
X1218982D2*
X1283221D1*
X1292747D2*
X1314285D1*
X1332026D2*
X1339492D1*
X1370550D2*
X1375768D1*
X1393740D2*
X1398555D1*
X876859Y1866155D2*
X891822D1*
X963125D2*
X1020001D1*
X1029451D2*
X1038487D1*
X1062363D2*
X1118543D1*
X1185793D2*
X1193645D1*
X1200366D2*
X1208558D1*
X1221258D2*
X1276187D1*
X1295739D2*
X1318293D1*
X1334352D2*
X1341650D1*
X1372422D2*
X1377267D1*
X1395125D2*
X1399852D1*
X879851Y1863163D2*
X895812D1*
X966256D2*
X1019142D1*
X1032443D2*
X1041459D1*
X1058529D2*
X1103664D1*
X1109773D2*
X1118850D1*
X1187409D2*
X1195837D1*
X1202700D2*
X1210780D1*
X1223516D2*
X1244875D1*
X1250859D2*
X1256843D1*
X1265819D2*
X1268811D1*
X1298731D2*
X1301723D1*
X1310711D2*
X1321581D1*
X1336498D2*
X1343994D1*
X1374119D2*
X1378767D1*
X1396330D2*
X1401162D1*
X882843Y1860171D2*
X899700D1*
X968843D2*
X1017881D1*
X1035435D2*
X1044429D1*
X1055662D2*
X1105424D1*
X1112011D2*
X1119455D1*
X1167083D2*
X1170075D1*
X1189401D2*
X1198030D1*
X1204848D2*
X1212973D1*
X1225373D2*
X1238891D1*
X1244875D2*
D3*
X1253851D2*
X1256843D1*
X1313808D2*
X1324208D1*
X1338669D2*
X1346320D1*
X1375712D2*
X1380262D1*
X1397393D2*
X1402334D1*
X876871Y1857179D2*
X903267D1*
X971006D2*
X1016259D1*
X1038427D2*
X1047403D1*
X1053387D2*
X1106495D1*
X1114123D2*
X1120429D1*
X1167083D2*
X1173067D1*
X1192102D2*
X1200487D1*
X1207012D2*
X1215330D1*
X1226923D2*
X1235899D1*
X1317181D2*
X1326701D1*
X1341107D2*
X1348466D1*
X1377246D2*
X1381760D1*
X1398552D2*
X1403373D1*
X871015Y1854187D2*
X906557D1*
X969850D2*
X1014497D1*
X1041419D2*
X1098267D1*
X1116198D2*
X1121755D1*
X1161099D2*
X1176059D1*
X1195472D2*
X1203182D1*
X1209417D2*
X1217661D1*
X1320890D2*
X1329719D1*
X1343709D2*
X1350637D1*
X1378748D2*
X1383254D1*
X1399851D2*
X1404434D1*
X865646Y1851195D2*
X909683D1*
X968802D2*
X1013081D1*
X1044411D2*
X1099302D1*
X1118091D2*
X1123419D1*
X1152123D2*
X1155115D1*
X1161099D2*
X1179051D1*
X1199082D2*
X1205979D1*
X1211963D2*
X1219809D1*
X1324649D2*
X1333542D1*
X1346190D2*
X1353075D1*
X1380154D2*
X1384741D1*
X1401162D2*
X1405454D1*
X861364Y1848203D2*
X912730D1*
X968217D2*
X1012230D1*
X1047403D2*
X1100297D1*
X1119795D2*
X1125298D1*
X1146139D2*
D3*
X1152123D2*
X1182043D1*
X1202523D2*
X1221981D1*
X1328163D2*
X1337794D1*
X1348400D2*
X1355677D1*
X1381366D2*
X1386129D1*
X1402334D2*
X1406418D1*
X858055Y1845211D2*
X876859D1*
X882855D2*
X915743D1*
X967782D2*
X1011793D1*
X1044619D2*
X1088829D1*
X1095737D2*
X1101246D1*
X1121391D2*
X1127112D1*
X1146262D2*
X1185035D1*
X1191019D2*
X1194011D1*
X1205664D2*
X1224431D1*
X1331432D2*
X1341642D1*
X1350491D2*
X1358146D1*
X1382420D2*
X1387246D1*
X1403373D2*
X1407446D1*
X856374Y1842219D2*
X876847D1*
X882960D2*
X918743D1*
X967412D2*
X1011493D1*
X1042769D2*
X1088087D1*
X1096491D2*
X1102267D1*
X1122925D2*
X1128797D1*
X1146726D2*
X1195404D1*
X1208382D2*
X1227149D1*
X1334563D2*
X1344676D1*
X1352489D2*
X1360263D1*
X1383475D2*
X1388023D1*
X1404434D2*
X1408454D1*
X854641Y1839227D2*
X876731D1*
X883341D2*
X921749D1*
X967464D2*
X1010955D1*
X1035435D2*
X1087312D1*
X1097371D2*
X1103272D1*
X1124439D2*
X1130460D1*
X1147750D2*
X1196368D1*
X1210601D2*
X1230117D1*
X1337713D2*
X1347195D1*
X1354162D2*
X1362086D1*
X1384392D2*
X1388743D1*
X1405454D2*
X1409412D1*
X852764Y1836235D2*
X876244D1*
X884046D2*
X924848D1*
X968145D2*
X1009903D1*
X1035321D2*
X1086786D1*
X1098276D2*
X1104229D1*
X1125939D2*
X1132244D1*
X1149131D2*
X1197185D1*
X1212453D2*
X1233437D1*
X1341106D2*
X1349595D1*
X1355579D2*
X1363832D1*
X1384975D2*
X1389609D1*
X1406418D2*
X1410439D1*
X850867Y1833243D2*
X875158D1*
X884708D2*
X928233D1*
X969266D2*
X1008507D1*
X1034938D2*
X1086492D1*
X1099282D2*
X1105244D1*
X1127416D2*
X1134171D1*
X1143147D2*
X1198106D1*
X1214108D2*
X1221413D1*
X1226335D2*
X1237125D1*
X1344823D2*
X1365766D1*
X1385287D2*
X1390449D1*
X1407434D2*
X1411446D1*
X848811Y1830251D2*
X873779D1*
X884849D2*
X932058D1*
X972502D2*
X1011499D1*
X1034244D2*
X1065355D1*
X1074331D2*
X1086299D1*
X1100282D2*
X1106157D1*
X1128688D2*
X1188027D1*
X1193423D2*
X1199056D1*
X1215665D2*
X1222260D1*
X1231077D2*
X1240889D1*
X1348592D2*
X1368003D1*
X1385528D2*
X1391099D1*
X1408348D2*
X1412404D1*
X846422Y1827259D2*
X872567D1*
X884409D2*
X936304D1*
X977339D2*
X1014491D1*
X1033704D2*
X1068347D1*
X1101238D2*
X1106839D1*
X1129666D2*
X1188027D1*
X1195185D2*
X1199989D1*
X1217187D2*
X1223428D1*
X1235071D2*
X1244505D1*
X1352152D2*
X1370281D1*
X1385967D2*
X1391766D1*
X1409031D2*
X1413419D1*
X475931Y1824267D2*
X493883D1*
X843850D2*
X872701D1*
X883769D2*
X921189D1*
X927173D2*
X940916D1*
X982883D2*
X1005889D1*
X1033633D2*
X1071339D1*
X1102263D2*
X1107530D1*
X1129116D2*
X1182043D1*
X1196292D2*
X1200994D1*
X1218689D2*
X1224774D1*
X1238549D2*
X1248155D1*
X1355579D2*
X1372384D1*
X1386730D2*
X1392624D1*
X1409711D2*
X1414333D1*
X470008Y1821275D2*
X501248D1*
X841493D2*
X873007D1*
X883300D2*
X920139D1*
X926123D2*
X945669D1*
X987554D2*
X996539D1*
X1035740D2*
X1074331D1*
X1103270D2*
X1108487D1*
X1126857D2*
X1182043D1*
X1197159D2*
X1201891D1*
X1220179D2*
X1226200D1*
X1241763D2*
X1251990D1*
X1325659D2*
X1328651D1*
X1334635D2*
X1337627D1*
X1350353D2*
X1374424D1*
X1387628D2*
X1393562D1*
X1410562D2*
X1415015D1*
X464950Y1818283D2*
X508095D1*
X839760D2*
X872903D1*
X883043D2*
X918747D1*
X924731D2*
X950077D1*
X991159D2*
X997920D1*
X1038427D2*
X1077323D1*
X1104228D2*
X1109693D1*
X1124195D2*
X1176059D1*
X1198086D2*
X1202467D1*
X1221580D2*
X1227577D1*
X1244955D2*
X1255802D1*
X1324267D2*
X1337627D1*
X1346561D2*
X1376523D1*
X1388491D2*
X1394614D1*
X1411384D2*
X1415695D1*
X461122Y1815291D2*
X514536D1*
X838654D2*
X872102D1*
X882923D2*
X953921D1*
X992514D2*
X998780D1*
X1034251D2*
X1080315D1*
X1105243D2*
X1110980D1*
X1121883D2*
X1176059D1*
X1198937D2*
X1202765D1*
X1222791D2*
X1228780D1*
X1248489D2*
X1259336D1*
X1313691D2*
X1316683D1*
X1323342D2*
X1337627D1*
X1343611D2*
X1396207D1*
X1411927D2*
X1416546D1*
X460219Y1812299D2*
X520811D1*
X532779D2*
X541755D1*
X837675D2*
X870875D1*
X882873D2*
X918747D1*
X924731D2*
X957349D1*
X993550D2*
X999214D1*
X1031476D2*
X1083307D1*
X1106157D2*
X1112171D1*
X1120342D2*
X1170075D1*
X1199490D2*
X1202899D1*
X1223844D2*
X1229830D1*
X1252820D2*
X1262613D1*
X1292747D2*
X1295739D1*
X1301723D2*
X1304715D1*
X1313691D2*
X1316683D1*
X1322667D2*
X1398583D1*
X1412212D2*
X1417368D1*
X460454Y1809307D2*
X551274D1*
X836264D2*
X872465D1*
X882854D2*
X918747D1*
X924731D2*
X960633D1*
X994457D2*
X999407D1*
X1029451D2*
X1086287D1*
X1106839D2*
X1113227D1*
X1119211D2*
X1170075D1*
X1199779D2*
X1202954D1*
X1224899D2*
X1230884D1*
X1258257D2*
X1265740D1*
X1283771D2*
D3*
X1289755D2*
X1295739D1*
X1301723D2*
X1401358D1*
X1412342D2*
X1417911D1*
X460722Y1806315D2*
X466955D1*
X491444D2*
X560719D1*
X834316D2*
X873867D1*
X882847D2*
X918747D1*
X924731D2*
X964093D1*
X995206D2*
X999485D1*
X1038427D2*
X1071225D1*
X1076735D2*
X1089198D1*
X1107519D2*
X1164091D1*
X1199909D2*
X1202987D1*
X1225828D2*
X1231801D1*
X1264754D2*
X1268811D1*
X1278679D2*
X1403713D1*
X1412395D2*
X1418196D1*
X460971Y1803323D2*
X463963D1*
X501300D2*
X569441D1*
X589627D2*
X592619D1*
X832280D2*
X864891D1*
X882844D2*
X948667D1*
X954051D2*
X967935D1*
X994873D2*
X999515D1*
X1032069D2*
X1070830D1*
X1081477D2*
X1092019D1*
X1108382D2*
X1162954D1*
X1199963D2*
X1203100D1*
X1226516D2*
X1232383D1*
X1273653D2*
X1405173D1*
X1412416D2*
X1418326D1*
X510771Y1800331D2*
X577659D1*
X586635D2*
X597455D1*
X830702D2*
X869473D1*
X882832D2*
X948679D1*
X958688D2*
X972088D1*
X994353D2*
X999526D1*
X1026459D2*
X1070008D1*
X1085471D2*
X1095061D1*
X1109318D2*
X1161680D1*
X1199984D2*
X1203484D1*
X1227198D2*
X1232684D1*
X1262827D2*
D3*
X1268811D2*
X1405948D1*
X1412423D2*
X1418379D1*
X519252Y1797339D2*
X602048D1*
X829772D2*
X873867D1*
X882715D2*
X948784D1*
X962289D2*
X976350D1*
X993950D2*
X999529D1*
X1035435D2*
X1068871D1*
X1088937D2*
X1098761D1*
X1110326D2*
X1160408D1*
X1199991D2*
X1204201D1*
X1228050D2*
X1232819D1*
X1258376D2*
X1406443D1*
X1412427D2*
X1418400D1*
X528492Y1794347D2*
X606258D1*
X829302D2*
X872486D1*
X882228D2*
X949165D1*
X964934D2*
X980526D1*
X993710D2*
X999530D1*
X1032665D2*
X1067737D1*
X1092011D2*
X1102967D1*
X1111649D2*
X1159452D1*
X1200005D2*
X1204969D1*
X1228872D2*
X1232874D1*
X1254819D2*
X1418411D1*
X1424395D2*
X1427387D1*
X541248Y1791355D2*
X610020D1*
X828997D2*
X871627D1*
X881154D2*
X949882D1*
X966871D2*
X984571D1*
X993547D2*
X999531D1*
X1031927D2*
X1066802D1*
X1094483D2*
X1107243D1*
X1113227D2*
X1158920D1*
X1200112D2*
X1205491D1*
X1229415D2*
X1232895D1*
X1252522D2*
X1431595D1*
X556715Y1788363D2*
X649467D1*
X828524D2*
X871192D1*
X879880D2*
X950661D1*
X968219D2*
X999543D1*
X1031537D2*
X1066846D1*
X1096336D2*
X1159625D1*
X1200493D2*
X1205768D1*
X1229700D2*
X1232903D1*
X1241883D2*
X1244875D1*
X1250859D2*
X1436363D1*
X1442347D2*
X1445339D1*
X555323Y1785371D2*
X662228D1*
X827672D2*
X871011D1*
X878913D2*
X951296D1*
X969036D2*
X999671D1*
X1030980D2*
X1066858D1*
X1096440D2*
X1145551D1*
X1158107D2*
X1160782D1*
X1201210D2*
X1205895D1*
X1229830D2*
X1232906D1*
X1241883D2*
X1444875D1*
X554398Y1782379D2*
X673813D1*
X826513D2*
X871047D1*
X879756D2*
X952037D1*
X963627D2*
X999987D1*
X1030363D2*
X1065593D1*
X1095413D2*
X1147301D1*
X1159142D2*
X1162367D1*
X1201977D2*
X1205948D1*
X1229883D2*
X1232907D1*
X1241883D2*
X1340619D1*
X1346027D2*
X1353052D1*
X1357984D2*
X1376523D1*
X1381797D2*
X1433371D1*
X1439355D2*
X1444108D1*
X586635Y1779387D2*
X625531D1*
X634507D2*
X684215D1*
X825259D2*
X871479D1*
X880787D2*
X953192D1*
X965030D2*
X1001799D1*
X1030133D2*
X1064225D1*
X1093940D2*
X1148306D1*
X1160137D2*
X1164213D1*
X1202499D2*
X1205968D1*
X1229904D2*
X1331643D1*
X1337627D2*
X1340619D1*
X1347891D2*
X1353819D1*
X1359744D2*
X1370539D1*
X1383547D2*
X1389041D1*
X1393925D2*
X1443209D1*
X587406Y1776395D2*
X628523D1*
X640491D2*
X693752D1*
X824108D2*
X872491D1*
X880531D2*
X954651D1*
X966619D2*
X1004563D1*
X1030360D2*
X1063273D1*
X1092246D2*
X1128661D1*
X1134721D2*
X1148815D1*
X1161097D2*
X1166015D1*
X1202776D2*
X1205975D1*
X1229911D2*
X1325659D1*
X1349358D2*
X1354717D1*
X1360815D2*
X1364555D1*
X1383254D2*
X1390091D1*
X1395867D2*
X1442347D1*
X1448331D2*
D3*
X589753Y1773403D2*
X640491D1*
X658443D2*
X702519D1*
X823077D2*
X873867D1*
X879851D2*
X952259D1*
X960635D2*
X1007953D1*
X1032392D2*
X1062759D1*
X1090858D2*
X1129508D1*
X1138763D2*
X1143147D1*
X1162212D2*
X1167686D1*
X1202903D2*
X1205989D1*
X1229914D2*
X1298582D1*
X1304715D2*
X1313691D1*
X1319675D2*
X1327051D1*
X1337627D2*
D3*
X1350890D2*
X1355579D1*
X1361563D2*
X1367547D1*
X1382507D2*
X1391483D1*
X1397467D2*
X1448331D1*
X592619Y1770411D2*
X601595D1*
X607567D2*
X670411D1*
X682379D2*
X710393D1*
X822031D2*
X950271D1*
X961813D2*
X1011640D1*
X1035011D2*
X1062521D1*
X1090016D2*
X1130676D1*
X1143147D2*
D3*
X1163493D2*
X1169258D1*
X1202967D2*
X1206096D1*
X1229915D2*
X1301037D1*
X1310699D2*
X1313691D1*
X1322667D2*
X1327976D1*
X1336038D2*
X1346603D1*
X1352587D2*
X1452704D1*
X610454Y1767419D2*
X679387D1*
X685371D2*
X717429D1*
X821116D2*
X949702D1*
X961860D2*
X1015555D1*
X1038221D2*
X1062419D1*
X1089595D2*
X1132033D1*
X1164797D2*
X1170694D1*
X1203093D2*
X1206477D1*
X1229915D2*
X1303126D1*
X1325659D2*
X1328651D1*
X1334635D2*
X1456559D1*
X613100Y1764427D2*
X688363D1*
X694347D2*
X723905D1*
X820532D2*
X950620D1*
X961972D2*
X996653D1*
X1005629D2*
X1019503D1*
X1042441D2*
X1056379D1*
X1089410D2*
X1133565D1*
X1165968D2*
X1171919D1*
X1203481D2*
X1207206D1*
X1229915D2*
X1301191D1*
X1328651D2*
X1460008D1*
X615703Y1761435D2*
X697339D1*
X709307D2*
X729991D1*
X820216D2*
X876859D1*
X882379D2*
X951970D1*
X962143D2*
X997037D1*
X1009005D2*
X1023346D1*
X1047403D2*
X1056379D1*
X1089323D2*
X1135323D1*
X1167017D2*
X1172978D1*
X1204201D2*
X1208078D1*
X1223931D2*
X1298731D1*
X1319675D2*
D3*
X1325659D2*
X1463291D1*
X1469275D2*
X1472267D1*
X619188Y1758443D2*
X735598D1*
X763163D2*
X793083D1*
X820011D2*
X867883D1*
X884604D2*
X953206D1*
X961912D2*
X997765D1*
X1012725D2*
X1027072D1*
X1089190D2*
X1137242D1*
X1168171D2*
X1174046D1*
X1204980D2*
X1208983D1*
X1223686D2*
X1304715D1*
X1318086D2*
X1471717D1*
X624306Y1755451D2*
X740592D1*
X758582D2*
X870875D1*
X886697D2*
X954084D1*
X961531D2*
X998638D1*
X1016590D2*
X1030641D1*
X1088798D2*
X1139071D1*
X1169468D2*
X1175069D1*
X1205608D2*
X1210003D1*
X1223136D2*
X1310699D1*
X1316683D2*
X1470667D1*
X630537Y1752459D2*
X745211D1*
X754187D2*
X873867D1*
X888827D2*
X954860D1*
X961538D2*
X999553D1*
X1020497D2*
X1034264D1*
X1088066D2*
X1125195D1*
X1131179D2*
X1140764D1*
X1170778D2*
X1176045D1*
X1206266D2*
X1211026D1*
X1220805D2*
X1295739D1*
X1304715D2*
X1469275D1*
X636961Y1749467D2*
X955764D1*
X962153D2*
X1000664D1*
X1024588D2*
X1038193D1*
X1087193D2*
X1125195D1*
X1131179D2*
X1142445D1*
X1171950D2*
X1177167D1*
X1207122D2*
X1211963D1*
X1217947D2*
X1298731D1*
X1304715D2*
X1474084D1*
X643342Y1746475D2*
X956719D1*
X963303D2*
X1002044D1*
X1028855D2*
X1042385D1*
X1086301D2*
X1144264D1*
X1173000D2*
X1178451D1*
X1208046D2*
X1286763D1*
X1296213D2*
X1478134D1*
X649857Y1743483D2*
X957766D1*
X964881D2*
X1003728D1*
X1033150D2*
X1046743D1*
X1085412D2*
X1131755D1*
X1136701D2*
X1146206D1*
X1174155D2*
X1179756D1*
X1208970D2*
X1286763D1*
X1294077D2*
X1479879D1*
X656624Y1740491D2*
X959258D1*
X966659D2*
X1005615D1*
X1037312D2*
X1051186D1*
X1084656D2*
X1129891D1*
X1138939D2*
X1148043D1*
X1175452D2*
X1180927D1*
X1209959D2*
X1286763D1*
X1292330D2*
X1490219D1*
X663402Y1737499D2*
X805051D1*
X823249D2*
X961307D1*
X968242D2*
X1007454D1*
X1041341D2*
X1055761D1*
X1085106D2*
X1128424D1*
X1141051D2*
X1149727D1*
X1176762D2*
X1181965D1*
X1210751D2*
X1277787D1*
X1290930D2*
X1489208D1*
X669929Y1734507D2*
X787099D1*
X842130D2*
X963627D1*
X969611D2*
X1009376D1*
X1045394D2*
X1060632D1*
X1086122D2*
X1126892D1*
X1143138D2*
X1151315D1*
X1177934D2*
X1183014D1*
X1211187D2*
X1277787D1*
X1289755D2*
X1488423D1*
X676323Y1731515D2*
X817019D1*
X862128D2*
X1011583D1*
X1049415D2*
X1065930D1*
X1087748D2*
X1125195D1*
X1145124D2*
X1152858D1*
X1178973D2*
X1183941D1*
X1210575D2*
X1487996D1*
X683046Y1728523D2*
X846939D1*
X882843D2*
X891819D1*
X911113D2*
X1016541D1*
X1053454D2*
X1071458D1*
X1090084D2*
X1126565D1*
X1147116D2*
X1154465D1*
X1180034D2*
X1184628D1*
X1209792D2*
X1488726D1*
X690750Y1725531D2*
X891819D1*
X928907D2*
X1023850D1*
X1057785D2*
X1076805D1*
X1093297D2*
X1127319D1*
X1149153D2*
X1156252D1*
X1181054D2*
X1185310D1*
X1208932D2*
X1489895D1*
X699691Y1722539D2*
X927723D1*
X945675D2*
X1033522D1*
X1062363D2*
X1081618D1*
X1097696D2*
X1127396D1*
X1151119D2*
X1158193D1*
X1182018D2*
X1186162D1*
X1207956D2*
X1271803D1*
X1277787D2*
X1491472D1*
X709307Y1719547D2*
X748203D1*
X757179D2*
X954651D1*
X966619D2*
X1044411D1*
X1056379D2*
X1085979D1*
X1103110D2*
X1126966D1*
X1153104D2*
X1160131D1*
X1183034D2*
X1186996D1*
X1207069D2*
X1493227D1*
X760159Y1716555D2*
X963627D1*
X972603D2*
X1090167D1*
X1108585D2*
X1126364D1*
X1155138D2*
X1162206D1*
X1183948D2*
X1187644D1*
X1206498D2*
X1268811D1*
X1274795D2*
X1494741D1*
X763058Y1713563D2*
X1094146D1*
X1113450D2*
X1131735D1*
X1157115D2*
X1164615D1*
X1184631D2*
X1188310D1*
X1206212D2*
X1495984D1*
X765797Y1710571D2*
X1023467D1*
X1050395D2*
X1097848D1*
X1118204D2*
X1140767D1*
X1159205D2*
X1167307D1*
X1185311D2*
X1189157D1*
X1206192D2*
X1497229D1*
X768711Y1707579D2*
X1026459D1*
X1038427D2*
X1101541D1*
X1123697D2*
X1152123D1*
X1161620D2*
X1170163D1*
X1186162D2*
X1189977D1*
X1206600D2*
X1498576D1*
X772918Y1704587D2*
X1105493D1*
X1130160D2*
X1150721D1*
X1164314D2*
X1173100D1*
X1186984D2*
X1190531D1*
X1207601D2*
X1385499D1*
X1391483D2*
X1499995D1*
X779908Y1701595D2*
X1109690D1*
X1137163D2*
X1149131D1*
X1167171D2*
X1176071D1*
X1187530D2*
X1190921D1*
X1208971D2*
X1244875D1*
X1253851D2*
X1385499D1*
X1391483D2*
X1501449D1*
X790802Y1698603D2*
X1113953D1*
X1170108D2*
X1179055D1*
X1187830D2*
X1191432D1*
X1207712D2*
X1247867D1*
X1256843D2*
X1385499D1*
X1391483D2*
X1502824D1*
X805596Y1695611D2*
X945675D1*
X952448D2*
X1118103D1*
X1173079D2*
X1182043D1*
X1188027D2*
X1192202D1*
X1206964D2*
X1503960D1*
X822869Y1692619D2*
X906779D1*
X969099D2*
X1122128D1*
X1176051D2*
X1193001D1*
X1207793D2*
X1504972D1*
X840955Y1689627D2*
X882843D1*
X983710D2*
X1050395D1*
X1089291D2*
X1126179D1*
X1178936D2*
X1193636D1*
X1208971D2*
X1506201D1*
X996539Y1686635D2*
X1092283D1*
X1098267D2*
X1130191D1*
X1181545D2*
X1194297D1*
X1207590D2*
X1509797D1*
X1006644Y1683643D2*
X1134146D1*
X1183820D2*
X1195153D1*
X1206727D2*
X1514155D1*
X1013453Y1680651D2*
X1138155D1*
X1186045D2*
X1196090D1*
X1206270D2*
X1511163D1*
X1017790Y1677659D2*
X1142060D1*
X1188504D2*
X1197119D1*
X1211963D2*
X1405893D1*
X1412427D2*
X1433371D1*
X1439355D2*
X1508171D1*
X1020914Y1674667D2*
X1145747D1*
X1191113D2*
X1198513D1*
X1211975D2*
X1404843D1*
X1412427D2*
X1512753D1*
X1023745Y1671675D2*
X1149524D1*
X1193585D2*
X1200231D1*
X1212103D2*
X1372908D1*
X1382507D2*
X1391606D1*
X1397467D2*
X1403451D1*
X1412427D2*
X1517147D1*
X1026596Y1668683D2*
X1153748D1*
X1195703D2*
X1201967D1*
X1212419D2*
X1374825D1*
X1385499D2*
X1392070D1*
X1412427D2*
X1418534D1*
X1424395D2*
X1516288D1*
X1029522Y1665691D2*
X1158267D1*
X1197515D2*
X1203608D1*
X1214094D2*
X1375553D1*
X1388491D2*
X1393094D1*
X1412427D2*
X1416006D1*
X1424395D2*
X1427387D1*
X1432783D2*
X1517112D1*
X1032606Y1662699D2*
X1162464D1*
X1199156D2*
X1205180D1*
X1216240D2*
X1371885D1*
X1391483D2*
X1394475D1*
X1412427D2*
X1414038D1*
X1434533D2*
X1518035D1*
X1036211Y1659707D2*
X1165894D1*
X1200707D2*
X1206715D1*
X1218314D2*
X1367547D1*
X1412427D2*
D3*
X1435535D2*
X1518691D1*
X1041062Y1656715D2*
X1168681D1*
X1202228D2*
X1208304D1*
X1218611D2*
X1368928D1*
X1436021D2*
X1519609D1*
X1048088Y1653723D2*
X1171468D1*
X1203739D2*
X1210055D1*
X1218367D2*
X1369776D1*
X1424395D2*
D3*
X1436231D2*
X1521181D1*
X1058152Y1650731D2*
X1174727D1*
X1205318D2*
X1211963D1*
X1217947D2*
X1370097D1*
X1423003D2*
X1427387D1*
X1436317D2*
X1523038D1*
X1071380Y1647739D2*
X1178237D1*
X1207065D2*
X1369827D1*
X1422078D2*
X1430379D1*
X1436363D2*
X1524695D1*
X1086299Y1644747D2*
X1181634D1*
X1208971D2*
X1368885D1*
X1412427D2*
X1526123D1*
X1127611Y1641755D2*
X1164079D1*
X1170537D2*
X1184855D1*
X1205979D2*
X1367547D1*
X1412427D2*
X1508171D1*
X1126474Y1638763D2*
X1163974D1*
X1174260D2*
X1187959D1*
X1202987D2*
X1372431D1*
X1404417D2*
X1520139D1*
X1124795Y1635771D2*
X1143147D1*
X1149131D2*
X1163593D1*
X1177921D2*
X1191019D1*
X1199995D2*
X1208971D1*
X1226221D2*
X1376315D1*
X1398775D2*
X1517147D1*
X1122843Y1632779D2*
X1140155D1*
X1146139D2*
X1162876D1*
X1181054D2*
X1205979D1*
X1227995D2*
X1379515D1*
X1394475D2*
X1518310D1*
X1117836Y1629787D2*
X1162109D1*
X1183583D2*
X1210350D1*
X1228214D2*
X1518040D1*
X1109818Y1626795D2*
X1161585D1*
X1185816D2*
X1213707D1*
X1228398D2*
X1516717D1*
X1100086Y1623803D2*
X1161292D1*
X1188027D2*
X1216563D1*
X1230244D2*
X1515543D1*
X1550059D2*
X1576987D1*
X1091479Y1620811D2*
X1161099D1*
X1173067D2*
X1219174D1*
X1232777D2*
X1514745D1*
X1540533D2*
X1580402D1*
X1085216Y1617819D2*
X1221660D1*
X1235567D2*
X1505179D1*
X1530507D2*
X1583390D1*
X1080315Y1614827D2*
X1224251D1*
X1238771D2*
X1505179D1*
X1520139D2*
X1584568D1*
X1086299Y1611835D2*
X1226923D1*
X1242948D2*
X1584273D1*
X1085081Y1608843D2*
X1199995D1*
X1205979D2*
X1223931D1*
X1247867D2*
X1583654D1*
X1084265Y1605851D2*
X1228700D1*
X1246278D2*
X1582971D1*
X1087940Y1602859D2*
X1232907D1*
X1244875D2*
X1588725D1*
X1092283Y1599867D2*
X1229915D1*
X1250651D2*
X1593436D1*
X1085925Y1596875D2*
X1241322D1*
X1255493D2*
X1597286D1*
X1080315Y1593883D2*
X1253851D1*
X1259835D2*
X1600558D1*
X1083307Y1590891D2*
X1603314D1*
X1080865Y1587899D2*
X1605543D1*
X1078923Y1584907D2*
X1083307D1*
X1089879D2*
X1263414D1*
X1275345D2*
X1607396D1*
X1077323Y1581915D2*
X1080315D1*
X1088118D2*
X1264646D1*
X1276395D2*
X1609052D1*
X1087010Y1578923D2*
X1266567D1*
X1277787D2*
X1585501D1*
X1591947D2*
X1610609D1*
X1086131Y1575931D2*
X1268811D1*
X1274795D2*
X1584759D1*
X1591947D2*
X1612131D1*
X1085090Y1572939D2*
X1265819D1*
X1271803D2*
X1583984D1*
X1591947D2*
X1613633D1*
X1083769Y1569947D2*
X1113227D1*
X1119211D2*
X1583472D1*
X1591947D2*
X1615123D1*
X1082147Y1566955D2*
X1583299D1*
X1591947D2*
X1616513D1*
X1080315Y1563963D2*
X1109773D1*
X1116105D2*
X1583553D1*
X1591947D2*
X1617630D1*
X1086299Y1560971D2*
X1109031D1*
X1115722D2*
X1584218D1*
X1591947D2*
X1618407D1*
X1085032Y1557979D2*
X1108256D1*
X1115005D2*
X1584972D1*
X1591947D2*
X1619127D1*
X1084257Y1554987D2*
X1107732D1*
X1114237D2*
X1585532D1*
X1591947D2*
X1619993D1*
X1084764Y1551995D2*
X1107453D1*
X1113713D2*
X1585963D1*
X1591947D2*
X1620821D1*
X1085394Y1549003D2*
X1107321D1*
X1113420D2*
X1621366D1*
X1085852Y1546011D2*
X1107243D1*
X1113227D2*
X1621652D1*
X1086103Y1543019D2*
X1621782D1*
X1086209Y1540027D2*
X1621835D1*
X1086153Y1537035D2*
X1621856D1*
X1085790Y1534043D2*
X1146253D1*
X1151661D2*
X1403451D1*
X1436363D2*
X1621851D1*
X1085081Y1531051D2*
X1143656D1*
X1150918D2*
X1430379D1*
X1439355D2*
X1621749D1*
X1084316Y1528059D2*
X1141487D1*
X1150136D2*
X1621368D1*
X1083795Y1525067D2*
X1139655D1*
X1149567D2*
X1620640D1*
X1083506Y1522075D2*
X1138018D1*
X1149131D2*
X1619768D1*
X1083251Y1519083D2*
X1136557D1*
X1156732D2*
X1463291D1*
X1468225D2*
X1618853D1*
X1082869Y1516091D2*
X1135324D1*
X1163078D2*
X1325671D1*
X1334635D2*
X1343611D1*
X1349607D2*
X1466283D1*
X1472225D2*
X1617745D1*
X1081344Y1513099D2*
X1134250D1*
X1168339D2*
X1325776D1*
X1334635D2*
X1340619D1*
X1349759D2*
X1469275D1*
X1475444D2*
X1616381D1*
X1077667Y1510107D2*
X1133087D1*
X1173067D2*
D3*
X1179601D2*
X1326157D1*
X1334635D2*
X1337627D1*
X1350144D2*
X1365105D1*
X1371013D2*
X1472267D1*
X1478397D2*
X1553741D1*
X1566847D2*
X1614737D1*
X1072808Y1507115D2*
X1131776D1*
X1180651D2*
X1197003D1*
X1202987D2*
X1214955D1*
X1220939D2*
X1326886D1*
X1352196D2*
X1363163D1*
X1368880D2*
X1475259D1*
X1481313D2*
X1561239D1*
X1576445D2*
X1612891D1*
X1067187Y1504123D2*
X1130360D1*
X1182043D2*
X1185035D1*
X1191019D2*
X1197003D1*
X1202987D2*
X1327758D1*
X1356284D2*
X1361563D1*
X1367161D2*
X1478251D1*
X1484235D2*
X1569490D1*
X1584901D2*
X1617956D1*
X1061663Y1501131D2*
X1128794D1*
X1217947D2*
X1328661D1*
X1365896D2*
X1412901D1*
X1423807D2*
X1577825D1*
X1592926D2*
X1623811D1*
X1056929Y1498139D2*
X1126922D1*
X1219104D2*
X1329655D1*
X1365059D2*
X1413772D1*
X1428549D2*
X1480769D1*
X1486753D2*
X1585963D1*
X1600923D2*
X1630041D1*
X1053268Y1495147D2*
X1124610D1*
X1222624D2*
X1232907D1*
X1241883D2*
X1330549D1*
X1364316D2*
X1415150D1*
X1432531D2*
X1482902D1*
X1488886D2*
X1603915D1*
X1618875D2*
X1636081D1*
X1050580Y1492155D2*
X1121976D1*
X1226923D2*
X1229915D1*
X1241883D2*
X1331135D1*
X1363441D2*
X1417270D1*
X1435892D2*
X1484622D1*
X1490606D2*
X1606907D1*
X1624859D2*
X1641929D1*
X1048418Y1489163D2*
X1101847D1*
X1113227D2*
X1119211D1*
X1241883D2*
X1244875D1*
X1250859D2*
X1331538D1*
X1362610D2*
X1420246D1*
X1438608D2*
X1485884D1*
X1491868D2*
X1609899D1*
X1630843D2*
X1647960D1*
X1046293Y1486171D2*
X1100086D1*
X1241883D2*
X1244875D1*
X1250859D2*
X1332053D1*
X1362064D2*
X1423644D1*
X1440574D2*
X1486669D1*
X1492653D2*
X1654231D1*
X1043880Y1483179D2*
X1098978D1*
X1263497D2*
X1332825D1*
X1361778D2*
X1427000D1*
X1441997D2*
X1487227D1*
X1493211D2*
X1511163D1*
X1517147D2*
X1660476D1*
X1041191Y1480187D2*
X1098099D1*
X1272777D2*
X1333613D1*
X1361648D2*
X1430205D1*
X1443225D2*
X1511163D1*
X1517147D2*
X1603915D1*
X1616094D2*
X1666617D1*
X1038337Y1477195D2*
X1059371D1*
X1065355D2*
X1097068D1*
X1279554D2*
X1298731D1*
X1304715D2*
X1334143D1*
X1361595D2*
X1433300D1*
X1444321D2*
X1490219D1*
X1496203D2*
X1511163D1*
X1517147D2*
X1603903D1*
X1627803D2*
X1672678D1*
X1035401Y1474203D2*
X1056379D1*
X1062363D2*
X1095824D1*
X1282135D2*
X1298731D1*
X1304715D2*
X1334423D1*
X1361574D2*
X1436336D1*
X1445392D2*
X1490219D1*
X1496203D2*
X1603798D1*
X1638104D2*
X1678683D1*
X1032443Y1471211D2*
X1094437D1*
X1283017D2*
X1298731D1*
X1304715D2*
X1334551D1*
X1361567D2*
X1439346D1*
X1446741D2*
X1490219D1*
X1496203D2*
X1603417D1*
X1646526D2*
X1664305D1*
X1669739D2*
X1684575D1*
X1029564Y1468219D2*
X1047403D1*
X1053387D2*
X1092883D1*
X1283466D2*
X1298731D1*
X1304715D2*
X1334604D1*
X1361564D2*
X1442347D1*
X1448331D2*
X1490219D1*
X1496203D2*
X1602700D1*
X1653384D2*
X1668347D1*
X1675723D2*
X1690182D1*
X1026956Y1465227D2*
X1091016D1*
X1283657D2*
X1298731D1*
X1304715D2*
X1334624D1*
X1361575D2*
X1490219D1*
X1496203D2*
X1601933D1*
X1659200D2*
X1672731D1*
X1681707D2*
X1695440D1*
X1024681Y1462235D2*
X1088703D1*
X1283730D2*
X1298731D1*
X1304715D2*
X1334631D1*
X1361680D2*
X1490219D1*
X1496203D2*
X1508171D1*
X1514155D2*
X1601400D1*
X1664625D2*
X1681707D1*
X1687679D2*
X1700552D1*
X1022469Y1459243D2*
X1086040D1*
X1283757D2*
X1298731D1*
X1304715D2*
X1334634D1*
X1362061D2*
X1490219D1*
X1496203D2*
X1508171D1*
X1514155D2*
X1601005D1*
X1670065D2*
X1685612D1*
X1693558D2*
X1705621D1*
X1020104Y1456251D2*
X1083105D1*
X1283767D2*
X1298731D1*
X1304715D2*
X1334635D1*
X1362790D2*
X1490219D1*
X1496203D2*
X1508171D1*
X1514155D2*
X1600380D1*
X1675420D2*
X1689994D1*
X1699149D2*
X1710495D1*
X1017770Y1453259D2*
X1035435D1*
X1041419D2*
X1079886D1*
X1283770D2*
X1298731D1*
X1304715D2*
X1334635D1*
X1363662D2*
X1490219D1*
X1496203D2*
X1508171D1*
X1514155D2*
X1599113D1*
X1680559D2*
X1694259D1*
X1704300D2*
X1715086D1*
X1015622Y1450267D2*
X1032443D1*
X1038427D2*
X1076477D1*
X1283771D2*
X1298731D1*
X1304715D2*
X1334635D1*
X1364577D2*
X1490219D1*
X1496203D2*
X1508171D1*
X1514155D2*
X1597111D1*
X1685610D2*
X1697976D1*
X1709018D2*
X1719270D1*
X1013450Y1447275D2*
X1029451D1*
X1035435D2*
X1073061D1*
X1283771D2*
X1298731D1*
X1304715D2*
X1334635D1*
X1365676D2*
X1490219D1*
X1496203D2*
X1508171D1*
X1514155D2*
X1594600D1*
X1690555D2*
X1701579D1*
X1713266D2*
X1722857D1*
X1011011Y1444283D2*
X1069589D1*
X1283771D2*
X1298731D1*
X1304715D2*
X1334635D1*
X1366951D2*
X1508171D1*
X1514155D2*
X1591816D1*
X1695052D2*
X1705454D1*
X1716991D2*
X1725705D1*
X1008409Y1441291D2*
X1065970D1*
X1283771D2*
X1298731D1*
X1304715D2*
X1334635D1*
X1368254D2*
X1508171D1*
X1514155D2*
X1588907D1*
X1699030D2*
X1709539D1*
X1720345D2*
X1727957D1*
X1005928Y1438299D2*
X1062226D1*
X1283771D2*
X1298731D1*
X1304715D2*
X1334635D1*
X1369436D2*
X1487113D1*
X1493097D2*
X1508171D1*
X1514155D2*
X1585935D1*
X1702850D2*
X1713624D1*
X1723501D2*
X1728791D1*
X1003706Y1435307D2*
X1020475D1*
X1026459D2*
X1058315D1*
X1283771D2*
X1298731D1*
X1304715D2*
X1334635D1*
X1370590D2*
X1486718D1*
X1492714D2*
X1508171D1*
X1514155D2*
X1582848D1*
X1706877D2*
X1717611D1*
X1726587D2*
X1729243D1*
X1001502Y1432315D2*
X1054461D1*
X1283771D2*
X1298731D1*
X1304715D2*
X1334635D1*
X1372137D2*
X1485896D1*
X1491997D2*
X1508171D1*
X1514155D2*
X1579479D1*
X1711324D2*
X1729447D1*
X999039Y1429323D2*
X1050907D1*
X1283771D2*
X1298731D1*
X1304715D2*
X1334635D1*
X1374267D2*
X1484735D1*
X1491218D2*
X1508171D1*
X1514155D2*
X1575760D1*
X1716536D2*
X1729531D1*
X996315Y1426331D2*
X1047623D1*
X1283771D2*
X1298731D1*
X1304715D2*
X1334635D1*
X1376831D2*
X1483380D1*
X1490590D2*
X1508171D1*
X1514155D2*
X1571884D1*
X1722768D2*
X1729563D1*
X993346Y1423339D2*
X1008507D1*
X1014491D2*
X1044486D1*
X1283771D2*
X1298731D1*
X1304715D2*
X1334635D1*
X1379635D2*
X1481837D1*
X1489943D2*
X1508171D1*
X1514155D2*
X1567849D1*
X1729579D2*
D3*
X990014Y1420347D2*
X1041335D1*
X1283771D2*
X1298719D1*
X1304715D2*
X1334635D1*
X1382563D2*
X1479974D1*
X1489240D2*
X1508171D1*
X1514155D2*
X1563108D1*
X986208Y1417355D2*
X1037940D1*
X1283759D2*
X1298614D1*
X1304703D2*
X1334635D1*
X1385632D2*
X1477662D1*
X1488681D2*
X1508171D1*
X1514155D2*
X1556784D1*
X981970Y1414363D2*
X1034213D1*
X1283654D2*
X1298233D1*
X1304598D2*
X1334635D1*
X1388995D2*
X1474999D1*
X1489914D2*
X1508171D1*
X1514155D2*
X1547904D1*
X977373Y1411371D2*
X1030346D1*
X1283273D2*
X1297516D1*
X1304217D2*
X1334635D1*
X1392700D2*
X1472053D1*
X1493406D2*
X1508171D1*
X1514155D2*
X1536245D1*
X972726Y1408379D2*
X1026438D1*
X1282556D2*
X1296749D1*
X1303500D2*
X1334635D1*
X1396469D2*
X1468729D1*
X1496937D2*
X1508171D1*
X1514155D2*
X1523131D1*
X879851Y1405387D2*
D3*
X968629D2*
X1022335D1*
X1281789D2*
X1296227D1*
X1302733D2*
X1334635D1*
X1400111D2*
X1464927D1*
X1499933D2*
X1508171D1*
X1514155D2*
X1522669D1*
X877573Y1402395D2*
X885835D1*
X964819D2*
X1017950D1*
X1281267D2*
X1295950D1*
X1302211D2*
X1334635D1*
X1403992D2*
X1460679D1*
X1501105D2*
X1508171D1*
X1514155D2*
X1521927D1*
X875834Y1399403D2*
X894519D1*
X959402D2*
X1013181D1*
X1280990D2*
X1295823D1*
X1301934D2*
X1334635D1*
X1408778D2*
X1455961D1*
X1501839D2*
X1508171D1*
X1514155D2*
X1521152D1*
X876100Y1396411D2*
X904670D1*
X950646D2*
X1008003D1*
X1280863D2*
X1295771D1*
X1301807D2*
X1334635D1*
X1414760D2*
X1450764D1*
X1502503D2*
X1508171D1*
X1514155D2*
X1520628D1*
X878172Y1393419D2*
X915755D1*
X939691D2*
X1002649D1*
X1280811D2*
X1295750D1*
X1301755D2*
X1334635D1*
X1421403D2*
X1445339D1*
X1503335D2*
X1508171D1*
X1514155D2*
X1520350D1*
X882617Y1390427D2*
X997156D1*
X1280790D2*
X1295743D1*
X1301734D2*
X1334635D1*
X1504145D2*
X1520223D1*
X888399Y1387435D2*
X991285D1*
X1280771D2*
X1295729D1*
X1301727D2*
X1334635D1*
X1504683D2*
X1520171D1*
X894861Y1384443D2*
X985074D1*
X1280664D2*
X1295614D1*
X1301724D2*
X1334635D1*
X1504977D2*
X1520150D1*
X901025Y1381451D2*
X978825D1*
X1280281D2*
X1295151D1*
X1301724D2*
X1334635D1*
X1505211D2*
X1520143D1*
X906779Y1378459D2*
X972603D1*
X1279564D2*
X1294128D1*
X1301723D2*
X1334635D1*
X1505646D2*
X1520152D1*
X1278797Y1375467D2*
X1292747D1*
X1301723D2*
X1334635D1*
X1506383D2*
X1520256D1*
X1278275Y1372475D2*
X1294128D1*
X1301735D2*
X1334635D1*
X1507169D2*
X1520649D1*
X1277998Y1369483D2*
X1294999D1*
X1301840D2*
X1334635D1*
X1507798D2*
X1521482D1*
X1277871Y1366491D2*
X1295539D1*
X1302221D2*
X1334635D1*
X1508458D2*
X1522736D1*
X1277819Y1363499D2*
X1296113D1*
X1302938D2*
X1334635D1*
X1509302D2*
X1524367D1*
X1277798Y1360507D2*
X1296908D1*
X1303705D2*
X1334635D1*
X1510133D2*
X1526234D1*
X1277791Y1357515D2*
X1297705D1*
X1304227D2*
X1334635D1*
X1510780D2*
X1528031D1*
X1277788Y1354523D2*
X1298237D1*
X1304504D2*
X1334635D1*
X1511447D2*
X1517609D1*
X1523593D2*
X1529611D1*
X1277788Y1351531D2*
X1298518D1*
X1304631D2*
X1334635D1*
X1512304D2*
X1518363D1*
X1524347D2*
X1530908D1*
X1277799Y1348539D2*
X1298647D1*
X1304684D2*
X1334635D1*
X1513230D2*
X1519243D1*
X1525227D2*
X1531998D1*
X1277904Y1345547D2*
X1298699D1*
X1304704D2*
X1334623D1*
X1514165D2*
X1520148D1*
X1526144D2*
X1533067D1*
X1278297Y1342555D2*
X1298720D1*
X1304711D2*
X1334518D1*
X1515272D2*
X1521154D1*
X1527244D2*
X1534001D1*
X1279119Y1339563D2*
X1298727D1*
X1304714D2*
X1334125D1*
X1516550D2*
X1522154D1*
X1528531D2*
X1534691D1*
X1280279Y1336571D2*
X1298730D1*
X1304715D2*
X1333280D1*
X1517853D2*
X1523110D1*
X1529927D2*
X1535385D1*
X1281634Y1333579D2*
X1298731D1*
X1304715D2*
X1331898D1*
X1519024D2*
X1524135D1*
X1531373D2*
X1536342D1*
X1283177Y1330587D2*
X1329686D1*
X1520073D2*
X1525142D1*
X1532758D2*
X1537558D1*
X1285029Y1327595D2*
X1326446D1*
X1521227D2*
X1526100D1*
X1533962D2*
X1538923D1*
X1287224Y1324603D2*
X1322830D1*
X1522524D2*
X1527127D1*
X1535025D2*
X1540368D1*
X1289376Y1321611D2*
X1319511D1*
X1523834D2*
X1528134D1*
X1536184D2*
X1541841D1*
X1291003Y1318619D2*
X1317883D1*
X1525006D2*
X1529104D1*
X1537494D2*
X1543332D1*
X1291952Y1315627D2*
X1317703D1*
X1526056D2*
X1530224D1*
X1538899D2*
X1544835D1*
X1292417Y1312635D2*
X1318127D1*
X1527211D2*
X1531519D1*
X1540359D2*
X1546426D1*
X1292619Y1309643D2*
X1318865D1*
X1528519D2*
X1532918D1*
X1541838D2*
X1548207D1*
X1292700Y1306651D2*
X1319727D1*
X1529923D2*
X1534376D1*
X1543331D2*
X1550134D1*
X1292742Y1303659D2*
X1320806D1*
X1531383D2*
X1535866D1*
X1544835D2*
X1551966D1*
X1292858Y1300667D2*
X1322086D1*
X1532862D2*
X1537452D1*
X1546426D2*
X1553648D1*
X1293243Y1297675D2*
X1323480D1*
X1534355D2*
X1539232D1*
X1548207D2*
X1555235D1*
X1293973Y1294683D2*
X1324937D1*
X1535859D2*
X1541158D1*
X1550134D2*
X1556767D1*
X1294857Y1291691D2*
X1326415D1*
X1537450D2*
X1542990D1*
X1551954D2*
X1558268D1*
X1295866Y1288699D2*
X1327907D1*
X1539219D2*
X1544684D1*
X1553543D2*
X1559674D1*
X1297253Y1285707D2*
X1329399D1*
X1541053D2*
X1546365D1*
X1554842D2*
X1560886D1*
X1298969Y1282715D2*
X1330897D1*
X1542597D2*
X1548175D1*
X1555936D2*
X1561940D1*
X1300703Y1279723D2*
X1332390D1*
X1543850D2*
X1550045D1*
X1557031D2*
X1562995D1*
X1302356Y1276731D2*
X1333888D1*
X1545099D2*
X1551664D1*
X1558083D2*
X1563912D1*
X1304021Y1273739D2*
X1335382D1*
X1546447D2*
X1553051D1*
X1559035D2*
X1564495D1*
X1305835Y1270747D2*
X1336880D1*
X1547878D2*
X1564784D1*
X1307786Y1267755D2*
X1338386D1*
X1549449D2*
X1564805D1*
X1309717Y1264763D2*
X1339977D1*
X1551314D2*
X1564398D1*
X1311688Y1261771D2*
X1341759D1*
X1553579D2*
X1563397D1*
X1313705Y1258779D2*
X1343686D1*
X1556043D2*
X1562027D1*
X1315563Y1255787D2*
X1345506D1*
X1317166Y1252795D2*
X1347095D1*
X1318472Y1249803D2*
X1348394D1*
X1319564Y1246811D2*
X1349485D1*
X1320646Y1243819D2*
X1350555D1*
X1321674Y1240827D2*
X1351489D1*
X1322640Y1237835D2*
X1352179D1*
X1323658Y1234843D2*
X1352861D1*
X1324572Y1231851D2*
X1353714D1*
X1325255Y1228859D2*
X1354548D1*
X1325946Y1225867D2*
X1355208D1*
X1326973Y1222875D2*
X1355991D1*
X1328342Y1219883D2*
X1357335D1*
X1332250Y1216891D2*
X1359371D1*
X1337795Y1213899D2*
X1361907D1*
X1343452Y1210907D2*
X1364789D1*
X1347647Y1207915D2*
X1367964D1*
X1350736Y1204923D2*
X1371144D1*
X1352159Y1201931D2*
X1373677D1*
X1353427Y1198939D2*
X1375501D1*
X1354548Y1195947D2*
X1376169D1*
X1355663Y1192955D2*
X1376952D1*
X1357179Y1189963D2*
X1378289D1*
X1359195Y1186971D2*
X1380319D1*
X1361363Y1183979D2*
X1382829D1*
X1363332Y1180987D2*
X1385500D1*
X1364994Y1177995D2*
X1387923D1*
X1366326Y1175003D2*
X1389787D1*
X1367432Y1172011D2*
X1391284D1*
X1368533Y1169019D2*
X1392983D1*
X1369586Y1166027D2*
X1395175D1*
X1370539Y1163035D2*
X1376523D1*
X1382519D2*
X1397750D1*
X1382624Y1160043D2*
X1400446D1*
X1383017Y1157051D2*
X1402867D1*
X1383850Y1154059D2*
X1404628D1*
X1385104Y1151067D2*
X1405745D1*
X1386735Y1148075D2*
X1406717D1*
X1388613Y1145083D2*
X1408024D1*
X1390528Y1142091D2*
X1409603D1*
X1392594Y1139099D2*
X1411029D1*
X1395001Y1136107D2*
X1412209D1*
X1397691Y1133115D2*
X1413220D1*
X1400547Y1130123D2*
X1414019D1*
X1403482Y1127131D2*
X1413409D1*
X1406443Y1124139D2*
X1412427D1*
X1128187Y2162363D2*
X1121884Y2159371D1*
X1117142Y2156379D1*
X1113974Y2153387D1*
X1111937Y2150395D1*
X1110535Y2147403D1*
X1109344Y2144411D1*
X1108377Y2141419D1*
X1107776Y2138427D1*
X1107470Y2135435D1*
X1107332Y2132443D1*
X1107265Y2129451D1*
X1107126Y2126459D1*
X1106632Y2123467D1*
X1105531Y2120475D1*
X1104035Y2117483D1*
X1102641Y2114491D1*
X1101460Y2111499D1*
X1100339Y2108507D1*
X1099393Y2105515D1*
X1098798Y2102523D1*
X1098481Y2099531D1*
X1098239Y2096539D1*
X1097790Y2093547D1*
X1096947Y2090555D1*
X1095779Y2087563D1*
X1094433Y2084571D1*
X1093006Y2081579D1*
X1091641Y2078587D1*
X1090543Y2075595D1*
X1089875Y2072603D1*
X1089537Y2069611D1*
X1089388Y2066619D1*
X1089327Y2063627D1*
X1089304Y2060635D1*
X1089295Y2057643D1*
X1089304Y2054651D1*
X1089408Y2051659D1*
X1089789Y2048667D1*
X1090506Y2045675D1*
X1091273Y2042683D1*
X1091795Y2039691D1*
X1092072Y2036699D1*
X1092199Y2033707D1*
X1092252Y2030715D1*
X1092272Y2027723D1*
X1092283Y2024731D1*
X1179051Y2162363D2*
X1185509Y2159371D1*
X1192328Y2156379D1*
X1199375Y2153387D1*
X1206312Y2150395D1*
X1212889Y2147403D1*
X1218985Y2144411D1*
X1224458Y2141419D1*
X1229443Y2138427D1*
X1234625Y2135435D1*
X1240230Y2132443D1*
X1245784Y2129451D1*
X1250861Y2126459D1*
X1255319Y2123467D1*
X1259145Y2120475D1*
X1262541Y2117483D1*
X1265709Y2114491D1*
X1268759Y2111499D1*
X1271672Y2108507D1*
X1274292Y2105515D1*
X1276571Y2102523D1*
X1278797Y2099531D1*
X1281267Y2096539D1*
X1283970Y2093547D1*
X1286730Y2090555D1*
X1289288Y2087563D1*
X1291544Y2084571D1*
X1293749Y2081579D1*
X1296112Y2078587D1*
X1298444Y2075595D1*
X1300581Y2072603D1*
X1302648Y2069611D1*
X1304705Y2066619D1*
X1306590Y2063627D1*
X1308293Y2060635D1*
X1309888Y2057643D1*
X1311422Y2054651D1*
X1312936Y2051659D1*
X1314435Y2048667D1*
X1315935Y2045675D1*
X1317430Y2042683D1*
X1318928Y2039691D1*
X1320422Y2036699D1*
X1321920Y2033707D1*
X1323414Y2030715D1*
X1324912Y2027723D1*
X1326406Y2024731D1*
X1327904Y2021739D1*
X1329398Y2018747D1*
X1330896Y2015755D1*
X1332390Y2012763D1*
X1333877Y2009771D1*
X1335277Y2006779D1*
X1336487Y2003787D1*
X1337552Y2000795D1*
X1338712Y1997803D1*
X1340022Y1994811D1*
X1341427Y1991819D1*
X1342887Y1988827D1*
X1344378Y1985835D1*
X1345964Y1982843D1*
X1347744Y1979851D1*
X1349670Y1976859D1*
X1351502Y1973867D1*
X1353184Y1970875D1*
X1354771Y1967883D1*
X1356303Y1964891D1*
X1357816Y1961899D1*
X1359315Y1958907D1*
X1360815Y1955915D1*
X1362310Y1952923D1*
X1363808Y1949931D1*
X1365302Y1946939D1*
X1366800Y1943947D1*
X1368294Y1940955D1*
X1369792Y1937963D1*
X1371286Y1934971D1*
X1372784Y1931979D1*
X1374278Y1928987D1*
X1375765Y1925995D1*
X1377165Y1923003D1*
X1378375Y1920011D1*
X1379440Y1917019D1*
X1380600Y1914027D1*
X1381899Y1911035D1*
X1383210Y1908043D1*
X1384382Y1905051D1*
X1385432Y1902059D1*
X1386587Y1899067D1*
X1387884Y1896075D1*
X1389194Y1893083D1*
X1390366Y1890091D1*
X1391416Y1887099D1*
X1392571Y1884107D1*
X1393868Y1881115D1*
X1395178Y1878123D1*
X1396350Y1875131D1*
X1397400Y1872139D1*
X1398555Y1869147D1*
X1399852Y1866155D1*
X1401162Y1863163D1*
X1402334Y1860171D1*
X1403373Y1857179D1*
X1404434Y1854187D1*
X1405454Y1851195D1*
X1406418Y1848203D1*
X1407446Y1845211D1*
X1408454Y1842219D1*
X1409412Y1839227D1*
X1410439Y1836235D1*
X1411446Y1833243D1*
X1412404Y1830251D1*
X1413419Y1827259D1*
X1414333Y1824267D1*
X1415015Y1821275D1*
X1415695Y1818283D1*
X1416546Y1815291D1*
X1417368Y1812299D1*
X1417911Y1809307D1*
X1418196Y1806315D1*
X1418326Y1803323D1*
X1418379Y1800331D1*
X1418400Y1797339D1*
X1418411Y1794347D1*
X1125195Y2159371D2*
X1129100Y2156379D1*
X1133471Y2153387D1*
X1137631Y2150395D1*
X1140954Y2147403D1*
X1143735Y2144411D1*
X1146459Y2141419D1*
X1149279Y2138427D1*
X1152185Y2135435D1*
X1155139Y2132443D1*
X1158116Y2129451D1*
X1161102Y2126459D1*
X1164092Y2123467D1*
X1167083Y2120475D1*
X1170075Y2117483D1*
X1152123Y2159371D2*
X1155103Y2156379D1*
X1157990Y2153387D1*
X1160589Y2150395D1*
X1162759Y2147403D1*
X1164591Y2144411D1*
X1166240Y2141419D1*
X1167794Y2138427D1*
X1169304Y2135435D1*
X1170712Y2132443D1*
X1171926Y2129451D1*
X1172982Y2126459D1*
X1174063Y2123467D1*
X1175110Y2120475D1*
X1176059Y2117483D1*
Y2156379D2*
X1179525Y2153387D1*
X1183364Y2150395D1*
X1187512Y2147403D1*
X1191768Y2144411D1*
X1196027Y2141419D1*
X1200548Y2138427D1*
X1205801Y2135435D1*
X1211678Y2132443D1*
X1217638Y2129451D1*
X1223214Y2126459D1*
X1228045Y2123467D1*
X1232141Y2120475D1*
X1235899Y2117483D1*
X1179051Y2156379D2*
X1185035Y2153387D1*
X1191019Y2150395D1*
X1197003Y2147403D1*
X1202975Y2144411D1*
X1208854Y2141419D1*
X1214457Y2138427D1*
X1219713Y2135435D1*
X1224824Y2132443D1*
X1229893Y2129451D1*
X1234769Y2126459D1*
X1239389Y2123467D1*
X1243729Y2120475D1*
X1247867Y2117483D1*
X1113227Y2150395D2*
Y2147403D1*
X1113215Y2144411D1*
X1113110Y2141419D1*
X1112729Y2138427D1*
X1112012Y2135435D1*
X1111237Y2132443D1*
X1110670Y2129451D1*
X1110235Y2126459D1*
X1119455Y2123467D1*
X1128005Y2120475D1*
X1136003Y2117483D1*
X1143485Y2114491D1*
X1150067Y2111499D1*
X1155174Y2108507D1*
X1158925Y2105515D1*
X1162248Y2102523D1*
X1165979Y2099531D1*
X1170075Y2096539D1*
X1122203Y2150395D2*
X1127599Y2147403D1*
X1132353Y2144411D1*
X1136452Y2141419D1*
X1140311Y2138427D1*
X1144218Y2135435D1*
X1147956Y2132443D1*
X1151120Y2129451D1*
X1153684Y2126459D1*
X1156039Y2123467D1*
X1158552Y2120475D1*
X1161182Y2117483D1*
X1163673Y2114491D1*
X1165887Y2111499D1*
X1167987Y2108507D1*
X1170067Y2105515D1*
X1172036Y2102523D1*
X1174005Y2099531D1*
X1176059Y2096539D1*
X1170075Y2150395D2*
X1170549Y2147403D1*
X1171396Y2144411D1*
X1172564Y2141419D1*
X1173910Y2138427D1*
X1175336Y2135435D1*
X1176713Y2132443D1*
X1177916Y2129451D1*
X1178966Y2126459D1*
X1180031Y2123467D1*
X1181053Y2120475D1*
X1182029Y2117483D1*
X1183151Y2114491D1*
X1184435Y2111499D1*
X1185775Y2108507D1*
X1187285Y2105515D1*
X1189118Y2102523D1*
X1193750Y2099531D1*
X1199506Y2096539D1*
X1205633Y2093547D1*
X1211674Y2090555D1*
X1217373Y2087563D1*
X1222686Y2084571D1*
X1227922Y2081579D1*
X1233391Y2078587D1*
X1239100Y2075595D1*
X1244953Y2072603D1*
X1250859Y2069611D1*
X1170075Y2150395D2*
X1175483Y2147403D1*
X1180330Y2144411D1*
X1184705Y2141419D1*
X1188911Y2138427D1*
X1193009Y2135435D1*
X1197210Y2132443D1*
X1202107Y2129451D1*
X1207924Y2126459D1*
X1214126Y2123467D1*
X1219945Y2120475D1*
X1224915Y2117483D1*
X1229015Y2114491D1*
X1232538Y2111499D1*
X1235757Y2108507D1*
X1238828Y2105515D1*
X1241748Y2102523D1*
X1244359Y2099531D1*
X1246533Y2096539D1*
X1248378Y2093547D1*
X1250121Y2090555D1*
X1251963Y2087563D1*
X1253913Y2084571D1*
X1255742Y2081579D1*
X1257322Y2078587D1*
X1258526Y2075595D1*
X1259288Y2072603D1*
X1259835Y2069611D1*
X1110235Y2120475D2*
X1109659Y2117483D1*
X1108533Y2114491D1*
X1107042Y2111499D1*
X1105750Y2108507D1*
X1104950Y2105515D1*
X1104581Y2102523D1*
X1104463Y2099531D1*
X1105455Y2096539D1*
X1109142Y2093547D1*
X1114451Y2090555D1*
X1120986Y2087563D1*
X1127829Y2084571D1*
X1133964Y2081579D1*
X1139254Y2078587D1*
X1144339Y2075595D1*
X1149575Y2072603D1*
X1154623Y2069611D1*
X1158860Y2066619D1*
X1162094Y2063627D1*
X1164888Y2060635D1*
X1167942Y2057643D1*
X1171454Y2054651D1*
X1175116Y2051659D1*
X1178589Y2048667D1*
X1181842Y2045675D1*
X1184954Y2042683D1*
X1187997Y2039691D1*
X1191008Y2036699D1*
X1194007Y2033707D1*
X1197002Y2030715D1*
X1199995Y2027723D1*
X1202987Y2024731D1*
X1205979Y2021739D1*
X1208971Y2018747D1*
X1211975Y2015755D1*
X1215072Y2012763D1*
X1218445Y2009771D1*
X1222154Y2006779D1*
X1225921Y2003787D1*
X1229480Y2000795D1*
X1232907Y1997803D1*
X1107243Y2120475D2*
X1117116Y2117483D1*
X1126471Y2114491D1*
X1134682Y2111499D1*
X1141471Y2108507D1*
X1146872Y2105515D1*
X1151244Y2102523D1*
X1155210Y2099531D1*
X1159169Y2096539D1*
X1163037Y2093547D1*
X1166692Y2090555D1*
X1170356Y2087563D1*
X1174207Y2084571D1*
X1178126Y2081579D1*
X1182030Y2078587D1*
X1185918Y2075595D1*
X1189414Y2072603D1*
X1192159Y2069611D1*
X1194324Y2066619D1*
X1196411Y2063627D1*
X1199082Y2060635D1*
X1202616Y2057643D1*
X1206578Y2054651D1*
X1210695Y2051659D1*
X1214763Y2048667D1*
X1218281Y2045675D1*
X1221275Y2042683D1*
X1224135Y2039691D1*
X1227023Y2036699D1*
X1229958Y2033707D1*
X1232924Y2030715D1*
X1235905Y2027723D1*
X1238882Y2024731D1*
X1241767Y2021739D1*
X1244377Y2018747D1*
X1246652Y2015755D1*
X1248869Y2012763D1*
X1251294Y2009771D1*
X1253851Y2006779D1*
X1251409Y2003787D1*
X1249467Y2000795D1*
X1247867Y1997803D1*
X1244875Y2108507D2*
X1247405Y2105515D1*
X1249643Y2102523D1*
X1251755Y2099531D1*
X1253830Y2096539D1*
X1255723Y2093547D1*
X1257427Y2090555D1*
X1259011Y2087563D1*
X1260452Y2084571D1*
X1261678Y2081579D1*
X1262737Y2078587D1*
X1263806Y2075595D1*
X1264829Y2072603D1*
X1265805Y2069611D1*
X1266951Y2066619D1*
X1268468Y2063627D1*
X1270747Y2060635D1*
X1274125Y2057643D1*
X1278259Y2054651D1*
X1282489Y2051659D1*
X1286599Y2048667D1*
X1290700Y2045675D1*
X1294735Y2042683D1*
X1298702Y2039691D1*
X1302740Y2036699D1*
X1306765Y2033707D1*
X1310699Y2030715D1*
X1256843Y2108507D2*
X1259835Y2105515D1*
X1262839Y2102523D1*
X1265948Y2099531D1*
X1269426Y2096539D1*
X1273516Y2093547D1*
X1277992Y2090555D1*
X1282261Y2087563D1*
X1285947Y2084571D1*
X1288962Y2081579D1*
X1291405Y2078587D1*
X1293598Y2075595D1*
X1295702Y2072603D1*
X1297605Y2069611D1*
X1299314Y2066619D1*
X1300911Y2063627D1*
X1302445Y2060635D1*
X1303959Y2057643D1*
X1305459Y2054651D1*
X1306959Y2051659D1*
X1308454Y2048667D1*
X1309952Y2045675D1*
X1311446Y2042683D1*
X1312935Y2039691D1*
X1314351Y2036699D1*
X1315597Y2033707D1*
X1316683Y2030715D1*
X843947Y2087563D2*
X829023Y2084571D1*
X817079Y2081579D1*
X808284Y2078587D1*
X801965Y2075595D1*
X797320Y2072603D1*
X793688Y2069611D1*
X790784Y2066619D1*
X788508Y2063627D1*
X786727Y2060635D1*
X785351Y2057643D1*
X784232Y2054651D1*
X783152Y2051659D1*
X782226Y2048667D1*
X781641Y2045675D1*
X781339Y2042683D1*
X781215Y2039691D1*
X781265Y2036699D1*
X781625Y2033707D1*
X782346Y2030715D1*
X783215Y2027723D1*
X784129Y2024731D1*
X785228Y2021739D1*
X786515Y2018747D1*
X787911Y2015755D1*
X789369Y2012763D1*
X790847Y2009771D1*
X792339Y2006779D1*
X793831Y2003787D1*
X795329Y2000795D1*
X796822Y1997803D1*
X798320Y1994811D1*
X799814Y1991819D1*
X801301Y1988827D1*
X802689Y1985835D1*
X803794Y1982843D1*
X804478Y1979851D1*
X804921Y1976859D1*
X805453Y1973867D1*
X806230Y1970875D1*
X807032Y1967883D1*
X807667Y1964891D1*
X808341Y1961899D1*
X809290Y1958907D1*
X810492Y1955915D1*
X811762Y1952923D1*
X812919Y1949931D1*
X813963Y1946939D1*
X815116Y1943947D1*
X816424Y1940955D1*
X817839Y1937963D1*
X819393Y1934971D1*
X821159Y1931979D1*
X823081Y1928987D1*
X824911Y1925995D1*
X826604Y1923003D1*
X828296Y1920011D1*
X830221Y1917019D1*
X832544Y1914027D1*
X835098Y1911035D1*
X837561Y1908043D1*
X839776Y1905051D1*
X841978Y1902059D1*
X844440Y1899067D1*
X847151Y1896075D1*
X850015Y1893083D1*
X852955Y1890091D1*
X855926Y1887099D1*
X858911Y1884107D1*
X861900Y1881115D1*
X864892Y1878123D1*
X867883Y1875131D1*
X870875Y1872139D1*
X873867Y1869147D1*
X876859Y1866155D1*
X879851Y1863163D1*
X882843Y1860171D1*
X876871Y1857179D1*
X871015Y1854187D1*
X865646Y1851195D1*
X861364Y1848203D1*
X858055Y1845211D1*
X856374Y1842219D1*
X854641Y1839227D1*
X852764Y1836235D1*
X850867Y1833243D1*
X848811Y1830251D1*
X846422Y1827259D1*
X843850Y1824267D1*
X841493Y1821275D1*
X839760Y1818283D1*
X838654Y1815291D1*
X837675Y1812299D1*
X836264Y1809307D1*
X834316Y1806315D1*
X832280Y1803323D1*
X830702Y1800331D1*
X829772Y1797339D1*
X829302Y1794347D1*
X828997Y1791355D1*
X828524Y1788363D1*
X827672Y1785371D1*
X826513Y1782379D1*
X825259Y1779387D1*
X824108Y1776395D1*
X823077Y1773403D1*
X822031Y1770411D1*
X821116Y1767419D1*
X820532Y1764427D1*
X820216Y1761435D1*
X820011Y1758443D1*
X855915Y2087563D2*
X872694Y2084571D1*
X886345Y2081579D1*
X896730Y2078587D1*
X904484Y2075595D1*
X910276Y2072603D1*
X914772Y2069611D1*
X918747Y2066619D1*
X1191019Y2090555D2*
X1191493Y2087563D1*
X1192340Y2084571D1*
X1193508Y2081579D1*
X1194865Y2078587D1*
X1196409Y2075595D1*
X1198272Y2072603D1*
X1200584Y2069611D1*
X1203247Y2066619D1*
X1206193Y2063627D1*
X1209517Y2060635D1*
X1213307Y2057643D1*
X1217440Y2054651D1*
X1221655Y2051659D1*
X1225586Y2048667D1*
X1228845Y2045675D1*
X1231450Y2042683D1*
X1233822Y2039691D1*
X1236340Y2036699D1*
X1238973Y2033707D1*
X1241465Y2030715D1*
X1243690Y2027723D1*
X1245896Y2024731D1*
X1248359Y2021739D1*
X1251095Y2018747D1*
X1254169Y2015755D1*
X1257871Y2012763D1*
X1262276Y2009771D1*
X1266795Y2006779D1*
X1270828Y2003787D1*
X1274374Y2000795D1*
X1277619Y1997803D1*
X1280716Y1994811D1*
X1283749Y1991819D1*
X1286755Y1988827D1*
X1289753Y1985835D1*
X1292746Y1982843D1*
X1295739Y1979851D1*
X1298731Y1976859D1*
X1301723Y1973867D1*
X1304715Y1970875D1*
X1197003Y2090555D2*
X1202975Y2087563D1*
X1208854Y2084571D1*
X1214457Y2081579D1*
X1219724Y2078587D1*
X1224941Y2075595D1*
X1230392Y2072603D1*
X1236005Y2069611D1*
X1241586Y2066619D1*
X1247170Y2063627D1*
X1252967Y2060635D1*
X1258702Y2057643D1*
X1263830Y2054651D1*
X1268480Y2051659D1*
X1273237Y2048667D1*
X1278326Y2045675D1*
X1283303Y2042683D1*
X1287411Y2039691D1*
X1290630Y2036699D1*
X1292185Y2033707D1*
X1293516Y2030715D1*
X1294568Y2027723D1*
X1295304Y2024731D1*
X1296004Y2021739D1*
X1296862Y2018747D1*
X1297699Y2015755D1*
X1298348Y2012763D1*
X1299014Y2009771D1*
X1299872Y2006779D1*
X1300798Y2003787D1*
X1301722Y2000795D1*
X1302735Y1997803D1*
X1303737Y1994811D1*
X1304693Y1991819D1*
X1305708Y1988827D1*
X1306609Y1985835D1*
X1307198Y1982843D1*
X1307610Y1979851D1*
X1308207Y1976859D1*
X1309287Y1973867D1*
X1310699Y1970875D1*
X1101259Y2087563D2*
X1100683Y2084571D1*
X1099557Y2081579D1*
X1098054Y2078587D1*
X1096658Y2075595D1*
X1095476Y2072603D1*
X1094355Y2069611D1*
X1093409Y2066619D1*
X1092814Y2063627D1*
X1092521Y2060635D1*
X1092489Y2057643D1*
X1092814Y2054651D1*
X1093521Y2051659D1*
X1094409Y2048667D1*
X1095555Y2045675D1*
X1097141Y2042683D1*
X1101227Y2039691D1*
X1106566Y2036699D1*
X1112556Y2033707D1*
X1118400Y2030715D1*
X1123821Y2027723D1*
X1129007Y2024731D1*
X1134020Y2021739D1*
X1138633Y2018747D1*
X1142895Y2015755D1*
X1147053Y2012763D1*
X1151108Y2009771D1*
X1155080Y2006779D1*
X1159095Y2003787D1*
X1162992Y2000795D1*
X1166562Y1997803D1*
X1169852Y1994811D1*
X1172991Y1991819D1*
X1176132Y1988827D1*
X1179421Y1985835D1*
X1182756Y1982843D1*
X1185801Y1979851D1*
X1188560Y1976859D1*
X1191448Y1973867D1*
X1194998Y1970875D1*
X1199905Y1967883D1*
X1206397Y1964891D1*
X1213924Y1961899D1*
X1222044Y1958907D1*
X1230732Y1955915D1*
X1239555Y1952923D1*
X1247573Y1949931D1*
X1254220Y1946939D1*
X1259803Y1943947D1*
X1264868Y1940955D1*
X1269825Y1937963D1*
X1274724Y1934971D1*
X1279296Y1931979D1*
X1283623Y1928987D1*
X1288090Y1925995D1*
X1292747Y1923003D1*
X1095275Y2087563D2*
X1106518Y2084571D1*
X1116638Y2081579D1*
X1125008Y2078587D1*
X1131666Y2075595D1*
X1137188Y2072603D1*
X1142111Y2069611D1*
X1146668Y2066619D1*
X1150831Y2063627D1*
X1154530Y2060635D1*
X1157973Y2057643D1*
X1161499Y2054651D1*
X1165270Y2051659D1*
X1169052Y2048667D1*
X1172574Y2045675D1*
X1175847Y2042683D1*
X1178967Y2039691D1*
X1182012Y2036699D1*
X1185036Y2033707D1*
X1188140Y2030715D1*
X1191516Y2027723D1*
X1195225Y2024731D1*
X1198973Y2021739D1*
X1202382Y2018747D1*
X1205270Y2015755D1*
X1207672Y2012763D1*
X1209950Y2009771D1*
X1212440Y2006779D1*
X1215162Y2003787D1*
X1218041Y2000795D1*
X1221099Y1997803D1*
X1224557Y1994811D1*
X1228640Y1991819D1*
X1233101Y1988827D1*
X1237276Y1985835D1*
X1240686Y1982843D1*
X1243366Y1979851D1*
X1245770Y1976859D1*
X1248313Y1973867D1*
X1251055Y1970875D1*
X1253930Y1967883D1*
X1256873Y1964891D1*
X1259846Y1961899D1*
X1262842Y1958907D1*
X1265937Y1955915D1*
X1269310Y1952923D1*
X1273018Y1949931D1*
X1276777Y1946939D1*
X1280291Y1943947D1*
X1283549Y1940955D1*
X1286562Y1937963D1*
X1289225Y1934971D1*
X1291521Y1931979D1*
X1293745Y1928987D1*
X1296173Y1925995D1*
X1298731Y1923003D1*
X828987Y2081579D2*
X820725Y2078587D1*
X813491Y2075595D1*
X807721Y2072603D1*
X803233Y2069611D1*
X799554Y2066619D1*
X796384Y2063627D1*
X793764Y2060635D1*
X791838Y2057643D1*
X790432Y2054651D1*
X789222Y2051659D1*
X788242Y2048667D1*
X787636Y2045675D1*
X787327Y2042683D1*
X787200Y2039691D1*
X787249Y2036699D1*
X787621Y2033707D1*
X788435Y2030715D1*
X789592Y2027723D1*
X790935Y2024731D1*
X792372Y2021739D1*
X793843Y2018747D1*
X795333Y2015755D1*
X796823Y2012763D1*
X798403Y2009771D1*
X800136Y2006779D1*
X804915Y2003787D1*
X812402Y2000795D1*
X821214Y1997803D1*
X829010Y1994811D1*
X835085Y1991819D1*
X839704Y1988827D1*
X843445Y1985835D1*
X846750Y1982843D1*
X849851Y1979851D1*
X852783Y1976859D1*
X855409Y1973867D1*
X857690Y1970875D1*
X859916Y1967883D1*
X862387Y1964891D1*
X865102Y1961899D1*
X867955Y1958907D1*
X870790Y1955915D1*
X873380Y1952923D1*
X875648Y1949931D1*
X877870Y1946939D1*
X880340Y1943947D1*
X883066Y1940955D1*
X886024Y1937963D1*
X889240Y1934971D1*
X892559Y1931979D1*
X895707Y1928987D1*
X898908Y1925995D1*
X902648Y1923003D1*
X906779Y1920011D1*
X849931Y2081579D2*
X852923Y2078587D1*
X855903Y2075595D1*
X858790Y2072603D1*
X861401Y2069611D1*
X863665Y2066619D1*
X865784Y2063627D1*
X867861Y2060635D1*
X869754Y2057643D1*
X871471Y2054651D1*
X873160Y2051659D1*
X874982Y2048667D1*
X876937Y2045675D1*
X878868Y2042683D1*
X880840Y2039691D1*
X882857Y2036699D1*
X884727Y2033707D1*
X886424Y2030715D1*
X888017Y2027723D1*
X889550Y2024731D1*
X891052Y2021739D1*
X892458Y2018747D1*
X893670Y2015755D1*
X894724Y2012763D1*
X895791Y2009771D1*
X896813Y2006779D1*
X897777Y2003787D1*
X898794Y2000795D1*
X899697Y1997803D1*
X900286Y1994811D1*
X900689Y1991819D1*
X901205Y1988827D1*
X901989Y1985835D1*
X902882Y1982843D1*
X903793Y1979851D1*
X904790Y1976859D1*
X905696Y1973867D1*
X906376Y1970875D1*
X907055Y1967883D1*
X907906Y1964891D1*
X908728Y1961899D1*
X909283Y1958907D1*
X909673Y1955915D1*
X910184Y1952923D1*
X910954Y1949931D1*
X911742Y1946939D1*
X912271Y1943947D1*
X912551Y1940955D1*
X912679Y1937963D1*
X912732Y1934971D1*
X912752Y1931979D1*
X912759Y1928987D1*
X912762Y1925995D1*
X912763Y1923003D1*
Y1920011D1*
X858907Y2081579D2*
X861437Y2078587D1*
X863675Y2075595D1*
X865787Y2072603D1*
X867862Y2069611D1*
X869755Y2066619D1*
X871471Y2063627D1*
X873160Y2060635D1*
X874982Y2057643D1*
X876925Y2054651D1*
X878763Y2051659D1*
X880459Y2048667D1*
X882140Y2045675D1*
X883960Y2042683D1*
X885902Y2039691D1*
X887739Y2036699D1*
X889423Y2033707D1*
X891011Y2030715D1*
X892543Y2027723D1*
X894044Y2024731D1*
X895450Y2021739D1*
X896662Y2018747D1*
X897716Y2015755D1*
X898783Y2012763D1*
X899805Y2009771D1*
X900769Y2006779D1*
X901798Y2003787D1*
X902806Y2000795D1*
X903764Y1997803D1*
X904791Y1994811D1*
X905798Y1991819D1*
X906756Y1988827D1*
X907771Y1985835D1*
X908673Y1982843D1*
X909262Y1979851D1*
X909665Y1976859D1*
X910181Y1973867D1*
X910953Y1970875D1*
X911741Y1967883D1*
X912271Y1964891D1*
X912563Y1961899D1*
X912819Y1958907D1*
X913201Y1955915D1*
X915035Y1952923D1*
X917909Y1949931D1*
X921682Y1946939D1*
X926098Y1943947D1*
X930874Y1940955D1*
X935632Y1937963D1*
X940193Y1934971D1*
X944489Y1931979D1*
X948675Y1928987D1*
X953120Y1925995D1*
X957784Y1923003D1*
X962298Y1920011D1*
X966619Y1917019D1*
X876859Y2081579D2*
X883294Y2078587D1*
X889914Y2075595D1*
X896280Y2072603D1*
X901955Y2069611D1*
X906951Y2066619D1*
X911326Y2063627D1*
X915091Y2060635D1*
X918360Y2057643D1*
X921124Y2054651D1*
X923361Y2051659D1*
X925218Y2048667D1*
X926875Y2045675D1*
X928433Y2042683D1*
X929955Y2039691D1*
X931457Y2036699D1*
X932959Y2033707D1*
X934453Y2030715D1*
X935940Y2027723D1*
X937341Y2024731D1*
X938551Y2021739D1*
X939604Y2018747D1*
X940671Y2015755D1*
X941693Y2012763D1*
X942669Y2009771D1*
X943791Y2006779D1*
X945075Y2003787D1*
X946380Y2000795D1*
X947551Y1997803D1*
X948601Y1994811D1*
X949755Y1991819D1*
X951063Y1988827D1*
X952479Y1985835D1*
X954033Y1982843D1*
X955799Y1979851D1*
X957721Y1976859D1*
X959551Y1973867D1*
X961232Y1970875D1*
X962820Y1967883D1*
X964363Y1964891D1*
X965969Y1961899D1*
X967756Y1958907D1*
X969685Y1955915D1*
X971518Y1952923D1*
X973209Y1949931D1*
X974875Y1946939D1*
X976659Y1943947D1*
X978587Y1940955D1*
X976838Y1937963D1*
X974582Y1934971D1*
X971054Y1931979D1*
X966619Y1928987D1*
X968123Y1925995D1*
X969450Y1923003D1*
X970931Y1920011D1*
X972603Y1917019D1*
X930715Y2066619D2*
X966619D2*
X975610Y2063627D1*
X985094Y2060635D1*
X996332Y2057643D1*
X1008526Y2054651D1*
X1019716Y2051659D1*
X1029651Y2048667D1*
X1039312Y2045675D1*
X1048995Y2042683D1*
X1057993Y2039691D1*
X1065714Y2036699D1*
X1072044Y2033707D1*
X1077351Y2030715D1*
X1081992Y2027723D1*
X1086299Y2024731D1*
X930715Y2060635D2*
X930829Y2057643D1*
X931224Y2054651D1*
X932047Y2051659D1*
X933195Y2048667D1*
X934445Y2045675D1*
X935595Y2042683D1*
X936637Y2039691D1*
X937788Y2036699D1*
X939084Y2033707D1*
X940394Y2030715D1*
X941567Y2027723D1*
X942616Y2024731D1*
X943771Y2021739D1*
X945068Y2018747D1*
X946378Y2015755D1*
X947550Y2012763D1*
X948600Y2009771D1*
X949755Y2006779D1*
X951063Y2003787D1*
X952467Y2000795D1*
X953927Y1997803D1*
X955406Y1994811D1*
X956899Y1991819D1*
X958391Y1988827D1*
X959889Y1985835D1*
X961382Y1982843D1*
X962880Y1979851D1*
X964374Y1976859D1*
X965872Y1973867D1*
X967366Y1970875D1*
X968864Y1967883D1*
X970358Y1964891D1*
X971856Y1961899D1*
X973350Y1958907D1*
X974848Y1955915D1*
X976342Y1952923D1*
X977840Y1949931D1*
X979334Y1946939D1*
X980832Y1943947D1*
X982326Y1940955D1*
X983824Y1937963D1*
X985330Y1934971D1*
X986933Y1931979D1*
X988808Y1928987D1*
X991011Y1925995D1*
X993167Y1923003D1*
X994806Y1920011D1*
X995860Y1917019D1*
X996718Y1914027D1*
X997752Y1911035D1*
X999070Y1908043D1*
X1000691Y1905051D1*
X1002523Y1902059D1*
X969611Y2060635D2*
X974893Y2057643D1*
X979240Y2054651D1*
X982411Y2051659D1*
X984729Y2048667D1*
X986588Y2045675D1*
X988226Y2042683D1*
X989779Y2039691D1*
X991292Y2036699D1*
X992797Y2033707D1*
X994293Y2030715D1*
X995780Y2027723D1*
X997181Y2024731D1*
X998391Y2021739D1*
X999456Y2018747D1*
X1000616Y2015755D1*
X1001915Y2012763D1*
X1003226Y2009771D1*
X1004398Y2006779D1*
X1005448Y2003787D1*
X1006603Y2000795D1*
X1007900Y1997803D1*
X1009210Y1994811D1*
X1010382Y1991819D1*
X1011432Y1988827D1*
X1012587Y1985835D1*
X1013884Y1982843D1*
X1015194Y1979851D1*
X1016366Y1976859D1*
X1017416Y1973867D1*
X1018571Y1970875D1*
X1019879Y1967883D1*
X1021283Y1964891D1*
X1022743Y1961899D1*
X1024234Y1958907D1*
X1025831Y1955915D1*
X1027708Y1952923D1*
X1029976Y1949931D1*
X1032443Y1946939D1*
X993547Y2051659D2*
X994009Y2048667D1*
X994763Y2045675D1*
X995643Y2042683D1*
X996560Y2039691D1*
X997660Y2036699D1*
X998935Y2033707D1*
X1000238Y2030715D1*
X1001408Y2027723D1*
X1002445Y2024731D1*
X1003506Y2021739D1*
X1004526Y2018747D1*
X1005501Y2015755D1*
X1006623Y2012763D1*
X1007907Y2009771D1*
X1009212Y2006779D1*
X1010383Y2003787D1*
X1011433Y2000795D1*
X1012587Y1997803D1*
X1013884Y1994811D1*
X1015194Y1991819D1*
X1016366Y1988827D1*
X1017416Y1985835D1*
X1018571Y1982843D1*
X1019879Y1979851D1*
X1021283Y1976859D1*
X1022743Y1973867D1*
X1024222Y1970875D1*
X1025715Y1967883D1*
X1027207Y1964891D1*
X1028705Y1961899D1*
X1030210Y1958907D1*
X1031802Y1955915D1*
X1033583Y1952923D1*
X1035522Y1949931D1*
X1037447Y1946939D1*
X1039417Y1943947D1*
X1041445Y1940955D1*
X1043420Y1937963D1*
X1045509Y1934971D1*
X1047922Y1931979D1*
X1050599Y1928987D1*
X1053387Y1925995D1*
X993547Y2051659D2*
X1004904Y2048667D1*
X1015384Y2045675D1*
X1024261Y2042683D1*
X1030900Y2039691D1*
X1035301Y2036699D1*
X1038193Y2033707D1*
X1040294Y2030715D1*
X1042028Y2027723D1*
X1043604Y2024731D1*
X1045025Y2021739D1*
X1046153Y2018747D1*
X1046933Y2015755D1*
X1047654Y2012763D1*
X1048521Y2009771D1*
X1049349Y2006779D1*
X1049906Y2003787D1*
X1050297Y2000795D1*
X1050808Y1997803D1*
X1051578Y1994811D1*
X1052366Y1991819D1*
X1052895Y1988827D1*
X1053187Y1985835D1*
X1053420Y1982843D1*
X1053854Y1979851D1*
X1054591Y1976859D1*
X1055365Y1973867D1*
X1055890Y1970875D1*
X1056168Y1967883D1*
X1056295Y1964891D1*
X1056348Y1961899D1*
X1056368Y1958907D1*
X1056387Y1955915D1*
X1056495Y1952923D1*
X1056877Y1949931D1*
X1057594Y1946939D1*
X1058361Y1943947D1*
X1058883Y1940955D1*
X1059160Y1937963D1*
X1059287Y1934971D1*
X1059340Y1931979D1*
X1059360Y1928987D1*
X1059371Y1925995D1*
X1041419Y2036699D2*
X1043835Y2033707D1*
X1045690Y2030715D1*
X1047073Y2027723D1*
X1048287Y2024731D1*
X1049370Y2021739D1*
X1050357Y2018747D1*
X1051382Y2015755D1*
X1052299Y2012763D1*
X1052982Y2009771D1*
X1053663Y2006779D1*
X1054514Y2003787D1*
X1055336Y2000795D1*
X1055891Y1997803D1*
X1056281Y1994811D1*
X1056804Y1991819D1*
X1057702Y1988827D1*
X1059093Y1985835D1*
X1061219Y1982843D1*
X1064197Y1979851D1*
X1067596Y1976859D1*
X1070952Y1973867D1*
X1074169Y1970875D1*
X1077378Y1967883D1*
X1080876Y1964891D1*
X1084909Y1961899D1*
X1089291Y1958907D1*
X1044411Y2036699D2*
X1053250Y2033707D1*
X1061609Y2030715D1*
X1068871Y2027723D1*
X1074650Y2024731D1*
X1079129Y2021739D1*
X1082703Y2018747D1*
X1085503Y2015755D1*
X1087501Y2012763D1*
X1088935Y2009771D1*
X1090155Y2006779D1*
X1091138Y2003787D1*
X1091746Y2000795D1*
X1092055Y1997803D1*
X1092193Y1994811D1*
X1092250Y1991819D1*
X1092271Y1988827D1*
X1092279Y1985835D1*
X1092282Y1982843D1*
X1092283Y1979851D1*
Y1976859D1*
X1092295Y1973867D1*
X1092400Y1970875D1*
X1092783Y1967883D1*
X1093525Y1964891D1*
X1094416Y1961899D1*
X1095275Y1958907D1*
Y2030715D2*
X1095737Y2027723D1*
X1096491Y2024731D1*
X1097371Y2021739D1*
X1098288Y2018747D1*
X1099399Y2015755D1*
X1100792Y2012763D1*
X1102581Y2009771D1*
X1104860Y2006779D1*
X1107498Y2003787D1*
X1110335Y2000795D1*
X1113252Y1997803D1*
X1116115Y1994811D1*
X1118717Y1991819D1*
X1120990Y1988827D1*
X1123214Y1985835D1*
X1125672Y1982843D1*
X1128281Y1979851D1*
X1130765Y1976859D1*
X1132988Y1973867D1*
X1135192Y1970875D1*
X1137655Y1967883D1*
X1140367Y1964891D1*
X1143220Y1961899D1*
X1146054Y1958907D1*
X1148656Y1955915D1*
X1151029Y1952923D1*
X1153621Y1949931D1*
X1156702Y1946939D1*
X1159790Y1943947D1*
X1162402Y1940955D1*
X1164914Y1937963D1*
X1167823Y1934971D1*
X1174223Y1931979D1*
X1182320Y1928987D1*
X1191455Y1925995D1*
X1201132Y1923003D1*
X1210791Y1920011D1*
X1219849Y1917019D1*
X1228105Y1914027D1*
X1235899Y1911035D1*
X1104251Y2030715D2*
X1110223Y2027723D1*
X1116102Y2024731D1*
X1121693Y2021739D1*
X1126844Y2018747D1*
X1131574Y2015755D1*
X1135927Y2012763D1*
X1140033Y2009771D1*
X1144103Y2006779D1*
X1148032Y2003787D1*
X1151715Y2000795D1*
X1155389Y1997803D1*
X1159233Y1994811D1*
X1163048Y1991819D1*
X1166583Y1988827D1*
X1169860Y1985835D1*
X1172982Y1982843D1*
X1176027Y1979851D1*
X1179040Y1976859D1*
X1182039Y1973867D1*
X1185034Y1970875D1*
X1188027Y1967883D1*
X1191019Y1964891D1*
X1194011Y1961899D1*
X1197003Y1958907D1*
X1199983Y1955915D1*
X1202870Y1952923D1*
X1205481Y1949931D1*
X1207756Y1946939D1*
X1209993Y1943947D1*
X1212568Y1940955D1*
X1215664Y1937963D1*
X1219246Y1934971D1*
X1222952Y1931979D1*
X1226446Y1928987D1*
X1229708Y1925995D1*
X1232824Y1923003D1*
X1235868Y1920011D1*
X1238880Y1917019D1*
X1241879Y1914027D1*
X1244875Y1911035D1*
X1301723Y2027723D2*
Y2024731D1*
X1301735Y2021739D1*
X1301840Y2018747D1*
X1302221Y2015755D1*
X1302950Y2012763D1*
X1303822Y2009771D1*
X1304725Y2006779D1*
X1305731Y2003787D1*
X1306730Y2000795D1*
X1307686Y1997803D1*
X1308712Y1994811D1*
X1309718Y1991819D1*
X1310676Y1988827D1*
X1311691Y1985835D1*
X1312593Y1982843D1*
X1313182Y1979851D1*
X1313585Y1976859D1*
X1314101Y1973867D1*
X1314873Y1970875D1*
X1315661Y1967883D1*
X1316191Y1964891D1*
X1316483Y1961899D1*
X1316716Y1958907D1*
X1317161Y1955915D1*
X1318015Y1952923D1*
X1319276Y1949931D1*
X1320910Y1946939D1*
X1322789Y1943947D1*
X1324703Y1940955D1*
X1326758Y1937963D1*
X1329051Y1934971D1*
X1331278Y1931979D1*
X1333107Y1928987D1*
X1334635Y1925995D1*
X1304715Y2027723D2*
X1307707Y2024731D1*
X1310699Y2021739D1*
X1313691Y2018747D1*
X1316683Y2015755D1*
X1319663Y2012763D1*
X1322550Y2009771D1*
X1325149Y2006779D1*
X1327319Y2003787D1*
X1329151Y2000795D1*
X1330800Y1997803D1*
X1332354Y1994811D1*
X1333876Y1991819D1*
X1335378Y1988827D1*
X1336867Y1985835D1*
X1338257Y1982843D1*
X1339362Y1979851D1*
X1340046Y1976859D1*
X1340489Y1973867D1*
X1341021Y1970875D1*
X1341798Y1967883D1*
X1342588Y1964891D1*
X1343118Y1961899D1*
X1343399Y1958907D1*
X1343527Y1955915D1*
X1343580Y1952923D1*
X1343600Y1949931D1*
X1343596Y1946939D1*
X1343493Y1943947D1*
X1343112Y1940955D1*
X1342396Y1937963D1*
X1341629Y1934971D1*
X1341105Y1931979D1*
X1340812Y1928987D1*
X1340619Y1925995D1*
X1095275Y2006779D2*
Y2003787D1*
Y2000795D1*
Y1997803D1*
X1095287Y1994811D1*
X1095392Y1991819D1*
X1095773Y1988827D1*
X1096490Y1985835D1*
X1097257Y1982843D1*
X1097779Y1979851D1*
X1098056Y1976859D1*
X1098183Y1973867D1*
X1098236Y1970875D1*
X1098256Y1967883D1*
X1098263Y1964891D1*
X1098277Y1961899D1*
X1098384Y1958907D1*
X1098765Y1955915D1*
X1099482Y1952923D1*
X1100249Y1949931D1*
X1100771Y1946939D1*
X1101048Y1943947D1*
X1101175Y1940955D1*
X1101228Y1937963D1*
X1101248Y1934971D1*
X1101255Y1931979D1*
X1101258Y1928987D1*
X1101259Y1925995D1*
Y1923003D1*
Y1920011D1*
Y1917019D1*
X1098267Y2006779D2*
X1101259Y2003787D1*
X1104251Y2000795D1*
X1107231Y1997803D1*
X1110118Y1994811D1*
X1112729Y1991819D1*
X1115004Y1988827D1*
X1117218Y1985835D1*
X1119582Y1982843D1*
X1121904Y1979851D1*
X1123947Y1976859D1*
X1125727Y1973867D1*
X1127355Y1970875D1*
X1128902Y1967883D1*
X1130421Y1964891D1*
X1131922Y1961899D1*
X1133411Y1958907D1*
X1134812Y1955915D1*
X1136032Y1952923D1*
X1137169Y1949931D1*
X1138547Y1946939D1*
X1140155Y1943947D1*
X1256843Y2000795D2*
X1253977Y1997803D1*
X1251485Y1994811D1*
X1249720Y1991819D1*
X1248541Y1988827D1*
X1248507Y1985835D1*
X1249758Y1982843D1*
X1251718Y1979851D1*
X1254206Y1976859D1*
X1256980Y1973867D1*
X1259885Y1970875D1*
X1262856Y1967883D1*
X1265942Y1964891D1*
X1269311Y1961899D1*
X1273018Y1958907D1*
X1276777Y1955915D1*
X1280291Y1952923D1*
X1283549Y1949931D1*
X1286562Y1946939D1*
X1289225Y1943947D1*
X1291521Y1940955D1*
X1293742Y1937963D1*
X1296179Y1934971D1*
X1299195Y1931979D1*
X1304093Y1928987D1*
X1312277Y1925995D1*
X1322667Y1923003D1*
X1262827Y2000795D2*
X1268223Y1997803D1*
X1272965Y1994811D1*
X1276959Y1991819D1*
X1280437Y1988827D1*
X1283639Y1985835D1*
X1286703Y1982843D1*
X1289621Y1979851D1*
X1292243Y1976859D1*
X1294522Y1973867D1*
X1296737Y1970875D1*
X1299102Y1967883D1*
X1301436Y1964891D1*
X1303573Y1961899D1*
X1305640Y1958907D1*
X1307708Y1955915D1*
X1309687Y1952923D1*
X1311678Y1949931D1*
X1313713Y1946939D1*
X1315679Y1943947D1*
X1317664Y1940955D1*
X1319698Y1937963D1*
X1321663Y1934971D1*
X1323639Y1931979D1*
X1325590Y1928987D1*
X1327244Y1925995D1*
X1328651Y1923003D1*
X820011Y1994811D2*
X815317Y1991819D1*
X811520Y1988827D1*
X810446Y1985835D1*
X810592Y1982843D1*
X810793Y1979851D1*
X811031Y1976859D1*
X811481Y1973867D1*
X812241Y1970875D1*
X813126Y1967883D1*
X814046Y1964891D1*
X815147Y1961899D1*
X816435Y1958907D1*
X817831Y1955915D1*
X819289Y1952923D1*
X820767Y1949931D1*
X822259Y1946939D1*
X823751Y1943947D1*
X825249Y1940955D1*
X826754Y1937963D1*
X828346Y1934971D1*
X830127Y1931979D1*
X832066Y1928987D1*
X833991Y1925995D1*
X835961Y1923003D1*
X837989Y1920011D1*
X839964Y1917019D1*
X842053Y1914027D1*
X844468Y1911035D1*
X847162Y1908043D1*
X850019Y1905051D1*
X852956Y1902059D1*
X855927Y1899067D1*
X858899Y1896075D1*
X861795Y1893083D1*
X864510Y1890091D1*
X867167Y1887099D1*
X870108Y1884107D1*
X873357Y1881115D1*
X876699Y1878123D1*
X880222Y1875131D1*
X884017Y1872139D1*
X887914Y1869147D1*
X891822Y1866155D1*
X895812Y1863163D1*
X899700Y1860171D1*
X903267Y1857179D1*
X906557Y1854187D1*
X909683Y1851195D1*
X912730Y1848203D1*
X915743Y1845211D1*
X918743Y1842219D1*
X921749Y1839227D1*
X924848Y1836235D1*
X928233Y1833243D1*
X932058Y1830251D1*
X936304Y1827259D1*
X940916Y1824267D1*
X945669Y1821275D1*
X950077Y1818283D1*
X953921Y1815291D1*
X957349Y1812299D1*
X960633Y1809307D1*
X964093Y1806315D1*
X967935Y1803323D1*
X972088Y1800331D1*
X976350Y1797339D1*
X980526Y1794347D1*
X984571Y1791355D1*
X811035Y1994811D2*
X819411Y1991819D1*
X827028Y1988827D1*
X833516Y1985835D1*
X838771Y1982843D1*
X842972Y1979851D1*
X846431Y1976859D1*
X849284Y1973867D1*
X851654Y1970875D1*
X853914Y1967883D1*
X856385Y1964891D1*
X858999Y1961899D1*
X861484Y1958907D1*
X863708Y1955915D1*
X865912Y1952923D1*
X868375Y1949931D1*
X871099Y1946939D1*
X874068Y1943947D1*
X877389Y1940955D1*
X881077Y1937963D1*
X884817Y1934971D1*
X888223Y1931979D1*
X891111Y1928987D1*
X893513Y1925995D1*
X895790Y1923003D1*
X898280Y1920011D1*
X901002Y1917019D1*
X903881Y1914027D1*
X906927Y1911035D1*
X910280Y1908043D1*
X913982Y1905051D1*
X917750Y1902059D1*
X921380Y1899067D1*
X925135Y1896075D1*
X929352Y1893083D1*
X933880Y1890091D1*
X938181Y1887099D1*
X941980Y1884107D1*
X945391Y1881115D1*
X948668Y1878123D1*
X952114Y1875131D1*
X955851Y1872139D1*
X959620Y1869147D1*
X963125Y1866155D1*
X966256Y1863163D1*
X968843Y1860171D1*
X971006Y1857179D1*
X969850Y1854187D1*
X968802Y1851195D1*
X968217Y1848203D1*
X967782Y1845211D1*
X967412Y1842219D1*
X967464Y1839227D1*
X968145Y1836235D1*
X969266Y1833243D1*
X972502Y1830251D1*
X977339Y1827259D1*
X982883Y1824267D1*
X987554Y1821275D1*
X991159Y1818283D1*
X992514Y1815291D1*
X993550Y1812299D1*
X994457Y1809307D1*
X995206Y1806315D1*
X994873Y1803323D1*
X994353Y1800331D1*
X993950Y1797339D1*
X993710Y1794347D1*
X993547Y1791355D1*
X1059371Y1970875D2*
X1059833Y1967883D1*
X1060575Y1964891D1*
X1061350Y1961899D1*
X1061874Y1958907D1*
X1062152Y1955915D1*
X1062279Y1952923D1*
X1062332Y1949931D1*
X1062352Y1946939D1*
X1062359Y1943947D1*
X1062362Y1940955D1*
X1062374Y1937963D1*
X1062480Y1934971D1*
X1062861Y1931979D1*
X1063578Y1928987D1*
X1064345Y1925995D1*
X1064879Y1923003D1*
X1065261Y1920011D1*
X1065769Y1917019D1*
X1066550Y1914027D1*
X1067443Y1911035D1*
X1068365Y1908043D1*
X1069478Y1905051D1*
X1070871Y1902059D1*
X1072661Y1899067D1*
X1074938Y1896075D1*
X1077558Y1893083D1*
X1080315Y1890091D1*
X1062363Y1970875D2*
X1065829Y1967883D1*
X1069668Y1964891D1*
X1073816Y1961899D1*
X1078049Y1958907D1*
X1082074Y1955915D1*
X1085601Y1952923D1*
X1088462Y1949931D1*
X1090583Y1946939D1*
X1092283Y1943947D1*
X1346603Y1964891D2*
Y1961899D1*
Y1958907D1*
Y1955915D1*
Y1952923D1*
Y1949931D1*
Y1946939D1*
Y1943947D1*
Y1940955D1*
Y1937963D1*
Y1934971D1*
X1346591Y1931979D1*
X1346486Y1928987D1*
X1346117Y1925995D1*
X1345505Y1923003D1*
X1345131Y1920011D1*
X1345443Y1917019D1*
X1346431Y1914027D1*
X1348040Y1911035D1*
X1350235Y1908043D1*
X1352741Y1905051D1*
X1355186Y1902059D1*
X1357383Y1899067D1*
X1359478Y1896075D1*
X1361558Y1893083D1*
X1363541Y1890091D1*
X1365533Y1887099D1*
X1367557Y1884107D1*
X1369430Y1881115D1*
X1371127Y1878123D1*
X1372720Y1875131D1*
X1374254Y1872139D1*
X1375768Y1869147D1*
X1377267Y1866155D1*
X1378767Y1863163D1*
X1380262Y1860171D1*
X1381760Y1857179D1*
X1383254Y1854187D1*
X1384741Y1851195D1*
X1386129Y1848203D1*
X1387246Y1845211D1*
X1388023Y1842219D1*
X1388743Y1839227D1*
X1389609Y1836235D1*
X1390449Y1833243D1*
X1391099Y1830251D1*
X1391766Y1827259D1*
X1392624Y1824267D1*
X1393562Y1821275D1*
X1394614Y1818283D1*
X1396207Y1815291D1*
X1398583Y1812299D1*
X1401358Y1809307D1*
X1403713Y1806315D1*
X1405173Y1803323D1*
X1405948Y1800331D1*
X1406443Y1797339D1*
X1349595Y1964891D2*
X1352113Y1961899D1*
X1354258Y1958907D1*
X1356082Y1955915D1*
X1357729Y1952923D1*
X1359282Y1949931D1*
X1360804Y1946939D1*
X1362306Y1943947D1*
X1363795Y1940955D1*
X1365196Y1937963D1*
X1366407Y1934971D1*
X1367472Y1931979D1*
X1368632Y1928987D1*
X1369931Y1925995D1*
X1371242Y1923003D1*
X1372414Y1920011D1*
X1373464Y1917019D1*
X1374619Y1914027D1*
X1375916Y1911035D1*
X1377226Y1908043D1*
X1378398Y1905051D1*
X1379448Y1902059D1*
X1380603Y1899067D1*
X1381911Y1896075D1*
X1383315Y1893083D1*
X1384764Y1890091D1*
X1386149Y1887099D1*
X1387354Y1884107D1*
X1388417Y1881115D1*
X1389576Y1878123D1*
X1390886Y1875131D1*
X1392291Y1872139D1*
X1393740Y1869147D1*
X1395125Y1866155D1*
X1396330Y1863163D1*
X1397393Y1860171D1*
X1398552Y1857179D1*
X1399851Y1854187D1*
X1401162Y1851195D1*
X1402334Y1848203D1*
X1403373Y1845211D1*
X1404434Y1842219D1*
X1405454Y1839227D1*
X1406418Y1836235D1*
X1407434Y1833243D1*
X1408348Y1830251D1*
X1409031Y1827259D1*
X1409711Y1824267D1*
X1410562Y1821275D1*
X1411384Y1818283D1*
X1411927Y1815291D1*
X1412212Y1812299D1*
X1412342Y1809307D1*
X1412395Y1806315D1*
X1412416Y1803323D1*
X1412423Y1800331D1*
X1412427Y1797339D1*
X1208971Y1955915D2*
X1211615Y1952923D1*
X1214248Y1949931D1*
X1217183Y1946939D1*
X1220418Y1943947D1*
X1223654Y1940955D1*
X1226796Y1937963D1*
X1229863Y1934971D1*
X1232887Y1931979D1*
X1235892Y1928987D1*
X1238889Y1925995D1*
X1241894Y1923003D1*
X1244992Y1920011D1*
X1248365Y1917019D1*
X1252074Y1914027D1*
X1255833Y1911035D1*
X1259347Y1908043D1*
X1262616Y1905051D1*
X1265747Y1902059D1*
X1268908Y1899067D1*
X1272407Y1896075D1*
X1276516Y1893083D1*
X1281111Y1890091D1*
X1285879Y1887099D1*
X1290780Y1884107D1*
X1295766Y1881115D1*
X1300619Y1878123D1*
X1305305Y1875131D1*
X1309877Y1872139D1*
X1314285Y1869147D1*
X1318293Y1866155D1*
X1321581Y1863163D1*
X1324208Y1860171D1*
X1326701Y1857179D1*
X1329719Y1854187D1*
X1333542Y1851195D1*
X1337794Y1848203D1*
X1341642Y1845211D1*
X1344676Y1842219D1*
X1347195Y1839227D1*
X1349595Y1836235D1*
X1208971Y1955915D2*
X1218038Y1952923D1*
X1227175Y1949931D1*
X1235989Y1946939D1*
X1243801Y1943947D1*
X1250549Y1940955D1*
X1256766Y1937963D1*
X1262681Y1934971D1*
X1268095Y1931979D1*
X1272692Y1928987D1*
X1276739Y1925995D1*
X1280884Y1923003D1*
X1285099Y1920011D1*
X1288941Y1917019D1*
X1292392Y1914027D1*
X1295597Y1911035D1*
X1298678Y1908043D1*
X1301704Y1905051D1*
X1304708Y1902059D1*
X1307705Y1899067D1*
X1310687Y1896075D1*
X1313574Y1893083D1*
X1316185Y1890091D1*
X1318460Y1887099D1*
X1320673Y1884107D1*
X1323038Y1881115D1*
X1325372Y1878123D1*
X1327520Y1875131D1*
X1329681Y1872139D1*
X1332026Y1869147D1*
X1334352Y1866155D1*
X1336498Y1863163D1*
X1338669Y1860171D1*
X1341107Y1857179D1*
X1343709Y1854187D1*
X1346190Y1851195D1*
X1348400Y1848203D1*
X1350491Y1845211D1*
X1352489Y1842219D1*
X1354162Y1839227D1*
X1355579Y1836235D1*
X1113227Y1949931D2*
X1111846Y1946939D1*
X1110987Y1943947D1*
X1110552Y1940955D1*
X1110359Y1937963D1*
X1110281Y1934971D1*
X1110250Y1931979D1*
X1110235Y1928987D1*
X1116219D1*
Y1925995D1*
X1122203Y1949931D2*
X1126598Y1946939D1*
X1131179Y1943947D1*
X993547Y1946939D2*
X995528Y1943947D1*
X997735Y1940955D1*
X1000543Y1937963D1*
X1003983Y1934971D1*
X1007728Y1931979D1*
X1011499Y1928987D1*
X1071339Y1943947D2*
X1071453Y1940955D1*
X1071837Y1937963D1*
X1072565Y1934971D1*
X1073438Y1931979D1*
X1074343Y1928987D1*
X1075363Y1925995D1*
X1076386Y1923003D1*
X1077323Y1920011D1*
X1074331Y1943947D2*
X1140155Y1946939D2*
X1142673Y1943947D1*
X1144806Y1940955D1*
X1146526Y1937963D1*
X1147790Y1934971D1*
X1148639Y1931979D1*
X1149510Y1928987D1*
X1150997Y1925995D1*
X1153502Y1923003D1*
X1157030Y1920011D1*
X1161099Y1917019D1*
X1146139Y1946939D2*
X1149233Y1943947D1*
X1152504Y1940955D1*
X1155820Y1937963D1*
X1158746Y1934971D1*
X1161006Y1931979D1*
X1162644Y1928987D1*
X1163887Y1925995D1*
X1165043Y1923003D1*
X1166119Y1920011D1*
X1167083Y1917019D1*
X915755Y1940955D2*
Y1937963D1*
Y1934971D1*
X915767Y1931979D1*
X915872Y1928987D1*
X916253Y1925995D1*
X916970Y1923003D1*
X917737Y1920011D1*
X918271Y1917019D1*
X918677Y1914027D1*
X919407Y1911035D1*
X920652Y1908043D1*
X923697Y1905051D1*
X927151Y1902059D1*
X930715Y1899067D1*
X915755Y1940955D2*
X921277Y1937963D1*
X926507Y1934971D1*
X931611Y1931979D1*
X936678Y1928987D1*
X941553Y1925995D1*
X946173Y1923003D1*
X950513Y1920011D1*
X954651Y1917019D1*
X950740Y1914027D1*
X947643Y1911035D1*
X945104Y1908043D1*
X942908Y1905051D1*
X941152Y1902059D1*
X939691Y1899067D1*
X1035435Y1937963D2*
X1030001Y1934971D1*
X1025067Y1931979D1*
X1020475Y1928987D1*
X1035435Y1937963D2*
X1038427Y1934971D1*
X1041419Y1931979D1*
X1039830Y1928987D1*
X1038427Y1925995D1*
X1032443D2*
X1030718Y1923003D1*
X1028190Y1920011D1*
X1024823Y1917019D1*
X1020992Y1914027D1*
X1017336Y1911035D1*
X1014130Y1908043D1*
X1012660Y1905051D1*
X1011499Y1902059D1*
X1122203Y1928987D2*
X1119211Y1925995D1*
X1128187Y1928987D2*
X1131179Y1925995D1*
X1137163Y1928987D2*
X1134171Y1925995D1*
X1137163Y1928987D2*
X1140155Y1925995D1*
X1143147Y1923003D1*
X1146139Y1920011D1*
X1137763Y1917019D1*
X1130920Y1914027D1*
X1125195Y1911035D1*
X1086299Y1923003D2*
X1083307Y1920011D1*
X1095275Y1923003D2*
Y1920011D1*
Y1917019D1*
X1173067Y1923003D2*
X1173541Y1920011D1*
X1174388Y1917019D1*
X1175556Y1914027D1*
X1176902Y1911035D1*
X1178340Y1908043D1*
X1179822Y1905051D1*
X1181417Y1902059D1*
X1183290Y1899067D1*
X1185504Y1896075D1*
X1187776Y1893083D1*
X1189901Y1890091D1*
X1192053Y1887099D1*
X1194395Y1884107D1*
X1196720Y1881115D1*
X1198866Y1878123D1*
X1201037Y1875131D1*
X1203475Y1872139D1*
X1206077Y1869147D1*
X1208558Y1866155D1*
X1210780Y1863163D1*
X1212973Y1860171D1*
X1215330Y1857179D1*
X1217661Y1854187D1*
X1219809Y1851195D1*
X1221981Y1848203D1*
X1224431Y1845211D1*
X1227149Y1842219D1*
X1230117Y1839227D1*
X1233437Y1836235D1*
X1237125Y1833243D1*
X1240889Y1830251D1*
X1244505Y1827259D1*
X1248155Y1824267D1*
X1251990Y1821275D1*
X1255802Y1818283D1*
X1259336Y1815291D1*
X1262613Y1812299D1*
X1265740Y1809307D1*
X1268811Y1806315D1*
X1173067Y1923003D2*
X1185348Y1920011D1*
X1197348Y1917019D1*
X1208112Y1914027D1*
X1217177Y1911035D1*
X1225269Y1908043D1*
X1233052Y1905051D1*
X1240489Y1902059D1*
X1247533Y1899067D1*
X1254025Y1896075D1*
X1259294Y1893083D1*
X1262982Y1890091D1*
X1265819Y1887099D1*
X954651Y1914027D2*
X957643Y1917019D2*
X960635Y1914027D1*
X972603D2*
X976057Y1911035D1*
X979791Y1908043D1*
X983558Y1905051D1*
X987076Y1902059D1*
X990362Y1899067D1*
X993547Y1896075D1*
X966619Y1917019D2*
X976709Y1914027D1*
X984555Y1911035D1*
X990471Y1908043D1*
X993215Y1905051D1*
X995434Y1902059D1*
X997466Y1899067D1*
X999531Y1896075D1*
X1310699Y1917019D2*
X1311173Y1914027D1*
X1312032Y1911035D1*
X1313293Y1908043D1*
X1314927Y1905051D1*
X1316805Y1902059D1*
X1318708Y1899067D1*
X1320669Y1896075D1*
X1322694Y1893083D1*
X1324657Y1890091D1*
X1326641Y1887099D1*
X1328674Y1884107D1*
X1330651Y1881115D1*
X1332729Y1878123D1*
X1335039Y1875131D1*
X1337351Y1872139D1*
X1339492Y1869147D1*
X1341650Y1866155D1*
X1343994Y1863163D1*
X1346320Y1860171D1*
X1348466Y1857179D1*
X1350637Y1854187D1*
X1353075Y1851195D1*
X1355677Y1848203D1*
X1358146Y1845211D1*
X1360263Y1842219D1*
X1362086Y1839227D1*
X1363832Y1836235D1*
X1365766Y1833243D1*
X1368003Y1830251D1*
X1370281Y1827259D1*
X1372384Y1824267D1*
X1374424Y1821275D1*
X1376523Y1818283D1*
X1310699Y1917019D2*
X1325659Y1914027D1*
X1340619Y1911035D1*
X1342230Y1908043D1*
X1344363Y1905051D1*
X1346908Y1902059D1*
X1349602Y1899067D1*
X1352135Y1896075D1*
X1354369Y1893083D1*
X1356478Y1890091D1*
X1358563Y1887099D1*
X1360548Y1884107D1*
X1362540Y1881115D1*
X1364577Y1878123D1*
X1366543Y1875131D1*
X1368528Y1872139D1*
X1370550Y1869147D1*
X1372422Y1866155D1*
X1374119Y1863163D1*
X1375712Y1860171D1*
X1377246Y1857179D1*
X1378748Y1854187D1*
X1380154Y1851195D1*
X1381366Y1848203D1*
X1382420Y1845211D1*
X1383475Y1842219D1*
X1384392Y1839227D1*
X1384975Y1836235D1*
X1385287Y1833243D1*
X1385528Y1830251D1*
X1385967Y1827259D1*
X1386730Y1824267D1*
X1387628Y1821275D1*
X1388491Y1818283D1*
X1101259Y1911035D2*
X1100082Y1908043D1*
X1100458Y1905051D1*
X1101259Y1902059D1*
X1097008Y1899067D1*
X1093619Y1896075D1*
X1091193Y1893083D1*
X1089291Y1890091D1*
X1113227Y1911035D2*
X1113376Y1908043D1*
X1113730Y1905051D1*
X1115862Y1902059D1*
X1118959Y1899067D1*
X1122286Y1896075D1*
X1125307Y1893083D1*
X1128187Y1890091D1*
X1116219Y1911035D2*
X966619D2*
X963627Y1908043D1*
X966619Y1911035D2*
X969611Y1908043D1*
X1101259D2*
X1102396Y1905051D1*
X1103682Y1902059D1*
X1105083Y1899067D1*
X1106641Y1896075D1*
X1108522Y1893083D1*
X1110929Y1890091D1*
X1113833Y1887099D1*
X1116799Y1884107D1*
X1119414Y1881115D1*
X1120348Y1878123D1*
X1121201Y1875131D1*
X1122203Y1872139D1*
X1119433Y1869147D1*
X1118543Y1866155D1*
X1118850Y1863163D1*
X1119455Y1860171D1*
X1120429Y1857179D1*
X1121755Y1854187D1*
X1123419Y1851195D1*
X1125298Y1848203D1*
X1127112Y1845211D1*
X1128797Y1842219D1*
X1130460Y1839227D1*
X1132244Y1836235D1*
X1134171Y1833243D1*
X1053387Y1908043D2*
X1053147Y1905051D1*
X1052616Y1902059D1*
X1050431Y1899067D1*
X1047721Y1896075D1*
X1045062Y1893083D1*
X1042741Y1890091D1*
X1040592Y1887099D1*
X1038427Y1884107D1*
X1056379Y1908043D2*
X1059371Y1905051D1*
X1062351Y1902059D1*
X1065238Y1899067D1*
X1067837Y1896075D1*
X1069996Y1893083D1*
X1071722Y1890091D1*
X1072978Y1887099D1*
X1073713Y1884107D1*
X1074092Y1881115D1*
X1074331Y1878123D1*
X1065355D1*
X1063431Y1875131D1*
X1061703Y1872139D1*
X1061797Y1869147D1*
X1062363Y1866155D1*
X1058529Y1863163D1*
X1055662Y1860171D1*
X1053387Y1857179D1*
X1164091Y1905051D2*
X1157007Y1902059D1*
X1148923Y1899067D1*
X1140155Y1896075D1*
X1141745Y1893083D1*
X1143147Y1890091D1*
X1161099Y1905051D2*
X1163977Y1902059D1*
X1166586Y1899067D1*
X1168849Y1896075D1*
X1170968Y1893083D1*
X1173046Y1890091D1*
X1174938Y1887099D1*
X1176643Y1884107D1*
X1178239Y1881115D1*
X1179773Y1878123D1*
X1181287Y1875131D1*
X1182787Y1872139D1*
X1184287Y1869147D1*
X1185793Y1866155D1*
X1187409Y1863163D1*
X1189401Y1860171D1*
X1192102Y1857179D1*
X1195472Y1854187D1*
X1199082Y1851195D1*
X1202523Y1848203D1*
X1205664Y1845211D1*
X1208382Y1842219D1*
X1210601Y1839227D1*
X1212453Y1836235D1*
X1214108Y1833243D1*
X1215665Y1830251D1*
X1217187Y1827259D1*
X1218689Y1824267D1*
X1220179Y1821275D1*
X1221580Y1818283D1*
X1222791Y1815291D1*
X1223844Y1812299D1*
X1224899Y1809307D1*
X1225828Y1806315D1*
X1226516Y1803323D1*
X1227198Y1800331D1*
X1228050Y1797339D1*
X1228872Y1794347D1*
X1229415Y1791355D1*
X1229700Y1788363D1*
X1229830Y1785371D1*
X1229883Y1782379D1*
X1229904Y1779387D1*
X1229911Y1776395D1*
X1229914Y1773403D1*
X1229915Y1770411D1*
Y1767419D1*
Y1764427D1*
Y1761435D1*
X1223931D1*
X1223686Y1758443D1*
X1223136Y1755451D1*
X1220805Y1752459D1*
X1217947Y1749467D1*
X972603Y1902059D2*
X972027Y1899067D1*
X970843Y1896075D1*
X968781Y1893083D1*
X965959Y1890091D1*
X959391Y1887099D1*
X951659Y1884107D1*
X954663Y1881115D1*
X957769Y1878123D1*
X961223Y1875131D1*
X965238Y1872139D1*
X969611Y1869147D1*
X975595Y1902059D2*
X978461Y1899067D1*
X980953Y1896075D1*
X982730Y1893083D1*
X983740Y1890091D1*
X984228Y1887099D1*
X984439Y1884107D1*
X984525Y1881115D1*
X984571Y1878123D1*
X978587D1*
X977537Y1875131D1*
X976520Y1872139D1*
X975595Y1869147D1*
X1005515Y1896075D2*
X1006006Y1893083D1*
X1007797Y1890091D1*
X1011629Y1887099D1*
X1015794Y1884107D1*
X1019844Y1881115D1*
X1023971Y1878123D1*
X1028239Y1875131D1*
X1032143Y1872139D1*
X1035448Y1869147D1*
X1038487Y1866155D1*
X1041459Y1863163D1*
X1044429Y1860171D1*
X1047403Y1857179D1*
X1005515Y1896075D2*
X1013904Y1893083D1*
X1021648Y1890091D1*
X1028703Y1887099D1*
X1035435Y1884107D1*
X945675Y1890091D2*
X948667Y1887099D1*
X951659Y1884107D1*
X954663Y1881115D1*
X957769Y1878123D1*
X961223Y1875131D1*
X965238Y1872139D1*
X969611Y1869147D1*
X951659Y1890091D2*
X954651Y1887099D1*
X1253851D2*
X1239930Y1884107D1*
X1229209Y1881115D1*
X1221917Y1878123D1*
X1216659Y1875131D1*
X1217113Y1872139D1*
X1218982Y1869147D1*
X1221258Y1866155D1*
X1223516Y1863163D1*
X1225373Y1860171D1*
X1226923Y1857179D1*
X1259835Y1887099D2*
X1185035Y1881115D2*
X1185623Y1878123D1*
X1186865Y1875131D1*
X1188844Y1872139D1*
X1191244Y1869147D1*
X1193645Y1866155D1*
X1195837Y1863163D1*
X1198030Y1860171D1*
X1200487Y1857179D1*
X1203182Y1854187D1*
X1205979Y1851195D1*
X1188027Y1881115D2*
X1190905Y1878123D1*
X1193514Y1875131D1*
X1195789Y1872139D1*
X1198002Y1869147D1*
X1200366Y1866155D1*
X1202700Y1863163D1*
X1204848Y1860171D1*
X1207012Y1857179D1*
X1209417Y1854187D1*
X1211963Y1851195D1*
X1289755Y1872139D2*
X1283221Y1869147D1*
X1276187Y1866155D1*
X1268811Y1863163D1*
X1289755Y1872139D2*
X1292747Y1869147D1*
X1295739Y1866155D1*
X1298731Y1863163D1*
X1020475Y1869147D2*
X1020001Y1866155D1*
X1019142Y1863163D1*
X1017881Y1860171D1*
X1016259Y1857179D1*
X1014497Y1854187D1*
X1013081Y1851195D1*
X1012230Y1848203D1*
X1011793Y1845211D1*
X1011493Y1842219D1*
X1010955Y1839227D1*
X1009903Y1836235D1*
X1008507Y1833243D1*
X1011499Y1830251D1*
X1014491Y1827259D1*
X1005889Y1824267D1*
X996539Y1821275D1*
X997920Y1818283D1*
X998780Y1815291D1*
X999214Y1812299D1*
X999407Y1809307D1*
X999485Y1806315D1*
X999515Y1803323D1*
X999526Y1800331D1*
X999529Y1797339D1*
X999530Y1794347D1*
X999531Y1791355D1*
X999543Y1788363D1*
X999671Y1785371D1*
X999987Y1782379D1*
X1001799Y1779387D1*
X1004563Y1776395D1*
X1007953Y1773403D1*
X1011640Y1770411D1*
X1015555Y1767419D1*
X1019503Y1764427D1*
X1023346Y1761435D1*
X1027072Y1758443D1*
X1030641Y1755451D1*
X1034264Y1752459D1*
X1038193Y1749467D1*
X1042385Y1746475D1*
X1046743Y1743483D1*
X1051186Y1740491D1*
X1055761Y1737499D1*
X1060632Y1734507D1*
X1065930Y1731515D1*
X1071458Y1728523D1*
X1076805Y1725531D1*
X1081618Y1722539D1*
X1085979Y1719547D1*
X1090167Y1716555D1*
X1094146Y1713563D1*
X1097848Y1710571D1*
X1101541Y1707579D1*
X1105493Y1704587D1*
X1109690Y1701595D1*
X1113953Y1698603D1*
X1118103Y1695611D1*
X1122128Y1692619D1*
X1126179Y1689627D1*
X1130191Y1686635D1*
X1134146Y1683643D1*
X1138155Y1680651D1*
X1142060Y1677659D1*
X1145747Y1674667D1*
X1149524Y1671675D1*
X1153748Y1668683D1*
X1158267Y1665691D1*
X1162464Y1662699D1*
X1165894Y1659707D1*
X1168681Y1656715D1*
X1171468Y1653723D1*
X1174727Y1650731D1*
X1178237Y1647739D1*
X1181634Y1644747D1*
X1184855Y1641755D1*
X1187959Y1638763D1*
X1191019Y1635771D1*
X1026459Y1869147D2*
X1029451Y1866155D1*
X1032443Y1863163D1*
X1035435Y1860171D1*
X1038427Y1857179D1*
X1041419Y1854187D1*
X1044411Y1851195D1*
X1047403Y1848203D1*
X1044619Y1845211D1*
X1042769Y1842219D1*
X1041419Y1839227D1*
X1035435D1*
X1035321Y1836235D1*
X1034938Y1833243D1*
X1034244Y1830251D1*
X1033704Y1827259D1*
X1033633Y1824267D1*
X1035740Y1821275D1*
X1038427Y1818283D1*
X1034251Y1815291D1*
X1031476Y1812299D1*
X1029451Y1809307D1*
X1038427Y1806315D1*
X1032069Y1803323D1*
X1026459Y1800331D1*
X1035435Y1797339D1*
X1032665Y1794347D1*
X1031927Y1791355D1*
X1031537Y1788363D1*
X1030980Y1785371D1*
X1030363Y1782379D1*
X1030133Y1779387D1*
X1030360Y1776395D1*
X1032392Y1773403D1*
X1035011Y1770411D1*
X1038221Y1767419D1*
X1042441Y1764427D1*
X1047403Y1761435D1*
X1101259Y1866155D2*
X1103664Y1863163D1*
X1105424Y1860171D1*
X1106495Y1857179D1*
X1107243Y1854187D1*
X1098267D1*
X1099302Y1851195D1*
X1100297Y1848203D1*
X1101246Y1845211D1*
X1102267Y1842219D1*
X1103272Y1839227D1*
X1104229Y1836235D1*
X1105244Y1833243D1*
X1106157Y1830251D1*
X1106839Y1827259D1*
X1107530Y1824267D1*
X1108487Y1821275D1*
X1109693Y1818283D1*
X1110980Y1815291D1*
X1112171Y1812299D1*
X1113227Y1809307D1*
X1107243Y1866155D2*
X1109773Y1863163D1*
X1112011Y1860171D1*
X1114123Y1857179D1*
X1116198Y1854187D1*
X1118091Y1851195D1*
X1119795Y1848203D1*
X1121391Y1845211D1*
X1122925Y1842219D1*
X1124439Y1839227D1*
X1125939Y1836235D1*
X1127416Y1833243D1*
X1128688Y1830251D1*
X1129666Y1827259D1*
X1129116Y1824267D1*
X1126857Y1821275D1*
X1124195Y1818283D1*
X1121883Y1815291D1*
X1120342Y1812299D1*
X1119211Y1809307D1*
X1244875Y1866155D2*
Y1863163D1*
Y1860171D1*
X1247867Y1866155D2*
X1250859Y1863163D1*
X1253851Y1860171D1*
X1256843Y1866155D2*
Y1863163D1*
Y1860171D1*
X1262827Y1866155D2*
X1265819Y1863163D1*
X1304715Y1866155D2*
X1301723Y1863163D1*
X1307707Y1866155D2*
X1310711Y1863163D1*
X1313808Y1860171D1*
X1317181Y1857179D1*
X1320890Y1854187D1*
X1324649Y1851195D1*
X1328163Y1848203D1*
X1331432Y1845211D1*
X1334563Y1842219D1*
X1337713Y1839227D1*
X1341106Y1836235D1*
X1344823Y1833243D1*
X1348592Y1830251D1*
X1352152Y1827259D1*
X1355579Y1824267D1*
X1350353Y1821275D1*
X1346561Y1818283D1*
X1343611Y1815291D1*
X1167083Y1860171D2*
Y1857179D1*
Y1854187D1*
X1161099D1*
Y1851195D1*
X1170075Y1860171D2*
X1173067Y1857179D1*
X1176059Y1854187D1*
X1179051Y1851195D1*
X1182043Y1848203D1*
X1185035Y1845211D1*
X1241883Y1863163D2*
X1238891Y1860171D1*
X1235899Y1857179D1*
X1152123Y1851195D2*
Y1848203D1*
X1155115Y1851195D2*
X1146139Y1848203D2*
X1146262Y1845211D1*
X1146726Y1842219D1*
X1147750Y1839227D1*
X1149131Y1836235D1*
X1143147Y1833243D1*
X876859Y1848203D2*
Y1845211D1*
X876847Y1842219D1*
X876731Y1839227D1*
X876244Y1836235D1*
X875158Y1833243D1*
X873779Y1830251D1*
X872567Y1827259D1*
X872701Y1824267D1*
X873007Y1821275D1*
X872903Y1818283D1*
X872102Y1815291D1*
X870875Y1812299D1*
X872465Y1809307D1*
X873867Y1806315D1*
X864891Y1803323D1*
X869473Y1800331D1*
X873867Y1797339D1*
X872486Y1794347D1*
X871627Y1791355D1*
X871192Y1788363D1*
X871011Y1785371D1*
X871047Y1782379D1*
X871479Y1779387D1*
X872491Y1776395D1*
X873867Y1773403D1*
X882843Y1848203D2*
X882855Y1845211D1*
X882960Y1842219D1*
X883341Y1839227D1*
X884046Y1836235D1*
X884708Y1833243D1*
X884849Y1830251D1*
X884409Y1827259D1*
X883769Y1824267D1*
X883300Y1821275D1*
X883043Y1818283D1*
X882923Y1815291D1*
X882873Y1812299D1*
X882854Y1809307D1*
X882847Y1806315D1*
X882844Y1803323D1*
X882832Y1800331D1*
X882715Y1797339D1*
X882228Y1794347D1*
X881154Y1791355D1*
X879880Y1788363D1*
X878913Y1785371D1*
X879756Y1782379D1*
X880787Y1779387D1*
X880531Y1776395D1*
X879851Y1773403D1*
X1089291Y1848203D2*
X1088829Y1845211D1*
X1088087Y1842219D1*
X1087312Y1839227D1*
X1086786Y1836235D1*
X1086492Y1833243D1*
X1086299Y1830251D1*
X1095275Y1848203D2*
X1095737Y1845211D1*
X1096491Y1842219D1*
X1097371Y1839227D1*
X1098276Y1836235D1*
X1099282Y1833243D1*
X1100282Y1830251D1*
X1101238Y1827259D1*
X1102263Y1824267D1*
X1103270Y1821275D1*
X1104228Y1818283D1*
X1105243Y1815291D1*
X1106157Y1812299D1*
X1106839Y1809307D1*
X1107519Y1806315D1*
X1108382Y1803323D1*
X1109318Y1800331D1*
X1110326Y1797339D1*
X1111649Y1794347D1*
X1113227Y1791355D1*
X1191019Y1845211D2*
X1194011D2*
X1195404Y1842219D1*
X1196368Y1839227D1*
X1197185Y1836235D1*
X1198106Y1833243D1*
X1199056Y1830251D1*
X1199989Y1827259D1*
X1200994Y1824267D1*
X1201891Y1821275D1*
X1202467Y1818283D1*
X1202765Y1815291D1*
X1202899Y1812299D1*
X1202954Y1809307D1*
X1202987Y1806315D1*
X1203100Y1803323D1*
X1203484Y1800331D1*
X1204201Y1797339D1*
X1204969Y1794347D1*
X1205491Y1791355D1*
X1205768Y1788363D1*
X1205895Y1785371D1*
X1205948Y1782379D1*
X1205968Y1779387D1*
X1205975Y1776395D1*
X1205989Y1773403D1*
X1206096Y1770411D1*
X1206477Y1767419D1*
X1207206Y1764427D1*
X1208078Y1761435D1*
X1208983Y1758443D1*
X1210003Y1755451D1*
X1211026Y1752459D1*
X1211963Y1749467D1*
X1220939Y1836235D2*
X1221413Y1833243D1*
X1222260Y1830251D1*
X1223428Y1827259D1*
X1224774Y1824267D1*
X1226200Y1821275D1*
X1227577Y1818283D1*
X1228780Y1815291D1*
X1229830Y1812299D1*
X1230884Y1809307D1*
X1231801Y1806315D1*
X1232383Y1803323D1*
X1232684Y1800331D1*
X1232819Y1797339D1*
X1232874Y1794347D1*
X1232895Y1791355D1*
X1232903Y1788363D1*
X1232906Y1785371D1*
X1232907Y1782379D1*
X1220939Y1836235D2*
X1226335Y1833243D1*
X1231077Y1830251D1*
X1235071Y1827259D1*
X1238549Y1824267D1*
X1241763Y1821275D1*
X1244955Y1818283D1*
X1248489Y1815291D1*
X1252820Y1812299D1*
X1258257Y1809307D1*
X1264754Y1806315D1*
X1271803Y1803323D1*
X1268811Y1800331D1*
X1062363Y1833243D2*
X1065355Y1830251D1*
X1068347Y1827259D1*
X1071339Y1824267D1*
X1074331Y1821275D1*
X1077323Y1818283D1*
X1080315Y1815291D1*
X1083307Y1812299D1*
X1086287Y1809307D1*
X1089198Y1806315D1*
X1092019Y1803323D1*
X1095061Y1800331D1*
X1098761Y1797339D1*
X1102967Y1794347D1*
X1107243Y1791355D1*
X1071339Y1833243D2*
X1074331Y1830251D1*
X1188027Y1833243D2*
Y1830251D1*
Y1827259D1*
Y1824267D1*
X1182043D1*
Y1821275D1*
Y1818283D1*
X1176059D1*
Y1815291D1*
Y1812299D1*
X1170075D1*
Y1809307D1*
Y1806315D1*
X1164091D1*
X1162954Y1803323D1*
X1161680Y1800331D1*
X1160408Y1797339D1*
X1159452Y1794347D1*
X1158920Y1791355D1*
X1159625Y1788363D1*
X1160782Y1785371D1*
X1162367Y1782379D1*
X1164213Y1779387D1*
X1166015Y1776395D1*
X1167686Y1773403D1*
X1169258Y1770411D1*
X1170694Y1767419D1*
X1171919Y1764427D1*
X1172978Y1761435D1*
X1174046Y1758443D1*
X1175069Y1755451D1*
X1176045Y1752459D1*
X1177167Y1749467D1*
X1178451Y1746475D1*
X1179756Y1743483D1*
X1180927Y1740491D1*
X1181965Y1737499D1*
X1183014Y1734507D1*
X1183941Y1731515D1*
X1184628Y1728523D1*
X1185310Y1725531D1*
X1186162Y1722539D1*
X1186996Y1719547D1*
X1187644Y1716555D1*
X1188310Y1713563D1*
X1189157Y1710571D1*
X1189977Y1707579D1*
X1190531Y1704587D1*
X1190921Y1701595D1*
X1191432Y1698603D1*
X1192202Y1695611D1*
X1193001Y1692619D1*
X1193636Y1689627D1*
X1194297Y1686635D1*
X1195153Y1683643D1*
X1196090Y1680651D1*
X1197119Y1677659D1*
X1198513Y1674667D1*
X1200231Y1671675D1*
X1201967Y1668683D1*
X1203608Y1665691D1*
X1205180Y1662699D1*
X1206715Y1659707D1*
X1208304Y1656715D1*
X1210055Y1653723D1*
X1211963Y1650731D1*
X1191019Y1833243D2*
X1193423Y1830251D1*
X1195185Y1827259D1*
X1196292Y1824267D1*
X1197159Y1821275D1*
X1198086Y1818283D1*
X1198937Y1815291D1*
X1199490Y1812299D1*
X1199779Y1809307D1*
X1199909Y1806315D1*
X1199963Y1803323D1*
X1199984Y1800331D1*
X1199991Y1797339D1*
X1200005Y1794347D1*
X1200112Y1791355D1*
X1200493Y1788363D1*
X1201210Y1785371D1*
X1201977Y1782379D1*
X1202499Y1779387D1*
X1202776Y1776395D1*
X1202903Y1773403D1*
X1202967Y1770411D1*
X1203093Y1767419D1*
X1203481Y1764427D1*
X1204201Y1761435D1*
X1204980Y1758443D1*
X1205608Y1755451D1*
X1206266Y1752459D1*
X1207122Y1749467D1*
X1208046Y1746475D1*
X1208970Y1743483D1*
X1209959Y1740491D1*
X1210751Y1737499D1*
X1211187Y1734507D1*
X1210575Y1731515D1*
X1209792Y1728523D1*
X1208932Y1725531D1*
X1207956Y1722539D1*
X1207069Y1719547D1*
X1206498Y1716555D1*
X1206212Y1713563D1*
X1206192Y1710571D1*
X1206600Y1707579D1*
X1207601Y1704587D1*
X1208971Y1701595D1*
X1207712Y1698603D1*
X1206964Y1695611D1*
X1207793Y1692619D1*
X1208971Y1689627D1*
X1207590Y1686635D1*
X1206727Y1683643D1*
X1206270Y1680651D1*
X1205979Y1677659D1*
X1211963D1*
X1211975Y1674667D1*
X1212103Y1671675D1*
X1212419Y1668683D1*
X1214094Y1665691D1*
X1216240Y1662699D1*
X1218314Y1659707D1*
X1218611Y1656715D1*
X1218367Y1653723D1*
X1217947Y1650731D1*
X475931Y1824267D2*
X470008Y1821275D1*
X464950Y1818283D1*
X461122Y1815291D1*
X460219Y1812299D1*
X460454Y1809307D1*
X460722Y1806315D1*
X460971Y1803323D1*
X493883Y1824267D2*
X501248Y1821275D1*
X508095Y1818283D1*
X514536Y1815291D1*
X520811Y1812299D1*
X921739Y1827259D2*
X921189Y1824267D1*
X920139Y1821275D1*
X918747Y1818283D1*
X927723Y1827259D2*
X927173Y1824267D1*
X926123Y1821275D1*
X924731Y1818283D1*
X1325659Y1821275D2*
X1324267Y1818283D1*
X1323342Y1815291D1*
X1322667Y1812299D1*
X1328651Y1821275D2*
X1334635D2*
X1337627D2*
Y1818283D1*
Y1815291D1*
X1313691D2*
Y1812299D1*
X1316683Y1815291D2*
Y1812299D1*
X532779D2*
X541755D2*
X551274Y1809307D1*
X560719Y1806315D1*
X569441Y1803323D1*
X577659Y1800331D1*
X918747Y1815291D2*
Y1812299D1*
Y1809307D1*
Y1806315D1*
X924731Y1815291D2*
Y1812299D1*
Y1809307D1*
Y1806315D1*
X1292747Y1812299D2*
X1289755Y1809307D1*
X1295739Y1812299D2*
Y1809307D1*
X1301723Y1812299D2*
Y1809307D1*
X1304715Y1812299D2*
X1283771Y1809307D2*
X1278679Y1806315D1*
X1273653Y1803323D1*
X1268811Y1800331D1*
X469947Y1809307D2*
X466955Y1806315D1*
X463963Y1803323D1*
X481915Y1809307D2*
X491444Y1806315D1*
X501300Y1803323D1*
X510771Y1800331D1*
X519252Y1797339D1*
X528492Y1794347D1*
X541248Y1791355D1*
X556715Y1788363D1*
X555323Y1785371D1*
X554398Y1782379D1*
X553723Y1779387D1*
X586635D1*
X587406Y1776395D1*
X589753Y1773403D1*
X592619Y1770411D1*
X1071339Y1809307D2*
X1071225Y1806315D1*
X1070830Y1803323D1*
X1070008Y1800331D1*
X1068871Y1797339D1*
X1067737Y1794347D1*
X1066802Y1791355D1*
X1066846Y1788363D1*
X1066858Y1785371D1*
X1065593Y1782379D1*
X1064225Y1779387D1*
X1063273Y1776395D1*
X1062759Y1773403D1*
X1062521Y1770411D1*
X1062419Y1767419D1*
X1062363Y1764427D1*
X1056379D1*
Y1761435D1*
X1071339Y1809307D2*
X1076735Y1806315D1*
X1081477Y1803323D1*
X1085471Y1800331D1*
X1088937Y1797339D1*
X1092011Y1794347D1*
X1094483Y1791355D1*
X1096336Y1788363D1*
X1096440Y1785371D1*
X1095413Y1782379D1*
X1093940Y1779387D1*
X1092246Y1776395D1*
X1090858Y1773403D1*
X1090016Y1770411D1*
X1089595Y1767419D1*
X1089410Y1764427D1*
X1089323Y1761435D1*
X1089190Y1758443D1*
X1088798Y1755451D1*
X1088066Y1752459D1*
X1087193Y1749467D1*
X1086301Y1746475D1*
X1085412Y1743483D1*
X1084656Y1740491D1*
X1085106Y1737499D1*
X1086122Y1734507D1*
X1087748Y1731515D1*
X1090084Y1728523D1*
X1093297Y1725531D1*
X1097696Y1722539D1*
X1103110Y1719547D1*
X1108585Y1716555D1*
X1113450Y1713563D1*
X1118204Y1710571D1*
X1123697Y1707579D1*
X1130160Y1704587D1*
X1137163Y1701595D1*
X589627Y1803323D2*
X586635Y1800331D1*
X592619Y1803323D2*
X597455Y1800331D1*
X602048Y1797339D1*
X606258Y1794347D1*
X610020Y1791355D1*
X613563Y1788363D1*
X948667Y1806315D2*
Y1803323D1*
X948679Y1800331D1*
X948784Y1797339D1*
X949165Y1794347D1*
X949882Y1791355D1*
X950661Y1788363D1*
X951296Y1785371D1*
X952037Y1782379D1*
X953192Y1779387D1*
X954651Y1776395D1*
X952259Y1773403D1*
X950271Y1770411D1*
X949702Y1767419D1*
X950620Y1764427D1*
X951970Y1761435D1*
X953206Y1758443D1*
X954084Y1755451D1*
X954860Y1752459D1*
X955764Y1749467D1*
X956719Y1746475D1*
X957766Y1743483D1*
X959258Y1740491D1*
X961307Y1737499D1*
X963627Y1734507D1*
X948667Y1806315D2*
X954051Y1803323D1*
X958688Y1800331D1*
X962289Y1797339D1*
X964934Y1794347D1*
X966871Y1791355D1*
X968219Y1788363D1*
X969036Y1785371D1*
X969611Y1782379D1*
X963627D1*
X965030Y1779387D1*
X966619Y1776395D1*
X960635Y1773403D1*
X961813Y1770411D1*
X961860Y1767419D1*
X961972Y1764427D1*
X962143Y1761435D1*
X961912Y1758443D1*
X961531Y1755451D1*
X961538Y1752459D1*
X962153Y1749467D1*
X963303Y1746475D1*
X964881Y1743483D1*
X966659Y1740491D1*
X968242Y1737499D1*
X969611Y1734507D1*
X1262827Y1800331D2*
X1258376Y1797339D1*
X1254819Y1794347D1*
X1252522Y1791355D1*
X1250859Y1788363D1*
X1424395Y1794347D2*
X1427387D2*
X1431595Y1791355D1*
X1436363Y1788363D1*
X649467D2*
X662228Y1785371D1*
X673813Y1782379D1*
X684215Y1779387D1*
X693752Y1776395D1*
X702519Y1773403D1*
X710393Y1770411D1*
X717429Y1767419D1*
X723905Y1764427D1*
X729991Y1761435D1*
X735598Y1758443D1*
X740592Y1755451D1*
X745211Y1752459D1*
X1241883Y1788363D2*
Y1785371D1*
Y1782379D1*
X1244875Y1788363D2*
X1442347D2*
X1445339D2*
X1444875Y1785371D1*
X1444108Y1782379D1*
X1443209Y1779387D1*
X1442347Y1776395D1*
X1143147Y1788363D2*
X1145551Y1785371D1*
X1147301Y1782379D1*
X1148306Y1779387D1*
X1148815Y1776395D1*
X1149131Y1773403D1*
X1143147D1*
Y1770411D1*
X1158107Y1785371D2*
X1159142Y1782379D1*
X1160137Y1779387D1*
X1161097Y1776395D1*
X1162212Y1773403D1*
X1163493Y1770411D1*
X1164797Y1767419D1*
X1165968Y1764427D1*
X1167017Y1761435D1*
X1168171Y1758443D1*
X1169468Y1755451D1*
X1170778Y1752459D1*
X1171950Y1749467D1*
X1173000Y1746475D1*
X1174155Y1743483D1*
X1175452Y1740491D1*
X1176762Y1737499D1*
X1177934Y1734507D1*
X1178973Y1731515D1*
X1180034Y1728523D1*
X1181054Y1725531D1*
X1182018Y1722539D1*
X1183034Y1719547D1*
X1183948Y1716555D1*
X1184631Y1713563D1*
X1185311Y1710571D1*
X1186162Y1707579D1*
X1186984Y1704587D1*
X1187530Y1701595D1*
X1187830Y1698603D1*
X1188027Y1695611D1*
X1340619Y1785371D2*
Y1782379D1*
Y1779387D1*
X1343611Y1785371D2*
X1346027Y1782379D1*
X1347891Y1779387D1*
X1349358Y1776395D1*
X1350890Y1773403D1*
X1352587Y1770411D1*
Y1785371D2*
X1353052Y1782379D1*
X1353819Y1779387D1*
X1354717Y1776395D1*
X1355579Y1773403D1*
Y1785371D2*
X1357984Y1782379D1*
X1359744Y1779387D1*
X1360815Y1776395D1*
X1361563Y1773403D1*
X1382507Y1785371D2*
X1376523Y1782379D1*
X1370539Y1779387D1*
X1364555Y1776395D1*
X1367547Y1773403D1*
X1379515Y1785371D2*
X1381797Y1782379D1*
X1383547Y1779387D1*
X1383254Y1776395D1*
X1382507Y1773403D1*
X1436363Y1785371D2*
X1433371Y1782379D1*
X1436363Y1785371D2*
X1439355Y1782379D1*
X622539D2*
X625531Y1779387D1*
X628523Y1776395D1*
Y1782379D2*
X634507Y1779387D1*
X640491Y1776395D1*
X1337627Y1782379D2*
X1331643Y1779387D1*
X1325659Y1776395D1*
X1327051Y1773403D1*
X1327976Y1770411D1*
X1328651Y1767419D1*
X1334635Y1782379D2*
X1337627Y1779387D1*
X1388491Y1782379D2*
X1389041Y1779387D1*
X1390091Y1776395D1*
X1391483Y1773403D1*
Y1782379D2*
X1393925Y1779387D1*
X1395867Y1776395D1*
X1397467Y1773403D1*
X1128187Y1779387D2*
X1128661Y1776395D1*
X1129508Y1773403D1*
X1130676Y1770411D1*
X1132033Y1767419D1*
X1133565Y1764427D1*
X1135323Y1761435D1*
X1137242Y1758443D1*
X1139071Y1755451D1*
X1140764Y1752459D1*
X1142445Y1749467D1*
X1144264Y1746475D1*
X1146206Y1743483D1*
X1148043Y1740491D1*
X1149727Y1737499D1*
X1151315Y1734507D1*
X1152858Y1731515D1*
X1154465Y1728523D1*
X1156252Y1725531D1*
X1158193Y1722539D1*
X1160131Y1719547D1*
X1162206Y1716555D1*
X1164615Y1713563D1*
X1167307Y1710571D1*
X1170163Y1707579D1*
X1173100Y1704587D1*
X1176071Y1701595D1*
X1179055Y1698603D1*
X1182043Y1695611D1*
X1131179Y1779387D2*
X1134721Y1776395D1*
X1138763Y1773403D1*
X1143147Y1770411D1*
X1448331Y1776395D2*
X640491Y1773403D2*
X655451Y1776395D2*
X658443Y1773403D1*
X1295739Y1776395D2*
X1298582Y1773403D1*
X1301037Y1770411D1*
X1303126Y1767419D1*
X1301191Y1764427D1*
X1298731Y1761435D1*
X1304715Y1758443D1*
X1310699Y1755451D1*
X1298731Y1776395D2*
X1304715Y1773403D1*
X1310699Y1770411D1*
X1313691Y1776395D2*
Y1773403D1*
Y1770411D1*
X1316683Y1776395D2*
X1319675Y1773403D1*
X1322667Y1770411D1*
X1325659Y1767419D1*
X1328651Y1764427D1*
X1325659Y1761435D1*
X1337627Y1773403D2*
X1336038Y1770411D1*
X1334635Y1767419D1*
X1448331Y1773403D2*
X1452704Y1770411D1*
X1456559Y1767419D1*
X1460008Y1764427D1*
X1463291Y1761435D1*
X604587Y1773403D2*
X601595Y1770411D1*
X604587Y1773403D2*
X607567Y1770411D1*
X610454Y1767419D1*
X613100Y1764427D1*
X615703Y1761435D1*
X619188Y1758443D1*
X624306Y1755451D1*
X630537Y1752459D1*
X636961Y1749467D1*
X643342Y1746475D1*
X649857Y1743483D1*
X656624Y1740491D1*
X663402Y1737499D1*
X669929Y1734507D1*
X676323Y1731515D1*
X683046Y1728523D1*
X690750Y1725531D1*
X699691Y1722539D1*
X709307Y1719547D1*
X661435Y1773403D2*
X670411Y1770411D1*
X679387Y1767419D1*
Y1773403D2*
X682379Y1770411D1*
X685371Y1767419D1*
X1346603Y1770411D2*
X691355Y1767419D2*
X688363Y1764427D1*
X691355Y1767419D2*
X694347Y1764427D1*
X996539Y1767419D2*
X996653Y1764427D1*
X997037Y1761435D1*
X997765Y1758443D1*
X998638Y1755451D1*
X999553Y1752459D1*
X1000664Y1749467D1*
X1002044Y1746475D1*
X1003728Y1743483D1*
X1005615Y1740491D1*
X1007454Y1737499D1*
X1009376Y1734507D1*
X1011583Y1731515D1*
X1016541Y1728523D1*
X1023850Y1725531D1*
X1033522Y1722539D1*
X1044411Y1719547D1*
X1002523Y1767419D2*
X1005629Y1764427D1*
X1009005Y1761435D1*
X1012725Y1758443D1*
X1016590Y1755451D1*
X1020497Y1752459D1*
X1024588Y1749467D1*
X1028855Y1746475D1*
X1033150Y1743483D1*
X1037312Y1740491D1*
X1041341Y1737499D1*
X1045394Y1734507D1*
X1049415Y1731515D1*
X1053454Y1728523D1*
X1057785Y1725531D1*
X1062363Y1722539D1*
X1056379Y1719547D1*
X700331Y1764427D2*
X697339Y1761435D1*
X706315Y1764427D2*
X709307Y1761435D1*
X885835Y1764427D2*
X876859Y1761435D1*
X867883Y1758443D1*
X870875Y1755451D1*
X873867Y1752459D1*
X879851Y1764427D2*
X882379Y1761435D1*
X884604Y1758443D1*
X886697Y1755451D1*
X888827Y1752459D1*
X1319675Y1761435D2*
X1318086Y1758443D1*
X1316683Y1755451D1*
X1469275Y1761435D2*
X1472267D2*
X1471717Y1758443D1*
X1470667Y1755451D1*
X1469275Y1752459D1*
X1474084Y1749467D1*
X1478134Y1746475D1*
X1479879Y1743483D1*
X1481243Y1740491D1*
X1490219D1*
X1489208Y1737499D1*
X1488423Y1734507D1*
X1487996Y1731515D1*
X1488726Y1728523D1*
X1489895Y1725531D1*
X1491472Y1722539D1*
X1493227Y1719547D1*
X1494741Y1716555D1*
X1495984Y1713563D1*
X1497229Y1710571D1*
X1498576Y1707579D1*
X1499995Y1704587D1*
X1501449Y1701595D1*
X1502824Y1698603D1*
X1503960Y1695611D1*
X1504972Y1692619D1*
X1506201Y1689627D1*
X1509797Y1686635D1*
X1514155Y1683643D1*
X1511163Y1680651D1*
X1508171Y1677659D1*
X1512753Y1674667D1*
X1517147Y1671675D1*
X1516288Y1668683D1*
X1517112Y1665691D1*
X1518035Y1662699D1*
X1518691Y1659707D1*
X1519609Y1656715D1*
X1521181Y1653723D1*
X1523038Y1650731D1*
X1524695Y1647739D1*
X1526123Y1644747D1*
X1508171Y1641755D1*
X1520139Y1638763D1*
X1517147Y1635771D1*
X1518310Y1632779D1*
X1518040Y1629787D1*
X1516717Y1626795D1*
X1515543Y1623803D1*
X1514745Y1620811D1*
X1514155Y1617819D1*
X1505179D1*
Y1614827D1*
X763163Y1758443D2*
X758582Y1755451D1*
X754187Y1752459D1*
X793083Y1758443D2*
X1125195Y1755451D2*
Y1752459D1*
Y1749467D1*
X1131179Y1755451D2*
Y1752459D1*
Y1749467D1*
X1292747Y1755451D2*
X1295739Y1752459D1*
X1298731Y1749467D1*
X1304715Y1755451D2*
Y1752459D1*
Y1749467D1*
X1286763D2*
Y1746475D1*
Y1743483D1*
Y1740491D1*
Y1737499D1*
X1277787D1*
Y1734507D1*
X1298731Y1749467D2*
X1296213Y1746475D1*
X1294077Y1743483D1*
X1292330Y1740491D1*
X1290930Y1737499D1*
X1289755Y1734507D1*
X1134171Y1746475D2*
X1131755Y1743483D1*
X1129891Y1740491D1*
X1128424Y1737499D1*
X1126892Y1734507D1*
X1125195Y1731515D1*
X1126565Y1728523D1*
X1127319Y1725531D1*
X1127396Y1722539D1*
X1126966Y1719547D1*
X1126364Y1716555D1*
X1131735Y1713563D1*
X1140767Y1710571D1*
X1152123Y1707579D1*
X1150721Y1704587D1*
X1149131Y1701595D1*
X1134171Y1746475D2*
X1136701Y1743483D1*
X1138939Y1740491D1*
X1141051Y1737499D1*
X1143138Y1734507D1*
X1145124Y1731515D1*
X1147116Y1728523D1*
X1149153Y1725531D1*
X1151119Y1722539D1*
X1153104Y1719547D1*
X1155138Y1716555D1*
X1157115Y1713563D1*
X1159205Y1710571D1*
X1161620Y1707579D1*
X1164314Y1704587D1*
X1167171Y1701595D1*
X1170108Y1698603D1*
X1173079Y1695611D1*
X1176051Y1692619D1*
X1178936Y1689627D1*
X1181545Y1686635D1*
X1183820Y1683643D1*
X1186045Y1680651D1*
X1188504Y1677659D1*
X1191113Y1674667D1*
X1193585Y1671675D1*
X1195703Y1668683D1*
X1197515Y1665691D1*
X1199156Y1662699D1*
X1200707Y1659707D1*
X1202228Y1656715D1*
X1203739Y1653723D1*
X1205318Y1650731D1*
X1207065Y1647739D1*
X1208971Y1644747D1*
X1205979Y1641755D1*
X1202987Y1638763D1*
X1199995Y1635771D1*
X823003Y1740491D2*
X805051Y1737499D1*
X787099Y1734507D1*
X817019Y1731515D1*
X846939Y1728523D1*
X805051Y1740491D2*
X823249Y1737499D1*
X842130Y1734507D1*
X862128Y1731515D1*
X882843Y1728523D1*
X891819Y1731515D2*
Y1728523D1*
Y1725531D1*
Y1722539D1*
Y1731515D2*
X911113Y1728523D1*
X928907Y1725531D1*
X945675Y1722539D1*
X927723D2*
X1274795Y1725531D2*
X1271803Y1722539D1*
X1274795Y1725531D2*
X1277787Y1722539D1*
X751195D2*
X748203Y1719547D1*
X754187Y1722539D2*
X757179Y1719547D1*
X760159Y1716555D1*
X763058Y1713563D1*
X765797Y1710571D1*
X768711Y1707579D1*
X772918Y1704587D1*
X779908Y1701595D1*
X790802Y1698603D1*
X805596Y1695611D1*
X822869Y1692619D1*
X840955Y1689627D1*
X945675Y1722539D2*
X954651Y1719547D1*
X963627Y1716555D1*
X960635Y1722539D2*
X966619Y1719547D1*
X972603Y1716555D1*
X1271803Y1719547D2*
X1268811Y1716555D1*
X1271803Y1719547D2*
X1274795Y1716555D1*
X1020475Y1713563D2*
X1023467Y1710571D1*
X1026459Y1707579D1*
X1062363Y1713563D2*
X1050395Y1710571D1*
X1038427Y1707579D1*
X1385499D2*
Y1704587D1*
Y1701595D1*
Y1698603D1*
X1391483Y1707579D2*
Y1704587D1*
Y1701595D1*
Y1698603D1*
X1241883Y1704587D2*
X1244875Y1701595D1*
X1247867Y1698603D1*
X1250859Y1704587D2*
X1253851Y1701595D1*
X1256843Y1698603D1*
X948667D2*
X945675Y1695611D1*
X933707Y1698603D2*
X952448Y1695611D1*
X969099Y1692619D1*
X983710Y1689627D1*
X996539Y1686635D1*
X1006644Y1683643D1*
X1013453Y1680651D1*
X1017790Y1677659D1*
X1020914Y1674667D1*
X1023745Y1671675D1*
X1026596Y1668683D1*
X1029522Y1665691D1*
X1032606Y1662699D1*
X1036211Y1659707D1*
X1041062Y1656715D1*
X1048088Y1653723D1*
X1058152Y1650731D1*
X1071380Y1647739D1*
X1086299Y1644747D1*
X930715Y1695611D2*
X906779Y1692619D1*
X882843Y1689627D1*
X1050395Y1692619D2*
Y1689627D1*
Y1686635D1*
X1089291Y1692619D2*
Y1689627D1*
Y1686635D1*
X1095275Y1689627D2*
X1092283Y1686635D1*
X1095275Y1689627D2*
X1098267Y1686635D1*
X1406443Y1680651D2*
X1405893Y1677659D1*
X1404843Y1674667D1*
X1403451Y1671675D1*
X1412427Y1680651D2*
Y1677659D1*
Y1674667D1*
Y1671675D1*
Y1668683D1*
Y1665691D1*
Y1662699D1*
Y1659707D1*
X1436363Y1680651D2*
X1433371Y1677659D1*
X1436363Y1680651D2*
X1439355Y1677659D1*
X1370539Y1674667D2*
X1372908Y1671675D1*
X1374825Y1668683D1*
X1375553Y1665691D1*
X1371885Y1662699D1*
X1367547Y1659707D1*
X1368928Y1656715D1*
X1369776Y1653723D1*
X1370097Y1650731D1*
X1369827Y1647739D1*
X1368885Y1644747D1*
X1367547Y1641755D1*
X1372431Y1638763D1*
X1376315Y1635771D1*
X1379515Y1632779D1*
Y1674667D2*
X1382507Y1671675D1*
X1385499Y1668683D1*
X1388491Y1665691D1*
X1391483Y1662699D1*
Y1674667D2*
X1391606Y1671675D1*
X1392070Y1668683D1*
X1393094Y1665691D1*
X1394475Y1662699D1*
Y1674667D2*
X1397467Y1671675D1*
X1421403D2*
X1418534Y1668683D1*
X1416006Y1665691D1*
X1414038Y1662699D1*
X1412427Y1659707D1*
X1424395Y1671675D2*
Y1668683D1*
Y1665691D1*
X1430379Y1668683D2*
X1427387Y1665691D1*
X1430379Y1668683D2*
X1432783Y1665691D1*
X1434533Y1662699D1*
X1435535Y1659707D1*
X1436021Y1656715D1*
X1436231Y1653723D1*
X1436317Y1650731D1*
X1436363Y1647739D1*
X1424395Y1653723D2*
X1423003Y1650731D1*
X1422078Y1647739D1*
X1421403Y1644747D1*
X1412427D1*
Y1641755D1*
X1404417Y1638763D1*
X1398775Y1635771D1*
X1394475Y1632779D1*
X1427387Y1650731D2*
X1430379Y1647739D1*
X1128187Y1644747D2*
X1127611Y1641755D1*
X1126474Y1638763D1*
X1124795Y1635771D1*
X1122843Y1632779D1*
X1117836Y1629787D1*
X1109818Y1626795D1*
X1100086Y1623803D1*
X1091479Y1620811D1*
X1085216Y1617819D1*
X1080315Y1614827D1*
X1086299Y1611835D1*
X1085081Y1608843D1*
X1084265Y1605851D1*
X1087940Y1602859D1*
X1092283Y1599867D1*
X1085925Y1596875D1*
X1080315Y1593883D1*
X1083307Y1590891D1*
X1080865Y1587899D1*
X1078923Y1584907D1*
X1077323Y1581915D1*
X1164091Y1644747D2*
X1164079Y1641755D1*
X1163974Y1638763D1*
X1163593Y1635771D1*
X1162876Y1632779D1*
X1162109Y1629787D1*
X1161585Y1626795D1*
X1161292Y1623803D1*
X1161099Y1620811D1*
X1167083Y1644747D2*
X1170537Y1641755D1*
X1174260Y1638763D1*
X1177921Y1635771D1*
X1181054Y1632779D1*
X1183583Y1629787D1*
X1185816Y1626795D1*
X1188027Y1623803D1*
X1173067Y1620811D1*
X1146139Y1638763D2*
X1143147Y1635771D1*
X1140155Y1632779D1*
X1152123Y1638763D2*
X1149131Y1635771D1*
X1146139Y1632779D1*
X1211963Y1638763D2*
X1208971Y1635771D1*
X1205979Y1632779D1*
X1210350Y1629787D1*
X1213707Y1626795D1*
X1216563Y1623803D1*
X1219174Y1620811D1*
X1221660Y1617819D1*
X1224251Y1614827D1*
X1226923Y1611835D1*
X1223931Y1608843D1*
X1228700Y1605851D1*
X1232907Y1602859D1*
X1229915Y1599867D1*
X1241322Y1596875D1*
X1253851Y1593883D1*
X1223931Y1638763D2*
X1226221Y1635771D1*
X1227995Y1632779D1*
X1228214Y1629787D1*
X1228398Y1626795D1*
X1230244Y1623803D1*
X1232777Y1620811D1*
X1235567Y1617819D1*
X1238771Y1614827D1*
X1242948Y1611835D1*
X1247867Y1608843D1*
X1246278Y1605851D1*
X1244875Y1602859D1*
X1250651Y1599867D1*
X1255493Y1596875D1*
X1259835Y1593883D1*
X1550059Y1623803D2*
X1540533Y1620811D1*
X1530507Y1617819D1*
X1520139Y1614827D1*
X1576987Y1623803D2*
X1580402Y1620811D1*
X1583390Y1617819D1*
X1584568Y1614827D1*
X1584273Y1611835D1*
X1583654Y1608843D1*
X1582971Y1605851D1*
X1588725Y1602859D1*
X1593436Y1599867D1*
X1597286Y1596875D1*
X1600558Y1593883D1*
X1603314Y1590891D1*
X1605543Y1587899D1*
X1607396Y1584907D1*
X1609052Y1581915D1*
X1610609Y1578923D1*
X1612131Y1575931D1*
X1613633Y1572939D1*
X1615123Y1569947D1*
X1616513Y1566955D1*
X1617630Y1563963D1*
X1618407Y1560971D1*
X1619127Y1557979D1*
X1619993Y1554987D1*
X1620821Y1551995D1*
X1621366Y1549003D1*
X1621652Y1546011D1*
X1621782Y1543019D1*
X1621835Y1540027D1*
X1621856Y1537035D1*
X1621851Y1534043D1*
X1621749Y1531051D1*
X1621368Y1528059D1*
X1620640Y1525067D1*
X1619768Y1522075D1*
X1618853Y1519083D1*
X1617745Y1516091D1*
X1616381Y1513099D1*
X1614737Y1510107D1*
X1612891Y1507115D1*
X1617956Y1504123D1*
X1623811Y1501131D1*
X1630041Y1498139D1*
X1636081Y1495147D1*
X1641929Y1492155D1*
X1647960Y1489163D1*
X1654231Y1486171D1*
X1660476Y1483179D1*
X1666617Y1480187D1*
X1672678Y1477195D1*
X1678683Y1474203D1*
X1684575Y1471211D1*
X1690182Y1468219D1*
X1695440Y1465227D1*
X1700552Y1462235D1*
X1705621Y1459243D1*
X1710495Y1456251D1*
X1715086Y1453259D1*
X1719270Y1450267D1*
X1722857Y1447275D1*
X1725705Y1444283D1*
X1727957Y1441291D1*
X1728791Y1438299D1*
X1729243Y1435307D1*
X1729447Y1432315D1*
X1729531Y1429323D1*
X1729563Y1426331D1*
X1729579Y1423339D1*
X1202987Y1611835D2*
X1199995Y1608843D1*
X1202987Y1611835D2*
X1205979Y1608843D1*
X1086299Y1587899D2*
X1083307Y1584907D1*
X1080315Y1581915D1*
X1092283Y1587899D2*
X1089879Y1584907D1*
X1088118Y1581915D1*
X1087010Y1578923D1*
X1086131Y1575931D1*
X1085090Y1572939D1*
X1083769Y1569947D1*
X1082147Y1566955D1*
X1080315Y1563963D1*
X1086299Y1560971D1*
X1085032Y1557979D1*
X1084257Y1554987D1*
X1084764Y1551995D1*
X1085394Y1549003D1*
X1085852Y1546011D1*
X1086103Y1543019D1*
X1086209Y1540027D1*
X1086153Y1537035D1*
X1085790Y1534043D1*
X1085081Y1531051D1*
X1084316Y1528059D1*
X1083795Y1525067D1*
X1083506Y1522075D1*
X1083251Y1519083D1*
X1082869Y1516091D1*
X1081344Y1513099D1*
X1077667Y1510107D1*
X1072808Y1507115D1*
X1067187Y1504123D1*
X1061663Y1501131D1*
X1056929Y1498139D1*
X1053268Y1495147D1*
X1050580Y1492155D1*
X1048418Y1489163D1*
X1046293Y1486171D1*
X1043880Y1483179D1*
X1041191Y1480187D1*
X1038337Y1477195D1*
X1035401Y1474203D1*
X1032443Y1471211D1*
X1029564Y1468219D1*
X1026956Y1465227D1*
X1024681Y1462235D1*
X1022469Y1459243D1*
X1020104Y1456251D1*
X1017770Y1453259D1*
X1015622Y1450267D1*
X1013450Y1447275D1*
X1011011Y1444283D1*
X1008409Y1441291D1*
X1005928Y1438299D1*
X1003706Y1435307D1*
X1001502Y1432315D1*
X999039Y1429323D1*
X996315Y1426331D1*
X993346Y1423339D1*
X990014Y1420347D1*
X986208Y1417355D1*
X981970Y1414363D1*
X977373Y1411371D1*
X972726Y1408379D1*
X968629Y1405387D1*
X964819Y1402395D1*
X959402Y1399403D1*
X950646Y1396411D1*
X939691Y1393419D1*
X1262827Y1587899D2*
X1263414Y1584907D1*
X1264646Y1581915D1*
X1266567Y1578923D1*
X1268811Y1575931D1*
X1265819Y1572939D1*
X1274795Y1587899D2*
X1275345Y1584907D1*
X1276395Y1581915D1*
X1277787Y1578923D1*
X1274795Y1575931D1*
X1271803Y1572939D1*
X1585963Y1581915D2*
X1585501Y1578923D1*
X1584759Y1575931D1*
X1583984Y1572939D1*
X1583472Y1569947D1*
X1583299Y1566955D1*
X1583553Y1563963D1*
X1584218Y1560971D1*
X1584972Y1557979D1*
X1585532Y1554987D1*
X1585963Y1551995D1*
X1591947Y1581915D2*
Y1578923D1*
Y1575931D1*
Y1572939D1*
Y1569947D1*
Y1566955D1*
Y1563963D1*
Y1560971D1*
Y1557979D1*
Y1554987D1*
Y1551995D1*
X1116219Y1572939D2*
X1113227Y1569947D1*
X1116219Y1572939D2*
X1119211Y1569947D1*
X1110235Y1566955D2*
X1109773Y1563963D1*
X1109031Y1560971D1*
X1108256Y1557979D1*
X1107732Y1554987D1*
X1107453Y1551995D1*
X1107321Y1549003D1*
X1107243Y1546011D1*
X1116219Y1566955D2*
X1116105Y1563963D1*
X1115722Y1560971D1*
X1115005Y1557979D1*
X1114237Y1554987D1*
X1113713Y1551995D1*
X1113420Y1549003D1*
X1113227Y1546011D1*
X1149131Y1537035D2*
X1146253Y1534043D1*
X1143656Y1531051D1*
X1141487Y1528059D1*
X1139655Y1525067D1*
X1138018Y1522075D1*
X1136557Y1519083D1*
X1135324Y1516091D1*
X1134250Y1513099D1*
X1133087Y1510107D1*
X1131776Y1507115D1*
X1130360Y1504123D1*
X1128794Y1501131D1*
X1126922Y1498139D1*
X1124610Y1495147D1*
X1121976Y1492155D1*
X1119211Y1489163D1*
X1152123Y1537035D2*
X1151661Y1534043D1*
X1150918Y1531051D1*
X1150136Y1528059D1*
X1149567Y1525067D1*
X1149131Y1522075D1*
X1156732Y1519083D1*
X1163078Y1516091D1*
X1168339Y1513099D1*
X1173067Y1510107D1*
X1376523Y1537035D2*
X1403451Y1534043D1*
X1430379Y1531051D1*
X1433371Y1537035D2*
X1436363Y1534043D1*
X1439355Y1531051D1*
X1460299Y1522075D2*
X1463291Y1519083D1*
X1466283Y1516091D1*
X1469275Y1513099D1*
X1472267Y1510107D1*
X1475259Y1507115D1*
X1478251Y1504123D1*
X1463291Y1522075D2*
X1468225Y1519083D1*
X1472225Y1516091D1*
X1475444Y1513099D1*
X1478397Y1510107D1*
X1481313Y1507115D1*
X1484235Y1504123D1*
X1325659Y1519083D2*
X1325671Y1516091D1*
X1325776Y1513099D1*
X1326157Y1510107D1*
X1326886Y1507115D1*
X1327758Y1504123D1*
X1328661Y1501131D1*
X1329655Y1498139D1*
X1330549Y1495147D1*
X1331135Y1492155D1*
X1331538Y1489163D1*
X1332053Y1486171D1*
X1332825Y1483179D1*
X1333613Y1480187D1*
X1334143Y1477195D1*
X1334423Y1474203D1*
X1334551Y1471211D1*
X1334604Y1468219D1*
X1334624Y1465227D1*
X1334631Y1462235D1*
X1334634Y1459243D1*
X1334635Y1456251D1*
Y1453259D1*
Y1450267D1*
Y1447275D1*
Y1444283D1*
Y1441291D1*
Y1438299D1*
Y1435307D1*
Y1432315D1*
Y1429323D1*
Y1426331D1*
Y1423339D1*
Y1420347D1*
Y1417355D1*
Y1414363D1*
Y1411371D1*
Y1408379D1*
Y1405387D1*
Y1402395D1*
Y1399403D1*
Y1396411D1*
Y1393419D1*
Y1390427D1*
Y1387435D1*
Y1384443D1*
Y1381451D1*
Y1378459D1*
Y1375467D1*
Y1372475D1*
Y1369483D1*
Y1366491D1*
Y1363499D1*
Y1360507D1*
Y1357515D1*
Y1354523D1*
Y1351531D1*
Y1348539D1*
X1334623Y1345547D1*
X1334518Y1342555D1*
X1334125Y1339563D1*
X1333280Y1336571D1*
X1331898Y1333579D1*
X1329686Y1330587D1*
X1326446Y1327595D1*
X1322830Y1324603D1*
X1319511Y1321611D1*
X1317883Y1318619D1*
X1317703Y1315627D1*
X1318127Y1312635D1*
X1318865Y1309643D1*
X1319727Y1306651D1*
X1320806Y1303659D1*
X1322086Y1300667D1*
X1323480Y1297675D1*
X1324937Y1294683D1*
X1326415Y1291691D1*
X1327907Y1288699D1*
X1329399Y1285707D1*
X1330897Y1282715D1*
X1332390Y1279723D1*
X1333888Y1276731D1*
X1335382Y1273739D1*
X1336880Y1270747D1*
X1338386Y1267755D1*
X1339977Y1264763D1*
X1341759Y1261771D1*
X1343686Y1258779D1*
X1345506Y1255787D1*
X1347095Y1252795D1*
X1348394Y1249803D1*
X1349485Y1246811D1*
X1350555Y1243819D1*
X1351489Y1240827D1*
X1352179Y1237835D1*
X1352861Y1234843D1*
X1353714Y1231851D1*
X1354548Y1228859D1*
X1355208Y1225867D1*
X1355991Y1222875D1*
X1357335Y1219883D1*
X1359371Y1216891D1*
X1361907Y1213899D1*
X1364789Y1210907D1*
X1367964Y1207915D1*
X1371144Y1204923D1*
X1373677Y1201931D1*
X1375501Y1198939D1*
X1376169Y1195947D1*
X1376952Y1192955D1*
X1378289Y1189963D1*
X1380319Y1186971D1*
X1382829Y1183979D1*
X1385500Y1180987D1*
X1387923Y1177995D1*
X1389787Y1175003D1*
X1391284Y1172011D1*
X1392983Y1169019D1*
X1395175Y1166027D1*
X1397750Y1163035D1*
X1400446Y1160043D1*
X1402867Y1157051D1*
X1404628Y1154059D1*
X1405745Y1151067D1*
X1406717Y1148075D1*
X1408024Y1145083D1*
X1409603Y1142091D1*
X1411029Y1139099D1*
X1412209Y1136107D1*
X1413220Y1133115D1*
X1414019Y1130123D1*
X1413409Y1127131D1*
X1412427Y1124139D1*
X1334635Y1519083D2*
Y1516091D1*
Y1513099D1*
Y1510107D1*
X1346603Y1519083D2*
X1343611Y1516091D1*
X1340619Y1513099D1*
X1337627Y1510107D1*
X1349595Y1519083D2*
X1349607Y1516091D1*
X1349759Y1513099D1*
X1350144Y1510107D1*
X1352196Y1507115D1*
X1356284Y1504123D1*
X1359977Y1501131D1*
X1362773Y1498139D1*
X1363536Y1495147D1*
X1363075Y1492155D1*
X1362462Y1489163D1*
X1362009Y1486171D1*
X1361759Y1483179D1*
X1361642Y1480187D1*
X1361593Y1477195D1*
X1361574Y1474203D1*
X1361567Y1471211D1*
X1361564Y1468219D1*
X1361575Y1465227D1*
X1361680Y1462235D1*
X1362061Y1459243D1*
X1362790Y1456251D1*
X1363662Y1453259D1*
X1364577Y1450267D1*
X1365676Y1447275D1*
X1366951Y1444283D1*
X1368254Y1441291D1*
X1369436Y1438299D1*
X1370590Y1435307D1*
X1372137Y1432315D1*
X1374267Y1429323D1*
X1376831Y1426331D1*
X1379635Y1423339D1*
X1382563Y1420347D1*
X1385632Y1417355D1*
X1388995Y1414363D1*
X1392700Y1411371D1*
X1396469Y1408379D1*
X1400111Y1405387D1*
X1403992Y1402395D1*
X1408778Y1399403D1*
X1414760Y1396411D1*
X1421403Y1393419D1*
X1179051Y1513099D2*
X1179601Y1510107D1*
X1180651Y1507115D1*
X1182043Y1504123D1*
X1367547Y1513099D2*
X1365105Y1510107D1*
X1363163Y1507115D1*
X1361563Y1504123D1*
X1373531Y1513099D2*
X1371013Y1510107D1*
X1368880Y1507115D1*
X1367161Y1504123D1*
X1365896Y1501131D1*
X1365059Y1498139D1*
X1364316Y1495147D1*
X1363441Y1492155D1*
X1362610Y1489163D1*
X1362064Y1486171D1*
X1361778Y1483179D1*
X1361648Y1480187D1*
X1361595Y1477195D1*
X1361574Y1474203D1*
X1361567Y1471211D1*
X1361564Y1468219D1*
X1361575Y1465227D1*
X1361680Y1462235D1*
X1362061Y1459243D1*
X1362790Y1456251D1*
X1363662Y1453259D1*
X1364577Y1450267D1*
X1365676Y1447275D1*
X1366951Y1444283D1*
X1368254Y1441291D1*
X1369436Y1438299D1*
X1370590Y1435307D1*
X1372137Y1432315D1*
X1374267Y1429323D1*
X1376831Y1426331D1*
X1379635Y1423339D1*
X1382563Y1420347D1*
X1385632Y1417355D1*
X1388995Y1414363D1*
X1392700Y1411371D1*
X1396469Y1408379D1*
X1400111Y1405387D1*
X1403992Y1402395D1*
X1408778Y1399403D1*
X1414760Y1396411D1*
X1421403Y1393419D1*
X1547067Y1513099D2*
X1553741Y1510107D1*
X1561239Y1507115D1*
X1569490Y1504123D1*
X1577825Y1501131D1*
X1585963Y1498139D1*
X1556043Y1513099D2*
X1566847Y1510107D1*
X1576445Y1507115D1*
X1584901Y1504123D1*
X1592926Y1501131D1*
X1600923Y1498139D1*
X1197003Y1510107D2*
Y1507115D1*
Y1504123D1*
X1202987Y1510107D2*
Y1507115D1*
Y1504123D1*
Y1501131D1*
X1217947D1*
X1219104Y1498139D1*
X1222624Y1495147D1*
X1226923Y1492155D1*
X1217947Y1510107D2*
X1214955Y1507115D1*
X1217947Y1510107D2*
X1220939Y1507115D1*
X1188027D2*
X1185035Y1504123D1*
X1188027Y1507115D2*
X1191019Y1504123D1*
X1412427D2*
X1412901Y1501131D1*
X1413772Y1498139D1*
X1415150Y1495147D1*
X1417270Y1492155D1*
X1420246Y1489163D1*
X1423644Y1486171D1*
X1427000Y1483179D1*
X1430205Y1480187D1*
X1433300Y1477195D1*
X1436336Y1474203D1*
X1439346Y1471211D1*
X1442347Y1468219D1*
X1418411Y1504123D2*
X1423807Y1501131D1*
X1428549Y1498139D1*
X1432531Y1495147D1*
X1435892Y1492155D1*
X1438608Y1489163D1*
X1440574Y1486171D1*
X1441997Y1483179D1*
X1443225Y1480187D1*
X1444321Y1477195D1*
X1445392Y1474203D1*
X1446741Y1471211D1*
X1448331Y1468219D1*
X1478251Y1501131D2*
X1480769Y1498139D1*
X1482902Y1495147D1*
X1484622Y1492155D1*
X1485884Y1489163D1*
X1486669Y1486171D1*
X1487227Y1483179D1*
X1484235Y1501131D2*
X1486753Y1498139D1*
X1488886Y1495147D1*
X1490606Y1492155D1*
X1491868Y1489163D1*
X1492653Y1486171D1*
X1493211Y1483179D1*
X1235899Y1498139D2*
X1232907Y1495147D1*
X1229915Y1492155D1*
X1241883Y1498139D2*
Y1495147D1*
Y1492155D1*
Y1489163D1*
Y1486171D1*
X1600923Y1498139D2*
X1603915Y1495147D1*
X1606907Y1492155D1*
X1609899Y1489163D1*
X1612891Y1498139D2*
X1618875Y1495147D1*
X1624859Y1492155D1*
X1630843Y1489163D1*
X1104251Y1492155D2*
X1101847Y1489163D1*
X1100086Y1486171D1*
X1098978Y1483179D1*
X1098099Y1480187D1*
X1097068Y1477195D1*
X1095824Y1474203D1*
X1094437Y1471211D1*
X1092883Y1468219D1*
X1091016Y1465227D1*
X1088703Y1462235D1*
X1086040Y1459243D1*
X1083105Y1456251D1*
X1079886Y1453259D1*
X1076477Y1450267D1*
X1073061Y1447275D1*
X1069589Y1444283D1*
X1065970Y1441291D1*
X1062226Y1438299D1*
X1058315Y1435307D1*
X1054461Y1432315D1*
X1050907Y1429323D1*
X1047623Y1426331D1*
X1044486Y1423339D1*
X1041335Y1420347D1*
X1037940Y1417355D1*
X1034213Y1414363D1*
X1030346Y1411371D1*
X1026438Y1408379D1*
X1022335Y1405387D1*
X1017950Y1402395D1*
X1013181Y1399403D1*
X1008003Y1396411D1*
X1002649Y1393419D1*
X997156Y1390427D1*
X991285Y1387435D1*
X985074Y1384443D1*
X978825Y1381451D1*
X972603Y1378459D1*
X1110235Y1492155D2*
X1113227Y1489163D1*
X1244875Y1492155D2*
Y1489163D1*
Y1486171D1*
X1250859Y1492155D2*
Y1489163D1*
Y1486171D1*
X1263497Y1483179D1*
X1272777Y1480187D1*
X1279554Y1477195D1*
X1282135Y1474203D1*
X1283017Y1471211D1*
X1283466Y1468219D1*
X1283657Y1465227D1*
X1283730Y1462235D1*
X1283757Y1459243D1*
X1283767Y1456251D1*
X1283770Y1453259D1*
X1283771Y1450267D1*
Y1447275D1*
Y1444283D1*
Y1441291D1*
Y1438299D1*
Y1435307D1*
Y1432315D1*
Y1429323D1*
Y1426331D1*
Y1423339D1*
Y1420347D1*
X1283759Y1417355D1*
X1283654Y1414363D1*
X1283273Y1411371D1*
X1282556Y1408379D1*
X1281789Y1405387D1*
X1281267Y1402395D1*
X1280990Y1399403D1*
X1280863Y1396411D1*
X1280811Y1393419D1*
X1280790Y1390427D1*
X1280771Y1387435D1*
X1280664Y1384443D1*
X1280281Y1381451D1*
X1279564Y1378459D1*
X1278797Y1375467D1*
X1278275Y1372475D1*
X1277998Y1369483D1*
X1277871Y1366491D1*
X1277819Y1363499D1*
X1277798Y1360507D1*
X1277791Y1357515D1*
X1277788Y1354523D1*
Y1351531D1*
X1277799Y1348539D1*
X1277904Y1345547D1*
X1278297Y1342555D1*
X1279119Y1339563D1*
X1280279Y1336571D1*
X1281634Y1333579D1*
X1283177Y1330587D1*
X1285029Y1327595D1*
X1287224Y1324603D1*
X1289376Y1321611D1*
X1291003Y1318619D1*
X1291952Y1315627D1*
X1292417Y1312635D1*
X1292619Y1309643D1*
X1292700Y1306651D1*
X1292742Y1303659D1*
X1292858Y1300667D1*
X1293243Y1297675D1*
X1293973Y1294683D1*
X1294857Y1291691D1*
X1295866Y1288699D1*
X1297253Y1285707D1*
X1298969Y1282715D1*
X1300703Y1279723D1*
X1302356Y1276731D1*
X1304021Y1273739D1*
X1305835Y1270747D1*
X1307786Y1267755D1*
X1309717Y1264763D1*
X1311688Y1261771D1*
X1313705Y1258779D1*
X1315563Y1255787D1*
X1317166Y1252795D1*
X1318472Y1249803D1*
X1319564Y1246811D1*
X1320646Y1243819D1*
X1321674Y1240827D1*
X1322640Y1237835D1*
X1323658Y1234843D1*
X1324572Y1231851D1*
X1325255Y1228859D1*
X1325946Y1225867D1*
X1326973Y1222875D1*
X1328342Y1219883D1*
X1332250Y1216891D1*
X1337795Y1213899D1*
X1343452Y1210907D1*
X1347647Y1207915D1*
X1350736Y1204923D1*
X1352159Y1201931D1*
X1353427Y1198939D1*
X1354548Y1195947D1*
X1355663Y1192955D1*
X1357179Y1189963D1*
X1359195Y1186971D1*
X1361363Y1183979D1*
X1363332Y1180987D1*
X1364994Y1177995D1*
X1366326Y1175003D1*
X1367432Y1172011D1*
X1368533Y1169019D1*
X1369586Y1166027D1*
X1370539Y1163035D1*
X1511163Y1486171D2*
Y1483179D1*
Y1480187D1*
Y1477195D1*
X1517147Y1486171D2*
Y1483179D1*
Y1480187D1*
Y1477195D1*
X1603915Y1483179D2*
Y1480187D1*
X1603903Y1477195D1*
X1603798Y1474203D1*
X1603417Y1471211D1*
X1602700Y1468219D1*
X1601933Y1465227D1*
X1601400Y1462235D1*
X1601005Y1459243D1*
X1600380Y1456251D1*
X1599113Y1453259D1*
X1597111Y1450267D1*
X1594600Y1447275D1*
X1591816Y1444283D1*
X1588907Y1441291D1*
X1585935Y1438299D1*
X1582848Y1435307D1*
X1579479Y1432315D1*
X1575760Y1429323D1*
X1571884Y1426331D1*
X1567849Y1423339D1*
X1563108Y1420347D1*
X1556784Y1417355D1*
X1547904Y1414363D1*
X1536245Y1411371D1*
X1523131Y1408379D1*
X1522669Y1405387D1*
X1521927Y1402395D1*
X1521152Y1399403D1*
X1520628Y1396411D1*
X1520350Y1393419D1*
X1520223Y1390427D1*
X1520171Y1387435D1*
X1520150Y1384443D1*
X1520143Y1381451D1*
X1520152Y1378459D1*
X1520256Y1375467D1*
X1520649Y1372475D1*
X1521482Y1369483D1*
X1522736Y1366491D1*
X1524367Y1363499D1*
X1526234Y1360507D1*
X1528031Y1357515D1*
X1529611Y1354523D1*
X1530908Y1351531D1*
X1531998Y1348539D1*
X1533067Y1345547D1*
X1534001Y1342555D1*
X1534691Y1339563D1*
X1535385Y1336571D1*
X1536342Y1333579D1*
X1537558Y1330587D1*
X1538923Y1327595D1*
X1540368Y1324603D1*
X1541841Y1321611D1*
X1543332Y1318619D1*
X1544835Y1315627D1*
X1546426Y1312635D1*
X1548207Y1309643D1*
X1550134Y1306651D1*
X1551966Y1303659D1*
X1553648Y1300667D1*
X1555235Y1297675D1*
X1556767Y1294683D1*
X1558268Y1291691D1*
X1559674Y1288699D1*
X1560886Y1285707D1*
X1561940Y1282715D1*
X1562995Y1279723D1*
X1563912Y1276731D1*
X1564495Y1273739D1*
X1564784Y1270747D1*
X1564805Y1267755D1*
X1564398Y1264763D1*
X1563397Y1261771D1*
X1562027Y1258779D1*
X1603915Y1483179D2*
X1616094Y1480187D1*
X1627803Y1477195D1*
X1638104Y1474203D1*
X1646526Y1471211D1*
X1653384Y1468219D1*
X1659200Y1465227D1*
X1664625Y1462235D1*
X1670065Y1459243D1*
X1675420Y1456251D1*
X1680559Y1453259D1*
X1685610Y1450267D1*
X1690555Y1447275D1*
X1695052Y1444283D1*
X1699030Y1441291D1*
X1702850Y1438299D1*
X1706877Y1435307D1*
X1711324Y1432315D1*
X1716536Y1429323D1*
X1722768Y1426331D1*
X1729579Y1423339D1*
X1062363Y1480187D2*
X1059371Y1477195D1*
X1056379Y1474203D1*
X1068347Y1480187D2*
X1065355Y1477195D1*
X1062363Y1474203D1*
X1298731Y1480187D2*
Y1477195D1*
Y1474203D1*
Y1471211D1*
Y1468219D1*
Y1465227D1*
Y1462235D1*
Y1459243D1*
Y1456251D1*
Y1453259D1*
Y1450267D1*
Y1447275D1*
Y1444283D1*
Y1441291D1*
Y1438299D1*
Y1435307D1*
Y1432315D1*
Y1429323D1*
Y1426331D1*
Y1423339D1*
X1298719Y1420347D1*
X1298614Y1417355D1*
X1298233Y1414363D1*
X1297516Y1411371D1*
X1296749Y1408379D1*
X1296227Y1405387D1*
X1295950Y1402395D1*
X1295823Y1399403D1*
X1295771Y1396411D1*
X1295750Y1393419D1*
X1295743Y1390427D1*
X1295729Y1387435D1*
X1295614Y1384443D1*
X1295151Y1381451D1*
X1294128Y1378459D1*
X1292747Y1375467D1*
X1294128Y1372475D1*
X1294999Y1369483D1*
X1295539Y1366491D1*
X1296113Y1363499D1*
X1296908Y1360507D1*
X1297705Y1357515D1*
X1298237Y1354523D1*
X1298518Y1351531D1*
X1298647Y1348539D1*
X1298699Y1345547D1*
X1298720Y1342555D1*
X1298727Y1339563D1*
X1298730Y1336571D1*
X1298731Y1333579D1*
X1304715Y1480187D2*
Y1477195D1*
Y1474203D1*
Y1471211D1*
Y1468219D1*
Y1465227D1*
Y1462235D1*
Y1459243D1*
Y1456251D1*
Y1453259D1*
Y1450267D1*
Y1447275D1*
Y1444283D1*
Y1441291D1*
Y1438299D1*
Y1435307D1*
Y1432315D1*
Y1429323D1*
Y1426331D1*
Y1423339D1*
Y1420347D1*
X1304703Y1417355D1*
X1304598Y1414363D1*
X1304217Y1411371D1*
X1303500Y1408379D1*
X1302733Y1405387D1*
X1302211Y1402395D1*
X1301934Y1399403D1*
X1301807Y1396411D1*
X1301755Y1393419D1*
X1301734Y1390427D1*
X1301727Y1387435D1*
X1301724Y1384443D1*
Y1381451D1*
X1301723Y1378459D1*
Y1375467D1*
X1301735Y1372475D1*
X1301840Y1369483D1*
X1302221Y1366491D1*
X1302938Y1363499D1*
X1303705Y1360507D1*
X1304227Y1357515D1*
X1304504Y1354523D1*
X1304631Y1351531D1*
X1304684Y1348539D1*
X1304704Y1345547D1*
X1304711Y1342555D1*
X1304714Y1339563D1*
X1304715Y1336571D1*
Y1333579D1*
X1490219Y1480187D2*
Y1477195D1*
Y1474203D1*
Y1471211D1*
Y1468219D1*
Y1465227D1*
Y1462235D1*
Y1459243D1*
Y1456251D1*
Y1453259D1*
Y1450267D1*
Y1447275D1*
X1496203Y1480187D2*
Y1477195D1*
Y1474203D1*
Y1471211D1*
Y1468219D1*
Y1465227D1*
Y1462235D1*
Y1459243D1*
Y1456251D1*
Y1453259D1*
Y1450267D1*
Y1447275D1*
X1660763Y1474203D2*
X1664305Y1471211D1*
X1668347Y1468219D1*
X1672731Y1465227D1*
X1663755Y1474203D2*
X1669739Y1471211D1*
X1675723Y1468219D1*
X1681707Y1465227D1*
X1050395Y1471211D2*
X1047403Y1468219D1*
X1050395Y1471211D2*
X1053387Y1468219D1*
X1508171Y1465227D2*
Y1462235D1*
Y1459243D1*
Y1456251D1*
Y1453259D1*
Y1450267D1*
Y1447275D1*
Y1444283D1*
Y1441291D1*
Y1438299D1*
Y1435307D1*
Y1432315D1*
Y1429323D1*
Y1426331D1*
Y1423339D1*
Y1420347D1*
Y1417355D1*
Y1414363D1*
Y1411371D1*
Y1408379D1*
Y1405387D1*
Y1402395D1*
Y1399403D1*
Y1396411D1*
Y1393419D1*
X1514155Y1465227D2*
Y1462235D1*
Y1459243D1*
Y1456251D1*
Y1453259D1*
Y1450267D1*
Y1447275D1*
Y1444283D1*
Y1441291D1*
Y1438299D1*
Y1435307D1*
Y1432315D1*
Y1429323D1*
Y1426331D1*
Y1423339D1*
Y1420347D1*
Y1417355D1*
Y1414363D1*
Y1411371D1*
Y1408379D1*
Y1405387D1*
Y1402395D1*
Y1399403D1*
Y1396411D1*
Y1393419D1*
X1681707Y1462235D2*
X1685612Y1459243D1*
X1689994Y1456251D1*
X1694259Y1453259D1*
X1697976Y1450267D1*
X1701579Y1447275D1*
X1705454Y1444283D1*
X1709539Y1441291D1*
X1713624Y1438299D1*
X1717611Y1435307D1*
X1681707Y1465227D2*
X1687679Y1462235D1*
X1693558Y1459243D1*
X1699149Y1456251D1*
X1704300Y1453259D1*
X1709018Y1450267D1*
X1713266Y1447275D1*
X1716991Y1444283D1*
X1720345Y1441291D1*
X1723501Y1438299D1*
X1726587Y1435307D1*
X1038427Y1456251D2*
X1035435Y1453259D1*
X1032443Y1450267D1*
X1029451Y1447275D1*
X1044411Y1456251D2*
X1041419Y1453259D1*
X1038427Y1450267D1*
X1035435Y1447275D1*
X1487227Y1441291D2*
X1487113Y1438299D1*
X1486718Y1435307D1*
X1485896Y1432315D1*
X1484735Y1429323D1*
X1483380Y1426331D1*
X1481837Y1423339D1*
X1479974Y1420347D1*
X1477662Y1417355D1*
X1474999Y1414363D1*
X1472053Y1411371D1*
X1468729Y1408379D1*
X1464927Y1405387D1*
X1460679Y1402395D1*
X1455961Y1399403D1*
X1450764Y1396411D1*
X1445339Y1393419D1*
X1493211Y1441291D2*
X1493097Y1438299D1*
X1492714Y1435307D1*
X1491997Y1432315D1*
X1491218Y1429323D1*
X1490590Y1426331D1*
X1489943Y1423339D1*
X1489240Y1420347D1*
X1488681Y1417355D1*
X1489914Y1414363D1*
X1493406Y1411371D1*
X1496937Y1408379D1*
X1499933Y1405387D1*
X1501105Y1402395D1*
X1501839Y1399403D1*
X1502503Y1396411D1*
X1503335Y1393419D1*
X1504145Y1390427D1*
X1504683Y1387435D1*
X1504977Y1384443D1*
X1505211Y1381451D1*
X1505646Y1378459D1*
X1506383Y1375467D1*
X1507169Y1372475D1*
X1507798Y1369483D1*
X1508458Y1366491D1*
X1509302Y1363499D1*
X1510133Y1360507D1*
X1510780Y1357515D1*
X1511447Y1354523D1*
X1512304Y1351531D1*
X1513230Y1348539D1*
X1514165Y1345547D1*
X1515272Y1342555D1*
X1516550Y1339563D1*
X1517853Y1336571D1*
X1519024Y1333579D1*
X1520073Y1330587D1*
X1521227Y1327595D1*
X1522524Y1324603D1*
X1523834Y1321611D1*
X1525006Y1318619D1*
X1526056Y1315627D1*
X1527211Y1312635D1*
X1528519Y1309643D1*
X1529923Y1306651D1*
X1531383Y1303659D1*
X1532862Y1300667D1*
X1534355Y1297675D1*
X1535859Y1294683D1*
X1537450Y1291691D1*
X1539219Y1288699D1*
X1541053Y1285707D1*
X1542597Y1282715D1*
X1543850Y1279723D1*
X1545099Y1276731D1*
X1546447Y1273739D1*
X1547878Y1270747D1*
X1549449Y1267755D1*
X1551314Y1264763D1*
X1553579Y1261771D1*
X1556043Y1258779D1*
X1023467Y1438299D2*
X1020475Y1435307D1*
X1023467Y1438299D2*
X1026459Y1435307D1*
X1011499Y1426331D2*
X1008507Y1423339D1*
X1011499Y1426331D2*
X1014491Y1423339D1*
X879851Y1405387D2*
X877573Y1402395D1*
X875834Y1399403D1*
X876100Y1396411D1*
X878172Y1393419D1*
X882617Y1390427D1*
X888399Y1387435D1*
X894861Y1384443D1*
X901025Y1381451D1*
X906779Y1378459D1*
X885835Y1402395D2*
X894519Y1399403D1*
X904670Y1396411D1*
X915755Y1393419D1*
X1517147Y1357515D2*
X1517609Y1354523D1*
X1518363Y1351531D1*
X1519243Y1348539D1*
X1520148Y1345547D1*
X1521154Y1342555D1*
X1522154Y1339563D1*
X1523110Y1336571D1*
X1524135Y1333579D1*
X1525142Y1330587D1*
X1526100Y1327595D1*
X1527127Y1324603D1*
X1528134Y1321611D1*
X1529104Y1318619D1*
X1530224Y1315627D1*
X1531519Y1312635D1*
X1532918Y1309643D1*
X1534376Y1306651D1*
X1535866Y1303659D1*
X1537452Y1300667D1*
X1539232Y1297675D1*
X1541158Y1294683D1*
X1542990Y1291691D1*
X1544684Y1288699D1*
X1546365Y1285707D1*
X1548175Y1282715D1*
X1550045Y1279723D1*
X1551664Y1276731D1*
X1553051Y1273739D1*
X1523131Y1357515D2*
X1523593Y1354523D1*
X1524347Y1351531D1*
X1525227Y1348539D1*
X1526144Y1345547D1*
X1527244Y1342555D1*
X1528531Y1339563D1*
X1529927Y1336571D1*
X1531373Y1333579D1*
X1532758Y1330587D1*
X1533962Y1327595D1*
X1535025Y1324603D1*
X1536184Y1321611D1*
X1537494Y1318619D1*
X1538899Y1315627D1*
X1540359Y1312635D1*
X1541838Y1309643D1*
X1543331Y1306651D1*
X1544835Y1303659D1*
X1546426Y1300667D1*
X1548207Y1297675D1*
X1550134Y1294683D1*
X1551954Y1291691D1*
X1553543Y1288699D1*
X1554842Y1285707D1*
X1555936Y1282715D1*
X1557031Y1279723D1*
X1558083Y1276731D1*
X1559035Y1273739D1*
X1379515Y1166027D2*
X1376523Y1163035D1*
X1382507Y1166027D2*
X1382519Y1163035D1*
X1382624Y1160043D1*
X1383017Y1157051D1*
X1383850Y1154059D1*
X1385104Y1151067D1*
X1386735Y1148075D1*
X1388613Y1145083D1*
X1390528Y1142091D1*
X1392594Y1139099D1*
X1395001Y1136107D1*
X1397691Y1133115D1*
X1400547Y1130123D1*
X1403482Y1127131D1*
X1406443Y1124139D1*
X1614358Y759152D2*
D89*
X1610556Y761053D1*
X1606709Y764900D1*
X1604808Y768702D1*
Y776352D1*
X1606709Y780198D1*
X1610556Y784001D1*
X1614358Y785946D1*
X1620106Y787848D1*
X1629701D1*
X1635405Y785946D1*
X1639252Y784001D1*
X1643054Y780198D1*
X1645000Y776352D1*
Y768702D1*
X1643054Y764900D1*
X1639252Y761053D1*
X1635405Y759152D1*
X1614402Y744855D2*
X1612501D1*
X1608654Y742954D1*
X1606753Y741052D1*
X1604852Y737206D1*
Y729556D1*
X1606753Y725754D1*
X1608654Y723853D1*
X1612501Y721907D1*
X1616304D1*
X1620150Y723853D1*
X1625854Y727655D1*
X1645000Y746800D1*
Y720006D1*
X1469968Y755215D2*
X1466166Y757116D1*
X1462319Y760963D1*
X1460418Y764765D1*
Y772415D1*
X1462319Y776261D1*
X1466166Y780064D1*
X1469968Y782009D1*
X1475716Y783911D1*
X1485311D1*
X1491015Y782009D1*
X1494862Y780064D1*
X1498664Y776261D1*
X1500610Y772415D1*
Y764765D1*
X1498664Y760963D1*
X1494862Y757116D1*
X1491015Y755215D1*
X1460462Y739017D2*
Y718014D1*
X1475760Y729466D1*
Y723718D1*
X1477662Y719916D1*
X1479563Y718014D1*
X1485311Y716069D1*
X1489114D1*
X1494862Y718014D1*
X1498708Y721817D1*
X1500610Y727565D1*
Y733313D1*
X1498708Y739017D1*
X1496763Y740918D1*
X1492960Y742863D1*
X1531360Y1880256D2*
X1533261Y1884059D1*
X1537108Y1887906D1*
X1540910Y1889807D1*
X1548560D1*
X1552406Y1887906D1*
X1556209Y1884059D1*
X1558154Y1880256D1*
X1560056Y1874508D1*
Y1864914D1*
X1558154Y1859210D1*
X1556209Y1855363D1*
X1552406Y1851561D1*
X1548560Y1849615D1*
X1540910D1*
X1537108Y1851561D1*
X1533261Y1855363D1*
X1531360Y1859210D1*
X1499863Y1849615D2*
Y1889763D1*
X1519008Y1863012D1*
X1490312D1*
X502146Y2035443D2*
X498343Y2037344D1*
X494496Y2041191D1*
X492595Y2044994D1*
Y2052643D1*
X494496Y2056490D1*
X498343Y2060292D1*
X502146Y2062238D1*
X507894Y2064139D1*
X517488D1*
X523192Y2062238D1*
X527039Y2060292D1*
X530842Y2056490D1*
X532787Y2052643D1*
Y2044994D1*
X530842Y2041191D1*
X527039Y2037344D1*
X523192Y2035443D1*
X492639Y2000144D2*
Y2019245D1*
X509839Y2021146D1*
X507938Y2019245D1*
X505992Y2013497D1*
Y2007793D1*
X507938Y2002045D1*
X511740Y1998198D1*
X517488Y1996297D1*
X521291D1*
X527039Y1998198D1*
X530886Y2002045D1*
X532787Y2007793D1*
Y2013497D1*
X530886Y2019245D1*
X528940Y2021146D1*
X525138Y2023092D1*
X846470Y1115256D2*
X848372Y1119059D1*
X852218Y1122906D1*
X856021Y1124807D1*
X863670D1*
X867517Y1122906D1*
X871320Y1119059D1*
X873265Y1115256D1*
X875166Y1109508D1*
Y1099914D1*
X873265Y1094210D1*
X871320Y1090363D1*
X867517Y1086561D1*
X863670Y1084615D1*
X856021D1*
X852218Y1086561D1*
X848372Y1090363D1*
X846470Y1094210D1*
X811171Y1119059D2*
X813072Y1122862D1*
X818820Y1124763D1*
X822623D1*
X828371Y1122862D1*
X832218Y1117114D1*
X834119Y1107563D1*
Y1098012D1*
X832218Y1090363D1*
X828371Y1086516D1*
X822623Y1084615D1*
X820722D1*
X815018Y1086516D1*
X811171Y1090363D1*
X809270Y1096111D1*
Y1098012D1*
X811171Y1103760D1*
X815018Y1107563D1*
X820722Y1109464D1*
X822623D1*
X828371Y1107563D1*
X832218Y1103760D1*
X834119Y1098012D1*
X950567Y773087D2*
Y755887D1*
X948622Y750139D1*
X946720Y748194D1*
X942918Y746293D1*
X939071D1*
X935269Y748194D1*
X933323Y750139D1*
X931422Y755887D1*
Y773087D1*
X971614D1*
X950567Y759690D2*
X971614Y746293D1*
X939115Y733941D2*
X937170Y730094D1*
X931466Y724346D1*
X971614D1*
X1083740Y778073D2*
Y760873D1*
X1081795Y755125D1*
X1079894Y753180D1*
X1076091Y751278D1*
X1072244D1*
X1068442Y753180D1*
X1066496Y755125D1*
X1064595Y760873D1*
Y778073D1*
X1104787D1*
X1083740Y764676D2*
X1104787Y751278D1*
X1074190Y736981D2*
X1072289D1*
X1068442Y735080D1*
X1066541Y733179D1*
X1064639Y729332D1*
Y721683D1*
X1066540Y717880D1*
X1068442Y715979D1*
X1072289Y714034D1*
X1076091D1*
X1079938Y715979D1*
X1085642Y719782D1*
X1104787Y738927D1*
Y712132D1*
X1377459Y565024D2*
X1360259D1*
X1354511Y566969D1*
X1352565Y568871D1*
X1350664Y572673D1*
Y576520D1*
X1352565Y580322D1*
X1354511Y582268D1*
X1360259Y584169D1*
X1377459D1*
Y543977D1*
X1364061Y565024D2*
X1350664Y543977D1*
X1334466Y584125D2*
X1313464D1*
X1324915Y568826D1*
X1319167D1*
X1315365Y566925D1*
X1313464Y565024D1*
X1311518Y559276D1*
Y555473D1*
X1313464Y549725D1*
X1317266Y545878D1*
X1323014Y543977D1*
X1328762D1*
X1334466Y545878D1*
X1336367Y547824D1*
X1338313Y551627D1*
X616220Y1905662D2*
X599021D1*
X593273Y1907607D1*
X591327Y1909508D1*
X589426Y1913311D1*
Y1917158D1*
X591327Y1920960D1*
X593273Y1922906D1*
X599021Y1924807D1*
X616220D1*
Y1884615D1*
X602823Y1905662D2*
X589426Y1884615D1*
X557929D2*
Y1924763D1*
X577074Y1898012D1*
X548378D1*
X519139Y800824D2*
X501939D1*
X496191Y802770D1*
X494245Y804671D1*
X492344Y808474D1*
Y812320D1*
X494245Y816123D1*
X496191Y818068D1*
X501939Y819970D1*
X519139D1*
Y779778D1*
X505741Y800824D2*
X492344Y779778D1*
X457045Y819926D2*
X476146D1*
X478047Y802726D1*
X476146Y804627D1*
X470398Y806572D1*
X464694D1*
X458946Y804627D1*
X455099Y800824D1*
X453198Y795076D1*
Y791274D1*
X455099Y785526D1*
X458946Y781679D1*
X464694Y779778D1*
X470398D1*
X476146Y781679D1*
X478047Y783625D1*
X479992Y787427D1*
X520663Y934621D2*
X503463D1*
X497715Y936566D1*
X495770Y938468D1*
X493869Y942270D1*
Y946117D1*
X495770Y949920D1*
X497715Y951865D1*
X503463Y953766D1*
X520663D1*
Y913574D1*
X507266Y934621D2*
X493869Y913574D1*
X458569Y948018D2*
X460470Y951821D1*
X466219Y953722D1*
X470021D1*
X475769Y951821D1*
X479616Y946073D1*
X481517Y936522D1*
Y926972D1*
X479616Y919322D1*
X475769Y915476D1*
X470021Y913574D1*
X468120D1*
X462416Y915476D1*
X458569Y919322D1*
X456668Y925070D1*
Y926972D1*
X458569Y932720D1*
X462416Y936522D1*
X468120Y938424D1*
X470021D1*
X475769Y936522D1*
X479616Y932720D1*
X481517Y926972D1*
X1470410Y1315920D2*
Y1298720D1*
X1468464Y1292972D1*
X1466563Y1291027D1*
X1462760Y1289126D1*
X1458914D1*
X1455111Y1291027D1*
X1453166Y1292972D1*
X1451264Y1298720D1*
Y1315920D1*
X1491456D1*
X1470410Y1302523D2*
X1491456Y1289126D1*
X1464662Y1251881D2*
X1470410Y1253826D1*
X1474256Y1257629D1*
X1476158Y1263377D1*
Y1265278D1*
X1474256Y1271026D1*
X1470410Y1274829D1*
X1464662Y1276774D1*
X1462760D1*
X1457012Y1274829D1*
X1453210Y1271026D1*
X1451309Y1265278D1*
Y1263377D1*
X1453210Y1257629D1*
X1457012Y1253826D1*
X1464662Y1251881D1*
X1474256D1*
X1483807Y1253826D1*
X1489555Y1257629D1*
X1491456Y1263377D1*
Y1267179D1*
X1489555Y1272927D1*
X1485708Y1274829D1*
X1422378Y1161984D2*
Y1144784D1*
X1420433Y1139036D1*
X1418531Y1137091D1*
X1414729Y1135190D1*
X1410882D1*
X1407080Y1137091D1*
X1405134Y1139036D1*
X1403233Y1144784D1*
Y1161984D1*
X1443425D1*
X1422378Y1148587D2*
X1443425Y1135190D1*
X1410926Y1122838D2*
X1408981Y1118991D1*
X1403277Y1113243D1*
X1443425D1*
X1410926Y1100892D2*
X1408981Y1097045D1*
X1403277Y1091297D1*
X1443425D1*
M02*
