M48
INCH
T01C0.0157
T02C0.0354
T03C0.126
%
T01
X+012648Y+024408
X+013436Y+024408
X+013437Y+023622
X+014223Y+023622
X+014223Y+024408
X+014223Y+025197
X+014223Y+025983
X+013436Y+025983
X+013436Y+025197
X+012648Y+025197
X+012648Y+025983
X+012648Y+026772
X+013436Y+026772
X+014223Y+026772
X+011861Y+025197
X+011861Y+024408
X+010680Y+024409
X+009893Y+024408
X+009105Y+024408
X+008318Y+024408
X+008317Y+023621
X+007530Y+023622
X+007530Y+024408
X+007530Y+025197
X+007530Y+025983
X+008318Y+025983
X+008318Y+025197
X+009105Y+025197
X+009105Y+025983
X+009105Y+026772
X+008318Y+026772
X+007530Y+026772
X+009893Y+025197
X+009499Y+022835
X+008711Y+022835
X+008711Y+022046
X+009499Y+022046
X+010286Y+022046
X+011074Y+022046
X+011861Y+022046
X+012648Y+022046
X+012648Y+022835
X+011861Y+022835
X+011074Y+022835
X+010286Y+022835
X+008547Y+020547
X+008557Y+020017
X+008037Y+016537
X+010237Y+014487
X+009887Y+014037
X+011387Y+014037
X+011337Y+014537
X+009177Y+012687
X+008587Y+010987
X+007337Y+012987
X+007487Y+008337
X+007137Y+008037
X+008587Y+008287
X+009437Y+006337
X+010787Y+006917
X+010845Y+008151
X+011937Y+009187
X+012437Y+007837
X+014587Y+006527
X+015999Y+007323
X+015999Y+007684
X+015824Y+008190
X+015835Y+008499
X+013332Y+010818
X+014137Y+012687
X+015487Y+013987
X+015197Y+015027
X+015977Y+016787
X+013687Y+016937
X+013237Y+016937
X+013787Y+018537
X+013327Y+019057
X+012437Y+020037
X+004507Y+008007
X+004487Y+006689
X+006937Y+006387
X+007337Y+006387
X+010887Y+005637
X+010887Y+004587
X+012134Y+004949
T02
X+004567Y+019988
X+004567Y+020988
X+004567Y+021988
X+004567Y+022988
X+004567Y+023988
X+004567Y+017283
X+004567Y+016283
X+004567Y+015283
X+004567Y+014283
X+004567Y+013283
X+004567Y+012283
X+004567Y+011283
X+004567Y+010283
X+017060Y+010479
X+017060Y+013156
X+017087Y+014988
X+017087Y+015988
X+017087Y+016988
X+017087Y+017988
X+017087Y+018988
X+017087Y+019988
T03
X+016654Y+026496
X+005000Y+026535
X+005000Y+005000
X+016654Y+005000
T00
M30
