G04 DipTrace 3.0.0.1*
G04 Top.gbr*
%MOIN*%
G04 #@! TF.FileFunction,Copper,L1,Top*
G04 #@! TF.Part,Single*
G04 #@! TA.AperFunction,Conductor*
%ADD10C,0.01*%
%ADD14C,0.007*%
%ADD15C,0.029528*%
%ADD16C,0.015748*%
%ADD17C,0.02*%
%ADD18C,0.015*%
G04 #@! TA.AperFunction,CopperBalancing*
%ADD19C,0.025*%
G04 #@! TA.AperFunction,Conductor*
%ADD20C,0.014*%
%ADD21C,0.023622*%
G04 #@! TA.AperFunction,CopperBalancing*
%ADD22C,0.012992*%
%ADD25R,0.059055X0.051181*%
%ADD26R,0.051181X0.059055*%
%ADD28R,0.015748X0.05315*%
%ADD29R,0.082677X0.062992*%
%ADD30R,0.062992X0.074803*%
%ADD31R,0.047244X0.074803*%
G04 #@! TA.AperFunction,ComponentPad*
%ADD32R,0.059055X0.059055*%
%ADD33C,0.059055*%
%ADD35R,0.041339X0.025591*%
%ADD38R,0.098425X0.047244*%
%ADD39R,0.06X0.039764*%
%ADD40R,0.039764X0.06*%
%ADD41R,0.059843X0.159843*%
%ADD42R,0.033465X0.159843*%
%ADD44R,0.043307X0.023622*%
%ADD45R,0.137795X0.03937*%
%ADD46R,0.133858X0.059055*%
%ADD47R,0.015748X0.070866*%
G04 #@! TA.AperFunction,ViaPad*
%ADD48C,0.031496*%
%FSLAX26Y26*%
G04*
G70*
G90*
G75*
G01*
G04 Top*
%LPD*%
X1708662Y1498819D2*
D14*
X1580819D1*
X1486701Y1404701D1*
X1437701D1*
X1437677Y1404725D1*
X738320Y1176641D2*
Y1238320D1*
X743701Y1243701D1*
X778701D1*
X818701Y1283701D1*
Y1383701D1*
X838701Y1403701D1*
X988701D1*
X1138701D2*
X1436654D1*
X1437677Y1604725D2*
X1404177D1*
X1386177Y1622725D1*
X1374978D1*
X1181778D1*
X1089058Y1530004D1*
Y1103920D1*
X1017734Y1032596D1*
X997736D1*
X987697Y1042635D1*
X973113D1*
X953486Y1062261D1*
X936045Y1079704D1*
Y1081210D1*
X891864Y1125391D1*
Y1176641D1*
X1437677Y1604725D2*
X1471177D1*
X1489177Y1622725D1*
X1500377D1*
X1638267D1*
X1657361Y1641819D1*
X1665662D1*
X1708662Y1598819D1*
X1437677Y1654725D2*
X1404177D1*
X1386177Y1636725D1*
X1374978D1*
X1175981D1*
X1075058Y1535802D1*
Y1109718D1*
X1011936Y1046596D1*
X1003534D1*
X993495Y1056635D1*
X978911D1*
X963386Y1072162D1*
Y1101181D1*
X994226Y1132021D1*
Y1176641D1*
X1437677Y1654725D2*
X1471177D1*
X1489177Y1636725D1*
X1500377D1*
X1632469D1*
X1651563Y1655819D1*
X1665662D1*
X1708662Y1698819D1*
X860084Y566701D2*
Y596776D1*
X854289Y602571D1*
X854315Y613771D1*
Y643435D1*
X721684Y776066D1*
X694406D1*
X684727Y785744D1*
Y836776D1*
X681360Y840143D1*
X681357Y848446D1*
X687151Y854243D1*
X687139Y893176D1*
X834494Y566701D2*
Y596776D1*
X840289Y602571D1*
X840315Y613771D1*
Y637637D1*
X715886Y762066D1*
X688608D1*
X670727Y779946D1*
Y830978D1*
X667362Y834345D1*
X667357Y848441D1*
X661561Y854235D1*
X661549Y893168D1*
X1137677Y2354725D2*
D15*
Y2461811D1*
X1087677Y2511811D1*
Y2655381D1*
X885675Y566701D2*
D16*
Y602701D1*
D17*
Y626226D1*
X895670Y636221D1*
Y707481D1*
X943701Y707898D1*
X1021701D1*
Y633465D1*
X1177166D1*
X1177822Y634121D1*
X1255906D1*
X789502Y893176D2*
D18*
Y766011D1*
X848032Y707481D1*
X895670D1*
X943701Y633701D2*
D14*
Y707898D1*
X1362205Y559318D2*
D18*
X1327297D1*
X1319292Y567323D1*
Y783701D1*
X1243701D1*
X1151701Y707898D2*
D14*
X1094898D1*
X1078701Y691701D1*
X1255906Y559318D2*
X1230709D1*
X1213386Y576641D1*
Y494882D1*
X456693Y1728347D2*
X503347D1*
X538701Y1763701D1*
Y1903701D1*
X588701Y1953701D1*
X736654D1*
X737677Y1954725D1*
X1084528Y815118D2*
Y814118D1*
X1057528Y787118D1*
X1026118D1*
X1021701Y782701D1*
X855701Y2001701D2*
D18*
X740701D1*
D14*
X737677Y2004725D1*
X1332701Y1905701D2*
X1436701D1*
X1437677Y1904725D1*
X1424410Y996063D2*
X1425591D1*
Y1131643D1*
X1453790Y1159843D1*
X855701Y2001701D2*
D17*
X1241701D1*
D14*
X1243701Y2003701D1*
X1708662Y1798819D2*
D17*
X1757701Y1749780D1*
Y1231103D1*
Y1169250D1*
X1669948Y1081496D1*
X1599607D1*
X1597769Y1083334D1*
X1453790Y1159843D2*
D10*
Y1219670D1*
X1465223Y1231103D1*
X1757701D1*
X456693Y2298819D2*
D14*
X499583D1*
X644701Y2153701D1*
X736654D1*
X737677Y2154725D1*
Y2104725D2*
X634725D1*
X523701Y1993701D1*
X461811D1*
X456693Y1998819D1*
X1333858Y1033465D2*
Y1082415D1*
X1333202Y1081759D1*
X456693Y2398819D2*
X466583D1*
X660701Y2204701D1*
X737654D1*
X737677Y2204725D1*
X456693Y1628347D2*
X523347D1*
X563701Y1668701D1*
Y1868701D1*
X598701Y1903701D1*
X736654D1*
X737677Y1904725D1*
X456693Y1528347D2*
X518347D1*
X588701Y1598701D1*
Y1803701D1*
X638701Y1853701D1*
X736654D1*
X737677Y1854725D1*
X456693Y1428347D2*
X508347D1*
X613701Y1533701D1*
Y1753701D1*
X663701Y1803701D1*
X736654D1*
X737677Y1804725D1*
X456693Y1328347D2*
X528347D1*
X638701Y1438701D1*
Y1728701D1*
X663701Y1753701D1*
X736654D1*
X737677Y1754725D1*
X456693Y1228347D2*
X503347D1*
X658701Y1383701D1*
Y1668701D1*
X693701Y1703701D1*
X736654D1*
X737677Y1704725D1*
X456693Y1128347D2*
X493347D1*
X683701Y1318701D1*
Y1548701D1*
X688701Y1553701D1*
X736654D1*
X737677Y1554725D1*
X456693Y1028347D2*
X528347D1*
X608701Y1108701D1*
Y1213701D1*
X658701Y1263701D1*
X763701D1*
X798701Y1298701D1*
Y1488701D1*
X783701Y1503701D1*
X738701D1*
X737677Y1504725D1*
X854677Y2054725D2*
D18*
X737677D1*
X1458701Y652701D2*
D14*
X1464774D1*
X1408793Y596719D1*
X1362205D1*
X895670Y782284D2*
X936118D1*
X971701Y746701D1*
X1072701D1*
X1108701Y782701D1*
X1151701D1*
X1133625Y920735D2*
X1092667D1*
X1086701Y926701D1*
Y1031701D1*
X1136701Y1081701D1*
Y1121494D1*
X1137124Y1121916D1*
X987677Y2354725D2*
D10*
X937677D1*
X1087677D2*
Y2303150D1*
X1107362Y2283465D1*
X1187677Y2354725D2*
Y2285040D1*
X1186103Y2283465D1*
X738320Y893176D2*
D14*
Y844082D1*
X748701Y833701D1*
X815092Y893176D2*
Y817310D1*
X848701Y783701D1*
X894252D1*
X895670Y782284D1*
X917454Y893176D2*
Y832454D1*
X898701Y813701D1*
Y785315D1*
X895670Y782284D1*
X943045Y893176D2*
X917454D1*
X937677Y2354725D2*
Y2295670D1*
X949882Y2283465D1*
X1187677Y2354725D2*
X1237677D1*
Y2310630D1*
X1264843Y2283465D1*
X1437677Y2304725D2*
Y2346851D1*
X1422323Y2362205D1*
X737677Y2304725D2*
Y2346851D1*
X753032Y2362205D1*
X1187284Y2655381D2*
X1243058D1*
X1264843Y2677166D1*
X987677Y2655774D2*
X931903D1*
X910512Y2677166D1*
X737677Y1354725D2*
Y1302677D1*
X733701Y1298701D1*
X858701Y828701D2*
Y819252D1*
X895670Y782284D1*
X1133625Y920735D2*
X1191667D1*
X1193701Y918701D1*
X1437677Y1854725D2*
X1379725D1*
X1378701Y1853701D1*
X1437677Y1854725D2*
X1482677D1*
X1508701Y1828701D1*
Y1713701D1*
X1498701Y1703701D1*
X1438701D1*
X1437677Y1704725D1*
Y1354725D2*
X1504725D1*
X1548701Y1398701D1*
X737677Y1654725D2*
X802677D1*
X803701Y1653701D1*
X673076Y461386D2*
Y522410D1*
X712446Y561780D1*
X995911Y461386D2*
Y522410D1*
X956541Y561780D1*
X783313Y566701D2*
D18*
X717368D1*
X712446Y561780D1*
Y643701D1*
X728701D1*
X733701Y638701D1*
X693701D2*
X733701D1*
X783313Y566701D2*
Y619089D1*
X763701Y638701D1*
X733701D1*
X712446Y561780D2*
Y584956D1*
X698701Y598701D1*
Y633701D1*
X693701Y638701D1*
X712446Y561780D2*
Y587446D1*
X723701Y598701D1*
Y628701D1*
X733701Y638701D1*
X956541Y561780D2*
X1086780D1*
X1088701Y563701D1*
X995911Y461386D2*
X1086016D1*
X1088701Y458701D1*
X840683Y1176641D2*
D14*
Y1116719D1*
X858701Y1098701D1*
X1186103Y2519685D2*
X1157717D1*
X1137795Y2539607D1*
D20*
Y2662660D1*
Y2718701D1*
X989252Y2519685D2*
D18*
X1004987D1*
X1036221Y2550919D1*
D20*
Y2655774D1*
D18*
Y2722179D1*
X987677Y2655774D2*
X1036221D1*
X1187284Y2655381D2*
X1145075D1*
X1137795Y2662660D1*
X1480578Y831496D2*
D19*
X1559843D1*
X1567061Y838714D1*
X1590289D1*
Y826903D1*
X1582415Y819029D1*
X1583465Y849869D2*
Y820079D1*
X1582415Y819029D1*
X523701Y733701D2*
D14*
Y774701D1*
X492701Y805701D1*
Y903701D1*
X510701Y921701D1*
X605701D1*
X617701Y933701D1*
Y948701D1*
X630701Y961701D1*
X853701D1*
X867701Y947701D1*
Y894604D1*
X866273Y893176D1*
X1413701Y1268701D2*
X1403701D1*
X1363701Y1228701D1*
Y1197706D1*
X1363239Y1197244D1*
X1265864Y1122179D2*
X1362977D1*
X1363239Y1122441D1*
X1137124Y1196719D2*
X1265601D1*
X1265864Y1196982D1*
X448898Y733701D2*
X448701Y668898D1*
X450701Y800701D2*
Y860504D1*
X453898Y863701D1*
X528701D2*
X606701D1*
X632701Y889701D1*
Y940701D1*
X640701Y948701D1*
X832701D1*
X840701Y940701D1*
Y893194D1*
X840683Y893176D1*
X917701Y1268701D2*
D10*
Y1176887D1*
X917454Y1176641D1*
X713701Y803701D2*
Y893176D1*
X712730D1*
X1265777Y921260D2*
D14*
X1296457D1*
X1333858Y958662D1*
X1133625Y995538D2*
X1265252D1*
X1265777Y996063D1*
X1437677Y2004725D2*
X1324725D1*
X1273701Y1953701D1*
Y1843701D1*
X1323701Y1793701D1*
Y1693701D1*
X1368701D2*
Y1808701D1*
X1298701Y1878701D1*
Y1938701D1*
X1318701Y1958701D1*
X1433701D1*
X1437677Y1954725D1*
X1480578Y752756D2*
D19*
X1375197D1*
X1363649Y741208D1*
Y635565D1*
D21*
X1362205Y634121D1*
X1480578Y752756D2*
D19*
X1600131D1*
Y768110D1*
X1599869Y768373D1*
Y732284D2*
Y768373D1*
X1597769Y1181759D2*
X1530578D1*
X1504856Y1156037D1*
Y909974D1*
X1515617Y899213D1*
X1592257D1*
X1658530Y832940D1*
Y761680D1*
X1647113Y750263D1*
X1617848D1*
X1599869Y732284D1*
X1708662Y1898819D2*
D14*
X1634819D1*
X1615701Y1879701D1*
Y1696701D1*
X1597701Y1678701D1*
X1519701Y1502701D2*
Y1492701D1*
X1481701Y1454701D1*
X1437701D1*
X1437677Y1454725D1*
X943045Y1176641D2*
Y1263045D1*
X1023701Y1343701D1*
Y1448701D1*
X1133701Y1453701D2*
X1436654D1*
D48*
X988701Y1403701D3*
X1138701D3*
X943701Y633701D3*
X1243701Y783701D3*
X1078701Y691701D3*
X1213386Y494882D3*
X1084528Y815118D3*
X855701Y2001701D3*
X1332701Y1905701D3*
X1243701Y2003701D3*
X855701Y2001701D3*
X1333202Y1081759D3*
X854677Y2054725D3*
X1458701Y652701D3*
X858701Y828701D3*
X1193701Y918701D3*
X1378701Y1853701D3*
X1548701Y1398701D3*
X1193701Y918701D3*
X1548701Y1398701D3*
X803701Y1653701D3*
X858701Y1098701D3*
D3*
X1413701Y1268701D3*
X448701Y668898D3*
X450701Y800701D3*
X917701Y1268701D3*
X713701Y803701D3*
X1323701Y1693701D3*
X1368701D3*
X1597701Y1678701D3*
X1519701Y1502701D3*
X1023701Y1448701D3*
X1133701Y1453701D3*
X1264843Y2440814D3*
Y2519685D3*
X1343583Y2440814D3*
Y2519685D3*
X1186103Y2440814D3*
Y2519685D3*
X1422323Y2440814D3*
Y2519685D3*
X910512Y2440814D3*
Y2519685D3*
X989252Y2440814D3*
Y2519685D3*
X753032Y2440814D3*
Y2519685D3*
X831772Y2440814D3*
Y2519685D3*
X1343714Y2362205D3*
X1422323D3*
X1186103Y2204593D3*
Y2283465D3*
X1264843Y2204593D3*
Y2283465D3*
X1067992Y2440945D3*
X1028622Y2204593D3*
Y2283465D3*
X1107362Y2204593D3*
Y2283465D3*
X871142Y2204593D3*
Y2283465D3*
X949882Y2204593D3*
Y2283465D3*
X748701Y833701D3*
X831706Y2362139D3*
X1264843Y2598294D3*
Y2677166D3*
X1422323Y2598294D3*
Y2677166D3*
X1343583Y2598294D3*
Y2677166D3*
X831772Y2598294D3*
Y2677166D3*
X753032Y2362205D3*
X910512Y2598294D3*
Y2677166D3*
X753032Y2598294D3*
Y2677166D3*
X733701Y1298701D3*
Y638701D3*
X693701D3*
X1088701Y563701D3*
Y458701D3*
X1599869Y768373D3*
Y732284D3*
X1583465Y849869D3*
X1582415Y819029D3*
X604018Y2698537D2*
D19*
X934761D1*
X1240200D2*
X1563179D1*
X611733Y2673668D2*
X934761D1*
X1240200D2*
X1554438D1*
X613442Y2648799D2*
X934761D1*
X1240200D2*
X1551802D1*
X609536Y2623931D2*
X934761D1*
X1240200D2*
X1554829D1*
X599282Y2599062D2*
X934761D1*
X1240200D2*
X1563960D1*
X580190Y2574193D2*
X934761D1*
X1240200D2*
X1581343D1*
X428725Y2549324D2*
X459126D1*
X540884D2*
X1051020D1*
X1124331D2*
X1615132D1*
X1715591D2*
X1748481D1*
X428725Y2524456D2*
X1051020D1*
X1125845D2*
X1748481D1*
X428725Y2499587D2*
X1053266D1*
X1150747D2*
X1748481D1*
X428725Y2474718D2*
X1073970D1*
X1171792D2*
X1748481D1*
X428725Y2449849D2*
X1098823D1*
X1174331D2*
X1748481D1*
X501821Y2424981D2*
X1101020D1*
X1174331D2*
X1748481D1*
X509194Y2400112D2*
X894819D1*
X1280581D2*
X1748481D1*
X526577Y2375243D2*
X894819D1*
X1280581D2*
X1748481D1*
X551479Y2350374D2*
X894819D1*
X1280581D2*
X1748481D1*
X576333Y2325505D2*
X684663D1*
X790688D2*
X894819D1*
X1280581D2*
X1384663D1*
X1490688D2*
X1748481D1*
X601186Y2300637D2*
X678706D1*
X796645D2*
X988813D1*
X1086538D2*
X1378706D1*
X1496645D2*
X1748481D1*
X626089Y2275768D2*
X678706D1*
X796645D2*
X1378706D1*
X1496645D2*
X1748481D1*
X428725Y2250899D2*
X439872D1*
X473550D2*
X511079D1*
X650942D2*
X678706D1*
X796645D2*
X1378706D1*
X1496645D2*
X1748481D1*
X501186Y2226030D2*
X535932D1*
X796645D2*
X1378706D1*
X1496645D2*
X1748481D1*
X509145Y2201162D2*
X560786D1*
X790688D2*
X1378706D1*
X1496645D2*
X1748481D1*
X503872Y2176293D2*
X585688D1*
X790688D2*
X1378706D1*
X1496645D2*
X1748481D1*
X428725Y2151424D2*
X438213D1*
X475210D2*
X610542D1*
X790688D2*
X1378706D1*
X1496645D2*
X1748481D1*
X500845Y2126555D2*
X622261D1*
X790688D2*
X1378706D1*
X1496645D2*
X1748481D1*
X509145Y2101687D2*
X595259D1*
X790688D2*
X1378706D1*
X1496645D2*
X1748481D1*
X504116Y2076818D2*
X570356D1*
X643276D2*
X684663D1*
X790688D2*
X1378706D1*
X1496645D2*
X1748481D1*
X428725Y2051949D2*
X436750D1*
X476675D2*
X545503D1*
X618374D2*
X684663D1*
X790688D2*
X1378706D1*
X1496645D2*
X1748481D1*
X509243Y2027080D2*
X520623D1*
X593520D2*
X684663D1*
X1273891D2*
X1313471D1*
X1496645D2*
X1656147D1*
X568667Y2002212D2*
X684663D1*
X1490688D2*
X1656147D1*
X543764Y1977343D2*
X582075D1*
X1490688D2*
X1656147D1*
X509243Y1952474D2*
X551020D1*
X790688D2*
X1247212D1*
X1490688D2*
X1656147D1*
X428725Y1927605D2*
X526167D1*
X790688D2*
X1247212D1*
X1490688D2*
X1665229D1*
X428725Y1902736D2*
X512202D1*
X790688D2*
X1247212D1*
X1490688D2*
X1602290D1*
X428725Y1877868D2*
X512202D1*
X609292D2*
X684663D1*
X790688D2*
X1247212D1*
X1358413D2*
X1384663D1*
X1490688D2*
X1589204D1*
X428725Y1852999D2*
X512202D1*
X590200D2*
X601557D1*
X790688D2*
X1247212D1*
X1360854D2*
X1384663D1*
X1490688D2*
X1589204D1*
X1642202D2*
X1686079D1*
X1731264D2*
X1748482D1*
X428725Y1828130D2*
X512202D1*
X790688D2*
X1252925D1*
X1496645D2*
X1589204D1*
X1642202D2*
X1665620D1*
X428725Y1803261D2*
X512202D1*
X790688D2*
X1277680D1*
X1496645D2*
X1589204D1*
X1642202D2*
X1656373D1*
X428725Y1778393D2*
X512202D1*
X790688D2*
X1297212D1*
X1496645D2*
X1589204D1*
X1642202D2*
X1660498D1*
X790688Y1753524D2*
X1297212D1*
X1496645D2*
X1589204D1*
X1642202D2*
X1684907D1*
X790688Y1728655D2*
X1297212D1*
X1496645D2*
X1589204D1*
X1642202D2*
X1666011D1*
X509243Y1703786D2*
X537202D1*
X790688D2*
X1286372D1*
X1490688D2*
X1569038D1*
X1642202D2*
X1656373D1*
X509243Y1678918D2*
X537202D1*
X790688D2*
X1288081D1*
X1490688D2*
X1558930D1*
X502114Y1654049D2*
X512593D1*
X790688D2*
X1156880D1*
X796645Y1629180D2*
X1131977D1*
X503091Y1604311D2*
X557856D1*
X796645D2*
X1107124D1*
X428725Y1579442D2*
X443677D1*
X469741D2*
X533003D1*
X796645D2*
X1082270D1*
X1174917D2*
X1378706D1*
X1496645D2*
X1660054D1*
X790688Y1554574D2*
X1057368D1*
X1150063D2*
X1378706D1*
X1496645D2*
X1682807D1*
X556167Y1529705D2*
X573305D1*
X790688D2*
X1048579D1*
X1125210D2*
X1378706D1*
X1546401D2*
X1666792D1*
X525649Y1504836D2*
X548384D1*
X818960D2*
X1048579D1*
X1115542D2*
X1378706D1*
X428725Y1479967D2*
X441433D1*
X471938D2*
X523530D1*
X596401D2*
X612202D1*
X825210D2*
X1002876D1*
X1161196D2*
X1378706D1*
X571548Y1455099D2*
X612202D1*
X825210D2*
X985542D1*
X1573550D2*
X1681831D1*
X546694Y1430230D2*
X593794D1*
X825210D2*
X961518D1*
X1548647D2*
X1724702D1*
X517739Y1405361D2*
X568940D1*
X1523794D2*
X1724702D1*
X428725Y1380492D2*
X439579D1*
X473794D2*
X544038D1*
X1490688D2*
X1724702D1*
X501138Y1355624D2*
X519184D1*
X845180D2*
X997212D1*
X1115542D2*
X1384663D1*
X1490688D2*
X1684712D1*
X642202Y1330755D2*
X657217D1*
X845180D2*
X974311D1*
X1115542D2*
X1384663D1*
X1490688D2*
X1662007D1*
X617348Y1305886D2*
X634477D1*
X706509D2*
X769429D1*
X845180D2*
X949458D1*
X1022329D2*
X1048579D1*
X1115542D2*
X1519575D1*
X428725Y1281017D2*
X438018D1*
X475405D2*
X519575D1*
X592446D2*
X609577D1*
X845034D2*
X881098D1*
X997475D2*
X1048579D1*
X1115542D2*
X1377095D1*
X1450307D2*
X1519575D1*
X567593Y1256149D2*
X584679D1*
X827602D2*
X881196D1*
X972573D2*
X1048579D1*
X1115542D2*
X1354731D1*
X1450210D2*
X1457922D1*
X542739Y1231280D2*
X559872D1*
X1025112D2*
X1048579D1*
X1189663D2*
X1213325D1*
X1318374D2*
X1337348D1*
X1402700D2*
X1428608D1*
X515591Y1206411D2*
X534956D1*
X1025112D2*
X1048579D1*
X1406899D2*
X1425776D1*
X428725Y1181542D2*
X436555D1*
X476870D2*
X510102D1*
X1025112D2*
X1048579D1*
X1669985D2*
X1724360D1*
X558120Y1156673D2*
X582221D1*
X1025112D2*
X1048579D1*
X1189663D2*
X1213325D1*
X1318374D2*
X1410102D1*
X1669985D2*
X1699507D1*
X533266Y1131805D2*
X582221D1*
X1025112D2*
X1048579D1*
X1189663D2*
X1213325D1*
X1540346D2*
X1674604D1*
X506704Y1106936D2*
X570503D1*
X635122D2*
X873872D1*
X1005581D2*
X1035835D1*
X1189663D2*
X1213325D1*
X1452114D2*
X1469380D1*
X478188Y1082067D2*
X545649D1*
X618520D2*
X898725D1*
X989907D2*
X1010981D1*
X1189663D2*
X1213325D1*
X1371938D2*
X1399067D1*
X1452114D2*
X1469380D1*
X1736587D2*
X1748467D1*
X500063Y1057198D2*
X520747D1*
X593618D2*
X922114D1*
X1078774D2*
X1290180D1*
X1377505D2*
X1399067D1*
X1452114D2*
X1469380D1*
X568764Y1032330D2*
X946968D1*
X1053921D2*
X1081098D1*
X1186147D2*
X1213227D1*
X1377505D2*
X1399067D1*
X1452114D2*
X1469380D1*
X1540346D2*
X1662153D1*
X542690Y1007461D2*
X1081098D1*
X1540346D2*
X1685688D1*
X1726382D2*
X1748481D1*
X479409Y982592D2*
X616401D1*
X868032D2*
X1081098D1*
X1540346D2*
X1748481D1*
X428725Y957723D2*
X592964D1*
X892007D2*
X1081098D1*
X1186147D2*
X1213227D1*
X1377505D2*
X1469380D1*
X1540346D2*
X1603071D1*
X428725Y932855D2*
X485395D1*
X1031069D2*
X1081098D1*
X1186147D2*
X1213227D1*
X1377505D2*
X1469380D1*
X1540346D2*
X1603071D1*
X1031069Y907986D2*
X1081098D1*
X1186147D2*
X1213227D1*
X1319643D2*
X1469429D1*
X1031069Y883117D2*
X1081098D1*
X1186147D2*
X1213227D1*
X1318325D2*
X1482563D1*
X1031069Y858248D2*
X1388667D1*
X1572475D2*
X1584043D1*
X1682388D2*
X1748481D1*
X577309Y833379D2*
X640864D1*
X819985D2*
X854975D1*
X1031069D2*
X1050727D1*
X1118325D2*
X1388667D1*
X1572475D2*
X1608930D1*
X1694009D2*
X1748481D1*
X526333Y808511D2*
X644233D1*
X819985D2*
X843159D1*
X948208D2*
X969184D1*
X1204214D2*
X1214757D1*
X1334780D2*
X1388667D1*
X1572475D2*
X1623042D1*
X1694009D2*
X1748481D1*
X572280Y783642D2*
X644233D1*
X750552D2*
X759031D1*
X819985D2*
X843159D1*
X948208D2*
X969184D1*
X1349770D2*
X1361105D1*
X1694009D2*
X1748481D1*
X572280Y758773D2*
X655464D1*
X948208D2*
X969184D1*
X1074233D2*
X1099165D1*
X1204214D2*
X1214853D1*
X1693911D2*
X1748481D1*
X572280Y733904D2*
X707612D1*
X1074233D2*
X1099165D1*
X1204214D2*
X1288813D1*
X1679946D2*
X1748481D1*
X572280Y709036D2*
X732466D1*
X1204214D2*
X1288813D1*
X1399136D2*
X1569575D1*
X572280Y684167D2*
X757368D1*
X1204214D2*
X1288813D1*
X1399136D2*
X1603071D1*
X486147Y659298D2*
X782221D1*
X971889D2*
X988716D1*
X1406850D2*
X1603071D1*
X462417Y634429D2*
X807075D1*
X1406850D2*
X1603071D1*
X428725Y609561D2*
X479341D1*
X520669D2*
X648091D1*
X1406850D2*
X1603071D1*
X574331Y584692D2*
X648091D1*
X1020864D2*
X1188276D1*
X1406850D2*
X1591011D1*
X1739712D2*
X1748455D1*
X596059Y559823D2*
X648091D1*
X1020864D2*
X1186909D1*
X1406850D2*
X1569282D1*
X607925Y534954D2*
X648091D1*
X1020864D2*
X1186909D1*
X1300552D2*
X1310987D1*
X1406850D2*
X1557466D1*
X1050405Y510086D2*
X1177973D1*
X1248794D2*
X1552241D1*
X1050405Y485217D2*
X1175971D1*
X1250845D2*
X1552778D1*
X606216Y460348D2*
X618563D1*
X1050405D2*
X1199848D1*
X1226884D2*
X1559126D1*
X592886Y435479D2*
X618598D1*
X1050405D2*
X1572456D1*
X1488177Y1364335D2*
Y1314343D1*
X1387177D1*
Y1379704D1*
X1165902Y1379701D1*
X1160007Y1374376D1*
X1155157Y1371404D1*
X1149902Y1369227D1*
X1144371Y1367899D1*
X1138701Y1367453D1*
X1133031Y1367899D1*
X1127500Y1369227D1*
X1122245Y1371404D1*
X1117395Y1374376D1*
X1113062Y1378078D1*
X1113058Y1242846D1*
X1187151Y1242810D1*
Y1220691D1*
X1215883Y1220720D1*
X1215836Y1243072D1*
X1315891D1*
X1315843Y1150891D1*
X1322070Y1151646D1*
Y1155736D1*
X1404408D1*
Y1142895D1*
X1407341Y1147230D1*
X1412591Y1152584D1*
X1412621Y1193138D1*
X1428295D1*
X1428604Y1223659D1*
X1430231Y1229428D1*
X1433160Y1234658D1*
X1443381Y1245323D1*
X1450235Y1251733D1*
X1455465Y1254662D1*
X1461234Y1256289D1*
X1465223Y1256603D1*
X1522108D1*
X1522065Y1330298D1*
X1664301D1*
X1668343Y1338716D1*
X1672421Y1344328D1*
X1677326Y1349233D1*
X1682938Y1353311D1*
X1689119Y1356460D1*
X1695717Y1358604D1*
X1702568Y1359689D1*
X1709506D1*
X1716357Y1358604D1*
X1722955Y1356460D1*
X1727207Y1354391D1*
X1727201Y1452343D1*
X1720340Y1450174D1*
X1712587Y1448946D1*
X1704737D1*
X1696983Y1450174D1*
X1689517Y1452600D1*
X1682522Y1456164D1*
X1676171Y1460778D1*
X1670620Y1466329D1*
X1666006Y1472680D1*
X1664814Y1474808D1*
X1590742Y1474819D1*
X1502288Y1386451D1*
X1497597Y1383317D1*
X1492304Y1381364D1*
X1488577Y1380775D1*
X1488129Y1364343D1*
X1490455Y1380996D1*
X1488584Y1380775D1*
X1381185Y1477735D2*
Y1593751D1*
X1376262Y1598699D1*
X1191726Y1598725D1*
X1113088Y1520093D1*
X1113058Y1483471D1*
X1119829Y1487190D1*
X1125239Y1488947D1*
X1130857Y1489837D1*
X1136545D1*
X1142163Y1488947D1*
X1147573Y1487190D1*
X1152641Y1484608D1*
X1157242Y1481264D1*
X1160834Y1477708D1*
X1381211Y1477701D1*
X1494169Y1593823D2*
Y1528393D1*
X1498395Y1532026D1*
X1503245Y1534998D1*
X1508500Y1537175D1*
X1514031Y1538503D1*
X1519701Y1538949D1*
X1525371Y1538503D1*
X1530902Y1537175D1*
X1536157Y1534998D1*
X1541007Y1532026D1*
X1545332Y1528332D1*
X1549026Y1524007D1*
X1551998Y1519157D1*
X1554175Y1513902D1*
X1555601Y1507543D1*
X1566712Y1518236D1*
X1571635Y1520992D1*
X1577065Y1522524D1*
X1593319Y1522819D1*
X1664755D1*
X1668188Y1528225D1*
X1673287Y1534194D1*
X1679256Y1539292D1*
X1685950Y1543394D1*
X1693202Y1546398D1*
X1700836Y1548231D1*
X1707573Y1548804D1*
X1700836Y1549407D1*
X1693202Y1551240D1*
X1685950Y1554244D1*
X1679256Y1558346D1*
X1673287Y1563444D1*
X1668188Y1569414D1*
X1664087Y1576107D1*
X1661083Y1583360D1*
X1659250Y1590993D1*
X1658634Y1598819D1*
X1659250Y1606645D1*
X1660029Y1610542D1*
X1652373Y1603308D1*
X1647451Y1600551D1*
X1642021Y1599020D1*
X1625767Y1598725D1*
X1499123D1*
X1494167Y1593773D1*
X1488178Y1708358D2*
Y1671659D1*
X1499093Y1660750D1*
X1566246Y1660725D1*
X1563227Y1667500D1*
X1561899Y1673031D1*
X1561453Y1678701D1*
X1561899Y1684371D1*
X1563227Y1689902D1*
X1565404Y1695157D1*
X1568376Y1700007D1*
X1572070Y1704332D1*
X1576395Y1708026D1*
X1581245Y1710998D1*
X1586500Y1713175D1*
X1591693Y1714436D1*
X1591996Y1883455D1*
X1593528Y1888885D1*
X1596285Y1893808D1*
X1607569Y1905510D1*
X1620712Y1918236D1*
X1625635Y1920992D1*
X1631065Y1922524D1*
X1647319Y1922819D1*
X1664751D1*
X1668188Y1928225D1*
X1673287Y1934194D1*
X1679256Y1939292D1*
X1685950Y1943394D1*
X1693202Y1946398D1*
X1700836Y1948231D1*
X1706189Y1948791D1*
X1658634D1*
Y2048846D1*
X1750968D1*
X1750965Y2578887D1*
X1743883Y2571078D1*
X1737480Y2565159D1*
X1730632Y2559760D1*
X1723381Y2554915D1*
X1715773Y2550655D1*
X1707854Y2547004D1*
X1699673Y2543986D1*
X1691280Y2541619D1*
X1682728Y2539917D1*
X1674068Y2538892D1*
X1665355Y2538550D1*
X1656641Y2538892D1*
X1647981Y2539917D1*
X1639429Y2541619D1*
X1631036Y2543986D1*
X1622855Y2547004D1*
X1614936Y2550655D1*
X1607328Y2554915D1*
X1600077Y2559760D1*
X1593229Y2565159D1*
X1586826Y2571078D1*
X1580907Y2577481D1*
X1575508Y2584329D1*
X1570663Y2591580D1*
X1566403Y2599188D1*
X1562752Y2607107D1*
X1559734Y2615288D1*
X1557367Y2623681D1*
X1555665Y2632233D1*
X1554640Y2640893D1*
X1554298Y2649607D1*
X1554640Y2658320D1*
X1555665Y2666980D1*
X1557367Y2675532D1*
X1559734Y2683925D1*
X1562752Y2692106D1*
X1566403Y2700025D1*
X1570663Y2707633D1*
X1575508Y2714884D1*
X1582456Y2723408D1*
X1237705Y2723302D1*
Y2554959D1*
X1153574D1*
X1153576Y2549705D1*
X1121887D1*
X1121847Y2525937D1*
X1163660Y2484002D1*
X1166812Y2479665D1*
X1169246Y2474887D1*
X1170903Y2469788D1*
X1171741Y2464492D1*
X1171847Y2405219D1*
X1278059Y2405225D1*
Y2304225D1*
X1147296D1*
Y2305328D1*
X1128059Y2305225D1*
Y2304225D1*
X1084046D1*
X1084051Y2298233D1*
X991304D1*
Y2304238D1*
X897296Y2304225D1*
Y2405225D1*
X991309D1*
X991304Y2411217D1*
X1084051D1*
Y2405211D1*
X1103516Y2405225D1*
X1103508Y2447645D1*
X1061695Y2489620D1*
X1058543Y2493958D1*
X1056109Y2498735D1*
X1054452Y2503835D1*
X1053613Y2509130D1*
X1053508Y2550337D1*
X1017815Y2550361D1*
Y2555390D1*
X937256Y2555353D1*
Y2723410D1*
X586365Y2723406D1*
X594691Y2711570D1*
X598952Y2703962D1*
X602603Y2696043D1*
X605621Y2687862D1*
X607988Y2679469D1*
X609689Y2670917D1*
X610714Y2662257D1*
X611057Y2653544D1*
X610714Y2644830D1*
X609689Y2636170D1*
X607988Y2627618D1*
X605621Y2619225D1*
X602603Y2611044D1*
X598952Y2603125D1*
X594691Y2595517D1*
X589847Y2588266D1*
X584448Y2581418D1*
X578529Y2575015D1*
X572126Y2569096D1*
X565278Y2563697D1*
X558027Y2558852D1*
X550419Y2554592D1*
X542500Y2550941D1*
X534319Y2547923D1*
X525926Y2545556D1*
X517373Y2543854D1*
X508714Y2542829D1*
X500000Y2542487D1*
X491287Y2542829D1*
X482627Y2543854D1*
X474075Y2545556D1*
X465682Y2547923D1*
X457501Y2550941D1*
X449582Y2554592D1*
X441973Y2558852D1*
X434723Y2563697D1*
X426199Y2570645D1*
X426201Y2438494D1*
X433981Y2443394D1*
X441234Y2446398D1*
X448867Y2448231D1*
X456693Y2448847D1*
X464519Y2448231D1*
X472152Y2446398D1*
X479405Y2443394D1*
X486099Y2439292D1*
X492068Y2434194D1*
X497166Y2428225D1*
X501268Y2421531D1*
X504272Y2414278D1*
X506105Y2406645D1*
X506721Y2398819D1*
X506341Y2392989D1*
X670664Y2228680D1*
X681160Y2228701D1*
X681186Y2301098D1*
X687191D1*
X687177Y2345106D1*
X788177D1*
Y2301093D1*
X794170Y2301098D1*
Y2208351D1*
X788164D1*
X788178Y2029725D1*
X832644Y2029701D1*
X839245Y2033998D1*
X844500Y2036175D1*
X850031Y2037503D1*
X855701Y2037949D1*
X861371Y2037503D1*
X866902Y2036175D1*
X872157Y2033998D1*
X875241Y2032206D1*
X1221277Y2032201D1*
X1227245Y2035998D1*
X1232500Y2038175D1*
X1238031Y2039503D1*
X1243701Y2039949D1*
X1249371Y2039503D1*
X1254902Y2038175D1*
X1260157Y2035998D1*
X1265007Y2033026D1*
X1269332Y2029332D1*
X1273026Y2025007D1*
X1275998Y2020157D1*
X1278175Y2014902D1*
X1279503Y2009371D1*
X1279949Y2003701D1*
X1279503Y1998031D1*
X1277948Y1991884D1*
X1310618Y2024141D1*
X1315540Y2026898D1*
X1320970Y2028429D1*
X1337225Y2028725D1*
X1381219D1*
X1381186Y2201098D1*
Y2301098D1*
X1387192D1*
X1387178Y2345106D1*
X1488178D1*
Y2301093D1*
X1494170Y2301098D1*
Y2058350D1*
Y2008350D1*
X1488164D1*
X1488129Y1864343D1*
X1488178Y1851093D1*
X1494170Y1851098D1*
Y1708351D1*
X1488164D1*
X1381186Y1830177D2*
Y1851098D1*
X1387191D1*
X1387178Y1881696D1*
X1359894Y1881701D1*
X1354007Y1876376D1*
X1349157Y1873404D1*
X1343902Y1871227D1*
X1340934Y1870409D1*
X1381195Y1830148D1*
X687181Y2064343D2*
X687178Y2080700D1*
X644660Y2080725D1*
X537808Y1974285D1*
X532885Y1971528D1*
X527455Y1969996D1*
X511201Y1969701D1*
X506758D1*
X506721Y1948791D1*
X426203D1*
X426201Y1778337D1*
X506721Y1778374D1*
Y1765630D1*
X514722Y1773664D1*
X514775Y1905584D1*
X515875Y1911117D1*
X518238Y1916241D1*
X521736Y1920677D1*
X574594Y1973117D1*
X579517Y1975874D1*
X584947Y1977406D1*
X601201Y1977701D1*
X687187D1*
X687178Y2064352D1*
X788178Y1973671D2*
Y1651093D1*
X794169Y1651099D1*
Y1558351D1*
X788164D1*
X788177Y1527284D1*
X792885Y1525874D1*
X797808Y1523118D1*
X809510Y1511833D1*
X818118Y1502808D1*
X820874Y1497885D1*
X822406Y1492455D1*
X822701Y1476201D1*
Y1421562D1*
X826161Y1424164D1*
X831285Y1426526D1*
X836818Y1427627D1*
X961504Y1427701D1*
X967395Y1433026D1*
X972245Y1435998D1*
X977500Y1438175D1*
X983031Y1439503D1*
X988534Y1439942D1*
X987565Y1445857D1*
Y1451545D1*
X988455Y1457163D1*
X990212Y1462573D1*
X992794Y1467641D1*
X996138Y1472242D1*
X1000160Y1476264D1*
X1004761Y1479608D1*
X1009829Y1482190D1*
X1015239Y1483947D1*
X1020857Y1484837D1*
X1026545D1*
X1032163Y1483947D1*
X1037573Y1482190D1*
X1042641Y1479608D1*
X1047242Y1476264D1*
X1051060Y1472463D1*
X1051353Y1539556D1*
X1052885Y1544986D1*
X1055641Y1549909D1*
X1066926Y1561612D1*
X1161874Y1656141D1*
X1166796Y1658898D1*
X1172226Y1660429D1*
X1188481Y1660725D1*
X1308647D1*
X1302395Y1664376D1*
X1298070Y1668070D1*
X1294376Y1672395D1*
X1291404Y1677245D1*
X1289227Y1682500D1*
X1287899Y1688031D1*
X1287453Y1693701D1*
X1287899Y1699371D1*
X1289227Y1704902D1*
X1291404Y1710157D1*
X1294376Y1715007D1*
X1299694Y1720834D1*
X1299701Y1783789D1*
X1255451Y1828114D1*
X1252317Y1832805D1*
X1250364Y1838098D1*
X1249701Y1843701D1*
X1249996Y1957455D1*
X1251528Y1962885D1*
X1254284Y1967808D1*
X1255456Y1969293D1*
X1249371Y1967899D1*
X1243701Y1967453D1*
X1238031Y1967899D1*
X1232500Y1969227D1*
X1227679Y1971204D1*
X875246Y1971201D1*
X869573Y1968212D1*
X864163Y1966455D1*
X858545Y1965565D1*
X852857D1*
X847239Y1966455D1*
X841829Y1968212D1*
X836761Y1970794D1*
X832710Y1973704D1*
X788172Y1973701D1*
X774691Y1314343D2*
X707308D1*
X705874Y1309517D1*
X703117Y1304594D1*
X691833Y1292892D1*
X686619Y1287678D1*
X753769Y1287701D1*
X774672Y1308613D1*
X774701Y1314375D1*
X1569969Y788819D2*
X1574238Y794004D1*
X1578563Y797698D1*
X1583413Y800670D1*
X1588668Y802847D1*
X1594199Y804175D1*
X1599869Y804621D1*
X1605539Y804175D1*
X1611070Y802847D1*
X1616325Y800670D1*
X1621175Y797698D1*
X1625538Y793963D1*
X1625530Y819248D1*
X1578607Y866194D1*
X1569975Y864181D1*
X1569966Y791311D1*
X787037Y619768D2*
X816285D1*
X816315Y627736D1*
X705919Y738091D1*
X684853Y738361D1*
X679423Y739893D1*
X674501Y742649D1*
X662798Y753934D1*
X651311Y765840D1*
X648554Y770762D1*
X647023Y776192D1*
X646727Y792446D1*
Y822085D1*
X644540Y826920D1*
X643437Y832453D1*
X643361Y837236D1*
X633175Y837235D1*
Y856229D1*
X620808Y844285D1*
X615885Y841528D1*
X610455Y839996D1*
X594201Y839701D1*
X574816D1*
X574792Y813673D1*
X518688D1*
X543117Y788808D1*
X545877Y783878D1*
X569792Y783728D1*
Y683673D1*
X481756D1*
X483947Y677360D1*
X484837Y671742D1*
Y666054D1*
X483947Y660436D1*
X482190Y655026D1*
X479608Y649958D1*
X476264Y645357D1*
X472242Y641335D1*
X467641Y637991D1*
X462573Y635409D1*
X457163Y633651D1*
X451545Y632762D1*
X445857D1*
X440239Y633651D1*
X434829Y635409D1*
X429761Y637991D1*
X426199Y640516D1*
X426201Y583025D1*
X434723Y589847D1*
X441973Y594691D1*
X449582Y598952D1*
X457501Y602603D1*
X465682Y605621D1*
X474075Y607988D1*
X482627Y609689D1*
X491287Y610714D1*
X500000Y611057D1*
X508714Y610714D1*
X517373Y609689D1*
X525926Y607988D1*
X534319Y605621D1*
X542500Y602603D1*
X550419Y598952D1*
X558027Y594691D1*
X565278Y589847D1*
X572126Y584448D1*
X578529Y578529D1*
X584448Y572126D1*
X589847Y565278D1*
X594691Y558027D1*
X598952Y550419D1*
X602603Y542500D1*
X605621Y534319D1*
X607988Y525926D1*
X609689Y517373D1*
X610714Y508714D1*
X611057Y500000D1*
X610714Y491287D1*
X609689Y482627D1*
X607988Y474075D1*
X605621Y465682D1*
X602603Y457501D1*
X598952Y449582D1*
X594691Y441973D1*
X589847Y434723D1*
X582899Y426199D1*
X621074Y426201D1*
X621081Y519287D1*
X650602D1*
X650608Y613776D1*
X774538D1*
X774537Y619768D1*
X787037D1*
X973990Y613776D2*
X998404D1*
X994525Y619618D1*
X992044Y626345D1*
X991201Y633465D1*
Y661834D1*
X971673Y661807D1*
Y677383D1*
X967701Y670398D1*
Y660876D1*
X973026Y655007D1*
X975998Y650157D1*
X978175Y644902D1*
X979503Y639371D1*
X979949Y633701D1*
X979503Y628031D1*
X978175Y622500D1*
X975998Y617245D1*
X973947Y613772D1*
X945697Y753571D2*
Y738385D1*
X971680Y738398D1*
X971673Y828792D1*
X1051039Y828990D1*
X1053621Y834058D1*
X1056965Y838660D1*
X1060987Y842682D1*
X1065588Y846025D1*
X1070656Y848607D1*
X1076066Y850365D1*
X1081684Y851255D1*
X1087372D1*
X1092990Y850365D1*
X1098399Y848607D1*
X1103467Y846025D1*
X1108069Y842682D1*
X1112091Y838660D1*
X1115434Y834058D1*
X1118090Y828792D1*
X1201729D1*
Y664605D1*
X1213710Y664621D1*
X1213752Y666432D1*
X1291261D1*
X1291291Y755653D1*
X1266704Y755701D1*
X1260157Y751404D1*
X1254902Y749227D1*
X1249371Y747899D1*
X1243701Y747453D1*
X1238031Y747899D1*
X1232500Y749227D1*
X1227245Y751404D1*
X1222395Y754376D1*
X1218070Y758070D1*
X1214376Y762395D1*
X1211404Y767245D1*
X1209227Y772500D1*
X1207899Y778031D1*
X1207453Y783701D1*
X1207899Y789371D1*
X1209227Y794902D1*
X1211404Y800157D1*
X1214376Y805007D1*
X1218070Y809332D1*
X1222395Y813026D1*
X1227245Y815998D1*
X1232500Y818175D1*
X1238031Y819503D1*
X1243701Y819949D1*
X1249371Y819503D1*
X1254902Y818175D1*
X1260157Y815998D1*
X1266692Y811698D1*
X1321488Y811615D1*
X1327944Y810331D1*
X1333922Y807575D1*
X1339091Y803500D1*
X1343166Y798331D1*
X1345921Y792354D1*
X1347205Y785898D1*
X1347292Y771543D1*
X1355800Y779454D1*
X1362568Y783244D1*
X1370035Y785350D1*
X1375197Y785756D1*
X1391164D1*
X1391180Y871681D1*
X1497420D1*
X1492282Y875878D1*
X1479762Y888542D1*
X1475453Y894992D1*
X1472768Y902270D1*
X1471856Y909974D1*
Y1126527D1*
X1454481Y1126547D1*
X1449596Y1121707D1*
X1449591Y1029348D1*
X1465579Y1029358D1*
Y962768D1*
X1383240D1*
Y1029358D1*
X1401551D1*
X1401591Y1089178D1*
X1368715Y1089146D1*
X1369450Y1081759D1*
X1369004Y1076088D1*
X1367676Y1070557D1*
X1366174Y1066766D1*
X1375028Y1066760D1*
Y1000170D1*
X1315799D1*
X1315805Y991909D1*
X1375028Y991957D1*
Y925366D1*
X1334549D1*
X1315785Y906646D1*
X1315805Y875169D1*
X1215750D1*
X1215799Y967350D1*
X1215252Y971538D1*
X1183660D1*
X1183652Y874645D1*
X1083597D1*
Y1041629D1*
X1183653D1*
Y1019510D1*
X1215705Y1019538D1*
X1215750Y1042153D1*
X1292654D1*
X1292689Y1066760D1*
X1300160D1*
X1297956Y1073297D1*
X1297403Y1076077D1*
X1215836Y1076088D1*
X1215885Y1168269D1*
X1215601Y1172719D1*
X1187134D1*
X1187151Y1075826D1*
X1094895D1*
X1031841Y1013180D1*
X1026918Y1010423D1*
X1021488Y1008891D1*
X1005234Y1008596D1*
X993982Y1008891D1*
X988552Y1010423D1*
X983630Y1013180D1*
X977759Y1018632D1*
X969359Y1018931D1*
X963929Y1020462D1*
X959007Y1023218D1*
X947304Y1034503D1*
X916628Y1065597D1*
X910235Y1073078D1*
X872447Y1111284D1*
X870476Y1114502D1*
X823868Y1114715D1*
X632709D1*
X632406Y1104947D1*
X630874Y1099517D1*
X628117Y1094594D1*
X616833Y1082892D1*
X542454Y1008930D1*
X537531Y1006173D1*
X532101Y1004642D1*
X515847Y1004347D1*
X500563D1*
X497166Y998941D1*
X492068Y992972D1*
X486099Y987874D1*
X479405Y983772D1*
X472152Y980768D1*
X464519Y978935D1*
X456693Y978319D1*
X448867Y978935D1*
X441234Y980768D1*
X433981Y983772D1*
X426191Y988738D1*
X426201Y913689D1*
X470942Y913728D1*
X473285Y917808D1*
X484569Y929510D1*
X496594Y941117D1*
X501517Y943874D1*
X506947Y945406D1*
X523201Y945701D1*
X593660D1*
X593996Y952455D1*
X595528Y957885D1*
X598285Y962808D1*
X609397Y974338D1*
X616594Y981117D1*
X621517Y983874D1*
X626947Y985406D1*
X643201Y985701D1*
X857455Y985406D1*
X862885Y983874D1*
X867808Y981117D1*
X879510Y969833D1*
X887117Y961808D1*
X889874Y956885D1*
X890528Y955110D1*
X926230Y955101D1*
Y949095D1*
X934270Y949109D1*
X934269Y955101D1*
X1028592D1*
Y831251D1*
X934269D1*
Y837257D1*
X926229Y837243D1*
X926230Y831251D1*
X857498D1*
Y837257D1*
X817502Y837243D1*
Y777600D1*
X845657Y749453D1*
X845642Y828374D1*
X945697D1*
Y753579D1*
X1071729Y767805D2*
Y727279D1*
X1078701Y727949D1*
X1081534Y727838D1*
X1085713Y730071D1*
X1091143Y731602D1*
X1101685Y731898D1*
X1101673Y783183D1*
X1095729Y780644D1*
X1090198Y779317D1*
X1083272Y778920D1*
X1073109Y768864D1*
X1632455Y716327D2*
X1751009D1*
X1750965Y868047D1*
X1670078Y868067D1*
X1683624Y854372D1*
X1687934Y847922D1*
X1690619Y840644D1*
X1691530Y832930D1*
X1691429Y759091D1*
X1689915Y751482D1*
X1686668Y744438D1*
X1681865Y738345D1*
X1668545Y725169D1*
X1662095Y720859D1*
X1654817Y718174D1*
X1647113Y717263D1*
X1632904D1*
X1750938Y604288D2*
X1703574D1*
X1715773Y598952D1*
X1723381Y594691D1*
X1730632Y589847D1*
X1737480Y584448D1*
X1743883Y578529D1*
X1750962Y570654D1*
X1750965Y604277D1*
X1618050Y980106D2*
X1751009D1*
X1750965Y1119414D1*
X1721090Y1089505D1*
X1729136Y1085594D1*
X1734748Y1081517D1*
X1739653Y1076612D1*
X1743731Y1070999D1*
X1746880Y1064818D1*
X1749024Y1058221D1*
X1750109Y1051369D1*
Y1044432D1*
X1749024Y1037580D1*
X1746880Y1030983D1*
X1743731Y1024802D1*
X1739653Y1019189D1*
X1734748Y1014284D1*
X1729136Y1010207D1*
X1722955Y1007057D1*
X1716357Y1004913D1*
X1709506Y1003828D1*
X1702568D1*
X1695717Y1004913D1*
X1689119Y1007057D1*
X1682938Y1010207D1*
X1677326Y1014284D1*
X1672421Y1019189D1*
X1668343Y1024802D1*
X1665194Y1030983D1*
X1662725Y1039216D1*
X1537843Y1039211D1*
X1537856Y932258D1*
X1594847Y932111D1*
X1602455Y930598D1*
X1604895Y929697D1*
X1605550Y930567D1*
Y980106D1*
X1618050D1*
X1537871Y1127455D2*
X1667482D1*
Y1122133D1*
X1727205Y1181888D1*
X1727201Y1205627D1*
X1667515Y1205603D1*
X1667482Y1137636D1*
X1537843D1*
X1537856Y1127473D1*
X1673474Y1285718D2*
Y1256616D1*
X1727186Y1256603D1*
X1727201Y1276757D1*
X1719698Y1273572D1*
X1712953Y1271953D1*
X1706037Y1271408D1*
X1699121Y1271953D1*
X1692376Y1273572D1*
X1685967Y1276227D1*
X1680052Y1279852D1*
X1674777Y1284357D1*
X1673479Y1285761D1*
X459058Y2048846D2*
X506721D1*
Y2017743D1*
X513715Y2017701D1*
X619138Y2122974D1*
X623829Y2126109D1*
X629122Y2128062D1*
X634725Y2128725D1*
X687215D1*
X686654Y2129701D1*
X640947Y2129996D1*
X635517Y2131528D1*
X630594Y2134285D1*
X618892Y2145569D1*
X496287Y2268174D1*
X489183Y2260778D1*
X482832Y2256164D1*
X475838Y2252600D1*
X468372Y2250174D1*
X460618Y2248946D1*
X458443Y2248816D1*
X465891Y2247994D1*
X473133Y2246068D1*
X480005Y2243083D1*
X486355Y2239105D1*
X492039Y2234223D1*
X496930Y2228547D1*
X500919Y2222203D1*
X503916Y2215336D1*
X505853Y2208098D1*
X506687Y2200651D1*
X506471Y2193827D1*
X505167Y2186449D1*
X502776Y2179348D1*
X499351Y2172683D1*
X494969Y2166605D1*
X489728Y2161250D1*
X483746Y2156737D1*
X477158Y2153169D1*
X470110Y2150624D1*
X462761Y2149161D1*
X458215Y2148824D1*
X464519Y2148231D1*
X472152Y2146398D1*
X479405Y2143394D1*
X486099Y2139292D1*
X492068Y2134194D1*
X497166Y2128225D1*
X501268Y2121531D1*
X504272Y2114278D1*
X506105Y2106645D1*
X506721Y2098819D1*
X506105Y2090993D1*
X504272Y2083360D1*
X501268Y2076107D1*
X497166Y2069414D1*
X492068Y2063444D1*
X486099Y2058346D1*
X479405Y2054244D1*
X472152Y2051240D1*
X464519Y2049407D1*
X458088Y2048846D1*
X506721Y1704595D2*
Y1678319D1*
X460618Y1678220D1*
X468372Y1676992D1*
X475838Y1674566D1*
X482832Y1671002D1*
X489183Y1666388D1*
X494734Y1660837D1*
X499349Y1654486D1*
X500541Y1652357D1*
X513383Y1652347D1*
X539694Y1678636D1*
X539701Y1730762D1*
X517454Y1708930D1*
X512531Y1706173D1*
X507094Y1704641D1*
X500541Y1604336D2*
X497166Y1598941D1*
X492068Y1592972D1*
X486099Y1587874D1*
X479405Y1583772D1*
X472152Y1580768D1*
X464519Y1578935D1*
X457782Y1578362D1*
X464519Y1577758D1*
X472152Y1575926D1*
X479405Y1572922D1*
X486099Y1568820D1*
X492068Y1563721D1*
X497166Y1557752D1*
X500541Y1552357D1*
X508377Y1552347D1*
X564673Y1608614D1*
X564701Y1635762D1*
X537454Y1608930D1*
X532531Y1606173D1*
X527101Y1604642D1*
X510847Y1604347D1*
X500544D1*
X500541Y1504336D2*
X497166Y1498941D1*
X492068Y1492972D1*
X486099Y1487874D1*
X479405Y1483772D1*
X472152Y1480768D1*
X464519Y1478935D1*
X457782Y1478362D1*
X464519Y1477758D1*
X472152Y1475926D1*
X479405Y1472922D1*
X486099Y1468820D1*
X492068Y1463721D1*
X497166Y1457752D1*
X499776Y1453723D1*
X589714Y1543656D1*
X589701Y1565781D1*
X533933Y1510097D1*
X529242Y1506962D1*
X523949Y1505010D1*
X518347Y1504347D1*
X500622D1*
X500541Y1404336D2*
X497166Y1398941D1*
X492068Y1392972D1*
X486099Y1387874D1*
X479405Y1383772D1*
X472152Y1380768D1*
X464519Y1378935D1*
X457782Y1378362D1*
X464519Y1377758D1*
X472152Y1375926D1*
X479405Y1372922D1*
X486099Y1368820D1*
X492068Y1363721D1*
X497166Y1357752D1*
X500541Y1352357D1*
X518363Y1352347D1*
X614714Y1448656D1*
X614701Y1500762D1*
X522454Y1408930D1*
X517531Y1406173D1*
X512101Y1404642D1*
X500583Y1404347D1*
X500541Y1304336D2*
X497166Y1298941D1*
X492068Y1292972D1*
X486099Y1287874D1*
X479405Y1283772D1*
X472152Y1280768D1*
X464519Y1278935D1*
X457782Y1278362D1*
X464519Y1277758D1*
X472152Y1275926D1*
X479405Y1272922D1*
X486099Y1268820D1*
X492068Y1263721D1*
X497823Y1256770D1*
X634668Y1393609D1*
X634701Y1400742D1*
X543933Y1310097D1*
X539242Y1306962D1*
X533949Y1305010D1*
X528347Y1304347D1*
X500563D1*
X500541Y1204336D2*
X497166Y1198941D1*
X492068Y1192972D1*
X486099Y1187874D1*
X479405Y1183772D1*
X472152Y1180768D1*
X464519Y1178935D1*
X457782Y1178362D1*
X464519Y1177758D1*
X472152Y1175926D1*
X479405Y1172922D1*
X486099Y1168820D1*
X492068Y1163721D1*
X493370Y1162313D1*
X659678Y1328620D1*
X659701Y1350781D1*
X518934Y1210097D1*
X514243Y1206962D1*
X508949Y1205010D1*
X503347Y1204347D1*
X500563D1*
X501300Y1105704D2*
X497166Y1098941D1*
X492068Y1092972D1*
X486099Y1087874D1*
X479405Y1083772D1*
X472152Y1080768D1*
X464519Y1078935D1*
X457782Y1078362D1*
X464519Y1077758D1*
X472152Y1075926D1*
X479405Y1072922D1*
X486099Y1068820D1*
X492068Y1063721D1*
X497166Y1057752D1*
X500541Y1052357D1*
X518363Y1052347D1*
X584676Y1118617D1*
X584701Y1185801D1*
X508933Y1110097D1*
X504242Y1106962D1*
X502524Y1106171D1*
X1334570Y1230539D2*
X1339775Y1230584D1*
X1340876Y1236117D1*
X1343238Y1241241D1*
X1346730Y1245672D1*
X1378529Y1277471D1*
X1381404Y1285157D1*
X1384376Y1290007D1*
X1388070Y1294332D1*
X1392395Y1298026D1*
X1397245Y1300998D1*
X1402500Y1303175D1*
X1408031Y1304503D1*
X1413701Y1304949D1*
X1419371Y1304503D1*
X1424902Y1303175D1*
X1430157Y1300998D1*
X1435007Y1298026D1*
X1439332Y1294332D1*
X1443026Y1290007D1*
X1445998Y1285157D1*
X1448175Y1279902D1*
X1449503Y1274371D1*
X1449949Y1268701D1*
X1449503Y1263031D1*
X1448175Y1257500D1*
X1445998Y1252245D1*
X1443026Y1247395D1*
X1439332Y1243070D1*
X1435007Y1239376D1*
X1430157Y1236404D1*
X1424902Y1234227D1*
X1419371Y1232899D1*
X1413701Y1232453D1*
X1408031Y1232899D1*
X1402994Y1234053D1*
X1399507Y1230565D1*
X1404408Y1230539D1*
Y1163949D1*
X1322070D1*
Y1230539D1*
X1334570D1*
X1707573Y1848834D2*
X1700836Y1849407D1*
X1693202Y1851240D1*
X1685950Y1854244D1*
X1679256Y1858346D1*
X1673287Y1863444D1*
X1668188Y1869414D1*
X1664814Y1874808D1*
X1644788Y1874819D1*
X1639671Y1869730D1*
X1639627Y1694818D1*
X1638526Y1689285D1*
X1636164Y1684161D1*
X1633946Y1681109D1*
X1633503Y1673031D1*
X1633171Y1671362D1*
X1637456Y1675236D1*
X1642379Y1677992D1*
X1647809Y1679524D1*
X1655712Y1679819D1*
X1660672Y1684770D1*
X1659250Y1690993D1*
X1658634Y1698819D1*
X1659250Y1706645D1*
X1661083Y1714278D1*
X1664087Y1721531D1*
X1668188Y1728225D1*
X1673287Y1734194D1*
X1679256Y1739292D1*
X1685950Y1743394D1*
X1693202Y1746398D1*
X1700836Y1748231D1*
X1707573Y1748804D1*
X1700836Y1749407D1*
X1693202Y1751240D1*
X1685950Y1754244D1*
X1679256Y1758346D1*
X1673287Y1763444D1*
X1668188Y1769414D1*
X1664087Y1776107D1*
X1661083Y1783360D1*
X1659250Y1790993D1*
X1658634Y1798819D1*
X1659250Y1806645D1*
X1661083Y1814278D1*
X1664087Y1821531D1*
X1668188Y1828225D1*
X1673287Y1834194D1*
X1679256Y1839292D1*
X1685950Y1843394D1*
X1693202Y1846398D1*
X1700836Y1848231D1*
X1707573Y1848804D1*
X1003010Y1232573D2*
X1022600D1*
Y1120707D1*
X1015422D1*
X1012476Y1116434D1*
X987408Y1091262D1*
X987386Y1082090D1*
X995378Y1080562D1*
X1000911Y1079461D1*
X1006041Y1077095D1*
X1012643Y1081244D1*
X1051071Y1119673D1*
X1051058Y1424904D1*
X1047708Y1421568D1*
X1047406Y1339947D1*
X1045874Y1334517D1*
X1043117Y1329594D1*
X1031833Y1317892D1*
X967026Y1253085D1*
X967045Y1238582D1*
X1003002Y1238565D1*
Y1232560D1*
X844407Y1238566D2*
X892210D1*
X892070Y1243070D1*
X888376Y1247395D1*
X885404Y1252245D1*
X883227Y1257500D1*
X881899Y1263031D1*
X881453Y1268701D1*
X881899Y1274371D1*
X883227Y1279902D1*
X885404Y1285157D1*
X888376Y1290007D1*
X892070Y1294332D1*
X896395Y1298026D1*
X901245Y1300998D1*
X906500Y1303175D1*
X912031Y1304503D1*
X917701Y1304949D1*
X923371Y1304503D1*
X928902Y1303175D1*
X934157Y1300998D1*
X939007Y1298026D1*
X941806Y1295743D1*
X999720Y1353661D1*
X999701Y1369140D1*
X991545Y1367565D1*
X985857D1*
X980239Y1368455D1*
X974829Y1370212D1*
X969761Y1372794D1*
X965160Y1376138D1*
X961568Y1379694D1*
X848613Y1379701D1*
X842724Y1373783D1*
X842627Y1281818D1*
X841526Y1276285D1*
X839164Y1271161D1*
X835672Y1266730D1*
X807532Y1238591D1*
X844407Y1238566D1*
X761510Y831251D2*
X739244D1*
X739332Y829332D1*
X743026Y825007D1*
X745998Y820157D1*
X748175Y814902D1*
X749503Y809371D1*
X749949Y803701D1*
X749503Y798031D1*
X748175Y792500D1*
X745439Y786246D1*
X761477Y770214D1*
X761501Y831294D1*
X1164666Y602965D2*
X1018380Y603141D1*
Y519293D1*
X1047907Y519287D1*
Y426192D1*
X1582402Y426201D1*
X1575508Y434723D1*
X1570663Y441973D1*
X1566403Y449582D1*
X1562752Y457501D1*
X1559734Y465682D1*
X1557367Y474075D1*
X1555665Y482627D1*
X1554640Y491287D1*
X1554298Y500000D1*
X1554640Y508714D1*
X1555665Y517373D1*
X1557367Y525926D1*
X1559734Y534319D1*
X1562752Y542500D1*
X1566403Y550419D1*
X1570663Y558027D1*
X1575508Y565278D1*
X1580907Y572126D1*
X1586826Y578529D1*
X1593229Y584448D1*
X1600077Y589847D1*
X1607328Y594691D1*
X1614936Y598952D1*
X1627425Y604289D1*
X1605550Y604288D1*
X1605539Y696482D1*
X1599869Y696036D1*
X1594199Y696482D1*
X1588668Y697810D1*
X1583413Y699986D1*
X1578563Y702958D1*
X1574238Y706652D1*
X1569475Y712577D1*
X1396684Y712571D1*
X1396649Y666452D1*
X1404359Y666432D1*
Y527007D1*
X1320051D1*
Y532231D1*
X1314585Y534370D1*
X1309112Y538026D1*
X1299487Y547530D1*
X1298059Y541629D1*
Y527007D1*
X1237366D1*
X1237386Y522002D1*
X1240949Y518423D1*
X1244293Y513822D1*
X1246875Y508754D1*
X1248633Y503344D1*
X1249522Y497726D1*
Y492038D1*
X1248633Y486420D1*
X1246875Y481011D1*
X1244293Y475943D1*
X1240949Y471341D1*
X1236927Y467319D1*
X1232326Y463976D1*
X1227258Y461393D1*
X1221848Y459636D1*
X1216230Y458746D1*
X1210542D1*
X1204924Y459636D1*
X1199515Y461393D1*
X1194446Y463976D1*
X1189845Y467319D1*
X1185823Y471341D1*
X1182480Y475943D1*
X1179897Y481011D1*
X1178140Y486420D1*
X1177250Y492038D1*
Y497726D1*
X1178140Y503344D1*
X1179897Y508754D1*
X1182480Y513822D1*
X1185823Y518423D1*
X1189379Y522015D1*
X1189681Y580395D1*
X1191213Y585825D1*
X1193970Y590748D1*
X1197799Y594890D1*
X1202490Y598025D1*
X1207783Y599978D1*
X1213386Y600641D1*
X1218989Y599978D1*
X1224282Y598025D1*
X1228973Y594890D1*
X1232325Y591643D1*
X1291261Y591629D1*
X1291291Y601845D1*
X1213752Y601810D1*
Y603616D1*
X1213386Y600641D1*
X1218989Y599978D1*
X1224282Y598025D1*
X1228973Y594890D1*
X1230357Y593611D1*
X1213767Y603621D1*
X1181937Y603340D1*
X1177166Y602965D1*
X1164666D1*
X587701Y1858789D2*
Y1836621D1*
X624594Y1873117D1*
X629517Y1875874D1*
X634947Y1877406D1*
X651201Y1877701D1*
X687187D1*
X686654Y1879701D1*
X608675D1*
X587730Y1858789D1*
X1437677Y1354725D2*
D22*
Y1314392D1*
X1387226Y1354725D2*
X1488129D1*
X1437677Y1704725D2*
X1488129D1*
X1387226Y1854725D2*
X1488129D1*
X1437677Y2345057D2*
Y2304725D1*
X1387227D2*
X1488129D1*
X1237677Y2405176D2*
Y2304273D1*
Y2354725D2*
X1278010D1*
X1187677Y2405176D2*
Y2304273D1*
X1087677Y2405176D2*
Y2304273D1*
X987677Y2405176D2*
Y2304273D1*
X937677Y2405176D2*
Y2304273D1*
X897344Y2354725D2*
X937677D1*
X737677Y2345058D2*
Y2304725D1*
X687226D2*
X788129D1*
X687226Y2054725D2*
X788129D1*
X737677Y1654725D2*
X788129D1*
X737677Y1354725D2*
Y1314391D1*
X987677Y2655774D2*
Y2555402D1*
X937305Y2655774D2*
X987677D1*
X1187284Y2655381D2*
Y2555008D1*
Y2655381D2*
X1237656D1*
X783313Y613727D2*
Y566701D1*
X956541Y561780D2*
X1018331D1*
X712446Y613727D2*
Y561780D1*
X650657D2*
X712446D1*
X995911Y461386D2*
X1047858D1*
X621129D2*
X673076D1*
X895670Y828325D2*
Y782284D1*
X845691D2*
X945648D1*
X1151701Y828743D2*
Y782701D1*
X1101722D2*
X1201680D1*
X1362205Y596719D2*
X1404310D1*
X1480578Y871632D2*
Y831496D1*
X1391229D2*
X1569927D1*
X456693Y2248798D2*
Y2148840D1*
Y2198819D2*
X506672D1*
X1133625Y920735D2*
Y874693D1*
X1083646Y920735D2*
X1183604D1*
X1137124Y1121916D2*
Y1075874D1*
Y1121916D2*
X1187102D1*
X1708662Y2048798D2*
Y1948840D1*
X1658683Y1998819D2*
X1708662D1*
X917454Y893176D2*
Y837292D1*
X943045Y949060D2*
Y893176D1*
D25*
X895670Y707481D3*
Y782284D3*
X1021701Y782701D3*
Y707898D3*
X1151701Y782701D3*
Y707898D3*
D26*
X528701Y863701D3*
X453898D3*
X523701Y733701D3*
X448898D3*
D25*
X1133625Y920735D3*
Y995538D3*
X1137124Y1121916D3*
Y1196719D3*
D28*
X885675Y566701D3*
X860084D3*
X834494D3*
X808903D3*
X783313D3*
D29*
X956541Y561780D3*
X712446D3*
D30*
X995911Y461386D3*
X673076D3*
D31*
X867958D3*
X801029D3*
D32*
X456693Y1998819D3*
D33*
Y2098819D3*
Y2198819D3*
Y2298819D3*
Y2398819D3*
D32*
Y1728347D3*
D33*
Y1628347D3*
Y1528347D3*
Y1428347D3*
Y1328347D3*
Y1228347D3*
Y1128347D3*
Y1028347D3*
D32*
X1708662Y1998819D3*
D33*
Y1898819D3*
Y1798819D3*
Y1698819D3*
Y1598819D3*
Y1498819D3*
D35*
X1333858Y1033465D3*
Y958662D3*
X1424410Y996063D3*
X1363239Y1197244D3*
Y1122441D3*
X1453790Y1159843D3*
D25*
X1265864Y1122179D3*
Y1196982D3*
X1265777Y921260D3*
Y996063D3*
D38*
X1597769Y1083334D3*
Y1181759D3*
Y1280184D3*
D39*
X1437677Y1354725D3*
Y1404725D3*
Y1454725D3*
Y1504725D3*
Y1554725D3*
Y1604725D3*
Y1654725D3*
Y1704725D3*
Y1754725D3*
Y1804725D3*
Y1854725D3*
Y1904725D3*
Y1954725D3*
Y2004725D3*
Y2054725D3*
Y2104725D3*
Y2154725D3*
Y2204725D3*
Y2254725D3*
Y2304725D3*
D40*
X1237677Y2354725D3*
X1187677D3*
X1137677D3*
X1087677D3*
X1037677D3*
X987677D3*
X937677D3*
D39*
X737677Y2304725D3*
Y2254725D3*
Y2204725D3*
Y2154725D3*
Y2104725D3*
Y2054725D3*
Y2004725D3*
Y1954725D3*
Y1904725D3*
Y1854725D3*
Y1804725D3*
Y1754725D3*
Y1704725D3*
Y1654725D3*
Y1604725D3*
Y1554725D3*
Y1504725D3*
Y1454725D3*
Y1404725D3*
Y1354725D3*
D41*
X987677Y2655774D3*
D42*
X1087677Y2655381D3*
D41*
X1187284D3*
D44*
X1362205Y559318D3*
Y596719D3*
Y634121D3*
X1255906D3*
Y559318D3*
D45*
X1480578Y752756D3*
Y831496D3*
D46*
X1698971Y660307D3*
Y924087D3*
D47*
X994226Y1176641D3*
X968635D3*
X943045D3*
X917454D3*
X891864D3*
X866273D3*
X840683D3*
X815092D3*
X789502D3*
X763911D3*
X738320D3*
X712730D3*
X687139D3*
X661549D3*
Y893168D3*
X687139Y893176D3*
X712730D3*
X738320D3*
X763911D3*
X789502D3*
X815092D3*
X840683D3*
X866273D3*
X891864D3*
X917454D3*
X943045D3*
X968635D3*
X994226D3*
M02*
