G04 DipTrace 3.0.0.1*
G04 TopMask.gbr*
%MOIN*%
G04 #@! TF.FileFunction,Soldermask,Top*
G04 #@! TF.Part,Single*
%ADD49C,0.125984*%
%ADD50C,0.035433*%
%ADD53R,0.023622X0.07874*%
%ADD55R,0.141732X0.066929*%
%ADD57R,0.145669X0.047244*%
%ADD59R,0.051181X0.031496*%
%ADD61R,0.041339X0.167717*%
%ADD63R,0.067717X0.167717*%
%ADD65R,0.047638X0.067874*%
%ADD67R,0.067874X0.047638*%
%ADD69R,0.106299X0.055118*%
%ADD71R,0.049213X0.033465*%
%ADD73C,0.066929*%
%ADD75R,0.066929X0.066929*%
%ADD77R,0.055118X0.082677*%
%ADD79R,0.070866X0.082677*%
%ADD81R,0.090551X0.070866*%
%ADD83R,0.023622X0.061024*%
%ADD85R,0.059055X0.066929*%
%ADD87R,0.066929X0.059055*%
%FSLAX26Y26*%
G04*
G70*
G90*
G75*
G01*
G04 TopMask*
%LPD*%
D87*
X895670Y707481D3*
Y782284D3*
X1021701Y782701D3*
Y707898D3*
X1151701Y782701D3*
Y707898D3*
D85*
X528701Y863701D3*
X453898D3*
X523701Y733701D3*
X448898D3*
D87*
X1133625Y920735D3*
Y995538D3*
X1137124Y1121916D3*
Y1196719D3*
D49*
X1665355Y2649607D3*
X500000Y2653544D3*
Y500000D3*
X1665355D3*
D83*
X885675Y566701D3*
X860084D3*
X834494D3*
X808903D3*
X783313D3*
D81*
X956541Y561780D3*
X712446D3*
D79*
X995911Y461386D3*
X673076D3*
D77*
X867958D3*
X801029D3*
D75*
X456693Y1998819D3*
D73*
Y2098819D3*
Y2198819D3*
Y2298819D3*
Y2398819D3*
D75*
Y1728347D3*
D73*
Y1628347D3*
Y1528347D3*
Y1428347D3*
Y1328347D3*
Y1228347D3*
Y1128347D3*
Y1028347D3*
D75*
X1708662Y1998819D3*
D73*
Y1898819D3*
Y1798819D3*
Y1698819D3*
Y1598819D3*
Y1498819D3*
D71*
X1333858Y1033465D3*
Y958662D3*
X1424410Y996063D3*
X1363239Y1197244D3*
Y1122441D3*
X1453790Y1159843D3*
D87*
X1265864Y1122179D3*
Y1196982D3*
X1265777Y921260D3*
Y996063D3*
D69*
X1597769Y1083334D3*
Y1181759D3*
Y1280184D3*
D50*
X1706037Y1047900D3*
Y1315617D3*
D67*
X1437677Y1354725D3*
Y1404725D3*
Y1454725D3*
Y1504725D3*
Y1554725D3*
Y1604725D3*
Y1654725D3*
Y1704725D3*
Y1754725D3*
Y1804725D3*
Y1854725D3*
Y1904725D3*
Y1954725D3*
Y2004725D3*
Y2054725D3*
Y2104725D3*
Y2154725D3*
Y2204725D3*
Y2254725D3*
Y2304725D3*
D65*
X1237677Y2354725D3*
X1187677D3*
X1137677D3*
X1087677D3*
X1037677D3*
X987677D3*
X937677D3*
D67*
X737677Y2304725D3*
Y2254725D3*
Y2204725D3*
Y2154725D3*
Y2104725D3*
Y2054725D3*
Y2004725D3*
Y1954725D3*
Y1904725D3*
Y1854725D3*
Y1804725D3*
Y1754725D3*
Y1704725D3*
Y1654725D3*
Y1604725D3*
Y1554725D3*
Y1504725D3*
Y1454725D3*
Y1404725D3*
Y1354725D3*
D63*
X987677Y2655774D3*
D61*
X1087677Y2655381D3*
D63*
X1187284D3*
D59*
X1362205Y559318D3*
Y596719D3*
Y634121D3*
X1255906D3*
Y559318D3*
D57*
X1480578Y752756D3*
Y831496D3*
D55*
X1698971Y660307D3*
Y924087D3*
D53*
X994226Y1176641D3*
X968635D3*
X943045D3*
X917454D3*
X891864D3*
X866273D3*
X840683D3*
X815092D3*
X789502D3*
X763911D3*
X738320D3*
X712730D3*
X687139D3*
X661549D3*
Y893168D3*
X687139Y893176D3*
X712730D3*
X738320D3*
X763911D3*
X789502D3*
X815092D3*
X840683D3*
X866273D3*
X891864D3*
X917454D3*
X943045D3*
X968635D3*
X994226D3*
M02*
