G04 DipTrace 3.0.0.1*
G04 TopSilk.gbr*
%MOIN*%
G04 #@! TF.FileFunction,Legend,Top*
G04 #@! TF.Part,Single*
%ADD10C,0.01*%
%ADD12C,0.002992*%
%ADD27C,0.019658*%
%ADD34C,0.015422*%
%ADD36C,0.003937*%
%ADD37C,0.019697*%
%ADD43C,0.015396*%
%ADD89C,0.006176*%
%FSLAX26Y26*%
G04*
G70*
G90*
G75*
G01*
G04 TopSilk*
%LPD*%
X921240Y666121D2*
D10*
X870099D1*
X996130Y820082D2*
X1047272D1*
X1126130D2*
X1177272D1*
X566084Y889272D2*
Y838130D1*
X561084Y759272D2*
Y708130D1*
X1159196Y883355D2*
X1108054D1*
X1162694Y1084536D2*
X1111553D1*
X984114Y407439D2*
X984060Y376744D1*
X684858D2*
Y407439D1*
D27*
X885692Y614927D3*
X675056Y376744D2*
D10*
X993916D1*
X675056D2*
Y353121D1*
X993916Y376744D2*
Y353121D1*
X675056D2*
X993916D1*
X506693Y2448819D2*
X406693D1*
X506693Y1948819D2*
Y2448819D1*
X406693Y1948819D2*
Y2448819D1*
X506693Y1948819D2*
X406693D1*
X506693Y1778347D2*
Y978347D1*
X406693Y1778347D2*
X506693D1*
X406693D2*
Y978347D1*
X506693D1*
X1658662Y2048819D2*
Y1448819D1*
X1758662Y2048819D2*
Y1448819D1*
X1658662Y2048819D2*
X1758662D1*
X1658662Y1448819D2*
X1758662D1*
D34*
X1319150Y1064314D3*
X1369291Y1055113D2*
D10*
Y937008D1*
X1388977D1*
Y1055113D1*
X1369291D1*
D34*
X1348530Y1228093D3*
X1398672Y1218893D2*
D10*
Y1100788D1*
X1418357D1*
Y1218893D1*
X1398672D1*
X1771009Y1122692D2*
X1849738D1*
Y1181759D1*
X1771009D1*
Y1122692D1*
X1746403Y1166026D2*
D36*
Y1209326D1*
X1734566Y1193558D1*
X1746403Y1209326D2*
X1758209Y1193558D1*
D37*
X1563315Y1041993D3*
X1641079Y1043960D2*
D10*
Y1004593D1*
X1767064D1*
X1771009D2*
Y1358924D1*
X1641079D1*
Y1315625D1*
X911661Y2354698D2*
X737697D1*
Y2330761D1*
X1265669Y2354698D2*
X1437657D1*
Y2330761D1*
D43*
X1378838Y532404D3*
X1324769Y537667D2*
D10*
Y655774D1*
X1293277Y537667D2*
Y655774D1*
X1324769D2*
X1293277D1*
X1324769Y537667D2*
X1293277D1*
X1403696Y621725D2*
X1774956D1*
Y962670D1*
X1403696D1*
Y621725D1*
X1032612Y1129407D2*
X623163D1*
X1032612Y940402D2*
X623163D1*
Y1129407D2*
Y940402D1*
X1032612Y1129407D2*
Y1062472D1*
Y1007337D2*
Y940402D1*
Y1062472D2*
G03X1032612Y1007337I-3711J-27568D01*
G01*
X1609812Y2453045D2*
D12*
X1639732D1*
X1609800Y2450053D2*
X1639744D1*
X1609695Y2447061D2*
X1639849D1*
X1609302Y2444069D2*
X1640242D1*
X1608457Y2441077D2*
X1641087D1*
X1564932Y2438085D2*
X1567924D1*
X1607075D2*
X1642469D1*
X1681620D2*
X1684612D1*
X1561940Y2435093D2*
X1572762D1*
X1604841D2*
X1644703D1*
X1676782D2*
X1687604D1*
X1558948Y2432101D2*
X1577383D1*
X1601380D2*
X1648164D1*
X1672161D2*
X1690596D1*
X1555956Y2429109D2*
X1581730D1*
X1596854D2*
X1652690D1*
X1667813D2*
X1693588D1*
X1552964Y2426117D2*
X1585876D1*
X1591860D2*
X1657684D1*
X1663668D2*
X1696580D1*
X1549972Y2423125D2*
X1699572D1*
X1546980Y2420133D2*
X1702564D1*
X1548937Y2417141D2*
X1700606D1*
X1550934Y2414149D2*
X1698610D1*
X1552977Y2411157D2*
X1696567D1*
X1554948Y2408165D2*
X1694596D1*
X1556912Y2405173D2*
X1692632D1*
X1558725Y2402181D2*
X1690819D1*
X1560174Y2399189D2*
X1689370D1*
X1559956Y2396197D2*
X1689588D1*
X1559160Y2393205D2*
X1690383D1*
X1557931Y2390213D2*
X1691613D1*
X1556420Y2387221D2*
X1622494D1*
X1627050D2*
X1693124D1*
X1552557Y2384229D2*
X1615272D1*
X1634272D2*
X1696987D1*
X1546668Y2381237D2*
X1609606D1*
X1639938D2*
X1702876D1*
X1539998Y2378245D2*
X1605511D1*
X1644032D2*
X1709546D1*
X1533979Y2375253D2*
X1602654D1*
X1646889D2*
X1715564D1*
X1531030Y2372261D2*
X1600633D1*
X1648911D2*
X1718514D1*
X1529962Y2369269D2*
X1599263D1*
X1650281D2*
X1719582D1*
X1529411Y2366277D2*
X1598487D1*
X1651057D2*
X1720133D1*
X1529173Y2363285D2*
X1598123D1*
X1651421D2*
X1720371D1*
X1529080Y2360293D2*
X1598064D1*
X1651480D2*
X1720464D1*
X1529046Y2357301D2*
X1598392D1*
X1651152D2*
X1720498D1*
X1529034Y2354309D2*
X1599212D1*
X1650332D2*
X1720510D1*
X1529030Y2351317D2*
X1600574D1*
X1648970D2*
X1720514D1*
X1529028Y2348325D2*
X1602677D1*
X1646867D2*
X1720516D1*
X1539476Y2345333D2*
X1605535D1*
X1644009D2*
X1710068D1*
X1547291Y2342341D2*
X1608434D1*
X1641109D2*
X1702253D1*
X1553067Y2339349D2*
X1610909D1*
X1638634D2*
X1696477D1*
X1555605Y2336357D2*
X1611769D1*
X1637775D2*
X1693939D1*
X1557411Y2333365D2*
X1612164D1*
X1637380D2*
X1692133D1*
X1558801Y2330373D2*
X1611384D1*
X1638160D2*
X1690743D1*
X1560280Y2327381D2*
X1610283D1*
X1639260D2*
X1689264D1*
X1561940Y2324389D2*
X1609058D1*
X1640486D2*
X1687604D1*
X1559062Y2321397D2*
X1607918D1*
X1641626D2*
X1690482D1*
X1556453Y2318405D2*
X1606880D1*
X1642664D2*
X1693091D1*
X1554190Y2315413D2*
X1605730D1*
X1643814D2*
X1695354D1*
X1552094Y2312421D2*
X1604435D1*
X1645109D2*
X1697450D1*
X1550239Y2309429D2*
X1603125D1*
X1646419D2*
X1699305D1*
X1548798Y2306437D2*
X1601952D1*
X1647591D2*
X1700745D1*
X1549114Y2303445D2*
X1600912D1*
X1648632D2*
X1700430D1*
X1551001Y2300453D2*
X1599837D1*
X1649707D2*
X1698543D1*
X1553400Y2297461D2*
X1598792D1*
X1650751D2*
X1696144D1*
X1556126Y2294469D2*
X1579427D1*
X1594852D2*
X1597844D1*
X1651700D2*
X1654692D1*
X1670117D2*
X1693418D1*
X1559010Y2291477D2*
X1575668D1*
X1673876D2*
X1690534D1*
X1561961Y2288485D2*
X1571778D1*
X1677766D2*
X1687583D1*
X1564932Y2285493D2*
X1567924D1*
X1681620D2*
X1684612D1*
X1508084Y2267541D2*
X1514068D1*
X1535012D2*
X1540996D1*
X1558948D2*
X1564932D1*
X1585876D2*
X1591860D1*
X1618788D2*
X1624772D1*
X1645716D2*
X1648708D1*
X1666660D2*
D3*
X1687604D2*
D3*
X1699572D2*
X1702564D1*
X1714532D2*
X1720516D1*
X1735476D2*
X1741460D1*
X1506703Y2264549D2*
X1517247D1*
X1530243D2*
X1543988D1*
X1555769D2*
X1567336D1*
X1581733D2*
X1594264D1*
X1616396D2*
X1633748D1*
X1641930D2*
X1652493D1*
X1665279D2*
X1666660D1*
X1678628D2*
X1681620D1*
X1687604D2*
X1723508D1*
X1729492D2*
X1742841D1*
X1505844Y2261557D2*
X1520052D1*
X1526036D2*
X1546980D1*
X1552964D2*
X1569086D1*
X1578664D2*
X1596014D1*
X1614408D2*
X1632356D1*
X1638882D2*
X1655539D1*
X1664420D2*
X1666660D1*
X1678616D2*
X1681620D1*
X1687604D2*
X1743654D1*
X1505409Y2258565D2*
X1508671D1*
X1513481D2*
X1532020D1*
X1540996D2*
X1555956D1*
X1564932D2*
X1570091D1*
X1577727D2*
X1583472D1*
X1591860D2*
X1597016D1*
X1613792D2*
X1618788D1*
X1627764D2*
X1631431D1*
X1637673D2*
X1642174D1*
X1651700D2*
X1656648D1*
X1663985D2*
X1666660D1*
X1678502D2*
X1681620D1*
X1687604D2*
X1693588D1*
X1705556D2*
X1711540D1*
X1719341D2*
X1723508D1*
X1730079D2*
X1732484D1*
X1741460D2*
X1744046D1*
X1505216Y2255573D2*
X1506911D1*
X1515241D2*
X1532020D1*
X1540996D2*
X1570600D1*
X1577241D2*
X1581722D1*
X1591860D2*
X1597502D1*
X1614162D2*
X1630756D1*
X1636740D2*
X1641124D1*
X1651700D2*
X1657233D1*
X1663792D2*
X1666660D1*
X1678040D2*
X1681620D1*
X1687604D2*
X1693588D1*
X1705568D2*
X1711540D1*
X1728319D2*
X1742786D1*
X1505138Y2252581D2*
X1505840D1*
X1516312D2*
X1532020D1*
X1540996D2*
X1570916D1*
X1577030D2*
X1580720D1*
X1591860D2*
X1597712D1*
X1614411D2*
X1639732D1*
X1651700D2*
X1657384D1*
X1663725D2*
X1666660D1*
X1677017D2*
X1681620D1*
X1687604D2*
X1693588D1*
X1705685D2*
X1711540D1*
X1727248D2*
X1738168D1*
X1505108Y2249589D2*
X1505092D1*
X1517060D2*
X1532020D1*
X1540996D2*
X1555956D1*
X1576947D2*
X1580234D1*
X1591860D2*
X1597796D1*
X1614261D2*
X1615796D1*
X1627764D2*
X1642724D1*
X1651700D2*
X1656995D1*
X1663810D2*
X1666660D1*
X1675636D2*
X1681620D1*
X1687604D2*
X1693588D1*
X1706182D2*
X1711540D1*
X1726500D2*
X1732484D1*
X1505097Y2246597D2*
X1519502D1*
X1526036D2*
X1546442D1*
X1553514D2*
X1570916D1*
X1576916D2*
X1580024D1*
X1591860D2*
X1597827D1*
X1614200D2*
X1655832D1*
X1664261D2*
X1681620D1*
X1687604D2*
X1693588D1*
X1707386D2*
X1738052D1*
X1505094Y2243605D2*
X1518452D1*
X1526036D2*
X1544382D1*
X1554564D2*
X1569513D1*
X1576905D2*
X1579938D1*
X1591860D2*
X1597838D1*
X1614777D2*
X1653933D1*
X1665281D2*
X1681620D1*
X1687604D2*
X1693588D1*
X1709300D2*
X1742252D1*
X1505092Y2240613D2*
X1517060D1*
X1526036D2*
X1540292D1*
X1555956D2*
X1567924D1*
X1576900D2*
X1579892D1*
X1591860D2*
X1597844D1*
X1615796D2*
X1627764D1*
X1642724D2*
X1651700D1*
X1666660D2*
X1681620D1*
X1687604D2*
X1693588D1*
X1711540D2*
X1723508D1*
X1732484D2*
X1744452D1*
X1526036Y2237621D2*
X1536586D1*
X1526036Y2234629D2*
X1533753D1*
X1609812D2*
X1615796D1*
X1526036Y2231637D2*
X1532764D1*
X1609812D2*
X1615796D1*
X1526036Y2228645D2*
X1532020D1*
X1609812D2*
X1615796D1*
X1526036Y2225653D2*
X1538567D1*
X1552964D2*
X1567924D1*
X1576900D2*
X1624772D1*
X1633748D2*
X1639732D1*
X1648708D2*
X1672644D1*
X1681620D2*
X1699572D1*
X1705556D2*
X1717524D1*
X1526036Y2222661D2*
X1543659D1*
X1554564D2*
X1569305D1*
X1576900D2*
X1624772D1*
X1633748D2*
X1639732D1*
X1648708D2*
X1674025D1*
X1681620D2*
X1718905D1*
X1526036Y2219669D2*
X1545697D1*
X1556631D2*
X1558948D1*
X1564932D2*
X1570164D1*
X1576900D2*
X1624772D1*
X1633748D2*
X1639732D1*
X1648708D2*
X1651700D1*
X1660676D2*
D3*
X1669652D2*
X1674884D1*
X1681620D2*
X1719753D1*
X1526036Y2216677D2*
X1532020D1*
X1540996D2*
X1546440D1*
X1558948D2*
D3*
X1564932D2*
X1570599D1*
X1576900D2*
X1582884D1*
X1594852D2*
X1600836D1*
X1609812D2*
X1615796D1*
X1621894D2*
X1651700D1*
X1663668D2*
D3*
X1669652D2*
X1675319D1*
X1681620D2*
X1687604D1*
X1699584D2*
X1705556D1*
X1714532D2*
X1720074D1*
X1526036Y2213685D2*
X1532020D1*
X1540996D2*
X1546980D1*
X1552964D2*
X1570792D1*
X1576900D2*
X1582884D1*
X1594852D2*
X1600836D1*
X1609812D2*
X1615796D1*
X1622280D2*
X1651700D1*
X1657684D2*
X1675512D1*
X1681620D2*
X1687604D1*
X1699698D2*
X1719804D1*
X1526036Y2210693D2*
X1532020D1*
X1540996D2*
X1570870D1*
X1576900D2*
X1582884D1*
X1594852D2*
X1600836D1*
X1609812D2*
X1615796D1*
X1623022D2*
X1633748D1*
X1639732D2*
X1675590D1*
X1681620D2*
X1687604D1*
X1700160D2*
X1718862D1*
X1526036Y2207701D2*
X1532020D1*
X1540996D2*
X1555956D1*
X1564932D2*
X1570901D1*
X1576900D2*
X1582884D1*
X1594852D2*
X1600836D1*
X1609812D2*
X1615796D1*
X1623913D2*
X1633748D1*
X1639732D2*
X1648708D1*
X1654692D2*
X1660676D1*
X1669652D2*
X1675621D1*
X1681620D2*
X1687604D1*
X1701183D2*
X1705556D1*
X1714532D2*
X1717524D1*
X1526036Y2204709D2*
X1532020D1*
X1540996D2*
X1570916D1*
X1576900D2*
X1582884D1*
X1594852D2*
X1615796D1*
X1624772D2*
X1633748D1*
X1639732D2*
X1648708D1*
X1654692D2*
X1675636D1*
X1681620D2*
X1687604D1*
X1702564D2*
X1720516D1*
X675819Y2632441D2*
X708731D1*
X675808Y2629449D2*
X678811D1*
X684795D2*
X714127D1*
X675702Y2626457D2*
X681803D1*
X687787D2*
X696886D1*
X701573D2*
X718857D1*
X675309Y2623465D2*
X700343D1*
X708086D2*
X722746D1*
X674488Y2620473D2*
X675819D1*
X687199D2*
X704358D1*
X713219D2*
X725843D1*
X595035Y2617481D2*
X612987D1*
X673351D2*
X681803D1*
X691953D2*
X708731D1*
X717707D2*
X728317D1*
X591136Y2614489D2*
X626521D1*
X672226D2*
X687199D1*
X696052D2*
X721471D1*
X726683D2*
X730520D1*
X588155Y2611497D2*
X593231D1*
X606889D2*
X609533D1*
X617909D2*
X639857D1*
X671315D2*
X672827D1*
X684321D2*
X691941D1*
X699911D2*
X705739D1*
X711723D2*
X723817D1*
X729675D2*
X732629D1*
X586106Y2608505D2*
X589221D1*
X609486D2*
X611771D1*
X621804D2*
X628421D1*
X635861D2*
X652184D1*
X671879D2*
X675015D1*
X689447D2*
X695947D1*
X703830D2*
X711723D1*
X717456D2*
X726683D1*
X732667D2*
X734533D1*
X584670Y2605513D2*
X587674D1*
X611656D2*
X613872D1*
X624630D2*
X629268D1*
X639756D2*
X646373D1*
X650821D2*
X663851D1*
X672827D2*
X678284D1*
X694158D2*
X699539D1*
X707673D2*
X713448D1*
X722451D2*
X736242D1*
X584981Y2602521D2*
X587858D1*
X613488D2*
X615853D1*
X626763D2*
X630436D1*
X642582D2*
X647220D1*
X654704D2*
X682438D1*
X698415D2*
X703204D1*
X711220D2*
X715966D1*
X726119D2*
X737839D1*
X585916Y2599529D2*
X589773D1*
X615124D2*
X617458D1*
X628527D2*
X631782D1*
X644715D2*
X648388D1*
X657426D2*
X661324D1*
X669248D2*
X675705D1*
X681803D2*
X686910D1*
X702244D2*
X707304D1*
X714517D2*
X719265D1*
X728607D2*
X739385D1*
X587384Y2596537D2*
X593982D1*
X616585D2*
X618722D1*
X630132D2*
X633220D1*
X646479D2*
X649734D1*
X659465D2*
X662091D1*
X671008D2*
X678314D1*
X685818D2*
X691376D1*
X705978D2*
X711723D1*
X717707D2*
X722948D1*
X730653D2*
X733130D1*
X738651D2*
X740993D1*
X589083Y2593545D2*
X598603D1*
X617819D2*
X619886D1*
X631677D2*
X634691D1*
X648048D2*
X651172D1*
X660194D2*
X662989D1*
X672079D2*
X680589D1*
X689701D2*
X695852D1*
X709846D2*
X726683D1*
X732667D2*
X733872D1*
X739675D2*
X742780D1*
X590486Y2590553D2*
X592043D1*
X597439D2*
X602807D1*
X618880D2*
X620972D1*
X633294D2*
X636171D1*
X649249D2*
X652652D1*
X660696D2*
X663851D1*
X672827D2*
D3*
X678811D2*
X682813D1*
X693260D2*
X700924D1*
X713676D2*
X717810D1*
X726683D2*
X734654D1*
X740573D2*
X744709D1*
X591446Y2587561D2*
X592043D1*
X602181D2*
X606473D1*
X619939D2*
X622182D1*
X635177D2*
X637585D1*
X649983D2*
X654220D1*
X661334D2*
X675819D1*
X681803D2*
X685284D1*
X696545D2*
X707349D1*
X717260D2*
X721073D1*
X729553D2*
X735224D1*
X741186D2*
X746542D1*
X592354Y2584569D2*
X595035D1*
X606175D2*
X609782D1*
X620864D2*
X623759D1*
X637448D2*
X638830D1*
X648267D2*
X655963D1*
X662431D2*
X675819D1*
X684795D2*
X687997D1*
X699669D2*
X714715D1*
X720699D2*
X724345D1*
X732080D2*
X735659D1*
X741643D2*
X748224D1*
X593649Y2581577D2*
X597004D1*
X609653D2*
X612911D1*
X621495D2*
X627135D1*
X639915D2*
D3*
X645899D2*
X657867D1*
X663851D2*
X690857D1*
X702717D2*
X727205D1*
X734049D2*
X749812D1*
X595325Y2578585D2*
X599106D1*
X612855D2*
X615979D1*
X621963D2*
X630939D1*
X636923D2*
X693771D1*
X705739D2*
X711723D1*
X717707D2*
X729675D1*
X735659D2*
X744758D1*
X750619D2*
X751343D1*
X597140Y2575593D2*
X601531D1*
X615943D2*
X621963D1*
X627947D2*
X717707D1*
X723104D2*
X745223D1*
X750619D2*
X752856D1*
X599164Y2572601D2*
X604241D1*
X619071D2*
X624955D1*
X630939D2*
X666843D1*
X672827D2*
X696763D1*
X705739D2*
X721249D1*
X727856D2*
X746246D1*
X752209D2*
X754355D1*
X601554Y2569609D2*
X607206D1*
X622456D2*
X666843D1*
X672827D2*
X699755D1*
X714715D2*
X725291D1*
X731919D2*
X735659D1*
X744635D2*
X747627D1*
X753611D2*
X755856D1*
X604238Y2566617D2*
X610526D1*
X626156D2*
X636923D1*
X642907D2*
X657867D1*
X666843D2*
X688962D1*
X693771D2*
X702747D1*
X711723D2*
X729675D1*
X735659D2*
X738651D1*
X747163D2*
X757350D1*
X607087Y2563625D2*
X614225D1*
X629800D2*
X654875D1*
X663851D2*
X684912D1*
X696763D2*
X741643D1*
X749388D2*
X758837D1*
X609995Y2560633D2*
X618082D1*
X632839D2*
X683168D1*
X693771D2*
D3*
X699755D2*
X744635D1*
X751482D2*
X760237D1*
X607117Y2557641D2*
X621986D1*
X635116D2*
X652357D1*
X658455D2*
X681803D1*
X687787D2*
X712471D1*
X735109D2*
X747627D1*
X753611D2*
X761447D1*
X604520Y2554649D2*
X626086D1*
X637134D2*
X650224D1*
X656705D2*
X675819D1*
X681803D2*
X714698D1*
X740043D2*
X762524D1*
X499291Y2551657D2*
X505275D1*
X602362D2*
X630442D1*
X639622D2*
X648517D1*
X655703D2*
X669835D1*
X675819D2*
D3*
X681803D2*
X717574D1*
X744635D2*
X750619D1*
X756603D2*
D3*
X762587D2*
X763801D1*
X497702Y2548665D2*
X519168D1*
X600624D2*
X635078D1*
X642665D2*
X647110D1*
X655218D2*
X669835D1*
X675819D2*
X696763D1*
X702747D2*
D3*
X709194D2*
X720699D1*
X729675D2*
X765598D1*
X496299Y2545673D2*
X533283D1*
X599255D2*
X639915D1*
X645899D2*
X646772D1*
X655007D2*
X693771D1*
X702747D2*
D3*
X709936D2*
X711723D1*
X720699D2*
X768112D1*
X508026Y2542681D2*
X546460D1*
X598057D2*
X630939D1*
X636923D2*
X647665D1*
X654921D2*
X666369D1*
X672365D2*
X690779D1*
X702759D2*
X705739D1*
X710718D2*
X771161D1*
X518604Y2539689D2*
X557830D1*
X596655D2*
X648891D1*
X654875D2*
X665513D1*
X671623D2*
X692635D1*
X702864D2*
X705739D1*
X711288D2*
X774310D1*
X527963Y2536697D2*
X568107D1*
X595035D2*
X664268D1*
X670840D2*
X687787D1*
X693771D2*
X694341D1*
X703245D2*
X705739D1*
X711723D2*
X777319D1*
X536273Y2533705D2*
X654875D1*
X660859D2*
X662676D1*
X670271D2*
X684795D1*
X693771D2*
X695932D1*
X703962D2*
X779982D1*
X544319Y2530713D2*
X648891D1*
X654875D2*
X660859D1*
X669835D2*
X687237D1*
X694821D2*
X697365D1*
X704729D2*
X782181D1*
X553415Y2527721D2*
X648891D1*
X657867D2*
X689179D1*
X695838D2*
X698489D1*
X705251D2*
X784036D1*
X564057Y2524729D2*
X681803D1*
X687787D2*
X690779D1*
X696763D2*
X699169D1*
X705529D2*
X785783D1*
X575637Y2521737D2*
X699528D1*
X705661D2*
X787615D1*
X587986Y2518745D2*
X682266D1*
X693760D2*
X699755D1*
X705739D2*
X789472D1*
X601019Y2515753D2*
X612987D1*
X641813D2*
X686000D1*
X696638D2*
X791034D1*
X649103Y2512761D2*
X689774D1*
X699167D2*
X792362D1*
X657342Y2509769D2*
X693336D1*
X701136D2*
X756603D1*
X762587D2*
X793835D1*
X668512Y2506777D2*
X696763D1*
X702747D2*
X750619D1*
X762587D2*
X795499D1*
X681803Y2503785D2*
X793910D1*
X676279Y2500793D2*
X690779D1*
X696763D2*
X792507D1*
X798491D2*
X810459D1*
X672187Y2497801D2*
X812631D1*
X670939Y2494809D2*
X814900D1*
X670290Y2491817D2*
X817133D1*
X670008Y2488825D2*
X819203D1*
X669897Y2485833D2*
X820756D1*
X669833Y2482841D2*
X821664D1*
X669597Y2479849D2*
X822133D1*
X669065Y2476857D2*
X822561D1*
X666868Y2473865D2*
X823220D1*
X664052Y2470873D2*
X684345D1*
X692212D2*
X826105D1*
X661010Y2467881D2*
X680704D1*
X703979D2*
X738063D1*
X747639D2*
X830517D1*
X657947Y2464889D2*
X677214D1*
X713406D2*
X739813D1*
X747744D2*
X836031D1*
X654911Y2461897D2*
X674033D1*
X721004D2*
X740815D1*
X748137D2*
X816306D1*
X828400D2*
X841370D1*
X651886Y2458905D2*
X670802D1*
X724398D2*
X741301D1*
X748971D2*
X815987D1*
X834270D2*
X845891D1*
X648757Y2455913D2*
X667332D1*
X725618D2*
X741511D1*
X750236D2*
X814521D1*
X839791D2*
X847675D1*
X645150Y2452921D2*
X663650D1*
X726247D2*
X741595D1*
X751972D2*
X811281D1*
X844752D2*
X848693D1*
X640490Y2449929D2*
X659654D1*
X726506D2*
X741626D1*
X754229D2*
X807177D1*
X849355D2*
D3*
X634561Y2446937D2*
X655316D1*
X726507D2*
X741638D1*
X756842D2*
X802549D1*
X609995Y2443945D2*
X621963D1*
X627947D2*
X650561D1*
X726165D2*
X741641D1*
X759595D2*
X777547D1*
X789515D2*
X798427D1*
X614390Y2440953D2*
X645348D1*
X725462D2*
X741643D1*
X789527D2*
X795267D1*
X618971Y2437961D2*
X639915D1*
X724711D2*
X741631D1*
X789632D2*
X794649D1*
X724296Y2434969D2*
X741515D1*
X790025D2*
X795402D1*
X724412Y2431977D2*
X741017D1*
X790847D2*
X796523D1*
X725107Y2428985D2*
X739813D1*
X792007D2*
X797950D1*
X726203Y2425993D2*
X737900D1*
X793351D2*
X799655D1*
X727433Y2423001D2*
X735659D1*
X794788D2*
X801465D1*
X728587Y2420009D2*
X737515D1*
X796270D2*
X803010D1*
X729719Y2417017D2*
X739221D1*
X797865D2*
X804333D1*
X731158Y2414025D2*
X740823D1*
X799741D2*
X805804D1*
X732894Y2411033D2*
X742362D1*
X802009D2*
X807467D1*
X734624Y2408041D2*
X743878D1*
X804475D2*
D3*
X736186Y2405049D2*
X745390D1*
X737588Y2402057D2*
X746996D1*
X739171Y2399065D2*
X748872D1*
X741442Y2396073D2*
X751087D1*
X744241Y2393081D2*
X753360D1*
X746947Y2390089D2*
X755473D1*
X749313Y2387097D2*
X757523D1*
X751582Y2384105D2*
X759506D1*
X754031Y2381113D2*
X761173D1*
X756603Y2378121D2*
X762587D1*
X605852Y727061D2*
X608844D1*
X632780D2*
X635772D1*
X604482Y724069D2*
X607441D1*
X634182D2*
X637141D1*
X603740Y721077D2*
X605852D1*
X617820D2*
X623804D1*
X635772D2*
X637884D1*
X603488Y718085D2*
X608844D1*
X614828D2*
X626796D1*
X632780D2*
X638135D1*
X604621Y715093D2*
X637003D1*
X606083Y712101D2*
X635540D1*
X572940Y709109D2*
X575932D1*
X607357D2*
X634267D1*
X665692D2*
X668684D1*
X574437Y706117D2*
X578935D1*
X608149D2*
X633474D1*
X662688D2*
X667187D1*
X576186Y703125D2*
X582044D1*
X608562D2*
X633061D1*
X659579D2*
X665438D1*
X578038Y700133D2*
X585534D1*
X608855D2*
X632769D1*
X656090D2*
X663586D1*
X580186Y697141D2*
X589730D1*
X609389D2*
X632234D1*
X651894D2*
X661437D1*
X583065Y694149D2*
X594635D1*
X610440D2*
X631183D1*
X646988D2*
X658559D1*
X586871Y691157D2*
X599868D1*
X611836D2*
X629788D1*
X641756D2*
X654752D1*
X591438Y688165D2*
X650186D1*
X596597Y685173D2*
X645026D1*
X602473Y682181D2*
X639150D1*
X608844Y679189D2*
X632780D1*
X590518Y676197D2*
X651106D1*
X572940Y673205D2*
X668684D1*
X572940Y670213D2*
X590892D1*
X602310D2*
X639314D1*
X650732D2*
X668684D1*
X607244Y667221D2*
X634380D1*
X611836Y664229D2*
X629788D1*
X606440Y661237D2*
X635184D1*
X601698Y658245D2*
X639926D1*
X597704Y655253D2*
X643920D1*
X594226Y652261D2*
X647397D1*
X591035Y649269D2*
X599405D1*
X605852D2*
X635772D1*
X642218D2*
X650588D1*
X588065Y646277D2*
X595672D1*
X605852D2*
X635772D1*
X645952D2*
X653559D1*
X585435Y643285D2*
X591917D1*
X605863D2*
X635760D1*
X649707D2*
X656189D1*
X583265Y640293D2*
X588517D1*
X605969D2*
X635655D1*
X653106D2*
X658359D1*
X581534Y637301D2*
X585746D1*
X606362D2*
X635262D1*
X655878D2*
X660089D1*
X580278Y634309D2*
X583529D1*
X607207D2*
X634417D1*
X658094D2*
X661346D1*
X579544Y631317D2*
X582701D1*
X608585D2*
X633038D1*
X658923D2*
X662079D1*
X579182Y628325D2*
X582250D1*
X610776D2*
X630847D1*
X659374D2*
X662441D1*
X579018Y625333D2*
X582038D1*
X614005D2*
X627618D1*
X659585D2*
X662605D1*
X578924Y622341D2*
X581916D1*
X617820D2*
X623804D1*
X659708D2*
X662700D1*
X1609812Y2453045D2*
X1609800Y2450053D1*
X1609695Y2447061D1*
X1609302Y2444069D1*
X1608457Y2441077D1*
X1607075Y2438085D1*
X1604841Y2435093D1*
X1601380Y2432101D1*
X1596854Y2429109D1*
X1591860Y2426117D1*
X1639732Y2453045D2*
X1639744Y2450053D1*
X1639849Y2447061D1*
X1640242Y2444069D1*
X1641087Y2441077D1*
X1642469Y2438085D1*
X1644703Y2435093D1*
X1648164Y2432101D1*
X1652690Y2429109D1*
X1657684Y2426117D1*
X1564932Y2438085D2*
X1561940Y2435093D1*
X1558948Y2432101D1*
X1555956Y2429109D1*
X1552964Y2426117D1*
X1549972Y2423125D1*
X1546980Y2420133D1*
X1548937Y2417141D1*
X1550934Y2414149D1*
X1552977Y2411157D1*
X1554948Y2408165D1*
X1556912Y2405173D1*
X1558725Y2402181D1*
X1560174Y2399189D1*
X1559956Y2396197D1*
X1559160Y2393205D1*
X1557931Y2390213D1*
X1556420Y2387221D1*
X1552557Y2384229D1*
X1546668Y2381237D1*
X1539998Y2378245D1*
X1533979Y2375253D1*
X1531030Y2372261D1*
X1529962Y2369269D1*
X1529411Y2366277D1*
X1529173Y2363285D1*
X1529080Y2360293D1*
X1529046Y2357301D1*
X1529034Y2354309D1*
X1529030Y2351317D1*
X1529028Y2348325D1*
X1539476Y2345333D1*
X1547291Y2342341D1*
X1553067Y2339349D1*
X1555605Y2336357D1*
X1557411Y2333365D1*
X1558801Y2330373D1*
X1560280Y2327381D1*
X1561940Y2324389D1*
X1559062Y2321397D1*
X1556453Y2318405D1*
X1554190Y2315413D1*
X1552094Y2312421D1*
X1550239Y2309429D1*
X1548798Y2306437D1*
X1549114Y2303445D1*
X1551001Y2300453D1*
X1553400Y2297461D1*
X1556126Y2294469D1*
X1559010Y2291477D1*
X1561961Y2288485D1*
X1564932Y2285493D1*
X1567924Y2438085D2*
X1572762Y2435093D1*
X1577383Y2432101D1*
X1581730Y2429109D1*
X1585876Y2426117D1*
X1681620Y2438085D2*
X1676782Y2435093D1*
X1672161Y2432101D1*
X1667813Y2429109D1*
X1663668Y2426117D1*
X1684612Y2438085D2*
X1687604Y2435093D1*
X1690596Y2432101D1*
X1693588Y2429109D1*
X1696580Y2426117D1*
X1699572Y2423125D1*
X1702564Y2420133D1*
X1700606Y2417141D1*
X1698610Y2414149D1*
X1696567Y2411157D1*
X1694596Y2408165D1*
X1692632Y2405173D1*
X1690819Y2402181D1*
X1689370Y2399189D1*
X1689588Y2396197D1*
X1690383Y2393205D1*
X1691613Y2390213D1*
X1693124Y2387221D1*
X1696987Y2384229D1*
X1702876Y2381237D1*
X1709546Y2378245D1*
X1715564Y2375253D1*
X1718514Y2372261D1*
X1719582Y2369269D1*
X1720133Y2366277D1*
X1720371Y2363285D1*
X1720464Y2360293D1*
X1720498Y2357301D1*
X1720510Y2354309D1*
X1720514Y2351317D1*
X1720516Y2348325D1*
X1710068Y2345333D1*
X1702253Y2342341D1*
X1696477Y2339349D1*
X1693939Y2336357D1*
X1692133Y2333365D1*
X1690743Y2330373D1*
X1689264Y2327381D1*
X1687604Y2324389D1*
X1690482Y2321397D1*
X1693091Y2318405D1*
X1695354Y2315413D1*
X1697450Y2312421D1*
X1699305Y2309429D1*
X1700745Y2306437D1*
X1700430Y2303445D1*
X1698543Y2300453D1*
X1696144Y2297461D1*
X1693418Y2294469D1*
X1690534Y2291477D1*
X1687583Y2288485D1*
X1684612Y2285493D1*
X1630756Y2390213D2*
X1622494Y2387221D1*
X1615272Y2384229D1*
X1609606Y2381237D1*
X1605511Y2378245D1*
X1602654Y2375253D1*
X1600633Y2372261D1*
X1599263Y2369269D1*
X1598487Y2366277D1*
X1598123Y2363285D1*
X1598064Y2360293D1*
X1598392Y2357301D1*
X1599212Y2354309D1*
X1600574Y2351317D1*
X1602677Y2348325D1*
X1605535Y2345333D1*
X1608434Y2342341D1*
X1610909Y2339349D1*
X1611769Y2336357D1*
X1612164Y2333365D1*
X1611384Y2330373D1*
X1610283Y2327381D1*
X1609058Y2324389D1*
X1607918Y2321397D1*
X1606880Y2318405D1*
X1605730Y2315413D1*
X1604435Y2312421D1*
X1603125Y2309429D1*
X1601952Y2306437D1*
X1600912Y2303445D1*
X1599837Y2300453D1*
X1598792Y2297461D1*
X1597844Y2294469D1*
X1618788Y2390213D2*
X1627050Y2387221D1*
X1634272Y2384229D1*
X1639938Y2381237D1*
X1644032Y2378245D1*
X1646889Y2375253D1*
X1648911Y2372261D1*
X1650281Y2369269D1*
X1651057Y2366277D1*
X1651421Y2363285D1*
X1651480Y2360293D1*
X1651152Y2357301D1*
X1650332Y2354309D1*
X1648970Y2351317D1*
X1646867Y2348325D1*
X1644009Y2345333D1*
X1641109Y2342341D1*
X1638634Y2339349D1*
X1637775Y2336357D1*
X1637380Y2333365D1*
X1638160Y2330373D1*
X1639260Y2327381D1*
X1640486Y2324389D1*
X1641626Y2321397D1*
X1642664Y2318405D1*
X1643814Y2315413D1*
X1645109Y2312421D1*
X1646419Y2309429D1*
X1647591Y2306437D1*
X1648632Y2303445D1*
X1649707Y2300453D1*
X1650751Y2297461D1*
X1651700Y2294469D1*
X1582884Y2297461D2*
X1579427Y2294469D1*
X1575668Y2291477D1*
X1571778Y2288485D1*
X1567924Y2285493D1*
X1591860Y2297461D2*
X1594852Y2294469D1*
X1657684Y2297461D2*
X1654692Y2294469D1*
X1666660Y2297461D2*
X1670117Y2294469D1*
X1673876Y2291477D1*
X1677766Y2288485D1*
X1681620Y2285493D1*
X1508084Y2267541D2*
X1506703Y2264549D1*
X1505844Y2261557D1*
X1505409Y2258565D1*
X1505216Y2255573D1*
X1505138Y2252581D1*
X1505108Y2249589D1*
X1505097Y2246597D1*
X1505094Y2243605D1*
X1505092Y2240613D1*
X1514068Y2267541D2*
X1517247Y2264549D1*
X1520052Y2261557D1*
X1535012Y2267541D2*
X1530243Y2264549D1*
X1526036Y2261557D1*
X1540996Y2267541D2*
X1543988Y2264549D1*
X1546980Y2261557D1*
X1558948Y2267541D2*
X1555769Y2264549D1*
X1552964Y2261557D1*
X1564932Y2267541D2*
X1567336Y2264549D1*
X1569086Y2261557D1*
X1570091Y2258565D1*
X1570600Y2255573D1*
X1570916Y2252581D1*
X1555956Y2249589D1*
X1570916Y2246597D1*
X1569513Y2243605D1*
X1567924Y2240613D1*
X1585876Y2267541D2*
X1581733Y2264549D1*
X1578664Y2261557D1*
X1577727Y2258565D1*
X1577241Y2255573D1*
X1577030Y2252581D1*
X1576947Y2249589D1*
X1576916Y2246597D1*
X1576905Y2243605D1*
X1576900Y2240613D1*
X1591860Y2267541D2*
X1594264Y2264549D1*
X1596014Y2261557D1*
X1597016Y2258565D1*
X1597502Y2255573D1*
X1597712Y2252581D1*
X1597796Y2249589D1*
X1597827Y2246597D1*
X1597838Y2243605D1*
X1597844Y2240613D1*
X1618788Y2267541D2*
X1616396Y2264549D1*
X1614408Y2261557D1*
X1613792Y2258565D1*
X1614162Y2255573D1*
X1614411Y2252581D1*
X1614261Y2249589D1*
X1614200Y2246597D1*
X1614777Y2243605D1*
X1615796Y2240613D1*
X1624772Y2267541D2*
X1633748Y2264549D1*
X1632356Y2261557D1*
X1631431Y2258565D1*
X1630756Y2255573D1*
X1645716Y2267541D2*
X1641930Y2264549D1*
X1638882Y2261557D1*
X1637673Y2258565D1*
X1636740Y2255573D1*
X1648708Y2267541D2*
X1652493Y2264549D1*
X1655539Y2261557D1*
X1656648Y2258565D1*
X1657233Y2255573D1*
X1657384Y2252581D1*
X1656995Y2249589D1*
X1655832Y2246597D1*
X1653933Y2243605D1*
X1651700Y2240613D1*
X1666660Y2267541D2*
X1665279Y2264549D1*
X1664420Y2261557D1*
X1663985Y2258565D1*
X1663792Y2255573D1*
X1663725Y2252581D1*
X1663810Y2249589D1*
X1664261Y2246597D1*
X1665281Y2243605D1*
X1666660Y2240613D1*
X1687604Y2267541D2*
Y2264549D1*
Y2261557D1*
Y2258565D1*
Y2255573D1*
Y2252581D1*
Y2249589D1*
Y2246597D1*
Y2243605D1*
Y2240613D1*
X1699572Y2267541D2*
X1702564D2*
X1714532D2*
X1720516D2*
X1723508Y2264549D1*
X1735476Y2267541D2*
X1729492Y2264549D1*
X1741460Y2267541D2*
X1742841Y2264549D1*
X1743654Y2261557D1*
X1744046Y2258565D1*
X1742786Y2255573D1*
X1738168Y2252581D1*
X1732484Y2249589D1*
X1738052Y2246597D1*
X1742252Y2243605D1*
X1744452Y2240613D1*
X1666660Y2264549D2*
Y2261557D1*
Y2258565D1*
Y2255573D1*
Y2252581D1*
Y2249589D1*
X1678628Y2264549D2*
X1678616Y2261557D1*
X1678502Y2258565D1*
X1678040Y2255573D1*
X1677017Y2252581D1*
X1675636Y2249589D1*
X1681620Y2264549D2*
Y2261557D1*
Y2258565D1*
Y2255573D1*
Y2252581D1*
Y2249589D1*
Y2246597D1*
Y2243605D1*
Y2240613D1*
X1511076Y2261557D2*
X1508671Y2258565D1*
X1506911Y2255573D1*
X1505840Y2252581D1*
X1505092Y2249589D1*
X1511076Y2261557D2*
X1513481Y2258565D1*
X1515241Y2255573D1*
X1516312Y2252581D1*
X1517060Y2249589D1*
X1532020Y2261557D2*
Y2258565D1*
Y2255573D1*
Y2252581D1*
Y2249589D1*
X1540996Y2261557D2*
Y2258565D1*
Y2255573D1*
Y2252581D1*
Y2249589D1*
X1558948Y2261557D2*
X1555956Y2258565D1*
X1561940Y2261557D2*
X1564932Y2258565D1*
X1585876Y2261557D2*
X1583472Y2258565D1*
X1581722Y2255573D1*
X1580720Y2252581D1*
X1580234Y2249589D1*
X1580024Y2246597D1*
X1579938Y2243605D1*
X1579892Y2240613D1*
X1591860Y2261557D2*
Y2258565D1*
Y2255573D1*
Y2252581D1*
Y2249589D1*
Y2246597D1*
Y2243605D1*
Y2240613D1*
X1621780Y2261557D2*
X1618788Y2258565D1*
X1624772Y2261557D2*
X1627764Y2258565D1*
X1642724Y2261557D2*
X1642174Y2258565D1*
X1641124Y2255573D1*
X1639732Y2252581D1*
X1642724Y2249589D1*
X1651700Y2261557D2*
Y2258565D1*
Y2255573D1*
Y2252581D1*
Y2249589D1*
X1693588Y2261557D2*
Y2258565D1*
Y2255573D1*
Y2252581D1*
Y2249589D1*
Y2246597D1*
Y2243605D1*
Y2240613D1*
X1705556Y2261557D2*
Y2258565D1*
X1705568Y2255573D1*
X1705685Y2252581D1*
X1706182Y2249589D1*
X1707386Y2246597D1*
X1709300Y2243605D1*
X1711540Y2240613D1*
Y2261557D2*
Y2258565D1*
Y2255573D1*
Y2252581D1*
Y2249589D1*
X1714532Y2261557D2*
X1719341Y2258565D1*
X1723391Y2255573D1*
X1725135Y2252581D1*
X1726500Y2249589D1*
Y2261557D2*
X1723508Y2258565D1*
X1732484Y2261557D2*
X1730079Y2258565D1*
X1728319Y2255573D1*
X1727248Y2252581D1*
X1726500Y2249589D1*
X1735476Y2261557D2*
X1732484Y2258565D1*
X1738468Y2261557D2*
X1741460Y2258565D1*
X1624772Y2252581D2*
X1627764Y2249589D1*
X1520052D2*
X1519502Y2246597D1*
X1518452Y2243605D1*
X1517060Y2240613D1*
X1526036Y2249589D2*
Y2246597D1*
Y2243605D1*
Y2240613D1*
Y2237621D1*
Y2234629D1*
Y2231637D1*
Y2228645D1*
Y2225653D1*
Y2222661D1*
Y2219669D1*
Y2216677D1*
Y2213685D1*
Y2210693D1*
Y2207701D1*
Y2204709D1*
X1546980Y2249589D2*
X1546442Y2246597D1*
X1544382Y2243605D1*
X1540292Y2240613D1*
X1536586Y2237621D1*
X1533753Y2234629D1*
X1532764Y2231637D1*
X1532020Y2228645D1*
X1538567Y2225653D1*
X1543659Y2222661D1*
X1545697Y2219669D1*
X1546440Y2216677D1*
X1546980Y2213685D1*
X1552964Y2249589D2*
X1553514Y2246597D1*
X1554564Y2243605D1*
X1555956Y2240613D1*
X1630756Y2243605D2*
X1627764Y2240613D1*
X1639732Y2243605D2*
X1642724Y2240613D1*
X1726500Y2243605D2*
X1723508Y2240613D1*
X1729492Y2243605D2*
X1732484Y2240613D1*
X1609812Y2234629D2*
Y2231637D1*
Y2228645D1*
Y2225653D1*
X1576900D1*
Y2222661D1*
Y2219669D1*
Y2216677D1*
Y2213685D1*
Y2210693D1*
Y2207701D1*
Y2204709D1*
X1615796Y2234629D2*
Y2231637D1*
Y2228645D1*
Y2225653D1*
X1624772D1*
Y2222661D1*
Y2219669D1*
X1552964Y2225653D2*
X1554564Y2222661D1*
X1556631Y2219669D1*
X1558948Y2216677D1*
X1552964Y2213685D1*
X1567924Y2225653D2*
X1569305Y2222661D1*
X1570164Y2219669D1*
X1570599Y2216677D1*
X1570792Y2213685D1*
X1570870Y2210693D1*
X1570901Y2207701D1*
X1570916Y2204709D1*
X1633748Y2225653D2*
Y2222661D1*
Y2219669D1*
X1639732Y2225653D2*
Y2222661D1*
Y2219669D1*
X1648708Y2225653D2*
Y2222661D1*
Y2219669D1*
X1672644Y2225653D2*
X1674025Y2222661D1*
X1674884Y2219669D1*
X1675319Y2216677D1*
X1675512Y2213685D1*
X1675590Y2210693D1*
X1675621Y2207701D1*
X1675636Y2204709D1*
X1681620Y2225653D2*
Y2222661D1*
Y2219669D1*
Y2216677D1*
Y2213685D1*
Y2210693D1*
Y2207701D1*
Y2204709D1*
X1699572Y2225653D2*
X1705556D2*
X1717524D2*
X1718905Y2222661D1*
X1719753Y2219669D1*
X1720074Y2216677D1*
X1719804Y2213685D1*
X1718862Y2210693D1*
X1717524Y2207701D1*
X1720516Y2204709D1*
X1558948Y2222661D2*
Y2219669D1*
Y2216677D1*
X1564932Y2222661D2*
Y2219669D1*
Y2216677D1*
X1651700Y2222661D2*
Y2219669D1*
Y2216677D1*
Y2213685D1*
X1657684Y2222661D2*
X1660676Y2219669D1*
X1663668Y2216677D1*
X1657684Y2213685D1*
X1669652Y2222661D2*
Y2219669D1*
Y2216677D1*
X1532020Y2219669D2*
Y2216677D1*
Y2213685D1*
Y2210693D1*
Y2207701D1*
Y2204709D1*
X1540996Y2219669D2*
Y2216677D1*
Y2213685D1*
Y2210693D1*
Y2207701D1*
Y2204709D1*
X1582884Y2219669D2*
Y2216677D1*
Y2213685D1*
Y2210693D1*
Y2207701D1*
Y2204709D1*
X1594852Y2219669D2*
Y2216677D1*
Y2213685D1*
Y2210693D1*
Y2207701D1*
Y2204709D1*
X1600836Y2219669D2*
Y2216677D1*
Y2213685D1*
Y2210693D1*
Y2207701D1*
X1609812Y2219669D2*
Y2216677D1*
Y2213685D1*
Y2210693D1*
Y2207701D1*
X1615796Y2219669D2*
Y2216677D1*
Y2213685D1*
Y2210693D1*
Y2207701D1*
Y2204709D1*
X1621780Y2219669D2*
X1621894Y2216677D1*
X1622280Y2213685D1*
X1623022Y2210693D1*
X1623913Y2207701D1*
X1624772Y2204709D1*
X1687604Y2219669D2*
Y2216677D1*
Y2213685D1*
Y2210693D1*
Y2207701D1*
Y2204709D1*
X1699572Y2219669D2*
X1699584Y2216677D1*
X1699698Y2213685D1*
X1700160Y2210693D1*
X1701183Y2207701D1*
X1702564Y2204709D1*
X1708548Y2219669D2*
X1705556Y2216677D1*
X1711540Y2219669D2*
X1714532Y2216677D1*
X1633748Y2213685D2*
Y2210693D1*
Y2207701D1*
Y2204709D1*
X1639732Y2213685D2*
Y2210693D1*
Y2207701D1*
Y2204709D1*
X1558948Y2210693D2*
X1555956Y2207701D1*
X1561940Y2210693D2*
X1564932Y2207701D1*
X1648708Y2210693D2*
Y2207701D1*
Y2204709D1*
X1654692Y2210693D2*
Y2207701D1*
Y2204709D1*
X1663668Y2210693D2*
X1660676Y2207701D1*
X1666660Y2210693D2*
X1669652Y2207701D1*
X1708548Y2210693D2*
X1705556Y2207701D1*
X1711540Y2210693D2*
X1714532Y2207701D1*
X675819Y2632441D2*
X675808Y2629449D1*
X675702Y2626457D1*
X675309Y2623465D1*
X674488Y2620473D1*
X673351Y2617481D1*
X672226Y2614489D1*
X671315Y2611497D1*
X671879Y2608505D1*
X672827Y2605513D1*
X708731Y2632441D2*
X714127Y2629449D1*
X718857Y2626457D1*
X722746Y2623465D1*
X725843Y2620473D1*
X728317Y2617481D1*
X730520Y2614489D1*
X732629Y2611497D1*
X734533Y2608505D1*
X736242Y2605513D1*
X737839Y2602521D1*
X739385Y2599529D1*
X740993Y2596537D1*
X742780Y2593545D1*
X744709Y2590553D1*
X746542Y2587561D1*
X748224Y2584569D1*
X749812Y2581577D1*
X751343Y2578585D1*
X752856Y2575593D1*
X754355Y2572601D1*
X755856Y2569609D1*
X757350Y2566617D1*
X758837Y2563625D1*
X760237Y2560633D1*
X761447Y2557641D1*
X762524Y2554649D1*
X763801Y2551657D1*
X765598Y2548665D1*
X768112Y2545673D1*
X771161Y2542681D1*
X774310Y2539689D1*
X777319Y2536697D1*
X779982Y2533705D1*
X782181Y2530713D1*
X784036Y2527721D1*
X785783Y2524729D1*
X787615Y2521737D1*
X789472Y2518745D1*
X791034Y2515753D1*
X792362Y2512761D1*
X793835Y2509769D1*
X795499Y2506777D1*
X793910Y2503785D1*
X792507Y2500793D1*
X675819Y2632441D2*
X678811Y2629449D1*
X681803Y2626457D1*
Y2632441D2*
X684795Y2629449D1*
X687787Y2626457D1*
X693771Y2629449D2*
X696886Y2626457D1*
X700343Y2623465D1*
X704358Y2620473D1*
X708731Y2617481D1*
X693771Y2629449D2*
X701573Y2626457D1*
X708086Y2623465D1*
X713219Y2620473D1*
X717707Y2617481D1*
X681803Y2623465D2*
X687199Y2620473D1*
X691953Y2617481D1*
X696052Y2614489D1*
X699911Y2611497D1*
X703830Y2608505D1*
X707673Y2605513D1*
X711220Y2602521D1*
X714517Y2599529D1*
X717707Y2596537D1*
X595035Y2617481D2*
X591136Y2614489D1*
X588155Y2611497D1*
X586106Y2608505D1*
X584670Y2605513D1*
X584981Y2602521D1*
X585916Y2599529D1*
X587384Y2596537D1*
X589083Y2593545D1*
X590486Y2590553D1*
X591446Y2587561D1*
X592354Y2584569D1*
X593649Y2581577D1*
X595325Y2578585D1*
X597140Y2575593D1*
X599164Y2572601D1*
X601554Y2569609D1*
X604238Y2566617D1*
X607087Y2563625D1*
X609995Y2560633D1*
X607117Y2557641D1*
X604520Y2554649D1*
X602362Y2551657D1*
X600624Y2548665D1*
X599255Y2545673D1*
X598057Y2542681D1*
X596655Y2539689D1*
X595035Y2536697D1*
X612987Y2617481D2*
X626521Y2614489D1*
X639857Y2611497D1*
X652184Y2608505D1*
X663851Y2605513D1*
X681803Y2617481D2*
X687199Y2614489D1*
X691941Y2611497D1*
X695947Y2608505D1*
X699539Y2605513D1*
X703204Y2602521D1*
X707304Y2599529D1*
X711723Y2596537D1*
X720699Y2617481D2*
X721471Y2614489D1*
X723817Y2611497D1*
X726683Y2608505D1*
X723691Y2617481D2*
X726683Y2614489D1*
X729675Y2611497D1*
X732667Y2608505D1*
X598027Y2614489D2*
X593231Y2611497D1*
X589221Y2608505D1*
X587674Y2605513D1*
X587858Y2602521D1*
X589773Y2599529D1*
X593982Y2596537D1*
X598603Y2593545D1*
X602807Y2590553D1*
X606473Y2587561D1*
X609782Y2584569D1*
X612911Y2581577D1*
X615979Y2578585D1*
X604011Y2614489D2*
X606889Y2611497D1*
X609486Y2608505D1*
X611656Y2605513D1*
X613488Y2602521D1*
X615124Y2599529D1*
X616585Y2596537D1*
X617819Y2593545D1*
X618880Y2590553D1*
X619939Y2587561D1*
X620864Y2584569D1*
X621495Y2581577D1*
X621963Y2578585D1*
X607003Y2614489D2*
X609533Y2611497D1*
X611771Y2608505D1*
X613872Y2605513D1*
X615853Y2602521D1*
X617458Y2599529D1*
X618722Y2596537D1*
X619886Y2593545D1*
X620972Y2590553D1*
X622182Y2587561D1*
X623759Y2584569D1*
X627135Y2581577D1*
X630939Y2578585D1*
X612987Y2614489D2*
X617909Y2611497D1*
X621804Y2608505D1*
X624630Y2605513D1*
X626763Y2602521D1*
X628527Y2599529D1*
X630132Y2596537D1*
X631677Y2593545D1*
X633294Y2590553D1*
X635177Y2587561D1*
X637448Y2584569D1*
X639915Y2581577D1*
X636923Y2578585D1*
X672827Y2611497D2*
X675015Y2608505D1*
X678284Y2605513D1*
X682438Y2602521D1*
X686910Y2599529D1*
X691376Y2596537D1*
X695852Y2593545D1*
X700924Y2590553D1*
X707349Y2587561D1*
X714715Y2584569D1*
X678811Y2614489D2*
X684321Y2611497D1*
X689447Y2608505D1*
X694158Y2605513D1*
X698415Y2602521D1*
X702244Y2599529D1*
X705978Y2596537D1*
X709846Y2593545D1*
X713676Y2590553D1*
X717260Y2587561D1*
X720699Y2584569D1*
X708731Y2614489D2*
X705739Y2611497D1*
X708731Y2614489D2*
X711723Y2611497D1*
X627947D2*
X628421Y2608505D1*
X629268Y2605513D1*
X630436Y2602521D1*
X631782Y2599529D1*
X633220Y2596537D1*
X634691Y2593545D1*
X636171Y2590553D1*
X637585Y2587561D1*
X638830Y2584569D1*
X639915Y2581577D1*
X630939Y2611497D2*
X635861Y2608505D1*
X639756Y2605513D1*
X642582Y2602521D1*
X644715Y2599529D1*
X646479Y2596537D1*
X648048Y2593545D1*
X649249Y2590553D1*
X649983Y2587561D1*
X648267Y2584569D1*
X645899Y2581577D1*
X711723Y2608505D2*
X713448Y2605513D1*
X715966Y2602521D1*
X719265Y2599529D1*
X722948Y2596537D1*
X726683Y2593545D1*
X711723Y2611497D2*
X717456Y2608505D1*
X722451Y2605513D1*
X726119Y2602521D1*
X728607Y2599529D1*
X730653Y2596537D1*
X732667Y2593545D1*
X645899Y2608505D2*
X646373Y2605513D1*
X647220Y2602521D1*
X648388Y2599529D1*
X649734Y2596537D1*
X651172Y2593545D1*
X652652Y2590553D1*
X654220Y2587561D1*
X655963Y2584569D1*
X657867Y2581577D1*
X645899Y2608505D2*
X650821Y2605513D1*
X654704Y2602521D1*
X657426Y2599529D1*
X659465Y2596537D1*
X660194Y2593545D1*
X660696Y2590553D1*
X661334Y2587561D1*
X662431Y2584569D1*
X663851Y2581577D1*
X660859Y2602521D2*
X661324Y2599529D1*
X662091Y2596537D1*
X662989Y2593545D1*
X663851Y2590553D1*
X666843Y2602521D2*
X669248Y2599529D1*
X671008Y2596537D1*
X672079Y2593545D1*
X672827Y2590553D1*
Y2602521D2*
X675705Y2599529D1*
X678314Y2596537D1*
X680589Y2593545D1*
X682813Y2590553D1*
X685284Y2587561D1*
X687997Y2584569D1*
X690857Y2581577D1*
X693771Y2578585D1*
X681803Y2599529D2*
X685818Y2596537D1*
X689701Y2593545D1*
X693260Y2590553D1*
X696545Y2587561D1*
X699669Y2584569D1*
X702717Y2581577D1*
X705739Y2578585D1*
X732667Y2599529D2*
X733130Y2596537D1*
X733872Y2593545D1*
X734654Y2590553D1*
X735224Y2587561D1*
X735659Y2584569D1*
X738651Y2596537D2*
X739675Y2593545D1*
X740573Y2590553D1*
X741186Y2587561D1*
X741643Y2584569D1*
X592043Y2593545D2*
X597439Y2590553D1*
X602181Y2587561D1*
X606175Y2584569D1*
X609653Y2581577D1*
X612855Y2578585D1*
X615943Y2575593D1*
X619071Y2572601D1*
X622456Y2569609D1*
X626156Y2566617D1*
X629800Y2563625D1*
X632839Y2560633D1*
X635116Y2557641D1*
X637134Y2554649D1*
X639622Y2551657D1*
X642665Y2548665D1*
X645899Y2545673D1*
X675819Y2593545D2*
X678811Y2590553D1*
X681803Y2587561D1*
X684795Y2584569D1*
X714715Y2593545D2*
X717810Y2590553D1*
X721073Y2587561D1*
X724345Y2584569D1*
X727205Y2581577D1*
X729675Y2578585D1*
X726683Y2590553D2*
X729553Y2587561D1*
X732080Y2584569D1*
X734049Y2581577D1*
X735659Y2578585D1*
X675819Y2587561D2*
Y2584569D1*
X595035D2*
X597004Y2581577D1*
X599106Y2578585D1*
X601531Y2575593D1*
X604241Y2572601D1*
X607206Y2569609D1*
X610526Y2566617D1*
X614225Y2563625D1*
X618082Y2560633D1*
X621986Y2557641D1*
X626086Y2554649D1*
X630442Y2551657D1*
X635078Y2548665D1*
X639915Y2545673D1*
X714715Y2581577D2*
X711723Y2578585D1*
X714715Y2581577D2*
X717707Y2578585D1*
X744635Y2581577D2*
X744758Y2578585D1*
X745223Y2575593D1*
X746246Y2572601D1*
X747627Y2569609D1*
X621963Y2575593D2*
X624955Y2572601D1*
Y2578585D2*
X627947Y2575593D1*
X630939Y2572601D1*
X717707Y2575593D2*
X721249Y2572601D1*
X725291Y2569609D1*
X729675Y2566617D1*
X717707Y2578585D2*
X723104Y2575593D1*
X727856Y2572601D1*
X731919Y2569609D1*
X735659Y2566617D1*
X750619Y2575593D2*
X752209Y2572601D1*
X753611Y2569609D1*
X666843Y2575593D2*
Y2572601D1*
Y2569609D1*
X672827Y2575593D2*
Y2572601D1*
Y2569609D1*
X693771Y2575593D2*
X696763Y2572601D1*
X699755Y2569609D1*
X702747Y2566617D1*
X696763Y2575593D2*
X705739Y2572601D1*
X714715Y2569609D1*
X711723Y2566617D1*
X732667Y2572601D2*
X735659Y2569609D1*
X738651Y2566617D1*
X741643Y2563625D1*
X744635Y2560633D1*
X747627Y2557641D1*
X744635Y2569609D2*
X747163Y2566617D1*
X749388Y2563625D1*
X751482Y2560633D1*
X753611Y2557641D1*
X639915Y2569609D2*
X636923Y2566617D1*
X639915Y2569609D2*
X642907Y2566617D1*
X660859Y2569609D2*
X657867Y2566617D1*
X654875Y2563625D1*
X666843Y2566617D2*
X663851Y2563625D1*
X693771Y2569609D2*
X688962Y2566617D1*
X684912Y2563625D1*
X683168Y2560633D1*
X681803Y2557641D1*
X690779Y2569609D2*
X693771Y2566617D1*
X696763Y2563625D1*
X699755Y2560633D1*
X693771D2*
X687787Y2557641D1*
X654875Y2560633D2*
X652357Y2557641D1*
X650224Y2554649D1*
X648517Y2551657D1*
X647110Y2548665D1*
X646772Y2545673D1*
X647665Y2542681D1*
X648891Y2539689D1*
X660859Y2560633D2*
X658455Y2557641D1*
X656705Y2554649D1*
X655703Y2551657D1*
X655218Y2548665D1*
X655007Y2545673D1*
X654921Y2542681D1*
X654875Y2539689D1*
X711723Y2560633D2*
X712471Y2557641D1*
X714698Y2554649D1*
X717574Y2551657D1*
X720699Y2548665D1*
X729675Y2560633D2*
X735109Y2557641D1*
X740043Y2554649D1*
X744635Y2551657D1*
X729675Y2548665D1*
X675819Y2557641D2*
Y2554649D1*
Y2551657D1*
X681803Y2554649D2*
Y2551657D1*
X499291D2*
X497702Y2548665D1*
X496299Y2545673D1*
X508026Y2542681D1*
X518604Y2539689D1*
X527963Y2536697D1*
X536273Y2533705D1*
X544319Y2530713D1*
X553415Y2527721D1*
X564057Y2524729D1*
X575637Y2521737D1*
X587986Y2518745D1*
X601019Y2515753D1*
X505275Y2551657D2*
X519168Y2548665D1*
X533283Y2545673D1*
X546460Y2542681D1*
X557830Y2539689D1*
X568107Y2536697D1*
X669835Y2554649D2*
Y2551657D1*
Y2548665D1*
X753611Y2554649D2*
X750619Y2551657D1*
X753611Y2554649D2*
X756603Y2551657D1*
X675819Y2548665D2*
X699755Y2551657D2*
X696763Y2548665D1*
X693771Y2545673D1*
X690779Y2542681D1*
X692635Y2539689D1*
X694341Y2536697D1*
X695932Y2533705D1*
X697365Y2530713D1*
X698489Y2527721D1*
X699169Y2524729D1*
X699528Y2521737D1*
X699755Y2518745D1*
X702747Y2551657D2*
Y2548665D1*
Y2545673D1*
X702759Y2542681D1*
X702864Y2539689D1*
X703245Y2536697D1*
X703962Y2533705D1*
X704729Y2530713D1*
X705251Y2527721D1*
X705529Y2524729D1*
X705661Y2521737D1*
X705739Y2518745D1*
X708731Y2551657D2*
X709194Y2548665D1*
X709936Y2545673D1*
X710718Y2542681D1*
X711288Y2539689D1*
X711723Y2536697D1*
X714715Y2548665D2*
X711723Y2545673D1*
X720699D2*
X633931D2*
X630939Y2542681D1*
X633931Y2545673D2*
X636923Y2542681D1*
X666843Y2545673D2*
X666369Y2542681D1*
X665513Y2539689D1*
X664268Y2536697D1*
X662676Y2533705D1*
X660859Y2530713D1*
X672827Y2545673D2*
X672365Y2542681D1*
X671623Y2539689D1*
X670840Y2536697D1*
X670271Y2533705D1*
X669835Y2530713D1*
X705739Y2542681D2*
Y2539689D1*
Y2536697D1*
X690779Y2539689D2*
X687787Y2536697D1*
X684795Y2533705D1*
X687237Y2530713D1*
X689179Y2527721D1*
X690779Y2524729D1*
X657867Y2536697D2*
X654875Y2533705D1*
X657867Y2536697D2*
X660859Y2533705D1*
X693771D2*
X694821Y2530713D1*
X695838Y2527721D1*
X696763Y2524729D1*
X648891Y2533705D2*
Y2530713D1*
Y2527721D1*
X654875Y2530713D2*
X657867Y2527721D1*
X684795D2*
X681803Y2524729D1*
X684795Y2527721D2*
X687787Y2524729D1*
X678811Y2521737D2*
X682266Y2518745D1*
X686000Y2515753D1*
X689774Y2512761D1*
X693336Y2509769D1*
X696763Y2506777D1*
X690779Y2521737D2*
X693760Y2518745D1*
X696638Y2515753D1*
X699167Y2512761D1*
X701136Y2509769D1*
X702747Y2506777D1*
X615979Y2518745D2*
X612987Y2515753D1*
X633931Y2518745D2*
X641813Y2515753D1*
X649103Y2512761D1*
X657342Y2509769D1*
X668512Y2506777D1*
X681803Y2503785D1*
X676279Y2500793D1*
X672187Y2497801D1*
X670939Y2494809D1*
X670290Y2491817D1*
X670008Y2488825D1*
X669897Y2485833D1*
X669833Y2482841D1*
X669597Y2479849D1*
X669065Y2476857D1*
X666868Y2473865D1*
X664052Y2470873D1*
X661010Y2467881D1*
X657947Y2464889D1*
X654911Y2461897D1*
X651886Y2458905D1*
X648757Y2455913D1*
X645150Y2452921D1*
X640490Y2449929D1*
X634561Y2446937D1*
X627947Y2443945D1*
X762587Y2512761D2*
X756603Y2509769D1*
X750619Y2506777D1*
X762587Y2512761D2*
Y2509769D1*
Y2506777D1*
X693771Y2503785D2*
X690779Y2500793D1*
X693771Y2503785D2*
X696763Y2500793D1*
X798491D2*
X810459D2*
X812631Y2497801D1*
X814900Y2494809D1*
X817133Y2491817D1*
X819203Y2488825D1*
X820756Y2485833D1*
X821664Y2482841D1*
X822133Y2479849D1*
X822561Y2476857D1*
X823220Y2473865D1*
X826105Y2470873D1*
X830517Y2467881D1*
X836031Y2464889D1*
X841370Y2461897D1*
X845891Y2458905D1*
X847675Y2455913D1*
X848693Y2452921D1*
X849355Y2449929D1*
X687787Y2473865D2*
X684345Y2470873D1*
X680704Y2467881D1*
X677214Y2464889D1*
X674033Y2461897D1*
X670802Y2458905D1*
X667332Y2455913D1*
X663650Y2452921D1*
X659654Y2449929D1*
X655316Y2446937D1*
X650561Y2443945D1*
X645348Y2440953D1*
X639915Y2437961D1*
X678811Y2473865D2*
X692212Y2470873D1*
X703979Y2467881D1*
X713406Y2464889D1*
X721004Y2461897D1*
X724398Y2458905D1*
X725618Y2455913D1*
X726247Y2452921D1*
X726506Y2449929D1*
X726507Y2446937D1*
X726165Y2443945D1*
X725462Y2440953D1*
X724711Y2437961D1*
X724296Y2434969D1*
X724412Y2431977D1*
X725107Y2428985D1*
X726203Y2425993D1*
X727433Y2423001D1*
X728587Y2420009D1*
X729719Y2417017D1*
X731158Y2414025D1*
X732894Y2411033D1*
X734624Y2408041D1*
X736186Y2405049D1*
X737588Y2402057D1*
X739171Y2399065D1*
X741442Y2396073D1*
X744241Y2393081D1*
X746947Y2390089D1*
X749313Y2387097D1*
X751582Y2384105D1*
X754031Y2381113D1*
X756603Y2378121D1*
X735659Y2470873D2*
X738063Y2467881D1*
X739813Y2464889D1*
X740815Y2461897D1*
X741301Y2458905D1*
X741511Y2455913D1*
X741595Y2452921D1*
X741626Y2449929D1*
X741638Y2446937D1*
X741641Y2443945D1*
X741643Y2440953D1*
X741631Y2437961D1*
X741515Y2434969D1*
X741017Y2431977D1*
X739813Y2428985D1*
X737900Y2425993D1*
X735659Y2423001D1*
X737515Y2420009D1*
X739221Y2417017D1*
X740823Y2414025D1*
X742362Y2411033D1*
X743878Y2408041D1*
X745390Y2405049D1*
X746996Y2402057D1*
X748872Y2399065D1*
X751087Y2396073D1*
X753360Y2393081D1*
X755473Y2390089D1*
X757523Y2387097D1*
X759506Y2384105D1*
X761173Y2381113D1*
X762587Y2378121D1*
X747627Y2470873D2*
X747639Y2467881D1*
X747744Y2464889D1*
X748137Y2461897D1*
X748971Y2458905D1*
X750236Y2455913D1*
X751972Y2452921D1*
X754229Y2449929D1*
X756842Y2446937D1*
X759595Y2443945D1*
X816443Y2464889D2*
X816306Y2461897D1*
X815987Y2458905D1*
X814521Y2455913D1*
X811281Y2452921D1*
X807177Y2449929D1*
X802549Y2446937D1*
X798427Y2443945D1*
X795267Y2440953D1*
X794649Y2437961D1*
X795402Y2434969D1*
X796523Y2431977D1*
X797950Y2428985D1*
X799655Y2425993D1*
X801465Y2423001D1*
X803010Y2420009D1*
X804333Y2417017D1*
X805804Y2414025D1*
X807467Y2411033D1*
X804475Y2408041D1*
X822427Y2464889D2*
X828400Y2461897D1*
X834270Y2458905D1*
X839791Y2455913D1*
X844752Y2452921D1*
X849355Y2449929D1*
X609995Y2443945D2*
X614390Y2440953D1*
X618971Y2437961D1*
X621963Y2443945D2*
X780539Y2446937D2*
X777547Y2443945D1*
X789515Y2446937D2*
Y2443945D1*
X789527Y2440953D1*
X789632Y2437961D1*
X790025Y2434969D1*
X790847Y2431977D1*
X792007Y2428985D1*
X793351Y2425993D1*
X794788Y2423001D1*
X796270Y2420009D1*
X797865Y2417017D1*
X799741Y2414025D1*
X802009Y2411033D1*
X804475Y2408041D1*
X605852Y727061D2*
X604482Y724069D1*
X603740Y721077D1*
X603488Y718085D1*
X604621Y715093D1*
X606083Y712101D1*
X607357Y709109D1*
X608149Y706117D1*
X608562Y703125D1*
X608855Y700133D1*
X609389Y697141D1*
X610440Y694149D1*
X611836Y691157D1*
X608844Y727061D2*
X607441Y724069D1*
X605852Y721077D1*
X608844Y718085D1*
X632780Y727061D2*
X634182Y724069D1*
X635772Y721077D1*
X632780Y718085D1*
X635772Y727061D2*
X637141Y724069D1*
X637884Y721077D1*
X638135Y718085D1*
X637003Y715093D1*
X635540Y712101D1*
X634267Y709109D1*
X633474Y706117D1*
X633061Y703125D1*
X632769Y700133D1*
X632234Y697141D1*
X631183Y694149D1*
X629788Y691157D1*
X617820Y721077D2*
X614828Y718085D1*
X623804Y721077D2*
X626796Y718085D1*
X572940Y709109D2*
X574437Y706117D1*
X576186Y703125D1*
X578038Y700133D1*
X580186Y697141D1*
X583065Y694149D1*
X586871Y691157D1*
X591438Y688165D1*
X596597Y685173D1*
X602473Y682181D1*
X608844Y679189D1*
X590518Y676197D1*
X572940Y673205D1*
Y670213D1*
X575932Y709109D2*
X578935Y706117D1*
X582044Y703125D1*
X585534Y700133D1*
X589730Y697141D1*
X594635Y694149D1*
X599868Y691157D1*
X665692Y709109D2*
X662688Y706117D1*
X659579Y703125D1*
X656090Y700133D1*
X651894Y697141D1*
X646988Y694149D1*
X641756Y691157D1*
X668684Y709109D2*
X667187Y706117D1*
X665438Y703125D1*
X663586Y700133D1*
X661437Y697141D1*
X658559Y694149D1*
X654752Y691157D1*
X650186Y688165D1*
X645026Y685173D1*
X639150Y682181D1*
X632780Y679189D1*
X651106Y676197D1*
X668684Y673205D1*
Y670213D1*
X593884Y673205D2*
X590892Y670213D1*
X596876Y673205D2*
X602310Y670213D1*
X607244Y667221D1*
X611836Y664229D1*
X606440Y661237D1*
X601698Y658245D1*
X597704Y655253D1*
X594226Y652261D1*
X591035Y649269D1*
X588065Y646277D1*
X585435Y643285D1*
X583265Y640293D1*
X581534Y637301D1*
X580278Y634309D1*
X579544Y631317D1*
X579182Y628325D1*
X579018Y625333D1*
X578924Y622341D1*
X644748Y673205D2*
X639314Y670213D1*
X634380Y667221D1*
X629788Y664229D1*
X635184Y661237D1*
X639926Y658245D1*
X643920Y655253D1*
X647397Y652261D1*
X650588Y649269D1*
X653559Y646277D1*
X656189Y643285D1*
X658359Y640293D1*
X660089Y637301D1*
X661346Y634309D1*
X662079Y631317D1*
X662441Y628325D1*
X662605Y625333D1*
X662700Y622341D1*
X647740Y673205D2*
X650732Y670213D1*
X602860Y652261D2*
X599405Y649269D1*
X595672Y646277D1*
X591917Y643285D1*
X588517Y640293D1*
X585746Y637301D1*
X583529Y634309D1*
X582701Y631317D1*
X582250Y628325D1*
X582038Y625333D1*
X581916Y622341D1*
X605852Y652261D2*
Y649269D1*
Y646277D1*
X605863Y643285D1*
X605969Y640293D1*
X606362Y637301D1*
X607207Y634309D1*
X608585Y631317D1*
X610776Y628325D1*
X614005Y625333D1*
X617820Y622341D1*
X635772Y652261D2*
Y649269D1*
Y646277D1*
X635760Y643285D1*
X635655Y640293D1*
X635262Y637301D1*
X634417Y634309D1*
X633038Y631317D1*
X630847Y628325D1*
X627618Y625333D1*
X623804Y622341D1*
X638764Y652261D2*
X642218Y649269D1*
X645952Y646277D1*
X649707Y643285D1*
X653106Y640293D1*
X655878Y637301D1*
X658094Y634309D1*
X658923Y631317D1*
X659374Y628325D1*
X659585Y625333D1*
X659708Y622341D1*
X817114Y740373D2*
D89*
X813312Y738471D1*
X809465Y734625D1*
X807564Y730822D1*
Y723173D1*
X809465Y719326D1*
X813312Y715523D1*
X817114Y713578D1*
X822862Y711677D1*
X832457D1*
X838161Y713578D1*
X842007Y715523D1*
X845810Y719326D1*
X847756Y723173D1*
Y730822D1*
X845810Y734624D1*
X842008Y738471D1*
X838161Y740373D1*
X815257Y752724D2*
X813312Y756571D1*
X807608Y762319D1*
X847756D1*
X933595Y726824D2*
X973787D1*
Y740221D1*
X971842Y745969D1*
X968039Y749816D1*
X964192Y751717D1*
X958488Y753619D1*
X948894D1*
X943146Y751718D1*
X939343Y749816D1*
X935496Y745969D1*
X933595Y740221D1*
Y726824D1*
X941289Y765970D2*
X939343Y769817D1*
X933639Y775565D1*
X973787D1*
X1063595Y718224D2*
X1103787D1*
Y731621D1*
X1101842Y737369D1*
X1098039Y741216D1*
X1094192Y743118D1*
X1088488Y745019D1*
X1078894D1*
X1073146Y743118D1*
X1069343Y741216D1*
X1065496Y737370D1*
X1063595Y731622D1*
Y718224D1*
X1073190Y759316D2*
X1071289D1*
X1067442Y761217D1*
X1065541Y763118D1*
X1063639Y766965D1*
Y774614D1*
X1065541Y778417D1*
X1067442Y780318D1*
X1071289Y782264D1*
X1075091D1*
X1078938Y780318D1*
X1084642Y776516D1*
X1103787Y757370D1*
Y784165D1*
X464225Y951807D2*
Y911615D1*
X477623D1*
X483371Y913561D1*
X487218Y917363D1*
X489119Y921210D1*
X491020Y926914D1*
Y936508D1*
X489119Y942256D1*
X487218Y946059D1*
X483371Y949906D1*
X477623Y951807D1*
X464225D1*
X507218Y951763D2*
X528221D1*
X516769Y936464D1*
X522517D1*
X526319Y934563D1*
X528221Y932662D1*
X530166Y926914D1*
Y923111D1*
X528221Y917363D1*
X524418Y913516D1*
X518670Y911615D1*
X512922D1*
X507218Y913516D1*
X505317Y915462D1*
X503371Y919264D1*
X458275Y821807D2*
Y781615D1*
X471672D1*
X477420Y783561D1*
X481267Y787363D1*
X483168Y791210D1*
X485069Y796914D1*
Y806508D1*
X483168Y812256D1*
X481267Y816059D1*
X477420Y819906D1*
X471672Y821807D1*
X458275D1*
X516566Y781615D2*
Y821763D1*
X497421Y795012D1*
X526117D1*
X1045519Y919271D2*
X1085711D1*
Y932669D1*
X1083765Y938417D1*
X1079963Y942263D1*
X1076116Y944165D1*
X1070412Y946066D1*
X1060818D1*
X1055069Y944165D1*
X1051267Y942264D1*
X1047420Y938417D1*
X1045519Y932669D1*
Y919271D1*
X1045563Y981365D2*
Y962264D1*
X1062763Y960363D1*
X1060862Y962264D1*
X1058916Y968012D1*
Y973716D1*
X1060862Y979464D1*
X1064664Y983311D1*
X1070412Y985212D1*
X1074215D1*
X1079963Y983311D1*
X1083810Y979464D1*
X1085711Y973716D1*
Y968012D1*
X1083810Y962264D1*
X1081864Y960363D1*
X1078062Y958417D1*
X1049018Y1121425D2*
X1089210D1*
Y1134823D1*
X1087264Y1140571D1*
X1083462Y1144417D1*
X1079615Y1146319D1*
X1073911Y1148220D1*
X1064316D1*
X1058568Y1146319D1*
X1054766Y1144417D1*
X1050919Y1140571D1*
X1049018Y1134823D1*
Y1121425D1*
X1054766Y1183519D2*
X1050963Y1181618D1*
X1049062Y1175870D1*
Y1172067D1*
X1050963Y1166319D1*
X1056711Y1162473D1*
X1066262Y1160571D1*
X1075812D1*
X1083462Y1162473D1*
X1087308Y1166319D1*
X1089210Y1172067D1*
Y1173969D1*
X1087308Y1179672D1*
X1083462Y1183519D1*
X1077714Y1185420D1*
X1075812D1*
X1070064Y1183519D1*
X1066262Y1179672D1*
X1064360Y1173969D1*
Y1172067D1*
X1066262Y1166319D1*
X1070064Y1162473D1*
X1075812Y1160571D1*
X835576Y683351D2*
Y652754D1*
X833675Y647006D1*
X831729Y645104D1*
X827927Y643159D1*
X824080D1*
X820278Y645104D1*
X818376Y647006D1*
X816431Y652754D1*
Y656556D1*
X847928Y675657D2*
X851774Y677603D1*
X857522Y683307D1*
Y643159D1*
X446693Y2507398D2*
Y2476800D1*
X444792Y2471052D1*
X442846Y2469151D1*
X439043Y2467206D1*
X435197D1*
X431394Y2469151D1*
X429493Y2471052D1*
X427547Y2476800D1*
Y2480603D1*
X460990Y2497803D2*
Y2499704D1*
X462891Y2503551D1*
X464792Y2505452D1*
X468639Y2507353D1*
X476288D1*
X480091Y2505452D1*
X481992Y2503551D1*
X483938Y2499704D1*
Y2495902D1*
X481992Y2492055D1*
X478190Y2486351D1*
X459044Y2467206D1*
X485839D1*
X446693Y1836925D2*
Y1806328D1*
X444792Y1800580D1*
X442846Y1798679D1*
X439043Y1796733D1*
X435197D1*
X431394Y1798679D1*
X429493Y1800580D1*
X427547Y1806328D1*
Y1810130D1*
X462891Y1836881D2*
X483893D1*
X472442Y1821582D1*
X478190D1*
X481992Y1819681D1*
X483893Y1817780D1*
X485839Y1812032D1*
Y1808229D1*
X483893Y1802481D1*
X480091Y1798634D1*
X474343Y1796733D1*
X468595D1*
X462891Y1798634D1*
X460990Y1800580D1*
X459044Y1804382D1*
X1698661Y2107398D2*
Y2076800D1*
X1696760Y2071052D1*
X1694815Y2069151D1*
X1691012Y2067206D1*
X1687165D1*
X1683363Y2069151D1*
X1681461Y2071052D1*
X1679516Y2076800D1*
Y2080603D1*
X1733961Y2107353D2*
X1714859D1*
X1712958Y2090153D1*
X1714859Y2092055D1*
X1720607Y2094000D1*
X1726311D1*
X1732059Y2092055D1*
X1735906Y2088252D1*
X1737807Y2082504D1*
Y2078702D1*
X1735906Y2072954D1*
X1732059Y2069107D1*
X1726311Y2067206D1*
X1720607D1*
X1714859Y2069107D1*
X1712958Y2071052D1*
X1711013Y2074855D1*
X1363461Y1130594D2*
X1359658Y1128737D1*
X1355812Y1124891D1*
X1353910Y1121044D1*
X1351965Y1115296D1*
Y1105745D1*
X1353910Y1099997D1*
X1355812Y1096195D1*
X1359658Y1092348D1*
X1363461Y1090447D1*
X1371110D1*
X1374957Y1092348D1*
X1378760Y1096195D1*
X1380661Y1099997D1*
X1382606Y1105745D1*
Y1115296D1*
X1380661Y1121044D1*
X1378760Y1124891D1*
X1374957Y1128737D1*
X1371110Y1130594D1*
X1363461D1*
X1369209Y1098096D2*
X1380661Y1086600D1*
X1394958Y1122901D2*
X1398805Y1124846D1*
X1404553Y1130550D1*
Y1090402D1*
X1384242Y1294374D2*
X1380439Y1292517D1*
X1376592Y1288670D1*
X1374691Y1284823D1*
X1372746Y1279075D1*
Y1269525D1*
X1374691Y1263777D1*
X1376592Y1259974D1*
X1380439Y1256127D1*
X1384242Y1254226D1*
X1391891D1*
X1395738Y1256127D1*
X1399540Y1259974D1*
X1401442Y1263777D1*
X1403387Y1269525D1*
Y1279075D1*
X1401442Y1284823D1*
X1399540Y1288670D1*
X1395738Y1292517D1*
X1391891Y1294374D1*
X1384242D1*
X1389990Y1261875D2*
X1401442Y1250379D1*
X1417684Y1284779D2*
Y1286680D1*
X1419585Y1290527D1*
X1421486Y1292428D1*
X1425333Y1294330D1*
X1432982D1*
X1436785Y1292428D1*
X1438686Y1290527D1*
X1440632Y1286680D1*
Y1282878D1*
X1438686Y1279031D1*
X1434884Y1273327D1*
X1415738Y1254182D1*
X1442533D1*
X1196903Y1126610D2*
Y1143810D1*
X1194958Y1149558D1*
X1193056Y1151503D1*
X1189254Y1153405D1*
X1185407D1*
X1181605Y1151503D1*
X1179659Y1149558D1*
X1177758Y1143810D1*
Y1126610D1*
X1217950D1*
X1196903Y1140007D2*
X1217950Y1153405D1*
Y1173405D2*
X1177802Y1192551D1*
Y1165756D1*
X1196816Y925714D2*
X1196817Y942913D1*
X1194871Y948661D1*
X1192970Y950607D1*
X1189167Y952508D1*
X1185320D1*
X1181518Y950607D1*
X1179572Y948661D1*
X1177671Y942913D1*
Y925714D1*
X1217863D1*
X1196817Y939111D2*
X1217863Y952508D1*
X1177715Y974410D2*
X1179617Y968706D1*
X1183419Y966761D1*
X1187266D1*
X1191068Y968706D1*
X1193014Y972509D1*
X1194915Y980158D1*
X1196817Y985906D1*
X1200663Y989709D1*
X1204466Y991610D1*
X1210214D1*
X1214016Y989709D1*
X1215962Y987807D1*
X1217863Y982059D1*
Y974410D1*
X1215962Y968706D1*
X1214016Y966761D1*
X1210214Y964859D1*
X1204466D1*
X1200663Y966761D1*
X1196817Y970608D1*
X1194915Y976311D1*
X1193014Y983961D1*
X1191068Y987807D1*
X1187266Y989709D1*
X1183419D1*
X1179617Y987807D1*
X1177715Y982059D1*
Y974410D1*
X1701571Y1411755D2*
X1697769Y1415601D1*
X1692021Y1417503D1*
X1684372D1*
X1678624Y1415601D1*
X1674777Y1411755D1*
Y1407952D1*
X1676722Y1404105D1*
X1678624Y1402204D1*
X1682426Y1400303D1*
X1693922Y1396456D1*
X1697769Y1394555D1*
X1699670Y1392609D1*
X1701571Y1388807D1*
Y1383059D1*
X1697769Y1379256D1*
X1692021Y1377311D1*
X1684372D1*
X1678624Y1379256D1*
X1674777Y1383059D1*
X1713923Y1409809D2*
X1717770Y1411755D1*
X1723518Y1417458D1*
Y1377311D1*
X1063307Y2443303D2*
Y2414607D1*
X1065208Y2408859D1*
X1069055Y2405057D1*
X1074803Y2403111D1*
X1078606D1*
X1084354Y2405057D1*
X1088200Y2408859D1*
X1090102Y2414607D1*
Y2443303D1*
X1102453Y2435610D2*
X1106300Y2437555D1*
X1112048Y2443259D1*
Y2403111D1*
X1054707Y2799959D2*
Y2771263D1*
X1056608Y2765515D1*
X1060455Y2761713D1*
X1066203Y2759767D1*
X1070006D1*
X1075754Y2761713D1*
X1079600Y2765515D1*
X1081502Y2771263D1*
Y2799959D1*
X1095799Y2790364D2*
Y2792266D1*
X1097700Y2796112D1*
X1099601Y2798014D1*
X1103448Y2799915D1*
X1111097D1*
X1114900Y2798014D1*
X1116801Y2796112D1*
X1118746Y2792266D1*
Y2788463D1*
X1116801Y2784616D1*
X1112998Y2778913D1*
X1093853Y2759767D1*
X1120648D1*
X1175674Y557269D2*
X1204370D1*
X1210118Y559170D1*
X1213920Y563017D1*
X1215866Y568765D1*
Y572567D1*
X1213920Y578315D1*
X1210118Y582162D1*
X1204370Y584063D1*
X1175674D1*
X1175718Y600262D2*
Y621264D1*
X1191017Y609812D1*
Y615560D1*
X1192918Y619363D1*
X1194819Y621264D1*
X1200567Y623209D1*
X1204370D1*
X1210118Y621264D1*
X1213964Y617461D1*
X1215866Y611713D1*
Y605965D1*
X1213964Y600262D1*
X1212019Y598360D1*
X1208216Y596415D1*
X1345117Y759227D2*
X1373813D1*
X1379561Y761128D1*
X1383364Y764975D1*
X1385309Y770723D1*
Y774525D1*
X1383364Y780273D1*
X1379561Y784120D1*
X1373813Y786021D1*
X1345117D1*
X1345162Y821321D2*
Y802220D1*
X1362361Y800318D1*
X1360460Y802220D1*
X1358515Y807968D1*
Y813671D1*
X1360460Y819419D1*
X1364263Y823266D1*
X1370011Y825167D1*
X1373813D1*
X1379561Y823266D1*
X1383408Y819419D1*
X1385309Y813671D1*
Y807968D1*
X1383408Y802220D1*
X1381463Y800318D1*
X1377660Y798373D1*
X795890Y1270652D2*
Y1241956D1*
X797791Y1236208D1*
X801638Y1232406D1*
X807386Y1230460D1*
X811188D1*
X816936Y1232406D1*
X820783Y1236208D1*
X822684Y1241956D1*
Y1270652D1*
X857984Y1264904D2*
X856082Y1268707D1*
X850334Y1270608D1*
X846532D1*
X840784Y1268707D1*
X836937Y1262959D1*
X835036Y1253408D1*
Y1243857D1*
X836937Y1236208D1*
X840784Y1232361D1*
X846532Y1230460D1*
X848433D1*
X854137Y1232361D1*
X857984Y1236208D1*
X859885Y1241956D1*
Y1243857D1*
X857984Y1249606D1*
X854137Y1253408D1*
X848433Y1255309D1*
X846532D1*
X840784Y1253408D1*
X836937Y1249606D1*
X835036Y1243857D1*
M02*
